<?xml version="1.0" standalone="no"?>
<!DOCTYPE svg PUBLIC "-//W3C//DTD SVG 20010904//EN"
 "http://www.w3.org/TR/2001/REC-SVG-20010904/DTD/svg10.dtd">
<svg version="1.0" xmlns="http://www.w3.org/2000/svg"
 width="512.000000pt" height="512.000000pt" viewBox="0 0 512.000000 512.000000"
 preserveAspectRatio="xMidYMid meet">
<metadata>
Created by potrace 1.16, written by Peter Selinger 2001-2019
</metadata>
<g transform="translate(0.000000,512.000000) scale(0.100000,-0.100000)"
fill="#000000" stroke="none">
<path d="M28 5037 c-23 -69 -28 -100 -28 -185 0 -56 3 -102 6 -102 4 0 32 22
63 48 82 71 144 114 151 105 4 -5 21 -46 38 -93 17 -47 34 -94 38 -104 7 -18
4 -17 -25 5 -95 70 -85 58 57 -68 39 -35 72 -70 72 -76 0 -21 -49 -117 -59
-117 -6 0 -47 23 -91 51 -44 28 -83 50 -85 47 -3 -3 116 -94 153 -117 11 -7
10 -16 -7 -47 -11 -22 -28 -49 -38 -61 -18 -22 -19 -22 -78 -7 -33 9 -75 27
-93 40 -17 14 -32 22 -32 18 0 -11 49 -75 92 -120 l39 -40 -66 -77 c-36 -43
-81 -87 -100 -100 l-35 -22 0 -90 0 -90 30 64 c17 35 33 62 35 59 5 -4 -32
-97 -56 -140 -5 -10 -9 -37 -9 -60 0 -42 2 -44 55 -72 58 -30 95 -70 113 -125
10 -28 10 -32 -3 -21 -11 9 -135 22 -135 14 0 -1 30 -11 67 -23 38 -11 73 -24
80 -28 6 -5 14 -30 18 -57 7 -44 6 -48 -11 -43 -11 3 -50 8 -89 11 -76 7 -73
-7 5 -18 108 -16 101 -12 98 -69 -3 -45 -6 -52 -23 -49 -10 2 -25 11 -33 20
-13 16 -13 16 -8 0 5 -16 -1 -17 -54 -11 -42 4 -60 2 -60 -6 0 -6 13 -11 30
-11 41 0 129 -20 135 -30 9 -15 -37 -224 -52 -236 -7 -6 -13 -27 -13 -46 0
-19 -3 -69 -6 -111 -6 -65 -10 -76 -28 -82 -21 -8 -21 -8 0 -12 19 -4 20 -8
12 -80 -5 -42 -10 -79 -13 -81 -2 -3 -7 14 -11 37 -10 59 -17 42 -15 -33 2
-72 -7 -119 -20 -110 -5 3 -9 24 -10 47 0 23 -7 65 -14 92 -13 49 -13 47 -12
-66 1 -115 1 -115 24 -111 18 3 23 0 23 -16 0 -11 3 -27 6 -35 4 -11 -4 -17
-25 -22 -21 -4 -31 -13 -31 -26 0 -16 4 -17 26 -9 60 23 164 3 237 -46 35 -23
39 -29 22 -32 -46 -7 -156 -35 -152 -38 2 -2 43 1 92 7 80 9 91 8 107 -8 19
-20 52 -105 63 -165 7 -38 7 -38 -27 -38 -19 0 -43 -6 -54 -14 -17 -13 -13
-14 37 -9 l56 5 12 -73 c7 -41 15 -131 18 -202 5 -114 4 -127 -10 -127 -24 0
-21 -17 4 -25 15 -5 19 -12 15 -28 -3 -12 -6 -46 -6 -74 l0 -53 -71 0 c-49 0
-68 -3 -63 -11 4 -7 21 -9 41 -6 19 4 48 3 64 0 26 -5 29 -10 29 -43 0 -20 -3
-58 -6 -83 -6 -44 -9 -47 -43 -52 -20 -3 -54 -10 -76 -14 -36 -8 -32 -9 36
-10 80 -1 89 -6 89 -50 0 -14 -13 -20 -57 -28 l-58 -10 52 -2 c59 -1 57 2 68
-126 4 -38 9 -77 11 -86 3 -12 -4 -18 -25 -21 -17 -2 -28 -1 -25 3 2 4 0 10
-6 14 -6 3 -19 23 -30 43 -19 35 -20 36 -14 7 4 -16 13 -43 21 -59 12 -23 12
-27 1 -24 -7 2 -23 36 -36 74 -117 361 -118 364 -102 368 8 3 42 10 75 18 55
12 57 13 24 16 -20 2 -55 -4 -79 -12 -25 -8 -45 -14 -46 -13 -17 23 -93 177
-122 248 -22 52 -51 117 -66 144 l-26 50 4 -55 c2 -30 12 -77 22 -103 l19 -48
-25 -20 c-24 -20 -24 -21 -2 -16 28 6 29 -12 2 -72 -16 -35 -20 -65 -20 -159
0 -111 1 -114 18 -99 10 10 21 17 24 17 12 0 -4 -39 -23 -56 -26 -23 -26 -95
0 -118 17 -16 19 -14 40 40 11 31 19 60 15 65 -3 5 -1 9 3 9 5 0 7 16 5 36 -5
38 15 114 30 114 8 0 2 -35 -13 -78 -19 -51 -7 -53 18 -2 l27 54 13 -31 c11
-27 9 -38 -12 -93 -25 -65 -68 -138 -118 -202 -16 -21 -27 -43 -25 -48 4 -12
134 164 161 216 9 17 23 36 31 43 29 24 19 -21 -19 -84 -41 -67 -40 -84 1 -28
39 54 44 59 44 47 0 -14 -71 -96 -77 -90 -3 2 -31 -26 -64 -64 -32 -38 -63
-72 -69 -75 -6 -4 -10 -60 -9 -143 l1 -137 13 77 c16 92 22 106 39 82 11 -15
14 -11 24 29 7 25 12 61 13 79 0 18 5 42 10 53 6 13 8 -20 6 -98 -4 -144 11
-131 25 21 5 59 11 109 14 111 5 5 7 -39 5 -99 -2 -44 -1 -43 54 69 55 111 79
139 55 64 -7 -21 -26 -65 -43 -98 -16 -33 -38 -84 -49 -114 -10 -30 -25 -65
-33 -78 -8 -12 -25 -48 -37 -80 -17 -47 -23 -54 -29 -38 -4 11 -8 47 -8 80 -1
33 -6 67 -12 75 -7 11 -8 -19 -4 -100 5 -91 3 -123 -9 -155 l-16 -40 1 35 c2
61 0 67 -11 50 -5 -8 -9 -66 -9 -130 l1 -115 18 72 c10 39 44 123 74 185 l56
113 -3 -90 c-4 -97 -12 -121 -71 -198 -19 -25 -29 -44 -21 -40 28 10 9 -35
-33 -79 -14 -15 -23 -30 -20 -33 10 -10 61 39 95 92 19 30 37 53 39 50 7 -7
-34 -106 -57 -138 -11 -16 -33 -36 -49 -46 -27 -15 -30 -23 -30 -67 0 -47 1
-49 15 -30 15 18 16 17 10 -13 l-7 -33 71 0 c39 0 71 4 71 9 0 5 4 21 10 36
l10 26 40 -21 c22 -11 40 -27 40 -35 0 -8 9 -15 20 -15 24 0 24 0 1 75 -32
103 -32 119 -8 135 12 7 51 24 87 37 l65 23 -55 -6 c-30 -3 -70 -13 -89 -20
-19 -8 -36 -12 -38 -10 -12 12 -32 174 -33 262 0 232 82 329 293 341 120 7
182 -7 237 -55 24 -20 53 -59 66 -86 27 -59 32 -119 10 -110 -8 3 -12 12 -9
21 5 13 0 14 -28 8 -19 -3 -50 -12 -69 -18 -34 -11 -34 -12 37 -17 40 -4 74
-8 76 -11 2 -2 7 -41 10 -86 l6 -83 -42 0 c-23 0 -64 -7 -92 -15 l-50 -15 71
6 c40 3 83 2 98 -2 33 -8 40 -33 63 -224 l18 -145 47 -3 46 -3 -9 38 c-5 21
-8 54 -8 73 l1 35 8 -35 c4 -19 11 -52 14 -72 5 -25 12 -38 22 -38 13 0 15 8
10 43 l-6 42 16 -43 c9 -24 22 -42 31 -42 10 0 13 5 8 18 -12 30 -19 146 -8
139 6 -4 26 -40 44 -82 22 -48 40 -75 50 -75 14 0 15 7 3 68 -7 37 -13 92 -13
122 l0 55 16 -30 c8 -16 31 -47 51 -67 l35 -37 44 42 c24 23 66 64 94 91 28
26 53 45 56 42 4 -3 -1 -14 -9 -23 -9 -10 -23 -34 -33 -53 -10 -18 -24 -40
-31 -47 -7 -7 -25 -36 -40 -63 -15 -27 -31 -47 -37 -43 -6 3 -7 1 -4 -4 4 -6
0 -16 -8 -23 -8 -7 -15 -16 -15 -21 0 -5 63 -9 140 -9 77 0 140 3 140 8 0 4
-7 50 -15 102 -8 52 -15 112 -15 134 l0 38 109 -4 c60 -2 108 -2 106 1 -10 9
-125 31 -168 31 -29 0 -49 5 -51 13 -3 6 -7 50 -11 96 -5 81 -5 84 12 69 16
-14 143 -34 143 -23 0 2 -21 13 -47 25 -26 11 -62 32 -81 47 l-35 26 6 200 c4
110 11 205 16 210 5 5 39 3 86 -7 108 -22 132 -19 55 8 -80 28 -130 53 -130
66 0 28 23 159 30 170 7 11 18 11 67 0 32 -7 65 -15 73 -18 41 -14 -12 18 -63
38 -33 13 -61 29 -64 36 -6 15 31 143 54 189 46 91 146 165 222 165 50 0 103
-16 143 -44 23 -15 55 -25 91 -28 94 -8 182 -85 208 -182 16 -57 6 -203 -21
-312 l-23 -91 -46 14 c-76 23 -231 53 -270 52 l-36 -1 40 -10 c72 -18 299 -79
302 -81 3 -4 -25 -113 -48 -185 l-21 -62 -84 0 c-61 0 -117 8 -205 31 -175 44
-179 31 -5 -20 131 -38 157 -43 220 -39 l72 5 -32 -116 c-17 -64 -37 -149 -45
-190 l-13 -73 -45 5 c-25 3 -55 2 -66 -2 -15 -6 -4 -10 41 -15 l60 -8 -33
-125 c-18 -69 -36 -129 -39 -134 -3 -5 15 -9 39 -9 41 0 46 3 61 34 9 19 16
48 16 65 0 17 5 31 10 31 17 0 12 -97 -5 -104 -28 -10 -15 -24 21 -24 l37 0
-5 131 c-3 73 -2 116 2 97 5 -22 7 -3 4 55 -4 89 -3 90 11 47 7 -23 17 -107
21 -187 6 -128 9 -145 24 -145 16 0 18 17 22 168 3 92 8 174 12 184 6 13 14
14 38 7 17 -4 33 -10 35 -13 3 -3 -7 -40 -21 -83 -24 -71 -56 -215 -56 -249 0
-8 8 -14 19 -14 15 0 27 23 59 118 22 64 50 139 61 166 19 44 24 48 49 44 15
-3 35 -9 45 -13 9 -4 17 -3 17 2 0 15 -68 43 -87 36 -12 -5 -7 11 21 63 60
110 54 107 165 84 52 -11 96 -18 99 -15 5 5 8 4 -103 38 -92 28 -93 32 -45
107 l32 50 57 -6 c62 -7 62 5 -1 26 -43 13 -44 14 -22 65 15 36 17 37 52 31
20 -3 48 -9 61 -13 42 -11 15 13 -36 32 -26 10 -49 19 -51 20 -2 2 2 33 9 70
8 48 14 64 22 56 6 -6 20 -11 31 -11 19 1 18 3 -8 26 -26 23 -28 30 -23 72 3
26 13 80 22 121 l17 74 67 -6 c62 -5 64 -4 36 8 -16 8 -45 17 -62 21 -35 7
-38 11 -24 33 7 10 25 12 77 8 65 -6 67 -6 39 8 -16 8 -45 17 -62 21 -18 3
-33 12 -33 19 0 7 20 40 44 72 57 78 123 113 210 113 37 -1 71 -7 86 -16 l25
-15 -25 6 c-14 4 -41 9 -60 12 -45 5 -24 -8 50 -32 108 -34 116 -40 146 -101
36 -74 44 -189 20 -284 -9 -36 -21 -69 -25 -73 -5 -5 -41 3 -81 17 -82 30
-222 68 -227 62 -2 -2 36 -18 84 -35 105 -38 213 -82 213 -88 0 -2 -15 -38
-34 -79 l-35 -74 -57 2 c-38 2 -58 -1 -61 -9 -3 -10 11 -13 50 -13 l56 0 -32
-48 c-18 -26 -57 -89 -87 -140 -63 -105 -53 -102 -197 -73 -51 9 -90 14 -87
10 5 -9 119 -44 177 -54 20 -4 37 -11 37 -15 0 -4 -15 -34 -33 -66 l-33 -59
-47 2 c-57 2 -62 -14 -8 -23 27 -4 38 -10 34 -20 -3 -9 -11 -10 -29 -4 -13 5
-31 7 -40 3 -11 -4 -6 -10 20 -22 l36 -16 -28 -48 -28 -47 -40 30 c-21 16 -43
30 -48 30 -15 0 45 -59 66 -66 17 -5 16 -10 -13 -62 -18 -31 -34 -59 -35 -61
-2 -2 -17 8 -35 23 -35 30 -89 60 -95 53 -2 -2 21 -24 51 -48 56 -45 67 -65
40 -75 -37 -14 -8 -24 69 -24 l85 0 3 53 4 52 8 -52 c14 -85 31 -66 28 29 -3
73 1 92 27 158 35 89 38 86 11 -12 -22 -81 -25 -102 -9 -74 15 24 40 148 34
164 -2 6 0 12 6 12 6 0 9 6 6 13 -2 6 0 23 5 37 13 36 90 170 98 170 6 0 40
-98 40 -116 0 -5 -20 -34 -45 -64 -65 -79 -103 -157 -120 -246 -9 -44 -18 -89
-21 -101 -3 -18 0 -23 16 -23 15 0 20 7 20 25 0 14 8 46 18 72 24 62 134 241
140 225 5 -15 -37 -106 -83 -182 -40 -65 -69 -140 -55 -140 5 0 19 22 30 49
12 27 35 61 51 77 34 32 37 23 8 -25 -22 -37 -19 -51 8 -31 10 7 -2 -6 -27
-29 l-45 -41 55 2 55 2 18 106 c10 58 27 159 37 225 11 66 28 145 38 175 37
107 32 136 -6 33 -20 -56 -45 -110 -55 -120 -16 -16 -17 -16 -17 17 0 19 -11
60 -23 90 l-23 56 33 69 34 70 -5 -145 c-5 -159 7 -163 23 -8 11 98 53 266 59
235 2 -10 -3 -39 -12 -64 -9 -26 -16 -51 -16 -57 1 -21 48 103 55 143 7 40 48
104 129 196 35 40 35 40 27 10 -21 -72 -111 -364 -124 -400 -19 -55 -29 -107
-18 -101 5 3 12 18 15 33 27 114 182 501 219 548 44 54 0 -81 -98 -305 -126
-286 -153 -356 -178 -461 -34 -139 -43 -203 -15 -107 13 42 28 83 35 89 27 27
22 -22 -17 -167 -22 -82 -40 -152 -40 -156 0 -5 16 -8 35 -8 21 0 35 5 35 12
0 9 3 9 12 0 7 -7 32 -12 55 -12 41 0 43 1 32 21 -7 14 -8 52 -4 116 4 53 11
90 15 82 4 -8 15 -59 26 -114 10 -55 20 -90 22 -79 2 12 -11 88 -27 170 -35
165 -36 173 -21 158 15 -15 47 -134 60 -222 17 -118 20 -132 36 -132 9 0 12 8
9 28 -3 15 -9 68 -15 119 -6 51 -14 102 -20 115 l-9 23 -1 -25 c-1 -14 -12 10
-25 55 -25 86 -26 103 -1 58 15 -28 15 -27 16 40 0 53 3 67 15 67 12 0 15 -14
15 -67 1 -40 9 -91 20 -123 10 -30 16 -58 13 -62 -7 -13 20 -228 29 -228 4 0
8 13 8 28 0 16 7 51 15 78 9 27 20 119 25 205 10 162 43 425 62 494 l11 40 8
-35 c4 -19 11 -124 15 -233 4 -110 10 -193 14 -185 10 18 33 285 33 383 0 44
-6 113 -13 154 l-14 74 32 27 c18 15 61 38 97 52 60 24 64 25 54 7 -5 -11 -35
-32 -65 -47 -52 -25 -55 -29 -50 -57 3 -16 9 -104 12 -195 8 -200 -10 -345
-61 -495 -19 -55 -48 -144 -63 -197 l-29 -98 78 0 c85 0 98 10 59 45 -13 12
-20 31 -20 55 0 34 3 38 41 50 51 17 122 67 114 80 -10 16 -53 11 -96 -11 -24
-12 -38 -15 -33 -8 4 8 7 25 6 40 -1 15 6 33 18 44 17 15 19 26 15 64 -5 39
-1 57 29 119 19 39 37 72 40 72 2 0 0 -17 -5 -37 -5 -21 -9 -69 -9 -106 0 -62
4 -74 40 -134 45 -75 57 -133 43 -216 -9 -55 -8 -58 11 -55 17 2 26 19 43 78
12 41 22 89 22 107 1 53 18 46 25 -10 6 -48 -2 -114 -20 -160 -5 -15 3 -17 65
-17 39 0 71 2 71 3 0 2 -9 30 -20 63 -30 84 -68 272 -80 390 -23 222 40 387
169 442 82 36 212 54 329 46 95 -6 107 -9 145 -38 43 -32 103 -133 95 -158 -3
-7 -14 8 -25 33 -23 52 -85 125 -114 134 -22 7 -109 -29 -109 -45 0 -7 8 -9
22 -4 90 29 111 25 152 -29 66 -86 107 -221 92 -301 -6 -30 -11 -36 -31 -36
-14 0 -25 -4 -25 -9 0 -11 25 -21 51 -21 18 0 19 -6 13 -102 -7 -127 -7 -128
-41 -128 -15 0 -73 -12 -128 -25 l-100 -25 65 5 c36 3 95 8 133 11 l67 7 0
-107 0 -106 38 0 38 0 -4 109 c-2 60 -1 126 2 147 l7 37 25 -36 c22 -33 24
-46 24 -146 l0 -111 35 0 c30 0 35 4 41 28 25 114 69 227 97 251 21 17 21 43
2 120 -14 54 -14 63 0 97 8 20 15 60 14 88 l-1 51 -13 -30 -14 -30 -1 28 c0
16 8 58 17 93 14 54 15 71 5 109 -9 34 -9 51 -1 66 6 12 8 23 6 26 -3 2 -18
-19 -33 -47 -16 -29 -30 -47 -32 -40 -5 13 45 160 59 175 5 5 9 44 9 86 l0 77
-92 -48 c-83 -43 -148 -67 -148 -54 0 3 12 28 26 57 49 96 104 174 159 226
l55 52 0 77 c-1 70 -2 75 -16 57 -8 -11 -29 -40 -47 -65 -18 -24 -53 -60 -77
-78 -25 -19 -49 -46 -55 -61 -5 -15 -13 -29 -17 -29 -22 -5 -28 0 -28 23 0 14
-6 34 -12 45 -17 26 0 42 138 133 59 40 110 79 113 87 3 12 -1 11 -20 -3 -13
-9 -46 -30 -73 -45 -98 -55 -222 -140 -252 -173 -43 -48 -145 -193 -184 -261
-34 -61 -41 -69 -34 -41 14 65 36 148 46 171 12 29 14 38 16 65 3 27 92 117
170 170 67 47 206 112 290 137 40 13 59 40 27 40 -24 0 -209 -76 -254 -104
l-41 -26 0 46 c0 39 3 45 17 40 9 -4 38 -9 63 -11 l45 -5 -62 22 c-40 14 -65
29 -69 41 -3 10 -3 126 1 258 9 274 -5 249 121 223 42 -8 78 -13 81 -10 3 3
-36 17 -87 33 l-92 27 6 44 c9 66 63 160 109 190 31 21 56 27 108 30 49 3 69
8 69 17 0 8 -10 15 -22 17 -18 2 -24 11 -26 36 -3 29 -1 32 22 32 l26 0 0 99
c0 133 -26 220 -84 277 -22 23 -47 43 -55 46 -31 9 -2 37 46 44 84 12 94 25
16 19 l-73 -5 0 34 c0 18 -3 53 -6 77 l-6 44 58 -3 c43 -2 55 0 44 7 -8 6 -34
11 -57 11 -48 0 -45 -4 -63 110 -14 91 -12 146 5 215 9 33 18 61 20 63 2 3 33
0 70 -5 36 -5 65 -6 65 -3 0 13 -87 32 -109 25 -22 -7 -22 -6 -6 32 19 46 67
97 106 114 28 11 29 14 29 84 0 39 -5 87 -11 104 -9 24 -9 35 0 44 6 6 11 38
11 70 l0 59 -47 -40 c-48 -39 -111 -77 -119 -70 -2 2 20 45 48 96 32 58 63
100 84 114 19 13 34 29 34 36 0 9 -9 7 -29 -7 l-29 -21 29 73 c17 42 28 91 28
117 0 44 -1 44 -33 -45 -70 -189 -195 -455 -257 -547 -43 -62 -46 -76 -24 -84
29 -12 48 -89 42 -177 -4 -62 -2 -76 6 -57 5 14 10 79 11 146 l1 121 30 -10
c17 -5 34 -14 39 -18 16 -14 -1 -21 -23 -10 -21 11 -21 11 1 -25 l21 -36 -26
-86 c-14 -48 -31 -106 -37 -129 -6 -23 -28 -64 -50 -92 -22 -28 -40 -53 -40
-56 0 -4 21 12 47 34 26 22 49 38 52 36 2 -3 -18 -28 -45 -57 -54 -57 -123
-148 -144 -188 -16 -33 -4 -21 84 88 108 131 98 99 -16 -56 -38 -51 -75 -95
-82 -98 -17 -6 -108 -120 -129 -160 -14 -27 -20 -30 -52 -26 l-36 4 24 27 c14
14 45 58 70 97 57 90 81 107 39 28 l-31 -59 27 32 c15 18 49 68 76 113 26 45
63 101 82 126 35 45 42 60 23 49 -5 -4 1 15 15 42 16 31 31 85 41 155 18 121
13 158 -30 220 l-25 36 39 84 c21 45 46 110 56 143 14 48 31 221 35 348 0 16
3 16 41 -3 36 -19 39 -23 27 -38 -11 -15 -11 -15 3 -5 8 7 25 10 36 7 15 -4
25 0 32 14 15 28 5 49 -42 99 -54 57 -81 137 -59 179 12 24 58 87 93 127 3 5
25 -1 48 -12 50 -26 55 -9 6 20 -19 12 -35 25 -35 30 0 5 16 26 35 48 l35 38
0 157 c0 86 -4 156 -9 156 -10 0 -33 -82 -36 -130 -2 -36 -87 -267 -124 -337
-56 -107 23 158 84 281 19 38 33 72 30 74 -7 7 -70 -128 -109 -231 -21 -56
-40 -127 -43 -164 -9 -96 -28 -53 -26 62 1 98 20 168 86 320 54 124 54 125 15
125 -31 0 -34 -3 -45 -47 -6 -27 -22 -70 -34 -98 l-23 -50 -8 65 c-3 36 -4 80
-1 98 5 32 5 32 -36 32 l-41 0 0 -84 c0 -79 -1 -85 -22 -92 -38 -11 -112 -58
-100 -62 7 -2 36 8 66 21 54 25 54 25 60 5 8 -31 -11 -116 -34 -154 -20 -32
-20 -33 -1 -39 24 -7 47 -64 61 -147 16 -102 17 -100 -40 -69 -34 18 -50 32
-50 46 -1 11 -7 31 -16 45 -15 25 -15 25 -8 -9 9 -47 -10 -55 -66 -26 -25 13
-66 28 -90 35 -66 17 -119 52 -170 112 -28 33 -36 46 -20 35 29 -20 111 -22
154 -4 26 12 21 13 -57 12 -66 0 -90 4 -102 16 -15 15 -9 17 77 30 l93 14
-107 3 -106 3 -32 49 c-17 27 -28 55 -24 61 10 16 142 76 254 115 81 28 89 33
59 33 -20 1 -68 -8 -105 -20 -76 -23 -304 -142 -431 -225 -46 -29 -97 -61
-115 -70 -30 -16 -32 -16 -19 -1 7 10 10 17 7 17 -12 0 -95 -60 -147 -106 -27
-24 -53 -44 -58 -44 -4 0 -18 12 -32 26 l-24 26 35 32 c20 18 108 74 197 124
301 171 408 220 585 266 l93 25 -77 1 c-61 0 -95 -6 -165 -31 -48 -17 -92 -35
-98 -40 -19 -18 -36 -8 -51 32 -15 36 -20 40 -49 37 -26 -2 -55 -27 -166 -143
-124 -130 -173 -175 -191 -175 -5 0 7 21 26 48 19 26 39 65 45 87 8 30 30 57
88 112 l78 72 -32 1 c-25 0 -36 -6 -47 -27 -19 -37 -86 -99 -168 -156 l-66
-47 31 88 c17 48 34 88 38 90 3 1 4 14 1 27 -4 24 -6 25 -97 25 l-93 0 8 -37
c6 -24 4 -67 -5 -118 -7 -44 -16 -105 -19 -137 -3 -31 -9 -63 -12 -72 -8 -20
-60 -21 -68 -1 -6 17 12 343 20 356 3 5 -3 9 -14 9 -25 0 -32 -49 -32 -230 l0
-136 -35 -17 c-32 -15 -36 -15 -42 -1 -3 8 -1 88 6 177 15 219 16 207 -15 207
-17 0 -28 -6 -31 -20 -7 -25 -8 -25 -44 1 -47 33 -56 16 -10 -20 29 -23 41
-40 41 -58 0 -22 -3 -24 -22 -19 -13 4 -41 9 -63 12 l-40 6 53 -26 c30 -15 52
-32 52 -41 0 -9 -7 -45 -16 -80 l-16 -64 -52 29 c-47 27 -136 63 -136 56 0 -2
36 -24 80 -50 45 -26 83 -53 86 -60 4 -11 -27 -103 -42 -124 -1 -2 -29 6 -63
18 -87 29 -96 23 -19 -13 l67 -32 -28 -40 c-20 -29 -34 -39 -50 -37 -13 1 -82
29 -155 63 -151 70 -166 75 -166 60 0 -6 6 -11 13 -11 8 0 78 -32 157 -71 78
-39 154 -75 169 -78 42 -12 -118 -50 -256 -61 -166 -14 -244 -28 -353 -62
-160 -51 -282 -123 -410 -243 -44 -41 -67 -58 -56 -41 27 43 220 261 300 339
94 92 263 226 328 260 50 26 45 20 -87 -108 -77 -75 -169 -157 -205 -182 -90
-65 -116 -87 -148 -125 -19 -24 -8 -17 42 24 88 72 160 110 268 142 88 25 280
52 298 41 5 -3 17 -2 26 3 13 7 2 11 -40 16 l-56 7 0 80 c0 99 16 169 39 169
9 0 33 -5 54 -11 64 -17 64 -4 1 21 -32 13 -61 25 -63 26 -4 4 69 217 78 227
4 4 29 1 56 -7 40 -13 46 -13 34 -1 -8 8 -26 20 -41 28 l-27 14 20 21 20 22
-63 0 -63 0 4 -46 3 -46 29 43 c16 24 29 40 29 35 0 -4 -21 -40 -47 -79 -26
-40 -62 -108 -80 -152 -43 -106 -42 -81 2 42 23 65 35 116 35 151 l0 52 -42 0
c-41 0 -45 -3 -86 -59 l-43 -60 -52 16 c-29 8 -60 19 -69 24 -11 6 -18 6 -18
0 0 -5 24 -22 54 -36 l55 -27 -33 -33 -34 -33 -43 14 c-23 9 -57 28 -75 44
-18 15 -41 33 -51 38 -15 9 -16 16 -7 61 l11 51 -43 0 c-30 0 -44 -5 -48 -16
-6 -16 -8 -16 -24 0 -10 9 -25 16 -33 16 -8 0 0 -9 18 -21 29 -18 31 -23 22
-51 -13 -46 -23 -52 -57 -34 -34 18 -52 20 -52 8 0 -5 18 -17 40 -27 l39 -18
-15 -29 c-10 -19 -21 -28 -30 -24 -8 3 -21 9 -29 12 -26 11 -16 -16 10 -28 14
-6 25 -15 25 -21 0 -5 -34 -77 -76 -161 l-76 -151 6 226 7 226 -40 16 c-22 9
-45 26 -51 37 -6 12 -21 20 -35 20 -14 0 -25 5 -25 10 0 6 -25 10 -56 10 -49
0 -55 -2 -49 -17 4 -10 9 -34 12 -53 l6 -35 -29 27 c-27 25 -73 48 -95 48 -6
0 9 -15 32 -32 53 -41 77 -74 85 -116 l7 -32 -74 35 c-41 19 -94 37 -119 40
l-45 6 56 -19 c91 -31 169 -80 169 -106 0 -23 -37 -176 -44 -183 -2 -2 -25 9
-51 26 -54 34 -154 76 -205 85 l-35 6 35 -17 c19 -9 67 -32 105 -50 39 -18 86
-43 107 -55 l36 -23 -22 -78 c-13 -42 -26 -80 -29 -83 -3 -4 -21 2 -40 13 -18
11 -51 23 -73 27 -37 6 -35 4 29 -30 37 -20 67 -41 67 -47 0 -12 -47 -95 -67
-119 -14 -15 -17 -15 -50 8 -36 24 -69 32 -58 14 4 -6 24 -19 46 -30 36 -19
38 -23 28 -43 -25 -46 -127 -193 -148 -211 -21 -19 -22 -19 -71 4 -67 31 -75
19 -10 -18 l51 -29 -58 -50 c-32 -27 -85 -67 -118 -87 -80 -51 -120 -89 -166
-161 -41 -64 -52 -61 -19 5 30 58 144 175 182 187 l33 11 -37 1 c-32 1 -38 5
-38 23 0 17 -6 12 -31 -23 -18 -24 -49 -62 -70 -83 l-39 -40 0 40 c1 64 37
214 52 214 5 0 18 -16 29 -35 12 -19 25 -35 29 -35 5 0 -2 19 -15 43 -51 87
-22 125 71 93 68 -23 67 -11 -2 19 -32 14 -60 27 -62 29 -3 4 24 64 34 75 2 2
57 -23 121 -56 128 -66 170 -83 158 -63 -4 6 -57 36 -119 65 -61 30 -124 65
-140 78 -27 22 -28 24 -13 53 8 16 18 45 22 64 13 68 14 70 53 71 l37 1 -27
11 c-39 15 -35 30 5 21 36 -7 205 -80 224 -96 7 -5 18 -8 25 -6 19 7 -31 36
-155 89 l-112 49 -3 60 c-3 59 -3 60 24 60 22 0 25 2 14 15 -7 8 -18 15 -25
15 -18 0 -22 26 -16 95 l6 60 60 5 60 5 -58 13 -59 14 7 45 c11 76 10 75 84
69 71 -7 64 4 -17 24 l-43 11 25 45 25 44 -55 0 c-62 0 -61 2 -94 -125 -15
-56 -18 -63 -19 -35 0 31 11 95 25 143 3 9 1 17 -5 17 -5 0 -12 -12 -14 -27
l-4 -28 -2 28 c-1 20 -6 27 -21 27 -17 0 -20 -7 -20 -52 0 -81 -13 -85 -39
-12 -13 37 -29 64 -37 64 -20 0 -18 -12 16 -92 17 -38 30 -82 30 -97 -1 -23
-3 -21 -25 19 -13 25 -31 73 -41 108 -13 49 -21 62 -36 62 -17 0 -19 -5 -13
-32 4 -18 22 -67 41 -109 39 -89 39 -89 17 -90 -15 0 -14 -2 3 -9 19 -8 20
-12 10 -60 l-10 -51 -18 91 c-9 51 -26 118 -38 151 -11 32 -20 70 -20 84 0 22
-4 25 -35 25 -41 0 -40 7 -15 -134 11 -60 19 -111 17 -112 -1 -2 -49 -26 -106
-54 -57 -28 -101 -53 -99 -55 6 -6 154 50 184 70 14 9 28 15 30 13 2 -3 7 -56
10 -120 6 -103 5 -115 -10 -121 -10 -4 -22 -5 -27 -1 -5 3 -9 0 -9 -5 0 -6 -6
-11 -12 -11 -7 0 -31 -9 -53 -20 l-40 -20 45 6 c25 4 63 12 84 19 l39 14 -6
-122 c-3 -67 -9 -132 -13 -145 -9 -32 -30 -21 -26 14 l3 29 -22 -37 c-16 -26
-31 -38 -54 -42 -17 -4 -40 -13 -51 -20 -20 -15 -18 -15 109 8 32 6 33 -3 16
-85 -12 -54 -63 -122 -100 -134 -31 -10 -25 -112 17 -275 5 -22 3 -21 -15 7
-27 43 -51 138 -51 207 0 51 -2 57 -29 70 -16 9 -40 29 -54 46 -44 52 -124
193 -140 246 l-15 50 88 -4 c83 -4 160 9 160 27 0 5 -24 4 -52 -1 -142 -23
-209 16 -324 188 -86 128 -122 208 -176 394 l-33 110 -75 0 -75 0 -27 -83z
m3675 67 c11 -4 12 -14 7 -42 -8 -41 -60 -174 -90 -231 l-19 -36 -1 32 c0 18
18 80 40 138 22 58 40 114 40 125 0 22 1 23 23 14z m-1770 -46 c8 -12 6 -27
-9 -59 l-19 -43 -6 29 c-4 17 -7 45 -8 63 -1 26 3 33 15 30 9 -2 22 -10 27
-20z m-717 -88 c-15 -46 -25 -65 -25 -49 -1 39 41 167 46 139 2 -8 -8 -49 -21
-90z m744 20 c-17 -32 -22 -18 -8 21 8 22 13 28 16 17 2 -9 -2 -27 -8 -38z
m46 -112 c-9 -46 -27 -120 -40 -165 -14 -45 -29 -115 -33 -155 -8 -67 -9 -57
-15 112 -4 102 -11 200 -17 218 -9 29 -8 32 4 22 20 -17 39 0 79 70 l31 55 3
-37 c2 -21 -4 -75 -12 -120z m411 67 c37 -25 73 -45 81 -45 23 0 -80 -105
-105 -107 -40 -3 -62 39 -59 110 4 79 5 87 11 87 2 0 35 -20 72 -45z m1570 -3
c-17 -18 -97 -67 -97 -59 0 2 21 21 47 41 49 38 77 48 50 18z m-177 -22 c0
-28 -56 -111 -110 -164 -60 -59 -70 -64 -49 -23 11 21 11 21 -14 -2 -39 -36
-53 -16 -18 28 16 20 37 53 47 74 10 20 23 37 29 37 7 0 32 13 56 30 47 32 59
36 59 20z m-2821 -22 c15 -42 22 -98 12 -98 -6 0 -13 17 -16 38 -3 20 -8 47
-11 60 -2 12 -2 22 1 22 3 0 9 -10 14 -22z m1297 -66 c-19 -37 -63 -106 -97
-153 -35 -47 -72 -96 -82 -109 -9 -14 -6 -2 8 25 14 28 49 85 79 127 30 43 68
100 85 128 44 71 47 62 7 -18z m-396 -437 c-15 -385 -24 -455 -93 -731 l-32
-130 -40 17 c-22 10 -61 24 -86 30 -46 12 -47 13 -52 58 -7 64 10 202 32 261
30 78 72 146 81 129 4 -8 10 -54 14 -104 17 -243 25 -327 30 -332 7 -7 10 4
29 79 13 50 13 56 -1 51 -13 -6 -14 7 -8 108 15 248 57 655 88 854 l33 210 7
-120 c4 -66 3 -237 -2 -380z m-794 356 c0 -88 -3 -117 -10 -104 -14 24 -15
234 -1 230 6 -2 10 -52 11 -126z m3959 87 c-7 -30 -34 -91 -35 -77 0 12 31
109 36 109 3 0 2 -15 -1 -32z m-2796 -125 c-23 -54 -59 -149 -80 -211 -42
-120 -61 -163 -109 -238 -29 -46 -43 -83 -75 -198 -9 -32 -18 -56 -20 -54 -2
2 5 34 16 72 10 38 26 119 34 179 15 109 16 112 81 214 69 107 83 150 22 66
-20 -26 -41 -59 -47 -71 -7 -13 -15 -21 -18 -19 -8 9 24 62 102 166 41 56 88
124 103 150 15 27 28 48 30 46 2 -2 -15 -47 -39 -102z m2026 97 c4 -6 -7 -10
-25 -10 -79 0 -260 -82 -420 -189 -118 -79 -103 -42 20 48 117 86 184 117 315
146 75 17 102 18 110 5z m-1925 -69 c0 -18 -75 -126 -104 -150 -11 -9 -3 11
18 50 20 36 36 71 36 77 0 6 5 23 10 37 9 23 13 25 25 15 8 -7 15 -20 15 -29z
m220 34 c0 -3 -15 -12 -32 -20 -33 -14 -32 -14 27 -9 l60 5 -70 -37 c-83 -44
-133 -61 -115 -39 6 8 27 19 46 25 20 7 33 14 30 17 -9 9 -94 -18 -107 -33
-13 -16 -33 -19 -24 -4 8 13 -1 13 -26 0 -24 -13 -24 -8 0 30 15 26 20 28 30
16 11 -13 15 -12 32 2 32 27 149 64 149 47z m-1555 -53 c11 -9 29 -39 39 -66
17 -43 96 -136 116 -136 9 0 0 -140 -10 -159 -10 -19 -100 151 -143 269 -4 11
-6 10 -6 -4 -1 -10 13 -62 30 -115 40 -123 46 -194 26 -274 -24 -91 -65 -318
-77 -422 -13 -110 -17 -125 -36 -125 -19 0 -18 32 7 192 12 78 23 210 26 321
5 173 11 212 27 171 9 -24 26 -6 26 28 0 16 -7 56 -15 88 -18 68 -44 250 -36
250 3 -1 15 -8 26 -18z m3303 6 c20 -20 14 -28 -19 -28 -70 0 -340 -81 -453
-136 -86 -42 -107 -30 -34 18 110 73 225 118 358 143 96 17 133 18 148 3z
m-2320 -357 c-5 -73 -18 -185 -28 -248 -11 -63 -17 -119 -14 -124 3 -5 1 -9
-4 -9 -5 0 -12 -13 -15 -30 -4 -16 -15 -38 -25 -48 -11 -11 -22 -26 -25 -33
-4 -10 -6 -9 -6 3 -1 9 3 19 8 22 12 8 16 43 51 390 16 164 36 329 42 365 l13
66 5 -110 c3 -60 2 -170 -2 -244z m1862 324 c-7 -8 -17 -15 -23 -15 -5 0 -2 9
8 20 21 23 35 19 15 -5z m-298 -25 c58 -16 118 -69 154 -135 42 -75 43 -90 4
-39 -66 86 -89 110 -121 128 -30 17 -28 13 16 -30 97 -94 165 -178 171 -211
10 -51 -4 -100 -38 -139 -30 -34 -156 -130 -162 -123 -1 2 -24 36 -51 74 -56
79 -129 161 -159 177 -11 6 6 -18 38 -53 32 -35 81 -97 108 -138 50 -73 50
-74 30 -90 -142 -111 -128 -104 -161 -87 -43 23 -51 19 -18 -8 l28 -23 -36
-32 c-34 -30 -39 -31 -54 -17 -25 23 -37 20 -16 -4 18 -20 18 -20 -19 -5 -51
22 -71 12 -23 -10 20 -11 37 -21 37 -24 -1 -3 -26 -33 -56 -66 -54 -58 -55
-59 -86 -47 -19 7 -36 8 -41 3 -5 -5 6 -14 26 -22 l35 -12 -60 -68 -60 -68
-49 24 c-54 28 -59 29 -59 15 0 -5 18 -19 40 -30 26 -13 38 -25 34 -33 -7 -11
-59 -82 -74 -100 -4 -4 -37 3 -73 17 -83 31 -88 15 -7 -22 32 -15 60 -31 60
-37 1 -13 100 -57 100 -44 0 5 -3 9 -7 9 -5 1 -18 9 -31 20 l-23 19 43 40 c33
30 46 37 56 28 12 -10 52 -80 52 -91 0 -3 -21 -19 -47 -37 -27 -17 -114 -99
-194 -181 -136 -139 -148 -148 -171 -139 -28 10 -68 4 -68 -10 0 -5 13 -9 28
-9 16 0 32 -3 35 -7 4 -3 -23 -40 -60 -82 -37 -42 -70 -80 -74 -85 -4 -4 -28
6 -53 23 -54 37 -62 25 -11 -16 19 -15 35 -31 35 -36 0 -17 -76 -106 -88 -102
-7 3 -16 -4 -20 -14 -4 -10 -32 -45 -63 -78 l-55 -60 -35 18 c-37 20 -89 25
-89 9 0 -6 3 -9 8 -8 4 2 26 -5 50 -15 32 -13 41 -21 35 -32 -5 -8 -76 -86
-159 -172 -82 -87 -170 -182 -194 -212 -25 -29 -79 -79 -120 -109 -41 -31 -99
-78 -128 -105 -29 -28 -55 -47 -58 -44 -4 3 -3 31 1 62 5 45 10 55 22 51 42
-17 60 -16 79 1 11 10 14 14 7 9 -7 -4 -25 -5 -40 0 -16 4 -32 8 -38 8 -14 1
-12 12 10 80 11 32 25 60 31 63 7 2 26 -3 43 -11 39 -20 81 -37 81 -32 0 3
-24 19 -52 36 -29 18 -54 34 -56 35 -2 2 7 24 20 49 l23 45 44 -20 c65 -29 75
-17 13 15 -29 15 -52 30 -50 34 2 4 11 28 22 55 10 26 22 47 26 47 4 0 42 -16
85 -36 42 -19 79 -33 82 -30 3 2 -31 23 -76 45 -45 23 -81 44 -81 47 0 15 66
114 76 114 6 0 25 -5 43 -11 48 -17 49 -4 1 17 -22 10 -39 20 -37 23 1 4 14
28 27 54 l25 49 45 -6 c42 -6 44 -5 26 9 -11 8 -26 15 -33 15 -20 0 -16 16 23
91 l36 68 30 -15 c42 -22 57 -12 18 13 -19 12 -28 23 -21 27 6 4 37 -10 68
-32 77 -52 83 -55 83 -45 0 5 -29 31 -65 57 l-65 48 17 30 c29 49 37 51 83 28
56 -28 62 -18 11 16 -23 14 -41 29 -41 33 0 3 8 16 18 28 15 19 22 21 52 14
19 -5 43 -12 53 -16 36 -15 15 13 -23 30 -41 18 -41 18 -21 38 21 22 15 22
125 -10 41 -12 3 16 -43 32 l-49 16 44 41 45 41 81 -16 c45 -9 84 -14 87 -12
7 8 -103 55 -127 55 -15 0 -22 5 -19 13 2 6 11 11 19 11 10 -1 14 5 11 15 -2
9 11 33 28 54 33 40 31 40 104 21 20 -5 20 -5 1 10 -11 9 -30 16 -43 16 -21 0
-22 2 -11 21 10 16 20 19 43 15 l30 -6 -23 18 c-20 15 -21 20 -9 36 13 17 16
17 85 -7 106 -37 87 -9 -22 33 -39 14 -25 25 15 11 18 -6 37 -11 43 -11 16 1
-34 40 -50 40 -8 0 -14 1 -14 3 0 11 94 215 103 224 12 12 76 -4 160 -41 20
-9 37 -12 37 -7 0 13 -61 50 -118 71 -25 10 -48 22 -49 26 -4 11 66 104 88
117 12 8 34 2 84 -21 37 -18 70 -32 73 -32 17 0 -35 40 -78 60 -57 27 -54 45
3 29 61 -17 77 -5 19 15 l-52 18 17 30 c27 46 169 214 186 221 9 3 37 -5 63
-18 65 -33 68 -23 6 16 l-51 31 40 53 c22 29 47 56 55 59 8 3 37 -5 65 -19 65
-33 63 -14 -2 24 l-51 29 73 77 c115 121 195 154 301 125z m698 -28 c0 -17
-172 -224 -202 -242 -18 -11 -34 -17 -36 -15 -6 6 86 123 157 197 59 63 81 79
81 60z m50 -8 c0 -9 -32 -33 -44 -34 -5 0 -1 9 9 20 18 20 35 26 35 14z
m-1670 -39 c0 -3 -20 -14 -45 -25 -25 -11 -45 -23 -45 -27 0 -4 -19 -23 -43
-42 -38 -31 -37 -29 13 23 30 32 64 62 75 66 23 10 45 12 45 5z m1630 -27 c0
-2 -33 -34 -72 -73 l-71 -70 33 50 c46 70 71 95 92 95 10 0 18 -1 18 -2z m645
-127 c3 -17 26 -53 51 -80 39 -44 54 -71 39 -71 -10 0 -109 52 -140 74 -38 26
-46 39 -36 49 5 5 42 -15 85 -47 42 -31 76 -53 76 -49 0 4 -32 39 -71 79 l-70
71 7 53 7 54 23 -51 c12 -28 25 -65 29 -82z m-180 43 c52 -25 56 -57 16 -139
-26 -53 -30 -57 -30 -31 -1 32 -15 26 -24 -9 -3 -11 -5 -2 -6 20 -2 54 -17
125 -27 135 -5 5 -47 2 -94 -6 -196 -34 -409 -106 -552 -188 -73 -41 -155 -65
-178 -51 -17 11 68 72 183 131 132 68 210 98 352 135 95 25 124 29 215 26 77
-3 116 -9 145 -23z m-4339 -79 c-14 -35 -66 -101 -66 -83 0 4 16 39 35 79 19
41 36 80 36 89 1 8 4 2 6 -14 3 -16 -3 -48 -11 -71z m3462 -48 c-3 -37 -10
-64 -22 -75 -16 -16 -17 -16 -11 8 3 14 2 54 -3 90 -7 45 -6 70 2 83 10 16 12
14 25 -15 8 -20 11 -56 9 -91z m-797 55 l-41 -48 -57 7 c-233 29 -409 -19
-636 -173 -163 -111 -273 -236 -392 -443 -31 -55 -68 -111 -82 -125 l-25 -25
5 52 c14 129 222 426 392 558 104 81 173 119 280 154 131 42 124 41 320 51
116 5 194 14 220 24 59 22 60 20 16 -32z m1596 -44 c-3 -8 -6 -5 -6 6 -1 11 2
17 5 13 3 -3 4 -12 1 -19z m195 -12 c15 -11 16 -23 8 -100 -9 -92 -34 -159
-61 -164 -9 -2 -26 5 -38 15 l-21 18 41 123 c22 67 44 122 47 122 4 0 15 -6
24 -14z m-3096 -83 c-4 -49 -8 -128 -10 -178 -7 -206 -8 -222 -16 -190 -12 46
-12 213 0 220 6 4 8 15 5 26 -7 20 15 209 23 209 3 0 2 -39 -2 -87z m1252 72
c2 -2 -17 -15 -43 -30 -53 -32 -91 -30 -165 7 l-45 22 35 7 c31 6 210 1 218
-6z m1482 -5 c-14 -9 -32 -16 -125 -47 -16 -6 -48 -18 -70 -27 l-40 -17 25 20
c26 21 212 92 220 84 2 -2 -2 -8 -10 -13z m-3350 3 c0 -14 -52 -144 -56 -140
-7 6 39 147 48 147 4 0 8 -3 8 -7z m3520 -85 l-1 -83 -20 50 c-30 79 -33 94
-10 60 l21 -30 0 43 c0 23 2 42 5 42 3 0 5 -37 5 -82z m-4270 55 c0 -16 -55
-63 -74 -63 -18 1 -15 6 18 35 38 34 56 43 56 28z m148 -154 c46 -63 101 -143
123 -178 22 -35 42 -61 45 -58 3 3 -8 26 -25 51 -34 49 -40 66 -15 45 23 -19
72 -93 84 -126 l10 -28 -21 28 c-11 15 -24 25 -29 22 -4 -3 -51 43 -104 102
-75 83 -107 129 -147 207 -58 116 -45 105 79 -65z m3541 71 c-40 -44 -76 -80
-80 -80 -13 0 -31 30 -26 44 6 14 154 116 170 116 4 0 -24 -36 -64 -80z
m-1289 60 c18 -10 18 -13 -10 -73 -15 -34 -41 -98 -56 -142 l-29 -80 -6 50
c-9 67 1 119 46 243 5 15 29 16 55 2z m1640 5 c0 -6 -69 -35 -83 -35 -18 0 0
11 40 25 45 17 43 16 43 10z m-4180 -36 c98 -49 467 -383 566 -511 l44 -57
-27 -3 c-24 -3 -49 17 -178 142 -82 80 -211 198 -285 262 -74 63 -153 134
-175 157 l-40 42 30 -7 c17 -4 46 -15 65 -25z m2325 -101 c-9 -35 -21 -67 -27
-73 -8 -7 -9 -6 -4 2 4 7 13 50 21 95 18 102 17 99 22 66 2 -15 -3 -56 -12
-90z m2041 67 c26 -45 29 -61 8 -47 -11 8 -54 76 -54 86 0 19 23 0 46 -39z
m-1756 -5 c-6 -11 -19 -53 -30 -93 l-18 -72 -1 53 c-1 53 8 82 37 115 20 23
25 22 12 -3z m-322 -41 c2 -24 -1 -62 -7 -84 l-9 -40 -1 56 c-1 31 -4 71 -8
89 -5 25 -3 32 8 28 9 -3 15 -22 17 -49z m1917 41 c-3 -5 -30 -11 -58 -11 -41
-1 -30 -4 48 -13 85 -11 112 -19 182 -55 93 -49 137 -92 153 -151 11 -39 6
-94 -10 -119 -6 -11 -12 -10 -31 3 -25 16 -109 48 -109 41 0 -2 24 -17 53 -34
85 -50 80 -44 63 -85 -8 -20 -18 -36 -21 -36 -14 0 -65 31 -65 40 0 23 -248
129 -264 112 -13 -12 26 84 50 125 22 39 28 42 52 36 41 -12 103 -7 119 10 13
13 12 17 -7 35 -30 28 -124 52 -202 52 -103 0 -295 -36 -344 -65 -41 -24 -42
-24 -47 -5 -3 11 1 27 9 34 19 20 138 64 214 81 77 16 224 20 215 5z m-603
-49 c56 -12 85 -34 125 -97 12 -18 12 -18 6 1 -3 11 -17 35 -30 53 -14 18 -22
36 -19 39 10 10 32 -15 51 -57 l18 -40 -54 -49 c-52 -47 -54 -48 -60 -26 -9
30 -69 118 -76 111 -3 -3 11 -33 31 -66 20 -34 36 -67 36 -75 0 -7 -56 -61
-125 -118 l-124 -106 -35 35 c-45 45 -67 44 -27 -1 17 -20 31 -39 31 -44 0 -4
-18 -22 -40 -40 -22 -17 -40 -26 -40 -20 0 15 -61 111 -67 105 -2 -2 7 -27 21
-55 14 -28 26 -56 26 -63 0 -14 -105 -82 -264 -172 -75 -42 -102 -53 -108 -44
-4 7 -8 16 -8 20 0 4 -13 22 -29 40 -25 29 -27 36 -16 51 12 17 15 17 44 3 46
-24 61 -19 20 7 l-36 22 58 64 58 63 60 -30 c68 -34 73 -16 5 19 -24 13 -44
27 -44 31 0 8 184 182 229 216 l33 26 36 -19 c20 -11 59 -48 87 -82 27 -33 55
-60 60 -59 18 5 16 44 -4 83 -22 41 -26 36 -12 -14 9 -29 3 -26 -62 40 l-72
72 107 83 c58 46 112 90 119 98 7 8 17 13 23 11 6 -3 37 -10 68 -16z m-3603
-5 c10 -11 3 -30 -30 -89 -52 -94 -131 -199 -164 -221 l-26 -17 16 36 c26 64
173 305 185 305 4 0 13 -6 19 -14z m2241 -9 c0 -16 -9 -26 -30 -34 l-31 -12
28 34 c34 41 33 40 33 12z m-904 -59 c18 -34 18 -91 -2 -153 -10 -31 -18 -105
-21 -197 -3 -82 -9 -148 -14 -148 -13 0 -28 184 -30 370 -1 103 2 132 17 163
18 37 19 38 27 15 5 -13 15 -35 23 -50z m2922 33 c2 -6 14 -11 27 -11 12 0 29
-7 36 -16 12 -15 9 -16 -31 -9 -59 10 -94 9 -166 -8 -33 -8 -75 -11 -94 -8
-31 5 -29 7 25 12 60 6 60 6 -22 7 -45 1 -84 6 -88 11 -5 9 47 22 130 35 50 7
179 -2 183 -13z m-2138 -15 c0 -21 -139 -153 -237 -225 -46 -34 -83 -58 -83
-55 0 12 143 175 189 216 36 31 97 68 129 77 1 1 2 -6 2 -13z m128 -51 c-2 -1
-20 -5 -40 -9 -51 -9 -51 12 0 39 l37 20 3 -23 c2 -13 2 -25 0 -27z m291 -15
c1 -22 -33 -59 -44 -48 -2 2 4 29 13 61 14 47 18 53 24 35 3 -13 6 -34 7 -48z
m-2449 17 c-1 -12 -50 -53 -50 -42 0 4 8 20 17 35 16 28 33 31 33 7z m595
-189 c-17 -158 -21 -178 -37 -178 -21 0 -24 31 -5 63 7 13 12 59 12 112 0 88
31 229 43 196 3 -8 -3 -95 -13 -193z m3905 187 c-7 -8 -20 -15 -29 -15 -13 1
-13 3 3 15 26 19 42 19 26 0z m-664 -17 c-24 -36 -83 -237 -104 -350 l-19
-103 -7 50 c-5 28 -16 84 -26 125 -11 41 -18 76 -16 77 8 8 46 -100 47 -134 1
-25 3 -30 6 -13 21 131 69 357 77 362 6 4 21 8 34 8 21 0 22 -1 8 -22z m-1831
-8 c13 -20 -18 -51 -127 -126 -62 -42 -135 -95 -161 -117 -26 -22 -50 -37 -53
-34 -3 3 48 48 113 100 65 53 138 115 163 140 49 48 56 52 65 37z m183 -49
c58 -30 76 -72 70 -167 -3 -43 -10 -91 -16 -105 l-10 -26 -61 30 c-80 39 -90
29 -12 -14 l59 -33 -33 -67 c-38 -74 -155 -232 -239 -323 l-55 -59 -11 27
c-20 53 -10 67 30 46 33 -18 14 13 -20 32 -17 9 -30 25 -30 34 0 16 8 16 55
-1 13 -5 8 3 -13 21 -25 22 -33 36 -30 55 l3 27 58 -28 c31 -16 57 -24 57 -19
0 5 -27 21 -60 36 -43 18 -59 30 -55 40 3 8 5 21 5 29 0 9 5 12 12 8 6 -4 8
-3 4 4 -3 6 -1 24 6 41 l13 30 80 -35 c109 -48 120 -36 13 14 l-88 41 0 56 c0
52 2 56 20 50 23 -7 25 -2 8 25 -9 15 -10 22 -1 31 9 9 19 6 42 -10 39 -28 40
-16 1 24 l-29 30 18 40 c28 60 47 68 127 49 36 -8 71 -13 78 -11 14 5 -30 29
-69 37 l-30 6 30 17 c24 13 26 16 10 17 -17 0 -17 2 -5 10 21 13 26 13 68 -9z
m1401 -109 c-68 -66 -147 -139 -176 -163 -55 -47 -161 -115 -168 -108 -2 3 27
29 64 59 38 30 142 119 231 198 89 79 164 141 167 138 3 -2 -51 -58 -118 -124z
m-3630 85 c-20 -17 -53 -47 -74 -65 -21 -17 -35 -35 -32 -38 4 -4 12 -2 20 4
15 13 174 82 188 82 22 0 -4 -20 -77 -60 -42 -23 -73 -44 -70 -47 3 -3 39 9
80 26 79 33 96 37 96 22 0 -5 -29 -23 -65 -40 -36 -18 -65 -33 -65 -34 0 -1
16 -3 36 -4 41 -2 52 -9 38 -23 -13 -13 -282 -74 -291 -66 -2 1 34 18 80 37
47 19 74 35 64 37 -10 2 -48 -11 -85 -28 -72 -34 -102 -43 -102 -31 0 13 86
125 121 157 44 41 140 103 159 103 9 0 0 -13 -21 -32z m1195 -127 c15 -46 30
-251 15 -215 -4 11 -8 45 -9 75 -2 50 -3 52 -10 22 -11 -48 -16 -48 -35 0 -9
24 -26 53 -38 65 -26 29 -16 40 17 18 25 -16 26 -16 26 1 0 11 -7 50 -15 89
-8 38 -15 72 -15 75 1 12 50 -89 64 -130z m2704 88 c-40 -62 -43 -73 -43 -203
l0 -130 -69 -143 c-38 -79 -75 -167 -83 -195 l-13 -52 5 64 c3 35 6 100 7 145
1 68 2 72 6 26 l4 -55 24 80 c13 44 35 134 49 200 36 165 51 212 80 251 29 38
56 47 33 12z m-1926 -25 c-19 -46 -52 -100 -74 -120 -22 -21 -161 -94 -215
-113 -42 -15 115 134 207 198 82 56 93 60 82 35z m-1707 -141 c4 -59 11 -133
15 -165 10 -63 -3 -127 -20 -97 -27 50 -54 373 -33 394 17 17 32 -33 38 -132z
m3926 103 c24 -9 63 -27 88 -42 l44 -26 -74 -68 c-42 -39 -102 -83 -139 -101
-36 -17 -78 -41 -94 -51 -27 -19 -28 -19 -19 -1 6 10 27 80 48 154 21 74 40
138 42 143 7 12 58 8 104 -8z m-571 -333 c-24 -186 -39 -381 -40 -527 -1 -88
-3 -97 -13 -70 -7 17 -23 53 -37 80 -20 40 -25 69 -28 147 -4 93 -3 98 22 123
32 32 34 78 10 223 -15 93 -15 227 1 252 11 18 45 -20 44 -49 l-1 -26 -10 28
c-16 45 -32 33 -24 -19 3 -26 6 -90 6 -142 0 -52 2 -93 4 -91 3 3 18 87 35
187 16 100 33 188 38 194 17 27 13 -154 -7 -310z m-2637 266 c9 -13 2 -26 -35
-66 -30 -34 -52 -71 -66 -114 -13 -42 -21 -54 -21 -37 -2 43 28 114 65 158 20
22 30 41 24 41 -23 0 -70 -62 -91 -122 -18 -47 -24 -56 -32 -43 -20 37 21 146
70 185 30 24 71 23 86 -2z m-649 -60 l-3 -73 10 63 c6 34 14 60 18 57 7 -4 5
-24 -13 -140 -4 -23 -2 -20 9 10 7 22 14 56 14 75 1 25 4 31 12 23 26 -26 -25
-174 -56 -165 -11 3 -13 178 -3 205 13 31 15 18 12 -55z m3340 -358 c-22 -255
-33 -348 -55 -440 -10 -47 -35 -157 -53 -245 -18 -88 -39 -178 -45 -200 -12
-42 -14 -72 -6 -63 3 3 23 74 45 159 21 85 59 233 84 329 25 96 53 208 61 247
15 67 47 177 74 247 20 51 21 22 2 -52 -11 -40 -18 -72 -16 -72 2 0 15 20 29
45 15 25 29 45 31 45 5 0 -11 -54 -24 -78 -16 -30 -65 -175 -91 -267 -12 -44
-47 -153 -76 -243 -70 -211 -69 -232 2 -32 193 553 209 591 285 686 28 35 55
64 60 64 5 0 27 11 49 25 79 50 68 27 -45 -94 -121 -130 -157 -203 -264 -545
-30 -96 -116 -306 -185 -451 l-33 -70 3 60 c2 56 61 352 83 420 5 17 12 107
15 200 4 94 13 222 21 285 8 63 22 196 32 295 l18 180 6 -135 c4 -84 1 -198
-7 -300z m921 420 c4 -6 -5 -10 -20 -10 -15 0 -24 4 -20 10 3 6 12 10 20 10 8
0 17 -4 20 -10z m-230 -40 c8 0 25 -10 38 -22 22 -21 23 -26 11 -58 -7 -19
-13 -49 -13 -66 -1 -19 -6 -32 -13 -31 -44 1 -90 -4 -84 -10 4 -4 27 -6 52 -4
l45 3 -3 -64 -3 -63 -50 -33 c-69 -46 -70 -62 -2 -24 31 18 59 32 63 32 3 0 4
-35 2 -77 -5 -99 -37 -172 -104 -237 -50 -48 -58 -51 -131 -59 -33 -4 -50 0
-75 16 -53 37 -72 71 -76 142 -4 65 -4 65 22 65 15 0 76 -17 137 -37 85 -29
112 -34 121 -25 9 9 7 12 -11 12 -12 0 -70 16 -128 35 -58 19 -114 35 -124 35
-13 0 -19 7 -19 24 0 20 7 25 48 34 l47 10 -45 1 -46 1 4 38 c2 20 14 48 27
62 13 14 39 50 58 80 36 56 197 223 197 204 0 -6 -11 -21 -25 -34 -14 -13 -25
-28 -25 -34 1 -16 80 76 81 94 0 10 2 11 6 3 2 -7 11 -13 18 -13z m265 0 c0
-12 -34 -12 -70 0 -20 7 -16 8 23 9 26 1 47 -3 47 -9z m-4580 -6 c0 -16 -100
-46 -168 -50 -67 -3 -73 -2 -42 7 19 6 73 19 120 29 47 10 86 19 88 19 1 1 2
-2 2 -5z m3659 -132 c1 -13 -3 -20 -9 -17 -5 3 -9 32 -9 63 1 57 1 57 10 17 4
-22 8 -50 8 -63z m-2784 23 c-14 -32 -25 -63 -25 -70 0 -18 32 -28 41 -13 11
18 15 9 22 -43 6 -42 3 -49 -23 -74 l-29 -28 -8 29 c-4 16 -8 63 -8 104 1 58
6 85 24 118 32 62 37 46 6 -23z m-807 -55 c-3 -60 -4 -110 -2 -110 3 0 13 14
23 30 l18 31 23 -53 c26 -60 23 -127 -6 -159 -17 -19 -18 -19 -41 3 l-24 23
-19 -25 c-21 -26 -28 -48 -82 -225 -28 -96 -34 -106 -39 -80 -6 24 -7 20 -7
-20 0 -35 -12 -82 -42 -158 -41 -105 -60 -136 -40 -66 6 18 10 88 10 155 0 91
4 133 17 165 14 36 17 84 19 259 1 118 2 221 3 228 2 21 81 101 95 96 8 -3 11
-15 7 -32 l-5 -27 -6 30 -6 30 -23 -44 c-30 -57 -54 -262 -45 -380 11 -144 20
-145 28 -1 7 141 32 324 47 350 5 9 8 -35 7 -110 -2 -105 -6 -134 -25 -182
-14 -36 -23 -78 -23 -113 0 -70 16 -64 22 8 5 63 26 94 106 157 63 49 62 64
-2 26 -25 -14 -47 -22 -50 -18 -3 5 -8 27 -12 49 -5 30 1 61 25 130 17 50 31
102 31 117 0 14 5 26 11 26 9 0 10 -31 7 -110z m1741 49 c-12 -17 -60 -56
-105 -86 -46 -29 -86 -58 -89 -63 -12 -19 -45 -11 -45 10 0 15 7 20 27 20 l26
0 -24 26 c-24 25 -24 26 -4 40 11 8 45 22 75 31 30 9 49 18 42 20 -7 3 -43 -5
-81 -16 -79 -24 -81 -24 -81 -12 0 11 126 54 215 74 71 16 80 7 44 -44z m-760
-6 c27 -21 50 -41 50 -45 1 -4 -9 -10 -21 -13 -15 -5 -26 -1 -37 13 -10 13
-30 22 -52 24 -35 3 -35 3 -27 36 11 40 17 38 87 -15z m-394 -22 c101 -48 145
-116 145 -225 l0 -52 -36 4 c-26 3 -35 1 -30 -7 4 -6 16 -11 26 -11 30 0 31
-12 8 -83 l-22 -66 -27 15 c-37 19 -186 54 -224 53 -18 -1 5 -10 60 -24 124
-31 187 -56 180 -73 -2 -7 -14 -45 -26 -85 -12 -40 -23 -73 -23 -74 -1 -1 -26
4 -56 12 -30 8 -62 15 -70 14 -21 0 26 -24 76 -39 l42 -13 -34 -98 c-18 -55
-48 -125 -68 -157 -38 -62 -108 -204 -124 -252 -12 -33 -18 -35 -106 -20 -33
5 -62 8 -64 5 -5 -5 104 -37 134 -39 16 -1 22 -6 19 -16 -2 -8 -9 -46 -16 -84
l-11 -68 -132 6 c-155 7 -142 -8 17 -19 82 -5 107 -10 103 -20 -2 -7 -19 -78
-36 -156 -68 -315 -83 -359 -123 -359 -43 0 -107 71 -107 119 0 5 26 12 58 16
86 10 104 28 20 21 -76 -7 -80 -4 -92 72 -6 42 -6 43 16 36 40 -12 92 -24 113
-24 36 0 -5 19 -68 31 -32 7 -60 16 -63 21 -4 6 -14 40 -23 77 l-17 68 48 -14
c26 -8 60 -13 75 -11 22 3 11 9 -50 28 -73 22 -80 26 -99 64 -12 23 -38 60
-59 84 l-37 43 -1 134 c-2 153 12 290 36 353 9 23 17 42 19 42 2 0 40 -25 84
-55 44 -30 86 -55 92 -55 8 0 8 3 2 9 -14 13 -142 99 -153 103 -6 2 -1 40 11
90 l20 88 42 -34 c58 -48 143 -88 266 -126 58 -18 129 -43 159 -57 55 -24 81
-23 47 3 -11 8 -83 34 -159 59 -177 58 -231 83 -290 139 l-48 44 22 53 c11 30
30 79 41 109 32 84 146 322 166 343 18 20 76 54 127 74 17 6 59 12 95 12 52 1
77 -5 125 -28z m3395 -31 c-6 -11 -17 -17 -25 -14 -8 3 -30 -7 -50 -22 -40
-30 -58 -27 -24 5 17 16 66 39 107 50 1 1 -2 -8 -8 -19z m-3100 -42 c-1 -41
-3 -49 -11 -36 -9 16 -3 88 7 88 2 0 4 -24 4 -52z m2445 32 c4 -6 -13 -11 -42
-12 -85 -2 -107 -5 -155 -21 -57 -19 -63 -14 -11 8 66 28 197 43 208 25z
m-2235 -30 c0 -28 -252 -342 -264 -330 -15 15 -19 96 -6 134 12 38 98 139 133
158 24 12 118 47 130 48 4 0 7 -5 7 -10z m215 -44 c33 -15 80 -50 114 -83 104
-104 114 -189 47 -391 l-37 -110 -56 34 c-62 37 -158 75 -248 98 -87 22 -78
12 17 -19 96 -32 212 -86 247 -116 l25 -20 -50 -99 -49 -99 -100 80 c-56 45
-135 97 -180 119 -79 38 -223 86 -231 77 -3 -2 43 -24 101 -47 128 -52 200
-94 310 -184 l83 -68 -34 -77 c-66 -145 -188 -355 -236 -408 l-20 -22 -82 30
c-44 17 -105 41 -135 55 -66 30 -78 25 -23 -10 52 -32 104 -55 174 -75 l57
-16 -83 -105 c-45 -58 -89 -110 -97 -117 -18 -15 -69 -1 -179 47 -39 17 -76
30 -81 28 -16 -5 173 -98 204 -100 15 -1 27 -3 27 -4 0 -1 -47 -45 -105 -98
-105 -96 -105 -96 -158 -96 -48 -1 -50 -2 -33 -15 11 -8 30 -15 43 -15 22 0
22 -1 -11 -48 -19 -26 -44 -71 -56 -101 -30 -77 -57 -111 -106 -133 -49 -21
-89 -16 -105 13 -11 21 -18 164 -8 173 3 4 25 -1 49 -9 23 -8 47 -15 53 -15
20 0 -7 17 -56 35 -44 17 -48 21 -43 44 2 14 15 86 28 159 12 72 26 132 31
132 5 0 28 -11 52 -25 54 -32 205 -88 205 -76 0 5 -42 26 -93 46 -51 20 -110
51 -129 68 l-36 32 23 115 c13 63 29 130 35 147 11 31 13 32 38 19 29 -15 102
-37 102 -31 0 2 -21 18 -47 36 -27 18 -49 33 -51 34 -6 5 19 103 44 172 l26
72 32 -32 c38 -38 140 -94 249 -136 121 -46 90 -19 -44 40 -132 58 -194 97
-210 133 -12 26 -1 53 57 141 21 32 43 86 59 149 25 96 27 101 97 175 82 88
192 225 327 405 l96 128 52 -5 c29 -3 78 -17 108 -31z m154 18 c3 -2 -2 -12
-11 -21 -21 -20 -48 -10 -48 18 0 18 4 20 27 14 16 -4 30 -9 32 -11z m1859
-10 c3 -20 0 -21 -66 -16 -46 3 -72 1 -76 -7 -5 -7 3 -11 23 -11 16 0 42 -5
58 -11 27 -10 27 -11 8 -24 -11 -8 -25 -19 -32 -25 -7 -5 -19 -10 -28 -10 -8
0 -15 -9 -15 -19 0 -22 -54 -71 -78 -71 -9 0 -44 18 -77 40 -33 22 -66 40 -72
40 -7 0 -13 5 -13 10 0 16 74 11 141 -10 70 -21 84 -20 46 5 -33 21 -126 35
-171 25 -20 -4 -36 -6 -36 -4 0 8 82 44 157 69 153 49 226 55 231 19z m413
-43 c1 -28 -1 -55 -5 -58 -3 -3 -6 22 -6 57 0 75 10 76 11 1z m-336 -48 c14
-91 13 -105 -6 -86 -12 12 -26 192 -14 181 4 -4 13 -46 20 -95z m-1688 -78
c25 -46 29 -156 8 -211 -21 -56 -27 -53 -14 6 12 49 3 170 -12 170 -5 0 -9 -8
-9 -18 0 -19 -64 -125 -106 -175 -37 -44 -29 -13 21 77 25 46 45 88 45 95 0 6
-10 11 -21 11 -12 0 -28 8 -35 18 -11 14 -13 14 -14 2 -1 -21 -30 48 -30 71 0
10 5 21 11 25 8 4 9 -3 4 -24 -3 -18 -2 -33 4 -37 7 -4 11 5 12 22 0 25 1 26
9 7 9 -22 40 -40 40 -23 0 5 -9 35 -20 66 -11 32 -20 60 -20 63 1 10 111 -116
127 -145z m2148 6 c-9 -28 -20 -53 -25 -56 -5 -3 -6 -21 -3 -40 7 -44 -8 -80
-109 -269 -45 -83 -108 -200 -141 -261 -32 -60 -55 -101 -51 -90 78 215 141
359 207 470 81 138 105 190 68 145 -11 -14 -44 -65 -73 -114 -54 -92 -78 -105
-35 -19 13 26 30 66 37 88 7 22 21 57 32 78 20 41 98 131 105 123 3 -3 -3 -27
-12 -55z m-912 35 c28 -11 341 -217 357 -233 3 -3 -8 -3 -25 1 -23 5 -17 -1
25 -25 30 -18 50 -34 43 -36 -7 -3 7 -33 38 -80 27 -42 49 -83 49 -92 -1 -14
-2 -14 -13 -1 -7 8 -21 22 -31 30 -17 14 -18 13 -12 -7 6 -18 3 -20 -13 -16
-10 3 -21 16 -24 31 -3 15 -9 36 -13 47 -7 20 -7 20 14 1 17 -15 22 -16 22 -5
0 8 -23 37 -51 64 -51 49 -55 47 -16 -6 11 -16 20 -46 21 -72 l2 -46 -26 47
c-14 26 -31 47 -37 47 -7 0 -25 18 -39 40 -31 47 -84 105 -96 105 -4 0 12 -27
37 -61 42 -57 57 -87 36 -75 -4 3 -34 44 -66 91 -31 47 -62 88 -67 92 -12 7
-12 6 37 -72 39 -62 49 -88 33 -83 -7 2 -40 49 -72 103 -58 96 -120 170 -161
193 -17 10 -18 13 -5 22 19 12 15 12 53 -4z m1398 -27 c-6 -16 -10 -18 -10 -7
-1 22 12 55 16 42 2 -6 -1 -22 -6 -35z m-995 -16 c-11 -11 -19 6 -11 24 8 17
8 17 12 0 3 -10 2 -21 -1 -24z m-435 -13 c10 -6 26 -24 35 -41 l16 -31 -44 4
c-24 3 -51 8 -62 13 -16 7 -17 6 -7 -13 10 -18 8 -24 -15 -39 -25 -16 -27 -16
-46 8 -16 21 -18 21 -14 4 4 -14 -2 -25 -22 -37 -15 -10 -34 -23 -43 -29 -14
-11 -21 -8 -43 17 -18 21 -25 25 -26 13 0 -9 6 -22 14 -28 8 -7 17 -23 20 -37
6 -21 -1 -32 -41 -69 -26 -24 -50 -44 -53 -45 -3 0 -14 14 -24 31 -26 43 -31
29 -7 -19 l20 -39 -27 -14 c-15 -8 -30 -18 -33 -22 -3 -4 -18 8 -32 27 l-27
35 67 76 c76 86 181 175 257 217 53 29 103 35 137 18z m-2921 -86 c0 -47 -4
-73 -10 -69 -5 3 -10 21 -11 38 -1 54 -15 2 -23 -83 -11 -123 -26 -179 -76
-295 -27 -60 -62 -144 -79 -186 -34 -82 -132 -240 -138 -222 -2 6 16 54 41
106 72 149 172 413 210 554 19 70 39 140 45 156 6 15 15 38 21 52 5 14 12 25
15 25 3 0 5 -34 5 -76z m3358 64 c-10 -30 -115 -82 -137 -69 -9 6 4 17 40 34
33 16 46 26 34 27 -11 0 -38 -9 -59 -21 -49 -26 -56 -19 -16 15 26 21 42 26
87 26 38 0 53 -4 51 -12z m-2536 -132 c-5 -12 -35 -52 -67 -91 -60 -73 -72
-86 -63 -70 3 6 25 71 48 145 l42 135 25 -49 c19 -37 23 -54 15 -70z m789 67
c-8 -15 -10 -15 -11 -2 0 17 10 32 18 25 2 -3 -1 -13 -7 -23z m77 -76 c-4 -60
-11 -84 -41 -137 l-35 -64 -10 35 c-7 28 -4 46 18 99 35 83 62 140 68 140 3 0
3 -33 0 -73z m1316 55 c9 -14 -46 -109 -63 -109 -9 0 -25 6 -36 13 -37 26 -48
14 -12 -15 27 -21 33 -31 24 -40 -6 -6 -17 -11 -24 -11 -7 0 -12 -3 -11 -7 4
-14 -23 -53 -36 -53 -8 0 -19 7 -26 15 -7 8 -21 15 -32 15 -16 0 -15 -4 11
-26 17 -14 31 -29 31 -32 0 -4 -12 -20 -25 -35 l-25 -28 -36 21 c-47 30 -54
19 -10 -15 37 -28 39 -45 5 -45 -10 0 -19 -5 -19 -11 0 -5 6 -7 13 -3 6 4 2
-3 -10 -16 l-21 -23 -32 37 c-44 49 -51 37 -12 -18 29 -40 30 -45 15 -57 -9
-8 -19 -13 -22 -11 -3 1 -6 -2 -6 -8 0 -5 -4 -10 -10 -11 -20 -2 -37 -22 -24
-29 13 -9 -39 -69 -112 -131 -47 -39 -49 -40 -74 -23 -29 19 -33 10 -8 -18 15
-17 15 -20 -7 -43 -12 -13 -26 -23 -30 -22 -4 1 -25 -21 -47 -49 -42 -52 -131
-133 -170 -153 -12 -6 -30 -11 -41 -11 -20 0 -82 70 -82 92 0 21 20 37 38 31
10 -4 13 -2 8 5 -14 23 11 12 39 -18 16 -16 33 -30 39 -30 5 0 -4 15 -22 33
-37 38 -38 41 -14 89 18 35 19 35 48 20 l29 -15 -22 25 c-13 13 -23 33 -23 43
0 14 19 1 70 -50 86 -85 92 -72 10 19 -33 37 -60 70 -60 74 0 4 10 23 21 42
l21 35 34 -40 c37 -43 49 -27 14 18 -11 14 -20 29 -20 34 0 10 82 63 98 63 6
0 16 -9 22 -20 12 -22 50 -46 50 -31 0 5 -12 23 -26 40 l-26 31 28 23 c16 12
65 52 109 89 44 37 85 66 92 63 7 -2 10 2 6 11 -3 7 0 14 6 14 6 0 59 46 118
103 118 112 147 134 208 153 48 15 62 16 69 6z m1457 -153 c-46 -51 -92 -86
-75 -57 23 39 108 127 114 118 4 -6 -14 -34 -39 -61z m-2863 26 c-6 -14 -15
-25 -20 -25 -5 0 -1 11 8 25 9 14 18 25 20 25 2 0 -2 -11 -8 -25z m2898 -44
c-23 -25 -20 -38 4 -16 19 18 20 17 20 -4 0 -18 -5 -22 -23 -19 -13 1 -38 -7
-57 -19 -53 -34 -49 -18 10 43 30 30 56 50 58 44 2 -6 -3 -19 -12 -29z m-647
-23 c-21 -38 -24 -40 -27 -20 -2 15 5 33 19 48 31 34 34 23 8 -28z m-804 32
c4 -6 -2 -23 -12 -38 -37 -56 -166 -212 -171 -208 -14 14 37 105 94 169 35 40
64 75 64 80 0 11 18 9 25 -3z m1033 -42 c2 -10 -5 -34 -15 -55 l-18 -38 -6 50
c-3 28 -4 54 -2 58 8 14 38 3 41 -15z m282 -37 c45 -47 59 -57 75 -50 11 4 43
8 72 8 45 1 55 -3 83 -30 58 -59 99 -178 100 -291 0 -87 -16 -50 -32 72 -9 71
-23 131 -32 146 -29 43 -75 64 -140 64 -62 0 -59 2 -39 -47 3 -8 -5 -9 -31 -3
-42 9 -112 -19 -169 -70 -50 -43 -58 -32 -11 14 41 40 118 81 134 71 18 -11
10 9 -34 80 -30 49 -50 71 -66 73 -18 3 -20 6 -9 13 27 17 44 9 99 -50z
m-2818 -32 c-16 -35 -48 -121 -71 -192 -43 -129 -86 -208 -130 -236 -22 -14
-21 -11 11 55 19 38 61 135 92 216 50 129 109 238 122 225 2 -2 -8 -33 -24
-68z m1566 -21 c-5 -75 -3 -89 7 -75 7 9 15 17 19 17 14 0 4 -27 -25 -65 l-31
-40 6 50 c4 28 9 68 12 90 4 22 4 38 1 35 -6 -7 -67 -313 -67 -340 0 -11 -4
-20 -10 -20 -13 0 -13 67 0 145 9 57 81 295 89 295 2 0 1 -41 -1 -92z m-632
45 l21 -37 -34 -28 c-29 -23 -39 -26 -55 -17 -19 10 -20 9 -15 -13 5 -19 1
-27 -22 -41 -26 -15 -29 -15 -45 1 -17 16 -18 16 -6 -7 11 -21 10 -26 -6 -39
-56 -42 -172 -71 -162 -39 3 6 53 51 113 99 59 47 124 102 144 122 20 20 38
36 41 36 3 0 15 -17 26 -37z m1309 -18 c-20 -50 -11 -57 15 -12 12 20 27 34
34 31 7 -3 19 2 26 11 18 22 33 18 20 -6 -11 -20 -10 -20 17 -5 16 8 47 18 68
21 38 7 34 3 -65 -71 -142 -105 -289 -256 -375 -382 -92 -135 -103 -149 -64
-77 41 77 111 182 210 315 42 58 81 119 85 135 9 38 34 88 40 82 3 -3 -2 -22
-11 -42z m-4016 -62 c1 -56 -35 -183 -51 -183 -6 0 -8 6 -5 13 2 6 10 62 17
122 7 61 14 117 17 125 9 26 22 -19 22 -77z m1791 5 c-48 -113 -50 -117 -43
-83 7 37 64 167 70 161 3 -2 -10 -37 -27 -78z m1755 12 l25 -49 -20 -62 c-17
-52 -20 -88 -19 -228 1 -133 3 -156 10 -116 5 28 28 129 50 224 22 96 39 188
37 203 -4 25 -3 26 11 14 9 -7 24 -16 34 -19 12 -5 16 -13 13 -24 -3 -10 -35
-166 -71 -346 -71 -354 -100 -469 -131 -514 l-19 -28 -3 60 c-2 33 1 135 8
226 9 126 9 181 0 230 -12 65 -16 202 -6 217 5 8 36 239 36 265 0 18 22 -7 45
-53z m907 23 c-46 -58 -82 -89 -82 -72 0 18 84 109 101 109 6 0 -3 -17 -19
-37z m-1196 -51 c-15 -31 -54 -75 -101 -117 -41 -37 -92 -90 -111 -117 -20
-27 -39 -47 -41 -44 -3 2 10 32 27 65 30 56 71 100 161 174 31 26 29 28 -18
11 -13 -5 -11 1 7 19 33 34 94 75 98 66 2 -4 -8 -30 -22 -57z m-198 -50 c-10
-101 -127 -349 -197 -416 l-29 -28 -41 27 c-23 15 -41 32 -41 36 0 17 29 9 60
-18 19 -15 30 -20 29 -12 -3 15 35 93 98 200 21 37 57 112 78 168 22 55 42
101 44 101 2 0 1 -26 -1 -58z m1462 22 c-30 -20 -69 -50 -86 -66 -18 -16 -34
-26 -37 -21 -7 10 59 69 114 102 59 36 66 23 9 -15z m326 -61 c8 -42 1 -49
-31 -35 -22 10 -25 18 -25 64 l0 51 25 -23 c14 -13 28 -38 31 -57z m-525 45
c55 -31 52 -53 -3 -28 -24 11 -54 20 -67 20 -20 0 -21 2 -11 15 17 20 35 19
81 -7z m-744 -151 l-22 -112 -3 70 c-3 62 11 164 26 189 3 5 9 0 13 -13 6 -13
0 -63 -14 -134z m-173 116 c-18 -80 -87 -233 -106 -233 -4 0 3 23 17 51 32 61
46 99 39 99 -3 0 -18 -29 -34 -64 -31 -67 -55 -96 -46 -54 20 90 29 144 28
151 -2 5 1 6 6 3 5 -3 26 13 47 34 46 47 58 50 49 13z m1321 -3 c36 -24 30
-25 -18 -5 -20 8 -44 15 -54 14 -12 0 -10 -3 7 -9 14 -4 54 -22 90 -39 36 -17
73 -31 82 -31 23 0 25 -5 33 -85 l6 -70 -35 65 c-20 36 -47 75 -61 87 -54 48
-190 67 -263 38 l-37 -15 29 24 c58 48 168 61 221 26z m-394 -42 c85 -44 184
-140 198 -193 20 -73 12 -163 -21 -247 l-10 -27 -32 24 c-35 27 -158 85 -178
85 -7 0 25 -22 70 -48 127 -72 132 -78 121 -140 -9 -45 -86 -243 -102 -258 -3
-3 -19 2 -37 11 -17 9 -39 15 -48 13 -12 -3 -5 -12 26 -31 24 -15 45 -34 48
-42 7 -18 -16 -91 -74 -230 -56 -135 -78 -172 -133 -219 -113 -96 -180 -114
-307 -81 -110 27 -118 32 -180 100 -85 93 -97 165 -62 370 26 152 53 255 88
340 40 94 188 395 207 420 14 18 20 18 83 7 37 -6 78 -14 92 -17 50 -12 -25
24 -82 39 -28 7 -54 18 -55 23 -6 17 82 83 144 109 87 35 163 33 244 -8z
m-917 -55 c-51 -65 -59 -72 -44 -43 20 39 60 90 72 90 6 0 -7 -21 -28 -47z
m1207 27 c39 -11 84 -50 57 -50 -16 0 -158 47 -166 55 -9 9 72 5 109 -5z
m-1461 -5 c0 -10 -84 -96 -103 -107 -19 -10 -19 -9 1 20 21 28 88 92 97 92 3
0 5 -2 5 -5z m1586 -13 c27 -22 61 -72 79 -116 14 -32 14 -36 0 -36 -8 0 -24
19 -36 43 -12 23 -35 61 -51 85 -30 44 -27 53 8 24z m-4797 -86 c-12 -31 -24
-55 -26 -52 -7 7 20 101 31 108 18 12 17 3 -5 -56z m2396 -61 c-17 -48 -43
-93 -73 -129 -26 -30 -64 -78 -86 -108 -26 -36 -36 -45 -32 -28 15 55 18 127
7 134 -7 5 -11 -4 -11 -24 0 -43 -26 -94 -55 -110 -14 -7 -27 -11 -30 -8 -3 2
-1 37 4 77 7 54 16 81 36 107 34 44 127 118 203 161 71 40 75 31 37 -72z
m2288 61 l32 -14 -50 -1 c-35 0 -57 5 -72 18 -13 11 -23 21 -23 24 0 7 76 -11
113 -27z m-1745 -13 c-13 -48 -70 -167 -63 -133 3 14 5 36 5 51 0 22 52 119
64 119 2 0 0 -17 -6 -37z m1766 -32 c3 -5 -8 -14 -26 -20 -24 -9 -33 -8 -39 1
-5 7 -3 16 4 20 17 11 55 10 61 -1z m-1342 -59 c53 -26 78 -59 85 -113 l5 -38
-47 15 c-57 17 -68 17 -60 4 3 -5 24 -15 45 -21 25 -8 40 -18 40 -28 0 -9 -16
-55 -36 -102 l-36 -87 -46 29 c-41 24 -116 52 -102 36 3 -3 33 -21 68 -41 34
-21 62 -41 62 -46 0 -17 -54 -120 -62 -120 -5 0 -35 11 -68 25 -33 14 -65 25
-72 25 -19 -1 62 -48 94 -55 15 -4 30 -10 32 -14 3 -4 -10 -30 -29 -58 -34
-51 -50 -61 -145 -87 -30 -8 -77 -29 -103 -46 -26 -16 -52 -30 -57 -30 -4 0
-10 -6 -13 -12 -3 -10 -9 -9 -21 3 -19 17 -35 152 -20 161 5 3 42 -10 82 -29
40 -19 76 -32 79 -29 4 3 4 7 2 9 -45 27 -130 67 -143 67 -18 0 -19 10 -10 88
l7 52 39 0 c24 0 37 4 33 10 -3 6 -17 10 -30 10 l-24 0 24 53 c14 28 25 57 25
63 0 32 182 -18 242 -66 39 -32 48 -36 48 -20 0 28 -179 110 -240 110 -29 0
-42 21 -21 34 4 3 18 33 30 66 l22 60 62 0 c73 0 67 17 -8 22 l-50 3 33 34 33
34 80 -6 c110 -9 88 16 -25 28 -32 4 -33 5 -6 21 37 21 143 14 202 -14z m1368
22 c0 -3 -9 -18 -21 -32 -19 -24 -19 -27 -3 -32 17 -6 17 -7 0 -13 -10 -4 -29
-7 -42 -7 -20 0 -24 5 -24 30 0 25 6 34 33 45 34 15 57 19 57 9z m190 -45 c0
-26 -3 -30 -22 -27 -28 4 -34 30 -13 52 22 21 35 12 35 -25z m-220 -90 c0 -20
-4 -28 -12 -23 -6 4 -8 3 -5 -3 6 -9 -17 -83 -50 -163 -3 -8 -7 -19 -8 -25 -2
-5 -15 -30 -29 -55 l-26 -45 6 35 c16 93 68 296 78 302 27 18 46 8 46 -23z
m-2613 -49 c-4 -33 -13 -75 -21 -93 -16 -40 -66 -96 -66 -76 -1 8 -14 -15 -31
-51 -16 -36 -34 -66 -39 -68 -6 -2 -10 -13 -11 -25 0 -12 -4 -31 -9 -42 -6
-14 -9 -3 -9 40 0 38 3 55 8 46 5 -8 9 15 8 60 0 44 5 85 13 99 19 35 25 9 11
-45 -6 -24 -11 -59 -10 -77 0 -26 4 -21 15 27 25 105 46 159 77 198 17 22 35
36 43 33 9 -3 14 2 14 14 0 11 3 20 6 20 4 0 4 -27 1 -60z m738 30 c56 -27 85
-60 92 -103 4 -29 -2 -51 -30 -109 -20 -40 -43 -82 -51 -92 -16 -19 -16 -19
-39 2 -37 34 -55 27 -21 -9 l29 -31 -37 -32 c-21 -18 -38 -40 -38 -49 0 -26
-21 -24 -77 6 -30 16 -57 27 -59 24 -7 -7 67 -57 83 -57 27 0 9 -23 -99 -133
-127 -128 -190 -167 -269 -167 -62 0 -77 7 -94 41 -17 32 -20 119 -5 119 6 0
30 -9 53 -20 l42 -21 -43 39 c-40 36 -42 40 -31 65 15 32 19 33 53 6 31 -25
33 -18 5 27 -23 38 -17 41 44 20 27 -10 37 -11 34 -2 -2 6 -23 18 -48 26 -24
8 -45 15 -47 16 -10 5 17 36 59 69 43 33 54 37 70 27 29 -19 34 -14 8 8 l-24
20 30 25 29 24 33 -20 c33 -21 46 -12 18 11 -22 18 -20 22 30 63 l44 38 78
-47 c102 -61 101 -61 79 -36 -10 12 -47 40 -82 63 l-63 41 32 40 c84 105 109
128 140 128 17 0 49 -9 72 -20z m866 -17 c-12 -20 -14 -14 -5 12 4 9 9 14 11
11 3 -2 0 -13 -6 -23z m-2151 -98 c-29 -67 -35 -50 -8 21 13 32 24 52 26 43 1
-8 -6 -37 -18 -64z m784 17 c3 -5 -13 -30 -34 -56 -47 -57 -50 -54 -12 14 27
49 36 58 46 42z m-170 -48 c23 -9 21 -18 -25 -92 -86 -142 -162 -323 -191
-455 -12 -56 -25 -64 -76 -48 -70 21 -70 19 -22 128 90 206 143 299 239 421
42 53 48 56 75 46z m1323 -156 c4 -76 2 -110 -4 -103 -11 11 -33 168 -33 231
l1 39 15 -27 c9 -17 17 -70 21 -140z m-1253 124 c-27 -46 -54 -78 -54 -64 0
17 50 92 62 92 5 0 2 -13 -8 -28z m126 23 c0 -3 -27 -35 -61 -71 -33 -36 -58
-69 -54 -72 4 -4 40 29 81 73 41 44 74 77 74 73 0 -4 -34 -48 -76 -99 -86
-103 -138 -207 -198 -401 -20 -65 -40 -118 -44 -118 -5 0 -17 6 -27 14 -19 14
-18 18 29 160 49 149 150 371 165 362 4 -3 27 15 51 39 40 41 60 54 60 40z
m-460 -62 c0 -61 -110 -159 -347 -311 -45 -28 -87 -52 -92 -52 -14 0 -14 23 1
55 9 20 17 25 33 21 30 -8 254 162 337 255 34 38 63 69 65 69 2 0 3 -17 3 -37z
m1549 -68 c1 -5 -7 4 -18 20 -10 17 -16 36 -13 44 5 14 29 -37 31 -64z m-1973
-11 c-9 -36 -24 -65 -38 -76 l-23 -18 28 0 c25 0 27 -3 21 -22 -28 -92 -74
-138 -144 -145 -52 -4 -99 15 -130 52 -21 25 -2 36 37 20 41 -17 43 -18 43 -7
0 5 -13 15 -30 23 l-29 14 64 66 c61 63 70 67 65 29 -1 -8 31 17 71 57 40 40
75 71 77 69 2 -2 -4 -30 -12 -62z m1959 -17 c32 -56 33 -78 2 -49 -13 12 -31
22 -40 22 -19 0 -23 15 -7 25 6 3 10 15 10 26 0 28 6 24 35 -24z m1135 -159
c-34 -60 -72 -137 -85 -171 -13 -34 -24 -55 -25 -46 -1 45 73 232 133 333 32
54 32 54 35 24 3 -22 -13 -59 -58 -140z m-2438 105 c-11 -21 -45 -108 -76
-193 -32 -85 -61 -164 -66 -175 l-9 -20 0 20 c0 21 1 25 74 215 46 123 85 204
92 196 3 -2 -4 -21 -15 -43z m-302 -49 c-6 -14 -10 -64 -10 -110 0 -61 -3 -83
-11 -78 -15 9 -6 179 11 199 18 22 21 19 10 -11z m25 -94 l-15 -45 5 65 c2 36
7 74 12 85 16 39 14 -58 -2 -105z m1002 68 c-3 -8 -6 -5 -6 6 -1 11 2 17 5 13
3 -3 4 -12 1 -19z m1642 -59 c-18 -45 -27 -60 -23 -39 7 41 42 125 49 119 2
-3 -9 -39 -26 -80z m-864 61 c-4 -6 -23 -19 -43 -29 -29 -14 -41 -16 -54 -7
-16 9 -14 13 15 28 35 19 92 24 82 8z m-1881 -40 c-6 -6 -33 -20 -60 -31 -32
-13 -39 -18 -19 -14 17 3 46 7 65 10 l35 5 -42 -19 c-23 -11 -71 -22 -105 -26
l-63 -5 89 45 c88 44 121 56 100 35z m1723 -1 c34 -13 90 -64 109 -102 11 -20
13 -45 9 -90 -9 -97 -15 -127 -25 -127 -5 0 -36 25 -67 55 -61 58 -89 73 -105
57 -9 -9 39 -101 55 -102 12 0 8 24 -9 48 -9 13 -14 26 -11 29 11 11 40 -16
68 -63 15 -27 31 -48 34 -46 14 6 25 1 25 -13 0 -36 -76 -152 -120 -182 -18
-13 -22 -9 -55 57 -34 68 -129 180 -152 180 -6 0 12 -24 40 -53 29 -30 67 -84
86 -123 18 -38 40 -76 47 -84 11 -14 7 -24 -33 -75 l-47 -60 -11 37 c-6 21
-21 48 -33 60 l-23 23 21 -50 c12 -27 25 -57 30 -66 9 -18 2 -26 -79 -88 -38
-30 -42 -31 -36 -12 4 12 10 65 14 117 10 135 -11 191 -111 291 -40 40 -87 78
-105 84 -32 10 -32 11 -18 39 16 30 63 73 104 95 26 13 30 11 72 -22 24 -19
52 -39 62 -45 16 -8 17 -7 7 11 -6 12 -8 26 -4 32 4 7 0 9 -13 5 -13 -4 -27 2
-43 19 -29 30 -20 42 48 69 56 21 77 20 121 -6 l36 -21 -38 40 -37 39 47 22
c73 33 99 37 140 21z m1079 -110 c-30 -63 -64 -145 -76 -184 l-20 -70 4 62 c3
43 14 84 35 129 36 77 101 187 107 181 2 -2 -20 -55 -50 -118z m-926 102 c0
-5 -5 -22 -10 -37 l-11 -27 -16 23 c-15 21 -15 24 2 36 22 16 35 18 35 5z
m-783 -96 c45 -94 44 -127 -2 -55 -19 29 -49 69 -67 87 -30 31 -29 49 1 21 11
-11 12 -8 7 16 -7 27 -6 28 10 15 9 -8 32 -45 51 -84z m-75 18 c20 -21 41 -48
47 -61 17 -33 41 -102 35 -102 -3 0 -73 103 -127 187 -17 27 10 12 45 -24z
m-1077 -13 c4 -6 -22 -10 -72 -10 -54 0 -73 3 -63 10 20 13 127 13 135 0z
m1035 -15 c44 -29 35 -39 -15 -15 -29 14 -51 28 -49 32 5 7 42 -2 64 -17z
m-1376 -27 c19 -10 18 -12 -14 -37 -43 -33 -230 -224 -230 -234 0 -21 35 -16
97 14 40 20 61 35 51 37 -9 2 -36 -7 -60 -18 l-43 -22 65 66 c76 78 123 98
175 73 34 -16 65 -69 65 -109 0 -14 -7 -45 -16 -71 l-16 -47 -63 0 c-35 0 -67
-4 -70 -10 -4 -6 18 -10 58 -10 l65 0 -24 -94 c-37 -147 -86 -249 -196 -414
-45 -66 -51 -72 -76 -66 -15 4 -35 11 -44 16 -13 6 -18 5 -18 -6 0 -7 18 -21
40 -30 l40 -16 -26 -42 c-48 -78 -83 -108 -127 -108 -53 0 -101 47 -112 108
-4 24 -5 45 -3 47 1 1 41 -10 88 -25 47 -16 92 -29 99 -29 29 -2 -5 15 -89 43
l-86 28 0 131 c1 114 -3 146 -28 237 -30 110 -40 223 -25 277 9 30 11 31 42
22 17 -5 48 -9 67 -8 34 1 34 1 -15 16 -27 9 -56 17 -62 19 -19 5 -16 34 10
84 14 29 28 44 37 41 8 -2 35 -5 60 -7 l45 -4 -54 18 -53 17 33 34 c43 43 123
80 188 88 49 6 68 -5 39 -23 -13 -8 14 -22 45 -23 17 -1 17 1 3 21 -9 12 -16
26 -16 31 0 12 128 -1 154 -15z m1386 -18 c38 -19 99 -92 82 -98 -4 -1 -41 9
-82 23 -40 14 -86 25 -102 25 -38 0 -38 34 0 54 37 20 56 20 102 -4z m1870 5
c0 -7 -81 -115 -86 -115 -9 0 -2 18 26 68 17 28 37 52 45 52 8 0 15 -2 15 -5z
m-2921 -14 c11 -7 -3 -17 -54 -40 -76 -35 -93 -37 -120 -17 -17 12 -15 14 20
20 21 4 54 16 74 27 39 21 59 23 80 10z m89 -23 c4 -21 -27 -25 -46 -6 -20 20
-14 30 15 26 17 -2 29 -10 31 -20z m-340 -4 c31 -22 52 -67 51 -111 -1 -33 -2
-35 -8 -13 -23 73 -68 120 -118 120 -15 0 -16 2 -3 10 22 14 53 12 78 -6z
m3163 -83 c-17 -67 -145 -320 -149 -292 -5 31 26 178 47 226 23 51 105 146
109 127 2 -8 -1 -35 -7 -61z m-195 -63 c-20 -142 -36 -360 -35 -452 2 -70 2
-69 10 29 5 55 16 178 24 274 9 96 18 177 20 180 9 9 4 -136 -10 -294 -8 -88
-15 -190 -15 -227 l0 -68 -29 0 c-28 0 -28 1 -35 74 -6 72 14 329 35 439 13
73 41 168 46 163 3 -3 -2 -56 -11 -118z m-4016 49 c0 -64 -25 -274 -40 -337
-6 -28 -8 -16 -9 54 -1 108 19 317 30 311 4 -3 5 4 2 15 -3 11 0 20 6 20 7 0
11 -23 11 -63z m2196 18 c-4 -19 -26 -63 -49 -98 -81 -120 -84 -126 -31 -75
48 46 100 75 113 62 3 -3 -10 -19 -29 -36 -100 -87 -149 -138 -178 -188 -40
-67 -32 -26 10 47 16 29 32 65 34 80 3 16 19 53 36 83 17 30 45 81 62 112 17
31 32 55 35 53 2 -2 0 -20 -3 -40z m-362 -8 c8 -21 4 -38 -14 -78 -22 -45 -25
-49 -37 -33 -15 21 -17 38 -3 29 15 -9 11 17 -5 39 -20 26 -19 32 7 56 27 25
40 22 52 -13z m-1724 -35 c0 -39 -19 -75 -82 -153 -32 -39 -33 -36 -14 63 16
79 34 135 35 106 1 -24 18 -23 31 2 17 32 30 23 30 -18z m2180 28 c12 -8 10
-14 -15 -40 -16 -17 -39 -30 -52 -30 -21 0 -23 2 -12 23 11 21 48 56 59 57 3
0 12 -5 20 -10z m321 -31 c23 -11 39 -23 36 -25 -7 -7 -87 27 -87 37 0 13 6
11 51 -12z m-558 -75 c-14 -43 -28 -73 -31 -66 -6 20 43 160 54 150 2 -3 -8
-40 -23 -84z m-43 36 c0 -39 -38 -291 -45 -298 -2 -2 -7 17 -10 42 -10 66 26
296 46 296 5 0 9 -18 9 -40z m-64 -27 c-4 -32 -10 -74 -13 -93 -6 -33 -7 -34
-14 -10 -4 14 -7 55 -8 93 -1 62 1 67 20 67 20 0 21 -4 15 -57z m-1807 -170
c1 -44 -8 -92 -29 -158 -29 -90 -59 -145 -38 -69 14 52 3 53 -16 2 l-16 -43 6
40 c3 22 21 78 40 125 28 70 34 98 35 165 1 69 2 75 10 40 4 -22 8 -68 8 -102z
m1771 -3 c6 -23 10 -56 8 -73 -3 -28 -5 -25 -16 25 -8 32 -24 79 -38 105 l-25
48 30 -32 c17 -18 35 -51 41 -73z m2012 -1 l-10 -54 0 75 c-1 58 2 70 10 54 7
-14 7 -39 0 -75z m-1905 59 c-3 -8 -6 -5 -6 6 -1 11 2 17 5 13 3 -3 4 -12 1
-19z m1220 -25 c-3 -10 -5 -4 -5 12 0 17 2 24 5 18 2 -7 2 -21 0 -30z m-3167
19 c0 -4 -20 -28 -45 -52 -48 -47 -54 -47 -30 0 20 39 75 77 75 52z m3196 -59
c-6 -34 -15 -65 -20 -70 -5 -5 -6 4 -2 21 4 15 9 42 12 60 7 40 14 60 18 55 2
-2 -1 -32 -8 -66z m-1130 -6 c-14 -23 -36 -62 -50 -87 -34 -60 -34 -24 0 43
38 74 55 98 65 91 5 -3 -2 -24 -15 -47z m1164 -2 c-14 -63 -6 -69 10 -8 17 61
20 67 32 55 11 -11 -36 -112 -52 -112 -6 0 -10 -10 -10 -22 0 -13 -9 -36 -21
-53 -11 -16 -31 -51 -45 -77 -26 -50 -54 -64 -54 -26 0 12 -14 37 -32 55 -24
25 -28 33 -15 33 12 0 17 9 17 32 0 39 13 28 30 -25 20 -64 20 -37 0 78 -11
60 -18 111 -16 112 2 2 17 -12 34 -31 24 -28 32 -48 38 -96 4 -38 11 -60 19
-60 15 0 35 51 35 86 0 13 5 26 10 29 6 4 8 10 5 15 -5 9 15 73 21 67 3 -2 0
-26 -6 -52z m591 -36 c11 -41 23 -122 26 -181 l6 -108 -39 0 -40 0 -18 66 c-9
37 -34 101 -55 143 l-39 76 23 17 c23 17 23 17 44 -40 11 -31 28 -88 37 -125
9 -37 18 -66 19 -65 2 2 -3 61 -12 132 -11 98 -12 136 -3 154 16 35 28 19 51
-69z m-1748 -52 c-21 -53 -41 -97 -44 -97 -4 0 -9 11 -11 25 -4 18 8 47 40
100 25 41 47 73 49 71 2 -1 -14 -46 -34 -99z m1344 92 c15 -7 40 -11 56 -10
31 2 34 -5 11 -30 -8 -9 -42 -108 -74 -220 -32 -112 -68 -226 -80 -254 l-20
-50 6 52 c3 29 14 85 24 125 22 84 19 105 -3 26 -16 -53 -28 -118 -45 -233 -5
-33 -12 -69 -16 -80 -4 -11 7 3 25 30 20 29 58 121 91 220 47 138 58 162 58
129 0 -52 -25 -137 -57 -191 -14 -24 -23 -43 -20 -43 7 0 115 134 155 193 18
26 38 47 43 47 18 0 -32 -76 -119 -182 -46 -57 -120 -158 -164 -226 -44 -67
-82 -121 -83 -120 -2 2 1 46 6 98 5 52 11 141 13 197 2 55 9 111 16 123 6 12
18 43 25 68 8 26 32 99 55 162 23 63 47 130 53 148 5 17 12 32 13 32 1 0 15
-5 31 -11z m-94 -23 c-5 -7 -36 -44 -71 -82 l-64 -69 47 77 c44 75 71 102 87
92 5 -3 5 -11 1 -18z m-3373 -94 c-14 -57 -20 -112 -20 -189 0 -79 -4 -115
-14 -129 -8 -10 -17 -16 -20 -13 -8 8 -25 188 -26 265 0 58 2 62 47 112 26 29
49 49 51 43 2 -5 -6 -45 -18 -89z m150 31 c-36 -94 -39 -100 -39 -82 -1 15 11
53 38 123 6 16 14 26 18 23 3 -4 -4 -32 -17 -64z m4145 22 c40 -13 39 -13 -45
-14 -77 0 -83 1 -66 14 24 18 57 18 111 0z m-581 -43 c30 -59 77 -174 73 -178
-4 -4 -117 210 -117 220 0 21 23 -1 44 -42z m-380 -9 c-15 -21 -38 -51 -50
-68 -21 -28 -84 -73 -84 -60 0 10 30 65 36 65 3 0 2 -6 -1 -12 -3 -7 20 15 51
50 64 68 92 83 48 25z m-1322 -33 c29 -22 58 -78 58 -110 0 -20 -4 -21 -47
-16 l-48 6 47 -17 c60 -23 61 -24 52 -68 -6 -35 -8 -36 -38 -31 -17 3 -53 8
-81 11 -65 7 -33 -10 48 -25 31 -6 57 -14 57 -18 -1 -19 -31 -132 -41 -156
-15 -32 -20 -32 -77 -5 -24 12 -74 29 -110 39 -71 18 -70 16 -57 78 5 20 7 21
28 8 12 -8 40 -17 62 -21 l40 -6 -50 28 c-55 31 -62 49 -50 131 9 60 33 82 93
82 34 0 43 3 32 10 -8 5 -34 10 -57 10 -24 0 -43 3 -43 8 0 11 31 55 50 69 25
20 104 16 132 -7z m2313 10 c-64 -18 -210 -48 -214 -44 -11 10 30 37 66 44 56
11 187 11 148 0z m-3955 -29 c-6 -12 -26 -22 -52 -26 -44 -7 -131 -44 -158
-67 -9 -7 -27 -29 -40 -48 -24 -35 -24 -35 24 8 84 77 182 105 221 62 22 -24
14 -36 -13 -21 -12 6 -29 11 -39 11 -11 0 -6 -7 16 -17 48 -24 91 -87 90 -132
0 -32 -2 -34 -12 -17 -43 68 -56 83 -86 103 -73 49 -170 17 -231 -76 -19 -29
-36 -49 -38 -43 -5 16 45 110 90 170 52 70 42 79 -13 10 -45 -57 -89 -141 -89
-171 0 -29 -25 -14 -28 16 -4 34 43 119 102 183 42 47 43 47 132 59 136 18
136 18 124 -4z m3222 -67 c-3 -18 -7 -22 -13 -13 -5 9 -10 4 -14 -17 -3 -16
-16 -49 -28 -74 -17 -37 -22 -41 -25 -23 -5 35 17 103 43 129 31 31 43 30 37
-2z m-63 9 c0 -5 -4 -17 -9 -28 -8 -18 -9 -17 -9 8 -1 15 4 27 9 27 6 0 10 -3
9 -7z m-3239 -117 c0 -12 -7 -31 -15 -42 -9 -11 -14 -42 -15 -78 0 -64 9 -68
21 -9 l7 38 -1 -45 c-4 -86 -54 -31 -56 62 -2 61 22 95 32 46 2 -13 5 -4 6 20
1 44 21 52 21 8z m4043 20 c67 -29 161 -172 177 -269 8 -54 5 -74 -6 -41 -13
36 -91 139 -141 185 -58 54 -112 76 -212 84 -105 8 -109 15 -20 39 69 19 161
20 202 2z m-1244 -35 c-13 -22 -67 -90 -119 -151 -52 -61 -100 -121 -107 -133
-15 -27 -17 -71 -3 -62 6 4 8 10 5 15 -3 5 31 53 74 107 130 159 138 167 138
149 0 -9 -4 -16 -9 -16 -5 0 -6 -4 -3 -10 8 -13 -26 -88 -66 -146 -17 -26 -63
-78 -100 -116 -54 -54 -78 -89 -111 -159 -22 -49 -43 -88 -45 -85 -2 2 7 36
21 75 14 39 23 71 20 71 -3 0 -18 -28 -34 -62 -18 -37 -30 -54 -30 -42 0 32
25 97 54 141 14 21 41 77 60 126 51 131 78 170 179 257 50 44 93 80 95 80 2 0
-7 -18 -19 -39z m706 29 c3 -6 -4 -10 -17 -10 -18 0 -20 2 -8 10 19 12 18 12
25 0z m-525 -73 l-22 -32 7 30 c8 36 27 63 33 46 2 -6 -6 -26 -18 -44z m-2890
-1 c0 -12 -5 -7 -19 24 -11 24 -11 24 3 6 9 -11 16 -24 16 -30z m3873 -16 c29
-11 66 -33 82 -50 28 -29 28 -30 22 -127 -5 -83 -31 -202 -43 -191 -2 2 3 44
11 93 8 50 15 113 15 142 0 47 -3 54 -32 76 -18 14 -52 34 -75 46 -24 12 -43
24 -43 26 0 8 6 6 63 -15z m-3853 -32 c11 -12 20 -33 20 -46 0 -22 -3 -24 -31
-18 -17 3 -40 6 -50 6 -10 0 -24 10 -30 22 -10 18 -8 24 11 40 30 24 55 23 80
-4z m2749 -118 c0 -58 -2 -100 -4 -95 -8 22 -11 225 -4 213 5 -7 8 -60 8 -118z
m-2254 50 c23 -45 19 -131 -12 -229 -15 -47 -27 -90 -28 -96 0 -5 -12 -29 -28
-53 -39 -58 -26 -66 21 -12 48 55 61 85 62 138 0 29 4 41 11 36 13 -8 3 -157
-12 -186 -5 -9 -28 -31 -52 -48 -38 -27 -118 -140 -99 -140 15 0 30 16 46 47
19 39 119 111 124 90 3 -13 -162 -182 -194 -200 -32 -18 -74 48 -74 115 l0 42
27 -42 c31 -48 59 -58 43 -16 -21 53 -11 122 31 230 28 73 40 116 38 144 -2
22 2 45 8 51 20 20 27 -37 13 -97 -7 -30 -11 -57 -8 -60 4 -3 21 25 40 63 29
58 33 78 33 143 0 41 -4 83 -9 93 -14 30 3 19 19 -13z m3504 -43 c-1 -18 -5
-45 -9 -62 -6 -23 -8 -14 -9 38 -1 43 3 66 9 62 6 -3 9 -21 9 -38z m-2557 -2
c75 -14 118 -32 118 -47 0 -5 9 -8 20 -8 24 0 24 -1 4 -44 -12 -23 -22 -33
-33 -29 -12 4 -13 3 -3 -5 11 -7 10 -16 -4 -44 -14 -30 -24 -37 -58 -43 -28
-5 -35 -9 -21 -12 11 -3 24 -9 28 -13 9 -8 -30 -76 -67 -117 -37 -43 -97 -19
-115 44 l-9 32 49 -2 c56 -2 65 8 17 18 -62 12 -68 16 -68 40 0 23 2 24 50 18
63 -7 65 3 4 18 l-46 12 5 42 c7 49 39 155 47 155 3 0 40 -7 82 -15z m-1465
-308 l2 -292 -24 180 c-20 147 -22 195 -15 260 7 65 26 145 33 145 1 0 3 -132
4 -293z m4060 179 c-19 -58 -21 -94 -8 -114 12 -20 21 9 15 50 -4 22 0 40 11
53 15 18 16 18 11 2 -3 -11 -9 -31 -12 -45 -4 -24 -3 -24 14 7 15 27 20 30 25
16 13 -32 7 -77 -14 -106 -11 -16 -25 -29 -30 -29 -15 0 -78 93 -79 115 0 11
6 29 14 40 7 11 19 38 25 60 22 71 23 72 34 37 8 -26 6 -45 -6 -86z m-3588 57
c0 -31 -2 -34 -9 -18 -12 28 -12 55 0 55 6 0 10 -17 9 -37z m-263 -86 c2 -2
-26 -91 -61 -198 -36 -106 -65 -205 -65 -218 0 -13 -3 -22 -6 -18 -11 10 35
331 58 410 11 36 14 38 42 33 16 -4 31 -8 32 -9z m149 -120 c-14 -30 -31 -84
-37 -119 l-11 -63 -13 30 c-16 38 -17 80 -2 108 15 29 80 108 85 104 2 -2 -8
-29 -22 -60z m3677 -24 c22 -24 28 -40 32 -103 3 -41 8 -97 11 -125 l6 -50
-42 45 c-45 49 -74 98 -64 108 4 4 15 -4 26 -17 27 -33 23 -11 -8 44 -15 27
-21 45 -15 41 11 -7 16 12 15 67 0 24 9 21 39 -10z m-1017 -120 c12 -36 14
-57 7 -69 -8 -15 -13 -12 -31 24 -29 57 -26 76 4 27 32 -52 32 -38 0 25 -27
54 -37 119 -11 70 8 -14 22 -48 31 -77z m1175 -19 c0 -5 -11 -25 -25 -44 l-25
-34 0 50 c0 27 3 59 6 72 l7 23 18 -28 c11 -15 19 -33 19 -39z m-3919 -33 c-2
-23 -6 -29 -11 -20 -5 8 -5 37 -2 64 5 44 7 46 12 20 3 -16 4 -45 1 -64z
m2809 -10 c-1 -10 -6 -7 -15 9 -19 33 -18 50 0 26 8 -11 15 -27 15 -35z m-157
-72 c-14 -14 -113 -50 -112 -41 0 11 103 61 112 55 5 -3 5 -9 0 -14z m-2409
-65 c-15 -32 -29 -53 -31 -46 -3 7 8 38 23 68 37 72 42 55 8 -22z m2086 -6 c0
-15 -4 -30 -10 -33 -6 -4 -10 9 -10 32 0 21 -3 49 -5 63 -5 22 -3 21 9 -5 9
-16 15 -42 16 -57z m1448 2 c-1 -43 -15 -105 -17 -74 0 12 -4 50 -7 85 -6 60
-5 63 9 44 9 -11 16 -36 15 -55z m-4732 -49 l7 -43 -28 26 c-26 24 -27 28 -15
57 16 37 26 25 36 -40z m1140 21 c-18 -16 -18 -16 -6 6 6 13 14 21 18 18 3 -4
-2 -14 -12 -24z"/>
<path d="M1102 4511 c7 -11 19 -23 27 -26 25 -10 21 1 -10 24 -28 21 -29 21
-17 2z"/>
<path d="M3370 4595 c0 -2 24 -17 53 -31 28 -15 82 -51 120 -81 37 -29 67 -50
67 -45 0 15 -92 97 -140 124 -44 25 -100 44 -100 33z"/>
<path d="M3590 4403 c0 -26 133 -123 170 -123 19 0 10 18 -12 24 -13 3 -45 23
-72 43 -81 62 -86 66 -86 56z"/>
<path d="M3240 4247 c0 -2 28 -26 63 -52 34 -27 88 -73 119 -104 58 -55 86
-65 51 -17 -26 38 -233 190 -233 173z"/>
<path d="M3070 4178 c19 -12 68 -43 108 -69 76 -50 97 -51 35 -1 -37 28 -154
92 -170 92 -4 0 8 -10 27 -22z"/>
<path d="M3196 4182 c12 -9 40 -32 63 -50 24 -20 38 -27 35 -17 -8 19 -92 85
-108 85 -6 0 -1 -8 10 -18z"/>
<path d="M3180 3903 c0 -5 14 -17 30 -26 17 -10 30 -16 30 -13 0 2 -13 14 -30
26 -16 12 -30 18 -30 13z"/>
<path d="M2923 3600 c14 -11 29 -20 34 -20 11 1 -37 40 -49 40 -6 0 1 -9 15
-20z"/>
<path d="M3028 3443 c7 -3 16 -2 19 1 4 3 -2 6 -13 5 -11 0 -14 -3 -6 -6z"/>
<path d="M2685 3350 c12 -20 175 -121 185 -115 13 8 -18 34 -107 85 -68 40
-89 48 -78 30z"/>
<path d="M2640 3306 c0 -2 16 -14 36 -27 20 -12 44 -31 55 -42 11 -12 32 -23
47 -25 24 -3 25 -1 12 12 -18 18 -130 86 -142 86 -4 0 -8 -2 -8 -4z"/>
<path d="M2329 2726 c14 -17 71 -39 71 -27 0 7 -63 41 -77 41 -3 0 0 -6 6 -14z"/>
<path d="M4711 4374 c0 -11 3 -14 6 -6 3 7 2 16 -1 19 -3 4 -6 -2 -5 -13z"/>
<path d="M4696 3956 c10 -8 21 -12 24 -10 5 6 -21 24 -34 24 -6 0 -1 -6 10
-14z"/>
<path d="M3670 4036 c0 -2 17 -14 38 -25 l37 -22 -28 26 c-25 22 -47 32 -47
21z"/>
<path d="M3771 3951 c10 -22 19 -45 19 -51 0 -5 5 -10 10 -10 6 0 10 5 10 10
0 17 -27 65 -44 79 -11 9 -10 2 5 -28z"/>
<path d="M3835 3960 c3 -5 14 -10 23 -10 15 0 15 2 2 10 -20 13 -33 13 -25 0z"/>
<path d="M3390 3728 c0 -16 40 -77 45 -69 7 12 -7 42 -29 61 -9 7 -16 11 -16
8z"/>
<path d="M2360 3880 c0 -11 50 -34 57 -26 3 2 -9 12 -26 21 -18 9 -31 11 -31
5z"/>
<path d="M2413 3599 c21 -11 44 -18 50 -16 15 5 -46 37 -70 37 -11 -1 -3 -9
20 -21z"/>
<path d="M4050 3249 c0 -2 -7 -26 -15 -53 -8 -27 -12 -46 -8 -42 10 10 33 89
28 95 -3 2 -5 2 -5 0z"/>
<path d="M3881 2584 c0 -11 3 -14 6 -6 3 7 2 16 -1 19 -3 4 -6 -2 -5 -13z"/>
<path d="M4590 3613 c-8 -3 -26 -10 -39 -15 -13 -5 -22 -11 -19 -14 3 -2 18 0
34 6 16 6 54 15 84 19 l55 9 -50 0 c-27 0 -57 -2 -65 -5z"/>
<path d="M4374 3439 c-4 -7 11 -9 52 -4 77 10 81 15 11 15 -31 0 -59 -5 -63
-11z"/>
<path d="M4455 3190 c3 -5 18 -10 32 -10 32 0 28 5 -10 14 -19 4 -26 3 -22 -4z"/>
<path d="M4430 3130 c8 -5 31 -9 50 -9 l35 1 -30 8 c-16 4 -39 8 -50 9 -16 1
-17 -1 -5 -9z"/>
<path d="M236 2975 c-19 -76 -20 -104 -2 -55 15 40 30 120 23 120 -2 0 -12
-29 -21 -65z"/>
<path d="M646 3453 c-3 -4 32 -15 79 -24 55 -11 110 -31 153 -54 53 -29 63
-33 47 -15 -48 53 -251 121 -279 93z"/>
<path d="M780 3151 c0 -5 14 -14 30 -20 17 -5 30 -8 30 -6 0 3 -13 11 -30 20
-16 9 -30 11 -30 6z"/>
<path d="M604 2800 c51 -33 302 -96 319 -81 9 9 -47 26 -113 36 -37 5 -139 31
-210 52 -9 3 -8 0 4 -7z"/>
<path d="M755 2606 c63 -30 95 -40 95 -29 0 5 -26 17 -57 27 -88 28 -92 28
-38 2z"/>
<path d="M331 2585 c5 -23 132 -91 189 -101 25 -4 6 9 -63 44 -54 28 -106 57
-114 64 -13 10 -15 9 -12 -7z"/>
<path d="M393 2316 c29 -27 76 -44 147 -51 38 -5 31 -1 -40 23 -47 16 -96 34
-110 41 -24 12 -24 12 3 -13z"/>
<path d="M540 2032 c0 -4 29 -9 65 -10 37 -1 65 3 65 8 0 6 -29 10 -65 10 -36
0 -65 -4 -65 -8z"/>
<path d="M1665 3299 c152 -63 154 -64 130 -44 -45 37 -185 95 -229 95 -12 -1
33 -23 99 -51z"/>
<path d="M1761 3141 c41 -28 86 -60 102 -71 42 -33 32 -7 -13 33 -39 36 -128
87 -151 87 -6 0 22 -22 62 -49z"/>
<path d="M1073 2727 c6 -20 2 -26 -16 -32 -21 -7 -20 -8 8 -12 16 -3 35 -13
43 -24 7 -10 18 -19 24 -19 7 0 7 4 0 13 -6 7 -9 22 -6 33 4 14 -4 26 -27 43
l-32 24 6 -26z"/>
<path d="M1145 2710 c12 -19 87 -62 153 -86 86 -33 91 -24 6 12 -36 15 -86 41
-111 56 -47 30 -58 34 -48 18z"/>
<path d="M1404 2432 c7 -12 137 -92 149 -92 23 0 -1 24 -55 54 -78 43 -104 54
-94 38z"/>
<path d="M785 1950 c3 -5 8 -10 11 -10 2 0 4 5 4 10 0 6 -5 10 -11 10 -5 0 -7
-4 -4 -10z"/>
<path d="M730 1710 c0 -5 4 -10 9 -10 5 0 18 -3 28 -6 16 -5 16 -4 -1 10 -23
18 -36 20 -36 6z"/>
<path d="M2940 2743 c1 -16 40 -55 51 -51 7 2 1 15 -15 31 -28 28 -36 32 -36
20z"/>
<path d="M2860 2696 c0 -4 15 -28 33 -53 24 -34 33 -41 35 -28 3 10 -11 33
-32 54 -20 19 -36 32 -36 27z"/>
<path d="M2760 2553 c0 -5 11 -20 25 -33 14 -13 25 -19 25 -13 0 5 -11 20 -25
33 -14 13 -25 19 -25 13z"/>
<path d="M4480 2486 c0 -2 19 -15 43 -28 23 -13 55 -33 71 -43 21 -14 28 -15
24 -5 -6 20 -138 92 -138 76z"/>
<path d="M4001 2362 c-6 -12 -11 -22 -11 -24 0 -2 46 -3 103 -4 103 0 152 -12
280 -68 54 -24 36 -1 -23 29 -63 32 -198 71 -277 80 -55 6 -62 5 -72 -13z"/>
<path d="M3882 2070 c-7 -11 -12 -23 -12 -27 0 -5 55 -9 123 -9 95 -2 143 -7
215 -27 107 -28 109 -18 4 18 -83 28 -164 43 -247 46 -33 1 -62 6 -65 10 -3 5
-11 -1 -18 -11z"/>
<path d="M3833 1803 c-7 -2 -13 -10 -13 -16 0 -8 32 -12 105 -12 113 0 123 7
31 24 -62 12 -102 13 -123 4z"/>
<path d="M4305 1692 c62 -27 123 -61 127 -71 1 -5 9 -3 16 5 10 11 4 18 -30
38 -43 24 -110 46 -138 45 -8 0 3 -8 25 -17z"/>
<path d="M4150 1424 c-41 -13 -109 -13 -175 2 -11 2 3 -7 30 -21 28 -14 64
-25 80 -25 35 0 115 34 115 50 0 5 -1 10 -2 9 -2 0 -23 -7 -48 -15z"/>
<path d="M2444 2539 c-19 -22 -19 -22 4 -8 12 8 22 17 22 21 0 12 -6 9 -26
-13z"/>
<path d="M2155 2255 c-10 -25 -15 -48 -13 -51 3 -3 13 16 22 42 21 62 13 69
-9 9z"/>
<path d="M2860 2335 c7 -8 29 -25 49 -36 20 -12 55 -40 78 -62 46 -44 72 -44
32 -1 -23 25 -152 114 -165 114 -4 0 -1 -7 6 -15z"/>
<path d="M2790 2302 c0 -10 37 -45 60 -57 8 -4 -1 8 -19 28 -37 39 -41 42 -41
29z"/>
<path d="M2960 2226 c0 -2 8 -10 18 -17 15 -13 16 -12 3 4 -13 16 -21 21 -21
13z"/>
<path d="M2695 1920 c59 -60 76 -69 56 -32 -12 23 -93 92 -107 92 -4 0 18 -27
51 -60z"/>
<path d="M2580 1862 c0 -4 23 -30 51 -57 30 -30 47 -42 43 -30 -13 36 -94 112
-94 87z"/>
<path d="M2490 1747 c0 -11 49 -67 53 -60 3 4 -5 20 -18 36 -21 24 -35 33 -35
24z"/>
<path d="M1430 1973 c-19 -15 -40 -28 -47 -28 -30 0 -8 -21 39 -36 27 -9 55
-22 61 -28 6 -6 20 -11 30 -11 30 0 6 23 -53 51 l-49 23 32 28 c41 35 32 36
-13 1z"/>
<path d="M1477 1962 c-19 -20 -23 -37 -7 -27 10 6 33 45 27 45 -2 0 -11 -8
-20 -18z"/>
<path d="M3585 1805 c17 -13 40 -37 52 -52 13 -15 23 -22 23 -16 0 20 -70 93
-89 93 -11 -1 -7 -8 14 -25z"/>
<path d="M3610 1456 c-6 -8 -18 -12 -26 -9 -10 4 -12 0 -8 -11 8 -21 23 -17
42 12 16 25 11 30 -8 8z"/>
<path d="M1140 1675 c0 -7 76 -44 122 -61 68 -24 40 2 -37 35 -77 32 -85 34
-85 26z"/>
<path d="M1434 1594 c22 -8 47 -21 57 -30 11 -10 19 -12 24 -5 9 15 -55 51
-90 50 -29 0 -29 -1 9 -15z"/>
<path d="M977 1381 c24 -20 116 -46 203 -57 76 -9 59 2 -31 21 -41 9 -98 24
-127 35 -65 24 -73 25 -45 1z"/>
<path d="M1326 1349 c3 -5 26 -9 51 -9 26 0 44 2 42 4 -9 8 -98 13 -93 5z"/>
<path d="M985 1290 c3 -5 24 -10 46 -10 21 0 39 5 39 10 0 6 -21 10 -46 10
-27 0 -43 -4 -39 -10z"/>
<path d="M1150 1233 c19 -8 68 -17 110 -19 l75 -4 -95 19 c-114 23 -136 24
-90 4z"/>
<path d="M1033 1159 c-18 -18 -16 -34 2 -19 12 10 27 9 77 -3 35 -9 97 -19
138 -23 41 -3 97 -15 123 -27 26 -11 50 -17 53 -14 9 9 -57 46 -91 51 -155 23
-244 37 -265 42 -14 3 -31 0 -37 -7z"/>
<path d="M1131 1055 c16 -16 117 -37 133 -27 7 4 -113 39 -144 42 -2 0 3 -7
11 -15z"/>
<path d="M1165 981 c6 -5 30 -13 55 -16 55 -8 34 9 -25 19 -27 5 -37 4 -30 -3z"/>
<path d="M1080 835 c33 -19 50 -18 26 0 -11 8 -27 15 -35 15 -10 -1 -7 -6 9
-15z"/>
<path d="M3990 1204 c-12 -41 -20 -78 -17 -80 5 -5 25 56 42 129 15 58 -3 23
-25 -49z"/>
<path d="M3866 948 c-10 -40 -19 -98 -21 -128 -1 -30 -1 -42 2 -26 4 23 7 27
15 15 7 -10 8 -7 5 14 -2 16 2 65 10 109 7 44 12 82 10 84 -2 2 -12 -29 -21
-68z"/>
<path d="M562 940 c0 -14 2 -19 5 -12 2 6 2 18 0 25 -3 6 -5 1 -5 -13z"/>
<path d="M4740 990 c8 -5 24 -10 35 -10 55 0 102 -24 153 -76 59 -60 68 -57
20 7 -44 56 -107 89 -172 89 -37 0 -47 -3 -36 -10z"/>
<path d="M3576 835 c-10 -15 -51 -64 -92 -110 -74 -84 -92 -121 -23 -47 61 64
149 182 136 182 -2 0 -12 -11 -21 -25z"/>
<path d="M2290 685 c21 -25 84 -54 132 -61 32 -4 39 -3 28 5 -8 6 -22 11 -30
11 -8 0 -44 14 -79 30 -41 19 -59 25 -51 15z"/>
<path d="M4956 311 c-3 -22 -2 -50 2 -62 6 -16 9 -6 9 39 1 34 0 62 -2 62 -1
0 -5 -18 -9 -39z"/>
<path d="M2096 5053 c16 -170 22 -183 23 -55 1 103 -1 122 -14 122 -13 0 -15
-11 -9 -67z"/>
<path d="M2572 5093 c15 -15 30 -24 34 -20 7 7 -35 46 -51 47 -5 0 3 -12 17
-27z"/>
<path d="M3775 5109 c-4 -6 -5 -12 -2 -15 2 -3 7 2 10 11 7 17 1 20 -8 4z"/>
<path d="M4215 5110 c17 -7 17 -9 3 -9 -10 -1 -18 -6 -18 -12 0 -12 33 -6 84
15 30 13 30 14 -29 14 -41 0 -54 -3 -40 -8z"/>
<path d="M690 5040 c-52 -22 -135 -49 -183 -61 -100 -25 -110 -36 -16 -19 81
15 309 100 309 115 0 8 -12 4 -110 -35z"/>
<path d="M439 5011 c-75 -20 -149 -59 -149 -78 0 -19 13 -16 46 9 15 13 69 37
118 55 99 35 90 42 -15 14z"/>
<path d="M4475 4942 c-124 -40 -122 -39 -109 -51 8 -9 213 64 230 82 11 11 -3
8 -121 -31z"/>
<path d="M132 4738 c8 -12 25 -28 39 -37 18 -11 16 -6 -10 22 -39 42 -50 48
-29 15z"/>
<path d="M374 4743 c6 -28 43 -79 72 -98 16 -10 21 -21 17 -36 -7 -25 0 -23
58 23 20 15 56 39 80 53 66 38 24 30 -56 -10 l-70 -36 -25 28 c-14 15 -37 44
-52 63 -22 28 -27 31 -24 13z"/>
<path d="M4600 4740 c-19 -11 -60 -27 -90 -36 -37 -12 -48 -19 -34 -21 26 -5
126 32 156 57 29 25 13 25 -32 0z"/>
<path d="M4689 4664 c-12 -14 -11 -16 5 -13 11 2 21 10 24 17 5 17 -13 15 -29
-4z"/>
<path d="M20 4615 c14 -15 39 -36 55 -48 29 -20 29 -19 -5 17 -19 21 -44 42
-55 48 -16 9 -16 6 5 -17z"/>
<path d="M1530 4581 c8 -5 31 -11 50 -15 l35 -6 -30 15 c-33 16 -82 21 -55 6z"/>
<path d="M580 4560 c0 -13 40 -13 60 0 11 7 5 10 -22 10 -21 0 -38 -4 -38 -10z"/>
<path d="M941 4502 c0 -7 -21 -22 -46 -33 -59 -26 -58 -41 2 -23 56 17 56 17
50 46 -2 12 -5 17 -6 10z"/>
<path d="M745 4330 c-50 -7 -49 -7 20 -8 39 -1 77 3 85 8 17 11 -23 11 -105 0z"/>
<path d="M0 4294 c0 -13 58 -69 65 -63 2 3 -11 21 -30 39 -19 19 -35 29 -35
24z"/>
<path d="M1380 4259 c70 -47 123 -73 118 -57 -4 13 -133 87 -153 88 -5 0 10
-14 35 -31z"/>
<path d="M0 4222 c0 -11 41 -34 48 -28 3 4 -3 13 -14 21 -21 16 -34 19 -34 7z"/>
<path d="M10 4140 c0 -5 18 -19 40 -30 50 -25 53 -10 4 19 -40 24 -44 25 -44
11z"/>
<path d="M805 4135 c-70 -8 -83 -12 -59 -17 47 -10 175 10 153 25 -2 1 -44 -2
-94 -8z"/>
<path d="M1130 4101 c0 -5 17 -28 38 -51 32 -36 41 -42 62 -35 l24 8 -29 23
c-16 12 -32 21 -36 18 -5 -3 -16 7 -25 21 -16 25 -34 33 -34 16z"/>
<path d="M1390 4090 c-12 -8 -12 -10 5 -10 11 0 27 5 35 10 12 8 12 10 -5 10
-11 0 -27 -5 -35 -10z"/>
<path d="M5021 4086 c2 -2 15 -9 29 -15 24 -11 24 -11 6 3 -16 13 -49 24 -35
12z"/>
<path d="M4990 3390 c0 -5 17 -10 38 -9 33 1 34 2 12 9 -36 11 -50 11 -50 0z"/>
<path d="M2 3134 c3 -3 28 -11 54 -18 27 -7 59 -16 71 -20 18 -6 22 -4 17 8
-3 8 -28 19 -55 25 -54 12 -96 14 -87 5z"/>
<path d="M4999 1865 c122 -59 124 -60 119 -45 -4 13 -194 100 -217 100 -9 0
35 -25 98 -55z"/>
<path d="M240 1903 c-48 -9 -45 -23 3 -17 35 5 53 2 72 -10 29 -19 34 -7 7 17
-18 17 -33 19 -82 10z"/>
<path d="M270 1819 c-86 -23 -184 -65 -201 -85 -16 -19 -10 -18 55 11 82 36
193 65 250 65 33 0 47 3 40 10 -19 19 -71 19 -144 -1z"/>
<path d="M4824 1802 c3 -6 32 -18 64 -27 31 -9 85 -30 119 -45 39 -18 60 -23
57 -15 -9 22 -126 71 -213 90 -22 5 -31 4 -27 -3z"/>
<path d="M215 1625 c-22 -8 -57 -14 -77 -14 -47 -1 -51 -21 -5 -21 37 0 124
27 133 41 7 11 -1 10 -51 -6z"/>
<path d="M4935 1507 c-135 -71 -267 -166 -296 -213 -34 -55 -21 -49 59 27 88
86 144 127 257 186 44 23 76 42 70 42 -5 0 -46 -19 -90 -42z"/>
<path d="M200 1528 c-33 -9 -74 -37 -67 -45 2 -2 24 6 48 17 24 11 62 20 84
20 22 0 47 5 55 10 20 13 -73 12 -120 -2z"/>
<path d="M1725 1500 c-4 -6 6 -10 22 -10 16 0 53 -6 83 -14 30 -8 57 -13 59
-10 2 2 -16 13 -40 24 -47 21 -114 27 -124 10z"/>
<path d="M5050 1269 c-50 -60 -150 -203 -150 -214 0 -3 15 5 33 18 17 13 67
43 110 67 42 24 77 47 77 52 0 12 -12 10 -45 -10 -16 -10 -52 -32 -80 -48
l-50 -29 20 26 c50 66 136 168 145 174 5 3 10 10 10 16 0 22 -22 5 -70 -52z"/>
<path d="M2035 1269 c11 -5 40 -17 65 -28 l45 -20 -55 -1 c-90 -1 -37 -17 84
-26 88 -6 108 -4 104 6 -2 8 -29 19 -59 26 -30 6 -80 21 -111 33 -59 21 -115
30 -73 10z"/>
<path d="M5075 1234 c-22 -19 -31 -30 -20 -25 31 16 70 49 65 55 -3 3 -23 -11
-45 -30z"/>
<path d="M137 1234 c-4 -4 -7 -14 -7 -23 0 -11 3 -12 11 -4 6 6 10 16 7 23 -2
6 -7 8 -11 4z"/>
<path d="M3033 1129 c29 -17 190 -69 196 -64 11 11 -18 25 -106 49 -100 28
-118 31 -90 15z"/>
<path d="M405 970 c10 -11 20 -18 23 -15 7 6 -18 35 -31 35 -5 0 -2 -9 8 -20z"/>
<path d="M1874 880 c33 -11 78 -22 100 -25 37 -4 35 -3 -18 15 -33 11 -78 22
-100 25 -37 4 -35 3 18 -15z"/>
<path d="M4234 869 c-22 -5 -56 -23 -75 -40 l-34 -30 43 21 c23 11 79 26 125
32 61 9 76 14 57 19 -33 9 -67 9 -116 -2z"/>
<path d="M447 810 c-37 -4 -73 -13 -80 -20 -10 -10 -8 -12 8 -6 11 5 46 10 78
13 32 3 60 10 63 14 3 5 4 8 2 8 -2 -1 -34 -5 -71 -9z"/>
<path d="M2855 782 c8 -9 119 -42 139 -42 3 0 6 4 6 10 0 9 -44 23 -115 35
-27 4 -37 3 -30 -3z"/>
<path d="M4725 687 c-11 -6 -58 -21 -105 -33 -74 -19 -80 -22 -44 -23 22 -1
64 6 92 14 29 9 58 15 65 14 27 -3 47 1 47 11 0 6 -11 8 -27 4 -27 -6 -27 -6
-8 9 23 19 9 22 -20 4z"/>
<path d="M385 604 c-33 -8 -81 -15 -107 -16 -51 -3 -62 -12 -27 -23 22 -7 147
18 194 40 37 17 18 16 -60 -1z"/>
<path d="M581 529 c-30 -5 -57 -12 -60 -16 -8 -8 147 5 184 16 27 8 25 9 -20
9 -27 0 -74 -4 -104 -9z"/>
<path d="M4070 484 c0 -30 5 -54 10 -54 6 0 10 17 10 38 l0 39 73 -5 c39 -2
88 0 107 6 31 9 26 10 -45 11 -44 1 -97 5 -117 10 l-38 9 0 -54z"/>
<path d="M4655 510 c-25 -6 -20 -8 27 -9 31 0 60 4 63 9 7 12 -45 12 -90 0z"/>
<path d="M1710 482 c17 -11 150 -35 156 -29 6 6 -70 25 -126 32 -29 4 -40 3
-30 -3z"/>
<path d="M4087 381 c-4 -24 -6 -44 -5 -45 2 -1 66 1 143 4 l140 5 -120 8 c-66
5 -125 10 -132 12 -6 2 -13 16 -15 32 -3 24 -5 21 -11 -16z"/>
<path d="M275 393 c-38 -9 -42 -26 -5 -18 44 9 74 25 45 24 -11 -1 -29 -3 -40
-6z"/>
<path d="M3666 308 c-61 -96 -145 -292 -132 -306 3 -3 10 8 17 24 6 16 22 58
35 94 22 58 74 158 112 218 8 12 11 22 8 22 -3 0 -21 -24 -40 -52z"/>
<path d="M5101 217 c-8 -10 -8 -22 0 -43 9 -23 8 -44 -8 -102 l-20 -72 23 0
c24 0 24 1 24 115 0 63 -2 115 -4 115 -2 0 -9 -6 -15 -13z"/>
<path d="M1850 202 c0 -22 180 -36 187 -14 4 9 -14 12 -69 12 -40 0 -83 3 -95
6 -13 4 -23 2 -23 -4z"/>
<path d="M655 172 c-110 -33 -89 -41 30 -13 55 14 101 19 126 15 24 -4 39 -3
39 4 0 30 -78 28 -195 -6z"/>
<path d="M3181 144 c0 -11 3 -14 6 -6 3 7 2 16 -1 19 -3 4 -6 -2 -5 -13z"/>
<path d="M1630 119 c30 -13 257 -64 323 -73 29 -5 47 -3 47 3 0 5 -21 13 -47
16 -27 4 -108 20 -181 36 -137 30 -188 36 -142 18z"/>
<path d="M3763 83 c8 -42 27 -86 33 -80 7 6 -25 107 -33 107 -3 0 -3 -12 0
-27z"/>
<path d="M4375 63 c-11 -2 -56 -13 -100 -24 -53 -14 -81 -17 -83 -10 -2 6 -11
11 -19 11 -10 0 -13 -6 -9 -16 3 -9 6 -18 6 -20 0 -12 73 0 168 27 59 18 109
33 111 35 6 5 -49 3 -74 -3z"/>
</g>
</svg>