<?xml version="1.0" standalone="no"?>
<!DOCTYPE svg PUBLIC "-//W3C//DTD SVG 20010904//EN"
 "http://www.w3.org/TR/2001/REC-SVG-20010904/DTD/svg10.dtd">
<svg version="1.0" xmlns="http://www.w3.org/2000/svg"
 width="512.000000pt" height="512.000000pt" viewBox="0 0 512.000000 512.000000"
 preserveAspectRatio="xMidYMid meet">
<metadata>
Created by potrace 1.16, written by Peter Selinger 2001-2019
</metadata>
<g transform="translate(0.000000,512.000000) scale(0.100000,-0.100000)"
fill="#000000" stroke="none">
<path d="M3095 4426 c-109 -40 -145 -58 -279 -140 -178 -111 -232 -119 -354
-58 -103 51 -173 66 -287 60 -104 -6 -187 -38 -263 -103 -41 -35 -45 -37 -94
-30 -124 17 -212 66 -298 165 -28 33 -58 60 -66 60 -29 0 -37 -44 -19 -106 34
-118 115 -225 208 -274 l46 -24 -32 -36 c-18 -19 -39 -46 -47 -59 l-16 -24
-42 22 c-67 34 -160 54 -222 48 -72 -8 -129 -28 -217 -79 -94 -54 -105 -78
-70 -150 38 -77 116 -154 193 -190 88 -41 158 -46 262 -19 45 11 84 21 88 21
4 0 4 -19 1 -41 -4 -34 -17 -53 -64 -101 -32 -33 -82 -76 -112 -96 -93 -63
-94 -66 -95 -259 -1 -161 0 -169 22 -201 30 -41 69 -62 135 -69 43 -5 57 -12
80 -39 36 -43 118 -82 191 -90 54 -7 59 -9 72 -40 8 -18 14 -56 14 -83 0 -71
25 -192 50 -243 19 -36 22 -58 20 -139 -2 -154 36 -276 117 -377 22 -27 40
-64 50 -105 18 -73 120 -290 187 -397 42 -68 46 -80 46 -137 0 -87 -16 -153
-51 -208 -16 -25 -27 -50 -24 -56 4 -5 -10 -45 -30 -90 -20 -44 -34 -86 -31
-94 8 -23 104 -45 195 -45 99 0 148 11 179 41 22 19 23 27 18 122 -2 56 -12
135 -20 175 -25 114 -21 194 14 292 16 47 30 92 30 101 0 28 40 69 92 95 38
20 53 23 58 13 5 -7 11 -53 15 -103 4 -50 17 -118 29 -151 30 -86 29 -230 -3
-300 -49 -106 -102 -250 -99 -269 2 -13 19 -29 43 -41 56 -28 203 -28 259 -1
37 19 38 21 33 59 -3 22 -1 48 5 57 9 14 7 29 -9 66 -54 128 -56 270 -7 404
15 41 44 131 65 200 l36 124 24 -44 c48 -92 25 -229 -67 -391 -30 -52 -54 -99
-54 -103 0 -16 73 -36 134 -36 62 0 116 14 116 31 0 4 8 15 17 25 12 12 18 37
20 88 3 81 32 177 76 255 36 65 43 58 58 -61 18 -142 -4 -268 -70 -391 -45
-86 -45 -88 -26 -103 46 -35 196 -47 259 -20 l32 13 2 124 c1 136 24 275 66
409 14 44 26 103 26 130 0 48 25 130 39 130 4 0 35 -58 70 -128 60 -124 63
-133 68 -223 7 -121 -8 -206 -53 -305 -20 -43 -37 -92 -38 -109 -1 -27 3 -31
49 -48 72 -25 223 -20 262 10 24 18 28 27 26 69 -11 353 -8 439 16 527 20 74
22 100 16 155 -12 103 -9 172 16 355 l23 167 46 -127 c45 -125 127 -294 147
-300 5 -2 17 22 26 54 60 217 46 351 -53 498 -25 39 -54 90 -64 114 -28 72
-48 227 -51 401 -5 230 -32 345 -116 487 -52 88 -174 204 -255 244 -76 38 -83
38 -484 28 -175 -4 -224 4 -293 50 l-28 18 46 27 c96 57 197 189 221 289 15
65 -136 147 -288 155 -102 5 -155 -9 -227 -63 -27 -19 -53 -35 -59 -35 -11 0
-82 87 -82 100 0 4 21 13 46 20 103 29 201 111 379 315 105 120 119 140 111
160 -8 21 -29 18 -131 -19z m64 -19 c-2 -1 -38 -34 -79 -72 -41 -39 -64 -58
-51 -42 14 15 22 27 19 27 -3 0 -55 -38 -114 -85 -114 -89 -245 -165 -286
-165 -31 0 -48 18 -48 50 0 35 9 44 60 60 25 8 81 37 125 63 111 67 230 127
295 148 48 16 91 24 79 16z m-1521 -216 c24 -12 76 -30 115 -40 67 -16 70 -18
49 -30 -50 -27 -169 20 -261 103 -42 37 -44 38 -27 11 41 -67 69 -96 126 -132
73 -47 79 -65 9 -26 -81 44 -154 139 -175 228 -6 28 -3 26 57 -31 36 -34 84
-71 107 -83z m687 39 c42 -11 102 -33 133 -50 31 -16 66 -30 79 -30 13 0 23
-3 23 -7 0 -5 -28 -9 -63 -9 -71 -2 -123 -24 -247 -107 -91 -61 -254 -192
-280 -224 l-19 -24 -11 42 c-13 48 -7 106 16 150 15 30 34 31 34 3 0 -9 5 -24
11 -35 10 -19 13 -17 58 23 26 24 88 72 137 107 77 56 85 63 55 57 -52 -10
-132 -49 -173 -85 -46 -40 -58 -39 -58 4 0 49 24 101 61 136 17 16 29 29 26
29 -5 0 -149 -56 -172 -67 -31 -15 48 42 87 63 93 48 182 55 303 24z m654 -37
c-31 -37 -167 -138 -218 -160 -71 -31 -78 -22 -9 13 61 31 147 89 198 133 40
34 49 39 29 14z m-985 -88 c-6 -15 -10 -17 -92 -35 -62 -14 -73 -10 -35 15 49
32 137 46 127 20z m599 -137 c46 -66 61 -97 65 -135 5 -46 6 -47 14 -18 4 17
5 38 2 48 -4 11 9 4 34 -20 32 -30 38 -42 31 -55 -14 -26 11 -23 52 7 110 80
138 96 185 106 71 16 149 4 232 -36 87 -41 94 -57 55 -132 -39 -79 -111 -154
-184 -193 -54 -28 -73 -33 -133 -34 -90 0 -135 15 -202 70 -38 31 -55 40 -61
31 -4 -6 -9 -88 -11 -182 l-2 -170 20 37 c11 21 26 64 34 95 l13 58 9 -70 c5
-38 9 -124 8 -190 -1 -202 -42 -314 -160 -430 -75 -75 -202 -157 -287 -186
-65 -23 -149 -24 -210 -3 -41 14 -147 95 -147 112 0 4 16 18 35 31 23 16 42
21 58 17 180 -45 354 -12 466 90 71 64 69 81 -3 29 -93 -66 -179 -95 -287 -95
-86 0 -182 20 -195 42 -4 7 6 23 24 38 40 33 40 40 2 40 -18 0 -52 -14 -83
-35 -74 -49 -113 -52 -238 -20 -104 27 -159 29 -257 9 -64 -13 -112 37 -112
116 0 33 3 40 19 40 33 0 51 11 66 41 20 37 10 79 -26 119 -54 59 -19 89 127
109 91 13 201 2 240 -24 16 -11 24 -25 24 -45 0 -28 -2 -30 -25 -24 -32 8
-105 -19 -133 -49 -50 -53 -31 -110 43 -127 30 -7 42 -6 47 5 4 7 28 25 53 39
113 66 95 178 -37 237 -43 18 -71 23 -149 23 l-96 1 21 26 c109 133 233 290
248 314 13 22 18 50 18 100 0 86 -13 137 -46 172 l-25 28 21 -37 c27 -46 41
-147 31 -206 -9 -43 -37 -92 -57 -99 -5 -2 -15 34 -22 79 -8 57 -20 94 -38
121 -23 35 -25 42 -13 64 24 45 107 110 174 137 78 31 110 34 100 9 -30 -74
-30 -167 0 -239 l15 -36 77 70 c196 174 372 275 473 270 44 -3 45 -4 103 -90z
m-1191 -87 c31 -6 81 -21 112 -36 l55 -26 -16 -37 c-8 -20 -16 -38 -18 -40 -2
-2 -25 13 -52 34 -66 50 -102 64 -171 64 -49 0 -73 -7 -133 -37 -89 -46 -94
-60 -44 -126 77 -101 192 -147 319 -128 39 5 72 8 74 6 2 -2 -22 -11 -54 -21
-139 -40 -285 18 -366 145 -32 52 -35 81 -10 103 33 30 128 77 182 92 68 18
55 18 122 7z m6 -111 c20 -10 48 -29 62 -40 21 -17 16 -16 -34 6 -52 23 -67
26 -135 21 -42 -3 -87 -8 -101 -11 -14 -4 -2 5 25 19 62 31 131 33 183 5z
m242 -60 c17 -59 24 -175 12 -196 -9 -15 -11 -6 -12 46 0 66 -18 117 -46 133
-17 10 -18 26 -3 64 10 27 11 27 25 8 8 -10 19 -35 24 -55z m-42 -58 c2 -7 -3
-12 -12 -12 -9 0 -16 7 -16 16 0 17 22 14 28 -4z m1119 -184 c-3 -8 -6 -5 -6
6 -1 11 2 17 5 13 3 -3 4 -12 1 -19z m214 -12 c62 -2 84 -7 121 -29 132 -77
221 -93 423 -75 232 20 299 17 365 -17 71 -36 186 -152 238 -241 56 -95 79
-171 93 -305 14 -145 13 -164 -58 -829 -15 -144 -28 -320 -28 -405 -1 -100 -7
-177 -19 -230 -19 -90 -25 -260 -12 -348 l9 -57 -75 0 c-41 0 -77 3 -80 6 -4
3 -2 20 3 37 5 18 10 97 10 177 1 147 1 148 -46 275 -4 11 7 -2 24 -29 18 -26
34 -46 37 -43 8 7 -39 123 -101 247 -56 113 -57 116 -50 180 9 100 17 140 25
135 10 -6 75 153 95 229 18 73 32 308 16 286 -6 -8 -11 -31 -11 -50 0 -35 -60
-341 -80 -413 -19 -65 -21 -36 -4 54 37 190 -13 481 -116 689 -65 130 -139
226 -323 420 -116 121 -104 101 54 -96 165 -205 240 -346 296 -562 31 -120 42
-307 23 -379 -32 -118 -108 -227 -219 -315 -115 -92 -251 -151 -376 -164 l-63
-7 16 69 c11 51 25 81 52 114 21 25 45 59 54 77 26 53 46 153 45 233 -1 73 -2
74 -9 25 -12 -81 -30 -137 -60 -190 -31 -53 -75 -106 -103 -121 -12 -7 -21
-37 -32 -99 -37 -212 -104 -449 -136 -475 -10 -8 -23 -28 -29 -45 l-11 -30
-32 55 -32 55 -5 -45 -5 -45 -12 35 c-7 19 -17 117 -23 218 -11 198 -21 268
-44 310 -14 26 -15 26 -16 4 0 -12 -13 -46 -29 -75 -16 -28 -32 -69 -35 -89
-6 -32 -13 -40 -49 -56 -54 -24 -94 -71 -108 -128 -13 -49 -23 -53 -74 -28
-35 16 -141 129 -192 204 -80 118 -169 332 -180 432 -9 83 -22 59 -25 -47 l-3
-90 -18 50 c-10 28 -21 79 -24 115 l-6 65 36 20 c30 16 40 17 63 6 26 -11 33
-9 111 44 50 35 114 91 161 143 110 122 185 198 211 211 l22 12 -22 -43 c-12
-24 -31 -56 -41 -71 -42 -59 -7 -34 95 68 117 119 162 191 196 315 52 191 42
380 -35 667 -6 21 -5 21 38 6 23 -9 77 -17 119 -17z m-1537 -368 c9 -12 16
-26 16 -31 0 -13 -29 12 -41 35 -14 26 6 23 25 -4z m380 -9 c-23 -26 -74 -53
-74 -40 0 8 77 61 89 61 2 0 -4 -9 -15 -21z m1023 -93 c-12 -118 -79 -206
-257 -340 -52 -39 -124 -102 -160 -141 -35 -38 -105 -110 -155 -160 l-90 -90
-3 44 c-3 33 4 59 26 103 21 43 24 54 10 41 -22 -20 -62 -103 -78 -162 l-11
-43 -30 28 c-38 36 -95 122 -115 171 l-15 38 33 -39 c18 -22 41 -49 50 -60 14
-18 13 -10 -5 51 -11 40 -19 75 -16 77 3 3 23 -1 44 -9 115 -41 275 6 477 141
188 125 270 226 285 352 3 28 8 52 11 52 3 0 2 -24 -1 -54z m-826 -194 c-44
-63 -195 -113 -295 -98 -31 5 -58 17 -79 36 l-32 28 38 7 c22 4 71 2 112 -5
102 -17 164 -10 222 28 27 16 49 31 51 31 2 1 -6 -12 -17 -27z m2279 -445 c6
-42 22 -109 36 -149 29 -84 64 -270 64 -342 0 -27 -2 -47 -4 -45 -3 3 -14 58
-26 124 -11 66 -34 170 -50 230 -26 101 -51 278 -36 264 3 -3 10 -40 16 -82z
m121 -282 l10 -20 -16 20 c-9 11 -21 29 -26 40 l-10 20 16 -20 c9 -11 21 -29
26 -40z m35 -210 l3 -80 -9 70 c-4 39 -15 90 -24 115 -22 63 -18 74 6 20 15
-31 22 -70 24 -125z m-740 -265 c-3 -14 -12 -52 -20 -85 -13 -51 -93 -390
-100 -428 -2 -6 -7 -21 -12 -32 -4 -11 -9 -48 -9 -83 0 -69 -11 -81 -59 -63
-30 12 -31 17 -11 57 36 73 58 276 35 329 -6 14 -9 -5 -10 -60 -3 -127 -17
-157 -19 -41 -1 116 -20 202 -67 304 l-33 73 22 8 c60 23 158 74 202 105 l49
35 18 -47 c11 -26 17 -58 14 -72z m-379 -92 c32 -30 29 -57 -22 -208 -25 -73
-50 -154 -56 -181 -11 -48 -11 -49 -49 -49 -21 0 -41 4 -44 8 -3 5 4 26 14 48
54 109 69 266 31 329 -12 21 -20 39 -18 42 5 4 93 29 111 32 6 0 20 -9 33 -21z
m-979 -150 c67 -69 83 -90 77 -107 -8 -25 -26 -26 -70 -5 -35 16 -71 75 -119
193 -32 80 -32 84 1 41 15 -19 65 -74 111 -122z m92 -148 c-6 -11 -15 -18 -21
-15 -15 10 -11 23 9 28 9 3 18 5 20 6 1 0 -2 -8 -8 -19z m60 -288 c11 -53 11
-67 -1 -89 -13 -23 -18 -25 -71 -21 -32 2 -61 7 -64 11 -4 3 10 25 30 48 l38
41 -3 127 c-3 121 -2 128 21 160 l25 33 6 -124 c3 -67 11 -151 19 -186z m-106
102 c1 -77 -2 -95 -18 -113 -30 -33 -34 -25 -20 37 8 31 14 93 14 137 1 67 3
76 12 55 6 -14 12 -66 12 -116z m534 -43 c0 -58 7 -129 15 -158 15 -58 12 -63
-44 -63 -33 0 -89 25 -89 40 0 5 9 26 20 47 20 39 39 146 40 220 0 41 0 41 28
31 l28 -11 2 -106z m569 77 c-3 -7 -5 -2 -5 12 0 14 2 19 5 13 2 -7 2 -19 0
-25z m-393 -52 c-9 -15 -19 -24 -22 -22 -2 3 3 17 12 32 10 14 20 23 23 21 2
-3 -3 -17 -13 -31z m861 -158 c-12 -58 -16 -68 -31 -68 -17 0 -17 -3 2 53 18
54 39 64 29 15z m-500 -15 c-18 -43 -23 -49 -32 -39 -8 8 26 76 39 76 4 0 1
-17 -7 -37z m-1100 -110 c-8 -27 -15 -51 -15 -55 0 -5 -11 -8 -25 -8 -30 0
-30 1 -3 62 14 31 28 48 39 48 17 0 17 -3 4 -47z m465 8 c0 -24 -24 -111 -31
-111 -18 0 -19 23 -2 70 16 45 33 66 33 41z"/>
<path d="M2458 4153 c6 -2 18 -2 25 0 6 3 1 5 -13 5 -14 0 -19 -2 -12 -5z"/>
<path d="M2297 3948 c-58 -31 -112 -87 -159 -163 -46 -75 -79 -135 -74 -135 2
0 40 49 85 109 78 106 145 171 206 204 17 9 23 16 15 16 -8 0 -41 -14 -73 -31z"/>
<path d="M2530 3923 c14 -9 34 -23 46 -32 11 -9 5 -1 -13 17 -18 17 -38 32
-45 32 -7 0 -1 -7 12 -17z"/>
<path d="M3010 3861 c-59 -13 -117 -49 -157 -98 -21 -26 -52 -62 -69 -80 -67
-70 13 -26 135 74 56 46 106 59 174 47 l42 -7 -40 -8 c-136 -27 -145 -31 -226
-90 -71 -51 -88 -59 -127 -59 l-45 0 23 -25 c13 -14 49 -38 79 -53 76 -37 183
-38 254 -3 98 48 222 196 204 243 -13 36 -175 74 -247 59z"/>
<path d="M2395 3841 c-72 -18 -145 -81 -183 -156 -31 -64 -36 -95 -7 -45 46
78 93 127 147 154 61 30 133 34 180 10 16 -9 27 -11 23 -5 -19 32 -108 55
-160 42z"/>
<path d="M2380 3750 c-18 -12 -2 -12 25 0 13 6 15 9 5 9 -8 0 -22 -4 -30 -9z"/>
<path d="M2391 3693 c-18 -9 -46 -34 -62 -56 -16 -21 -48 -51 -71 -66 -24 -15
-50 -36 -58 -46 -13 -17 -11 -16 20 2 60 37 110 40 162 9 25 -15 60 -26 80
-26 38 0 88 32 88 55 0 8 7 18 16 23 11 6 13 11 5 16 -18 12 -13 32 12 44 l22
11 -23 0 c-13 1 -44 12 -70 26 -55 29 -75 31 -121 8z m83 -19 c20 -8 21 -34 2
-34 -8 0 -21 -3 -30 -6 -21 -8 -34 25 -15 37 17 10 23 11 43 3z m46 -108 l-21
-21 18 32 c10 18 20 28 22 22 2 -6 -6 -21 -19 -33z m-57 -33 c-7 -2 -21 -2
-30 0 -10 3 -4 5 12 5 17 0 24 -2 18 -5z"/>
<path d="M2330 3426 c27 -31 90 -66 116 -66 23 0 68 29 84 53 10 16 5 15 -21
-7 -42 -36 -87 -32 -156 15 -46 31 -47 31 -23 5z"/>
<path d="M2628 3104 c-3 -76 -8 -148 -12 -159 -3 -11 4 0 16 25 19 37 23 61
23 140 0 52 -5 104 -12 114 -8 15 -12 -12 -15 -120z"/>
<path d="M2186 3205 c-22 -7 -49 -23 -60 -35 l-21 -21 35 18 c26 13 67 19 160
23 l125 5 -80 13 c-98 15 -110 15 -159 -3z"/>
<path d="M2946 3280 c65 -161 102 -402 83 -549 -12 -99 -48 -213 -85 -273
l-26 -41 30 22 c32 23 81 80 102 121 63 119 51 333 -31 573 -29 86 -84 207
-93 207 -3 0 6 -27 20 -60z"/>
<path d="M3648 3333 c7 -3 16 -2 19 1 4 3 -2 6 -13 5 -11 0 -14 -3 -6 -6z"/>
<path d="M3520 3318 c-30 -5 -59 -13 -63 -17 -9 -9 101 5 147 18 l31 9 -30 0
c-16 0 -55 -5 -85 -10z"/>
<path d="M3408 3293 c6 -2 18 -2 25 0 6 3 1 5 -13 5 -14 0 -19 -2 -12 -5z"/>
<path d="M3852 3147 c72 -88 116 -177 136 -280 l17 -82 3 63 c2 37 -4 86 -13
117 -21 72 -88 168 -150 214 l-49 36 56 -68z"/>
<path d="M3668 3038 c53 -67 137 -205 169 -276 9 -20 27 -71 40 -112 l23 -75
-3 81 c-3 68 -9 94 -39 155 -39 84 -138 212 -201 261 l-42 33 53 -67z"/>
<path d="M3344 3050 c7 -19 26 -62 41 -95 15 -33 45 -105 66 -160 43 -113 48
-113 19 -1 -18 71 -90 227 -125 272 -14 17 -14 16 -1 -16z"/>
<path d="M2826 2676 c-11 -60 -63 -183 -108 -260 -26 -44 -91 -122 -179 -212
-149 -154 -191 -221 -226 -354 -22 -85 -22 -249 0 -309 9 -25 13 -49 10 -55
-3 -6 -3 -8 1 -4 4 3 23 -10 43 -30 40 -42 40 -40 9 73 -20 73 -20 141 -1 222
31 133 95 238 238 391 88 93 135 163 165 242 21 58 66 302 59 323 -2 7 -7 -6
-11 -27z"/>
<path d="M3074 2214 c12 -92 -37 -296 -102 -426 l-39 -77 27 14 c83 43 160
210 160 346 0 53 -34 189 -47 189 -3 0 -3 -21 1 -46z"/>
<path d="M2587 2031 c-107 -114 -176 -205 -165 -217 10 -9 216 215 252 274 21
35 37 64 35 66 -2 2 -57 -54 -122 -123z"/>
<path d="M2191 2043 c-24 -121 -6 -268 50 -413 16 -41 40 -88 54 -105 24 -29
23 -28 -6 44 -58 140 -82 252 -83 398 0 73 -2 133 -2 133 -1 0 -6 -26 -13 -57z"/>
<path d="M2702 1778 c-36 -38 -62 -95 -62 -135 1 -24 3 -21 16 17 9 25 26 59
38 75 24 32 49 75 43 75 -2 0 -17 -15 -35 -32z"/>
<path d="M2521 1653 c-18 -40 -25 -117 -13 -139 9 -15 11 -9 12 36 0 30 4 71
10 89 12 43 7 50 -9 14z"/>
<path d="M2880 1296 c0 -2 8 -10 18 -17 15 -13 16 -12 3 4 -13 16 -21 21 -21
13z"/>
<path d="M3971 1234 c-2 -86 12 -254 22 -254 12 0 2 204 -12 260 l-9 35 -1
-41z"/>
</g>
</svg>