<?xml version="1.0" standalone="no"?>
<!DOCTYPE svg PUBLIC "-//W3C//DTD SVG 20010904//EN"
 "http://www.w3.org/TR/2001/REC-SVG-20010904/DTD/svg10.dtd">
<svg version="1.0" xmlns="http://www.w3.org/2000/svg"
 width="512.000000pt" height="512.000000pt" viewBox="0 0 512.000000 512.000000"
 preserveAspectRatio="xMidYMid meet">
<metadata>
Created by potrace 1.16, written by Peter Selinger 2001-2019
</metadata>
<g transform="translate(0.000000,512.000000) scale(0.100000,-0.100000)"
fill="#000000" stroke="none">
<path d="M2425 4021 c-65 -19 -175 -67 -175 -75 0 -3 12 -1 28 5 99 38 348 51
474 24 37 -7 95 -25 130 -39 71 -28 53 -10 -32 34 -138 70 -296 89 -425 51z"/>
<path d="M1006 3985 c-12 -33 -6 -107 13 -144 l20 -38 -37 -20 c-20 -11 -54
-26 -74 -33 -21 -6 -38 -15 -38 -20 0 -21 79 -45 163 -48 l87 -4 24 -42 c35
-59 45 -105 57 -251 13 -177 24 -230 59 -302 37 -74 111 -145 177 -167 26 -9
75 -16 111 -16 48 0 63 -3 59 -12 -3 -7 -24 -56 -47 -108 -70 -159 -84 -241
-85 -485 0 -236 8 -285 71 -413 30 -61 62 -100 186 -228 l151 -155 -6 45 c-11
80 -59 206 -110 290 -27 44 -65 107 -84 138 -19 32 -46 83 -59 115 -13 32 -24
53 -24 46 0 -20 51 -174 77 -233 14 -30 34 -75 44 -100 l19 -45 -54 58 c-169
182 -191 456 -59 722 32 65 56 102 176 278 27 40 50 85 53 109 6 34 10 39 28
34 12 -3 25 -6 30 -6 5 0 6 -28 3 -62 -5 -56 -4 -61 9 -44 7 11 17 41 20 68
11 81 29 77 26 -6 -4 -92 12 -117 84 -127 l49 -6 -43 -2 c-24 0 -57 6 -74 15
-60 31 -128 -6 -162 -88 -22 -51 -20 -60 3 -22 11 18 35 44 55 59 29 22 42 26
68 21 78 -15 126 -18 145 -8 11 6 62 43 113 81 52 39 123 86 159 105 74 40 71
45 -12 18 l-55 -19 38 51 c66 87 70 182 12 276 -44 70 -99 104 -182 108 -115
7 -200 -36 -264 -132 -49 -73 -45 -79 10 -17 57 64 129 102 205 108 78 7 156
-27 195 -87 36 -54 44 -139 17 -189 -10 -19 -22 -36 -28 -38 -5 -2 -18 18 -29
43 -38 94 -107 143 -199 144 -54 0 -90 -16 -127 -55 -49 -52 -125 -71 -183
-44 l-25 11 23 34 c13 19 35 65 49 102 16 41 46 90 78 127 58 68 78 109 78
159 0 65 -12 72 -27 15 -24 -95 -87 -133 -149 -93 -14 9 -51 56 -84 103 -136
198 -231 259 -461 296 -57 9 -105 18 -108 21 -2 2 22 4 55 4 32 0 108 7 168
17 182 27 279 -1 425 -128 44 -38 97 -77 116 -85 35 -14 35 -14 100 35 90 69
174 114 285 153 93 32 99 33 260 32 160 0 168 -1 265 -33 113 -37 179 -72 271
-143 38 -28 74 -48 89 -48 41 0 93 26 154 78 172 149 281 181 461 138 36 -9
96 -16 134 -16 112 0 68 -11 -82 -21 -181 -11 -231 -29 -304 -107 -32 -35 -77
-103 -113 -171 -48 -91 -67 -118 -97 -134 -54 -32 -88 -17 -110 48 -9 28 -17
41 -18 30 -1 -47 -17 -48 -44 -4 -21 36 -26 40 -26 21 0 -42 28 -89 93 -156
52 -54 71 -82 93 -139 15 -40 40 -84 56 -98 24 -23 26 -28 13 -39 -9 -7 -37
-15 -64 -18 -46 -4 -51 -2 -111 46 -135 109 -273 85 -346 -60 -13 -26 -26 -48
-29 -48 -13 0 -35 65 -35 105 0 117 108 208 227 191 88 -12 145 -48 221 -141
l33 -40 -30 51 c-44 73 -97 123 -160 152 -161 74 -330 -20 -348 -193 -6 -61
16 -120 67 -178 37 -42 37 -42 -20 -22 -72 26 -78 16 -12 -19 62 -34 160 -104
256 -184 28 -23 64 -46 80 -52 l31 -10 -30 24 c-16 13 -41 33 -55 44 l-25 21
35 1 c46 0 76 22 90 66 14 40 6 112 -16 159 l-15 30 28 -32 c19 -21 32 -51 40
-94 6 -34 19 -69 27 -77 13 -13 13 -10 6 24 -5 21 -10 54 -10 72 0 30 2 32 35
32 31 0 35 -3 41 -35 3 -20 29 -66 56 -103 65 -88 163 -288 187 -382 19 -72
20 -73 20 -30 1 109 -52 261 -143 415 -58 97 -74 135 -56 135 6 0 32 -11 58
-24 45 -23 51 -31 106 -143 117 -239 148 -347 148 -523 1 -168 -49 -315 -142
-420 l-40 -45 19 45 c23 55 39 138 45 245 l4 80 -28 -85 c-15 -47 -54 -143
-85 -215 -75 -170 -111 -262 -120 -304 -7 -33 0 -28 119 85 183 171 250 281
281 463 40 224 -6 440 -140 667 l-64 109 54 7 c75 10 144 48 198 108 55 61 85
135 99 245 33 264 54 337 119 403 28 28 38 32 86 32 50 0 116 21 128 40 3 5
-20 22 -50 39 -57 33 -66 51 -40 85 20 27 29 99 15 125 -11 22 -12 22 -55 -18
-26 -24 -58 -42 -80 -47 -44 -8 -127 1 -210 22 -41 11 -90 15 -155 12 -81 -3
-104 -8 -160 -35 -36 -17 -90 -52 -120 -77 -144 -121 -161 -125 -251 -59 -190
140 -421 206 -639 183 -191 -19 -307 -69 -512 -219 -25 -19 -45 -8 -133 69
-84 73 -169 117 -257 132 -56 10 -85 8 -201 -10 -216 -35 -267 -30 -326 30
-32 33 -39 37 -45 23z m224 -166 c57 -5 106 -11 108 -14 8 -8 -114 -17 -166
-12 -39 4 -62 12 -76 28 l-21 22 25 -7 c14 -3 72 -11 130 -17z m-136 -76 c-10
-7 -38 -13 -63 -13 l-46 1 30 13 c17 7 36 20 44 30 13 15 15 15 33 -1 18 -16
18 -18 2 -30z m2981 37 c3 -6 23 -19 43 -30 l37 -19 -32 -1 c-18 0 -51 7 -74
17 -41 16 -41 16 -18 29 29 16 36 17 44 4z m-433 -56 c-62 -65 -134 -180 -161
-255 -12 -35 -29 -77 -36 -94 l-14 -30 0 30 c-1 36 29 144 57 209 32 70 82
135 127 162 65 39 77 30 27 -22z m-2073 -34 c22 -11 53 -36 70 -57 39 -47 88
-172 96 -244 l5 -54 -13 41 c-39 115 -133 254 -212 311 -29 21 -29 22 -7 23
12 0 40 -9 61 -20z m2371 5 c0 -2 -13 -25 -30 -51 -40 -64 -66 -149 -85 -278
-9 -59 -25 -132 -36 -161 -25 -66 -90 -142 -144 -166 -69 -32 -145 -20 -145
22 0 28 -26 75 -52 94 -19 14 -20 18 -8 23 8 3 29 19 47 37 l32 32 -6 95 c-5
87 -4 100 19 150 41 89 126 157 243 194 38 12 165 19 165 9z m-2518 -59 c131
-63 200 -152 224 -288 18 -108 30 -135 71 -162 26 -18 30 -25 18 -30 -8 -3
-24 -25 -34 -48 -30 -70 -52 -83 -136 -83 -65 0 -78 3 -117 30 -64 45 -104
132 -124 265 -24 165 -44 261 -65 309 -10 24 -19 46 -19 49 0 16 119 -11 182
-42z m-109 -500 c53 -113 152 -180 270 -180 46 0 62 -3 51 -9 -27 -15 -145 -2
-190 21 -57 29 -129 112 -154 178 -21 58 -40 165 -39 224 0 19 9 -14 20 -74
10 -60 30 -132 42 -160z m2564 167 c-3 -10 -5 -2 -5 17 0 19 2 27 5 18 2 -10
2 -26 0 -35z m-21 -116 c-20 -70 -80 -153 -139 -193 -57 -39 -139 -60 -193
-48 -37 8 -36 8 31 14 150 13 270 126 301 285 6 29 9 34 12 17 2 -12 -3 -46
-12 -75z m-1688 -96 c41 -29 72 -96 72 -155 0 -61 -13 -52 -29 19 -15 65 -48
109 -95 125 -42 13 -73 2 -142 -51 -77 -59 -102 -51 -34 12 30 27 69 57 85 65
39 19 105 12 143 -15z m1007 10 c53 -34 141 -120 124 -121 -16 0 -46 20 -115
75 -53 42 -120 43 -163 1 -29 -28 -61 -100 -61 -138 0 -11 -4 -16 -10 -13 -18
11 -11 108 10 143 42 69 149 95 215 53z m-1054 -87 c11 -14 10 -18 -6 -30 -35
-26 -73 -7 -54 28 12 22 42 23 60 2z m983 10 c18 -7 22 -39 6 -49 -17 -11 -50
5 -50 24 0 29 14 37 44 25z m-1301 -102 c-1 -25 -28 -74 -101 -180 -112 -166
-126 -191 -158 -282 -31 -86 -30 -48 2 81 17 70 46 147 89 234 72 150 102 188
143 183 24 -3 27 -7 25 -36z m-286 -554 c-3 -8 -6 -5 -6 6 -1 11 2 17 5 13 3
-3 4 -12 1 -19z"/>
<path d="M2118 3444 c-26 -8 -49 -18 -52 -23 -3 -5 11 -3 32 5 51 18 159 17
215 -2 97 -33 184 -140 197 -242 l7 -57 2 47 c3 111 -82 237 -184 271 -59 20
-153 21 -217 1z"/>
<path d="M2838 3445 c-82 -27 -147 -110 -163 -210 -6 -39 -6 -39 12 10 47 131
154 202 289 193 37 -2 58 0 49 4 -29 17 -139 18 -187 3z"/>
<path d="M2465 2897 c-144 -48 -279 -165 -348 -302 -44 -87 -60 -162 -61 -272
l-1 -102 -33 52 c-43 69 -55 118 -49 202 5 76 -6 62 -17 -21 -9 -59 7 -155 34
-219 11 -25 41 -68 67 -97 60 -64 129 -98 202 -98 46 0 52 -2 41 -15 -9 -11
-32 -15 -79 -15 -172 0 -331 163 -352 360 -7 70 -7 67 -5 -40 1 -101 5 -122
28 -172 34 -73 103 -142 176 -176 46 -22 72 -27 140 -28 l82 -1 29 -44 c35
-56 95 -108 172 -149 33 -17 59 -34 57 -36 -2 -2 -48 8 -102 21 -100 25 -229
86 -309 146 -35 26 -33 22 14 -22 94 -91 166 -127 356 -178 30 -8 50 -22 66
-46 l24 -35 24 38 c21 33 35 41 129 72 58 20 121 44 140 54 56 29 136 94 166
134 16 20 22 32 14 26 -8 -6 -39 -30 -69 -53 -69 -54 -127 -83 -219 -111 -85
-26 -110 -22 -57 9 63 37 123 91 152 136 25 40 30 43 79 47 150 13 277 153
273 302 l-1 41 -8 -48 c-18 -106 -94 -199 -187 -231 -51 -18 -119 -21 -127 -7
-7 11 17 21 52 21 41 1 112 37 155 78 58 56 80 105 85 194 13 214 -151 442
-404 560 -62 29 -79 32 -179 35 -72 2 -124 -2 -150 -10z m266 -43 c204 -61
379 -243 419 -438 27 -131 -27 -246 -137 -293 -40 -16 -138 -17 -183 -1 l-33
11 35 18 c46 23 111 90 134 137 28 56 25 163 -5 225 -48 98 -175 195 -285 217
-32 6 -35 8 -13 9 42 2 132 -33 190 -74 l52 -36 -52 50 c-74 69 -142 94 -260
94 -86 1 -97 -2 -165 -36 -40 -20 -85 -48 -98 -62 l-25 -27 50 30 c28 17 61
33 75 37 14 3 1 -8 -28 -25 -63 -37 -136 -126 -159 -195 -43 -128 -5 -247 105
-321 l62 -43 -42 -12 c-68 -18 -151 -15 -189 7 -53 31 -73 83 -73 189 1 249
139 461 347 535 67 24 203 26 278 4z m-118 -111 c-13 -2 -33 -2 -45 0 -13 2
-3 4 22 4 25 0 35 -2 23 -4z m-96 -9 c-3 -3 -12 -4 -19 -1 -8 3 -5 6 6 6 11 1
17 -2 13 -5z m201 -75 c113 -39 199 -134 209 -231 8 -82 -17 -159 -72 -213
-56 -57 -104 -71 -171 -50 -62 19 -106 19 -167 0 -63 -19 -97 -6 -154 59 -83
95 -91 223 -19 331 80 120 217 159 374 104z m-5 -591 c37 -12 66 -27 64 -32
-5 -16 -138 -85 -165 -86 -38 0 -191 84 -177 98 14 15 114 40 160 41 28 1 80
-9 118 -21z m-297 -145 c72 -50 145 -83 185 -83 39 0 120 38 202 94 44 30 64
40 58 27 -21 -39 -96 -92 -173 -121 -71 -27 -83 -29 -121 -19 -83 21 -204 97
-229 143 -12 22 -11 21 78 -41z"/>
<path d="M2351 2495 c-29 -38 -35 -78 -17 -114 18 -33 45 -46 82 -37 23 6 29
19 26 61 -2 16 0 17 8 5 5 -8 10 -29 10 -47 0 -24 4 -31 15 -27 22 9 35 68 24
109 -20 71 -107 101 -148 50z"/>
<path d="M2750 2507 c-44 -34 -65 -108 -41 -146 7 -11 14 -4 30 27 20 40 40
59 27 27 -8 -22 13 -62 37 -69 52 -13 97 46 81 108 -13 54 -94 85 -134 53z"/>
<path d="M3170 2790 c-19 -10 -48 -20 -65 -21 -27 -2 -27 -2 -6 -6 14 -3 42 1
62 7 21 7 49 10 63 6 32 -8 103 -70 111 -98 4 -11 9 -17 12 -15 8 9 -34 81
-64 109 -38 36 -71 42 -113 18z"/>
<path d="M3437 2001 c-51 -86 -278 -256 -472 -353 -157 -79 -236 -128 -294
-182 l-54 -51 7 65 c10 92 36 116 182 170 109 40 222 102 240 131 4 8 -8 3
-27 -9 -60 -40 -147 -82 -237 -114 -78 -28 -95 -40 -161 -105 l-75 -73 -47 31
c-26 16 -110 58 -187 93 -204 92 -323 169 -451 290 l-64 61 41 -61 c98 -146
177 -211 396 -325 72 -38 128 -69 124 -69 -10 0 -157 64 -235 103 -62 32 -97
47 -188 82 -11 4 16 -18 60 -50 110 -79 180 -149 204 -205 18 -42 20 -66 18
-239 -2 -205 -4 -211 -54 -211 -20 0 -23 -5 -23 -43 l0 -43 -52 -12 c-29 -6
-64 -14 -77 -18 l-24 -7 5 73 5 72 -20 -33 c-81 -135 -108 -147 -68 -32 24 71
26 92 25 223 0 148 -14 241 -43 296 -15 31 -261 292 -261 278 0 -20 79 -131
150 -209 54 -60 84 -102 91 -129 31 -116 41 -294 19 -361 -7 -22 -30 -75 -52
-118 -23 -46 -37 -86 -33 -96 11 -36 268 -39 322 -5 13 8 49 14 87 14 86 0
120 13 112 43 -3 12 -13 58 -23 102 -15 75 -15 84 0 137 19 62 68 135 109 157
34 19 71 4 135 -55 l46 -44 47 44 c81 75 156 101 207 71 89 -53 138 -220 97
-330 -45 -120 -43 -125 68 -125 55 0 86 -5 103 -16 28 -18 216 -30 285 -17 60
11 61 28 10 141 -53 118 -63 178 -58 347 5 163 7 170 104 277 36 40 84 100
107 133 l40 60 -64 -59 c-207 -192 -207 -193 -220 -257 -7 -37 -10 -118 -7
-221 4 -136 9 -173 27 -223 38 -101 45 -125 37 -132 -7 -7 -32 18 -57 56 -7
12 -12 13 -15 4 -9 -21 -21 -15 -34 17 -22 53 -32 45 -24 -19 8 -70 10 -68
-76 -44 l-60 16 0 44 c0 29 -4 43 -12 42 -36 -4 -38 0 -31 95 5 88 4 99 -26
180 -33 94 -38 136 -19 198 15 52 87 131 163 181 56 36 58 39 25 32 -19 -4
-109 -40 -199 -81 -91 -40 -166 -72 -168 -70 -2 1 35 24 82 49 47 26 123 68
170 94 104 57 205 137 263 206 45 54 107 155 100 162 -2 3 -12 -8 -21 -24z"/>
<path d="M3069 1803 c-13 -16 -12 -17 4 -4 9 7 17 15 17 17 0 8 -8 3 -21 -13z"/>
</g>
</svg>