<!-- Generated by SVGMaker - https://svgmaker.io --><!-- Prompt: The image is a black circle with a white outline. Inside the circle, there are three green leaves that are arranged in a triangular formation. The leaves are of different sizes and shapes, with the largest one in the center and the two smaller ones on either side. The background is white, making the black circle stand out. The overall design is simple and minimalistic. --><!-- Quality: medium --><!-- Type: generate --><!-- Revised Prompt: in vector style, The image is a black circle with a white outline. Inside the circle, there are three green leaves that are arranged in a triangular formation. The leaves are of different sizes and shapes, with the largest one in the center and the two smaller ones on either side. The background is white, making the black circle stand out. The overall design is simple and minimalistic. --><!-- Created: 2025-09-01T02:22:03.096Z --><svg version="1.1" xmlns="http://www.w3.org/2000/svg" style="display: block;" viewBox="0 0 2048 2048" width="1024" height="1024" preserveAspectRatio="none">
<path transform="translate(0,0)" fill="rgb(254,254,253)" d="M 0 0 L 2048 0 L 2048 2048 L 0 2048 L 0 0 z"></path>
<path transform="translate(0,0)" fill="rgb(0,0,0)" d="M 988.908 211.801 C 1437.19 193.088 1815.81 541.196 1834.75 989.463 C 1853.69 1437.73 1505.78 1816.54 1057.52 1835.7 C 608.941 1854.89 229.805 1506.67 210.851 1058.08 C 191.897 609.487 540.309 230.527 988.908 211.801 z"></path>
<path transform="translate(0,0)" fill="rgb(254,254,253)" d="M 1000.28 296.114 C 1402.06 283.499 1738.11 598.759 1751.15 1000.53 C 1764.18 1402.31 1449.27 1738.69 1047.51 1752.14 C 645.16 1765.62 308.175 1450.14 295.121 1047.77 C 282.067 645.404 597.895 308.748 1000.28 296.114 z"></path>
<path transform="translate(0,0)" fill="rgb(56,156,66)" d="M 1021.58 384.569 C 1036.67 397.789 1049.84 414.581 1062.72 429.911 C 1094.29 467.465 1125.25 506.256 1151.92 547.459 C 1241.25 685.438 1285.13 839.937 1195.9 990.518 C 1174.18 1027.17 1146.05 1060.09 1116.46 1090.58 C 1096.88 1110.76 1059.53 1142 1045.88 1164.46 C 1043.06 1169.11 1041.66 1174.83 1040.59 1180.13 L 1040.27 1181.79 C 1040.18 1216.01 1041.19 1250.6 1039.92 1284.77 C 1040.51 1358.15 1039.36 1430.49 1055.9 1502.49 C 1069.43 1483.36 1082.05 1463.55 1094.87 1443.94 C 1110.04 1420.74 1132.23 1391.72 1140.15 1365.56 C 1147.61 1340.91 1142.08 1313.32 1141.59 1287.97 C 1139.87 1199.32 1163.56 1117.37 1218.16 1046.85 C 1284.18 961.596 1385.28 914.912 1486.11 884.166 C 1525.37 872.199 1565.17 862.001 1605.92 856.77 C 1607.91 898.896 1605.41 940.453 1600.12 982.284 C 1583.14 1116.81 1534.75 1248.48 1420.97 1330.18 C 1374.12 1363.82 1322.06 1384.99 1265.45 1395.63 C 1248.64 1398.79 1231.9 1400.83 1214.89 1402.49 C 1202.19 1403.74 1188.75 1404.33 1176.33 1407.27 C 1173.84 1407.86 1172.02 1408.82 1170.03 1410.49 C 1156.25 1422.14 1146.5 1440.06 1136.66 1454.96 C 1098.15 1513.31 1063.49 1574.5 1055.04 1645.05 C 1033.01 1645.39 1010.98 1645.33 988.953 1644.86 L 988.918 1643.42 C 986.787 1568.05 953.188 1499.37 911.699 1437.91 C 900.723 1421.65 888.917 1403.56 874.647 1390.04 C 855.767 1389.95 836.891 1389.46 818.031 1388.59 C 715.673 1383.63 624.122 1350.54 554.115 1273.05 C 479.34 1190.29 448.644 1077.02 437.009 968.517 C 433.114 932.195 430.781 895.011 432.586 858.487 C 466.689 861.885 501.094 870.942 533.912 880.522 C 701.144 929.341 839.08 1020.68 879.942 1199.16 C 884.47 1218.94 887.987 1239.35 889.659 1259.58 C 890.965 1275.39 891.38 1316.74 895.722 1329.8 C 899.293 1340.54 929.622 1379.73 938.175 1391.96 C 955.095 1416.15 972.159 1440.64 986.347 1466.56 C 989.995 1448.95 990.175 1430.14 990.801 1412.2 C 991.88 1381.29 991.962 1350.35 993.055 1319.43 C 994.015 1289.61 995.391 1259.8 997.183 1230.01 C 999.421 1196.93 1002.6 1163.92 1003.39 1130.76 C 1004.73 1074.36 1001.03 1017.96 1001.86 961.5 C 1002.35 928.068 1004.38 894.611 1006.01 861.218 C 1009.65 786.449 1014.17 711.484 1015.39 636.631 C 1011.18 649.981 1009.93 664.986 1008.02 678.858 L 999.802 741.409 C 989.833 820.267 978.833 900.989 977.215 980.508 C 975.968 1041.8 981.418 1103.01 983.389 1164.24 C 958.7 1136.29 930.414 1110.96 904.415 1084.15 C 844.882 1022.75 793.055 948.971 787.352 861.015 C 778.987 732.004 846.554 603.89 921.617 503.76 C 952.821 462.136 987.27 423.575 1021.58 384.569 z"></path>
<path transform="translate(0,0)" fill="rgb(254,254,253)" d="M 1436.48 1039.83 L 1437.19 1040.37 C 1435.4 1046.24 1369.75 1112.43 1361.05 1121.62 C 1332.65 1151.25 1305.73 1182.25 1280.37 1214.52 C 1244.76 1259.98 1211.84 1307.03 1173.16 1350.09 C 1172.52 1349.38 1172.91 1349.92 1172.61 1348.18 C 1190.24 1313.86 1207.36 1279.64 1228.57 1247.3 C 1282.7 1164.77 1360.58 1101.34 1436.48 1039.83 z"></path>
<path transform="translate(0,0)" fill="rgb(254,254,253)" d="M 591.728 1046.85 C 591.961 1046.94 592.203 1047.01 592.429 1047.12 C 601.202 1051.29 624.547 1076.79 633.268 1085.18 C 655.5 1106.59 678.403 1127.47 699.946 1149.57 C 747.206 1197.61 788.687 1251 823.547 1308.67 C 832.159 1322.89 843.692 1338.29 848.993 1354.07 C 838.298 1343.83 828.793 1330.35 819.083 1318.96 C 790.655 1285.59 763.229 1251.4 734.97 1217.9 C 702.298 1179.9 669.986 1141.59 638.039 1102.97 C 623.285 1085.49 603.83 1065.82 591.728 1046.85 z"></path>
</svg>