<?xml version="1.0" standalone="no"?>
<!DOCTYPE svg PUBLIC "-//W3C//DTD SVG 20010904//EN"
 "http://www.w3.org/TR/2001/REC-SVG-20010904/DTD/svg10.dtd">
<svg version="1.0" xmlns="http://www.w3.org/2000/svg"
 width="512.000000pt" height="512.000000pt" viewBox="0 0 512.000000 512.000000"
 preserveAspectRatio="xMidYMid meet">
<metadata>
Created by potrace 1.16, written by Peter Selinger 2001-2019
</metadata>
<g transform="translate(0.000000,512.000000) scale(0.100000,-0.100000)"
fill="#000000" stroke="none">
<path d="M3207 4804 c-3 -4 10 -21 29 -39 57 -54 42 -74 -22 -30 -21 14 -51
25 -70 25 -40 0 -41 -3 -14 -30 11 -11 20 -29 20 -40 0 -17 -3 -18 -26 -10
-33 13 -76 13 -110 0 l-28 -11 31 -19 c35 -21 51 -56 33 -74 -15 -15 -106 -13
-231 7 -192 31 -453 18 -660 -32 -447 -106 -912 -413 -1226 -807 -65 -81 -78
-92 -125 -107 -74 -24 -142 -77 -178 -139 -42 -74 -41 -77 30 -71 33 3 60 2
60 -3 0 -5 -33 -21 -74 -37 -123 -46 -192 -125 -211 -242 l-6 -40 28 32 c15
17 40 50 56 72 40 61 79 81 157 81 52 0 78 -6 129 -30 66 -32 164 -104 216
-161 l30 -32 -30 20 c-38 26 -103 58 -135 68 -14 4 11 -18 55 -48 44 -31 131
-101 193 -156 63 -56 116 -101 118 -101 23 0 -156 220 -253 311 -79 73 -174
132 -257 159 -34 11 -36 14 -23 28 27 26 107 27 158 2 89 -44 350 -340 456
-516 l31 -52 -61 -4 -62 -5 -85 81 c-157 151 -303 224 -463 234 -76 4 -87 7
-87 23 0 35 47 54 130 53 l75 -1 -40 18 c-94 43 -216 14 -310 -72 -65 -60 -86
-106 -92 -203 l-5 -81 45 60 c57 79 94 109 162 134 101 38 215 21 364 -53 122
-62 296 -202 264 -213 -7 -3 -28 -15 -48 -29 l-36 -24 -32 24 c-57 42 -134 76
-205 88 -59 10 -79 9 -136 -5 -78 -19 -213 -77 -271 -116 -22 -15 -46 -31 -54
-35 -8 -5 -1 14 14 43 35 64 125 151 194 185 50 26 168 48 201 39 8 -3 6 1 -5
8 -13 9 -53 13 -110 13 -160 -1 -256 -57 -320 -187 -43 -90 -65 -173 -65 -252
l0 -60 27 35 c15 19 44 53 64 74 l37 40 7 -45 c4 -24 16 -62 26 -83 14 -29 20
-72 25 -170 10 -237 42 -392 121 -591 79 -202 238 -444 374 -570 47 -44 38
-28 -32 55 -142 169 -239 326 -309 498 -85 210 -130 427 -130 626 0 91 2 107
14 97 9 -8 12 -25 9 -54 -6 -51 35 -267 83 -444 54 -198 151 -414 220 -490
l35 -38 -25 35 c-41 58 -132 257 -171 374 -41 120 -85 304 -85 352 l0 31 44
-43 c37 -35 46 -52 56 -100 18 -85 54 -150 124 -220 67 -66 116 -96 192 -115
36 -9 68 -29 119 -74 85 -74 139 -106 263 -156 52 -21 118 -56 146 -77 73 -55
126 -84 250 -137 60 -25 123 -56 140 -67 47 -32 106 -90 121 -118 19 -37 45
-172 38 -198 -5 -19 -12 -22 -63 -22 -44 0 -63 -5 -81 -21 l-24 -20 46 6 c25
3 56 1 70 -4 17 -6 -29 -10 -151 -10 -243 -2 -350 -20 -335 -59 7 -18 -20 -3
-120 68 -134 96 -308 259 -443 414 -23 27 -42 45 -42 41 0 -10 41 -65 103
-137 33 -38 47 -63 43 -74 -13 -33 279 -293 419 -373 52 -30 24 -5 -81 71 -44
32 -106 83 -139 114 l-60 56 60 -47 c199 -153 376 -264 525 -328 397 -169 854
-198 1288 -82 197 53 414 148 568 251 122 80 120 91 -3 18 l-108 -65 -7 30
c-17 63 -101 96 -231 88 -60 -3 -104 0 -131 8 -23 8 -62 16 -88 20 l-47 6 -15
69 c-28 124 -29 122 98 311 15 23 59 58 118 94 51 32 120 79 153 105 85 68
520 512 581 594 61 80 113 184 144 281 29 93 38 289 17 392 -7 40 -12 75 -9
78 3 3 19 -7 35 -22 l29 -28 -5 95 c-9 161 -46 268 -149 435 -103 166 -114
200 -142 421 -17 131 -44 229 -76 282 -34 56 4 25 125 -100 168 -172 278 -325
380 -528 235 -468 280 -1068 111 -1472 -6 -12 -2 -17 16 -20 34 -5 34 -37 -3
-120 -103 -238 -266 -479 -464 -688 -76 -80 -77 -82 -21 -35 216 182 466 555
550 823 29 91 31 114 16 143 -8 14 -7 40 4 92 8 39 17 94 21 120 6 47 8 49 33
42 15 -4 31 -7 37 -8 11 -2 31 130 21 141 -11 11 -26 -20 -26 -55 0 -32 -21
-63 -43 -63 -9 0 -11 40 -8 153 8 350 -75 705 -235 1007 -109 205 -279 424
-436 560 -113 98 -156 139 -178 170 l-18 26 35 -4 c46 -6 126 -66 257 -192
176 -170 321 -372 431 -602 134 -280 188 -492 203 -794 4 -76 11 -139 17 -141
13 -4 2 274 -14 377 -79 489 -374 993 -764 1303 -78 63 -97 74 -123 70 -20 -3
-38 2 -54 15 -14 11 -23 23 -20 25 3 3 54 9 113 14 l108 8 -27 53 c-28 55
-105 121 -168 142 -32 10 -32 11 -32 74 1 73 -24 121 -64 121 -15 0 -26 10
-36 35 -21 49 -61 98 -94 115 -38 20 -38 20 -42 -17 l-3 -33 -23 38 c-20 32
-93 87 -116 87 -4 0 2 -12 13 -26 12 -15 21 -34 21 -43 -1 -15 -2 -15 -13 0
-32 42 -112 81 -130 63z m208 -120 c9 -15 12 -23 6 -20 -11 7 -35 46 -28 46 3
0 12 -12 22 -26z m132 -63 c24 -56 10 -43 -19 17 -15 32 -21 48 -12 37 9 -11
23 -35 31 -54z m-777 -51 c41 -6 98 -15 127 -21 52 -10 52 -11 46 -42 -3 -18
-7 -33 -8 -35 -1 -1 -40 4 -86 12 -466 81 -978 -56 -1413 -378 -130 -96 -282
-233 -378 -341 -87 -98 -95 -105 -131 -105 l-38 0 48 63 c70 91 273 292 383
379 397 316 812 474 1250 477 69 0 159 -4 200 -9z m876 -55 c17 -42 18 -66 1
-88 -10 -15 -12 -11 -9 28 3 30 -1 54 -12 70 -10 14 -12 25 -6 25 6 0 18 -16
26 -35z m-178 -51 c51 -25 82 -63 82 -99 0 -22 -15 -19 -52 13 -66 57 -79 62
-153 62 l-70 -1 -80 -67 c-44 -37 -82 -76 -83 -86 -3 -15 0 -17 14 -11 49 21
83 17 133 -16 28 -18 49 -34 47 -36 -1 -2 -34 10 -72 26 -71 30 -87 31 -77 5
7 -18 134 -84 163 -84 36 0 36 -30 2 -62 -36 -31 -66 -35 -116 -14 -47 20 -66
51 -66 110 l0 49 -23 -21 c-32 -30 -67 -29 -67 1 0 70 103 197 193 237 64 30
159 27 225 -6z m-618 -4 c54 -9 80 -18 94 -34 27 -31 68 -56 94 -56 12 0 22
-2 22 -5 0 -2 -20 -36 -45 -75 -116 -178 -175 -323 -255 -625 -69 -260 -152
-425 -277 -553 -186 -188 -361 -272 -568 -272 -124 0 -189 18 -232 62 -38 40
-42 48 -88 173 -21 55 -49 123 -62 150 -100 200 -290 375 -460 426 -24 7 -43
16 -43 20 0 19 164 190 270 281 334 288 690 458 1079 514 111 15 355 12 471
-6z m496 -47 c-36 -3 -61 -13 -90 -35 l-41 -30 37 36 c34 33 42 36 90 34 l53
-2 -49 -3z m134 -94 c0 -4 -20 -20 -43 -34 -60 -34 -108 -33 -149 4 -18 16
-30 33 -26 37 4 4 21 -7 37 -25 20 -21 38 -31 59 -31 30 0 92 36 99 57 2 6
-10 28 -28 50 -26 31 -24 30 10 -6 23 -24 41 -47 41 -52z m-82 41 c5 -13 3
-13 -11 -1 -20 16 -47 8 -47 -14 0 -20 28 -31 43 -16 17 17 31 13 17 -4 -18
-22 -67 -19 -80 4 -7 15 -6 24 6 36 20 19 65 16 72 -5z m326 -6 c57 -29 131
-86 145 -113 9 -17 7 -17 -44 1 -108 36 -293 43 -348 12 -9 -5 -9 -4 -1 5 6 7
47 25 91 40 43 15 84 31 91 35 21 12 2 28 -27 22 -25 -6 -25 -6 -7 9 27 21 40
19 100 -11z m71 -133 l40 -9 -35 -1 c-81 -4 -237 -20 -260 -26 -23 -6 -23 -6
5 14 l30 21 -25 0 c-14 0 -51 -6 -83 -14 -66 -16 -65 -6 3 18 36 13 69 15 165
11 66 -3 138 -10 160 -14z m-683 -80 c3 -28 122 -126 142 -118 8 3 21 -12 33
-37 30 -60 69 -103 108 -117 72 -26 67 -147 -7 -185 -25 -13 -29 -13 -48 6
-11 11 -20 26 -21 33 0 6 -5 -4 -12 -23 -33 -98 -145 7 -148 140 -1 44 -3 49
-8 25 l-7 -30 -13 35 c-7 19 -22 64 -32 100 l-19 65 4 -74 c3 -58 1 -70 -8
-55 -12 22 -15 167 -3 204 7 21 5 21 -10 -5 -25 -43 -25 -176 1 -233 l20 -43
-90 -269 c-49 -149 -95 -272 -103 -275 -15 -6 -15 -6 27 110 37 99 67 245 82
390 16 154 8 182 -14 50 -55 -332 -89 -440 -159 -513 -26 -28 -187 -120 -187
-107 0 2 22 17 50 34 86 53 132 167 194 479 39 195 67 284 123 398 l35 71 33
-16 c22 -11 35 -24 37 -40z m443 -65 c5 -31 2 -52 -9 -74 -29 -57 -115 -89
-166 -62 -19 10 -57 96 -47 106 3 3 10 -11 17 -31 17 -52 51 -71 99 -57 75 23
107 92 77 167 l-16 40 20 -23 c10 -13 22 -42 25 -66z m135 3 c49 -57 106 -153
129 -214 22 -58 44 -196 39 -240 -3 -28 -6 -24 -48 48 -25 43 -68 118 -97 166
-46 78 -51 93 -46 130 4 29 -1 59 -16 100 -12 35 -18 66 -14 77 7 18 8 17 13
-3 3 -12 21 -41 40 -64z m-70 -74 c0 -70 -34 -113 -95 -121 l-40 -5 40 19 c50
23 73 58 82 117 3 25 7 45 9 45 2 0 4 -25 4 -55z m-720 -63 c-11 -34 -33 -123
-50 -197 -31 -135 -88 -318 -110 -352 -11 -17 -11 -17 -6 2 3 11 23 79 44 150
22 72 52 179 66 238 24 104 65 231 72 224 2 -1 -6 -31 -16 -65z m894 -343 c78
-150 173 -326 213 -389 39 -63 77 -128 86 -145 26 -53 59 -172 55 -207 -3 -32
-5 -31 -67 65 -35 53 -65 97 -67 97 -2 0 6 -24 18 -52 32 -79 77 -260 90 -365
25 -205 -42 -406 -201 -603 -38 -47 -133 -149 -212 -226 -79 -77 -189 -188
-244 -246 -90 -95 -145 -139 -257 -207 -21 -12 -38 -19 -38 -14 0 8 36 66 77
123 17 22 14 22 -28 -7 -64 -44 -106 -95 -120 -145 -24 -91 -43 -131 -78 -167
-32 -34 -40 -38 -74 -33 -42 5 -42 5 -88 126 -53 139 -181 255 -341 309 -14 5
-6 18 44 67 61 62 72 89 21 52 -53 -37 -135 -73 -211 -93 -108 -27 -129 -23
-42 10 76 28 160 68 160 76 0 6 -251 -80 -288 -99 -55 -28 -40 -39 46 -32 42
4 89 9 105 12 26 5 26 3 -29 -73 -31 -43 -59 -84 -61 -91 -4 -8 -17 -2 -41 19
-52 46 -105 66 -256 99 -140 30 -244 66 -311 108 l-39 25 34 29 c71 61 257
176 315 196 67 23 125 35 125 25 0 -10 -31 -30 -142 -94 -59 -34 -119 -75
-135 -91 l-28 -30 61 36 c134 78 223 101 459 122 99 9 186 20 195 25 10 7 -6
8 -50 5 -255 -20 -255 -19 12 44 92 21 188 48 214 59 44 20 46 20 33 2 -8 -10
-36 -50 -63 -87 -62 -87 -94 -122 -126 -139 -14 -7 -83 -27 -154 -44 -120 -29
-212 -67 -237 -97 -6 -8 18 -2 53 12 34 15 113 37 173 51 61 13 129 33 153 43
54 24 133 107 202 213 l55 83 78 16 c110 23 250 94 321 161 l58 54 91 6 c100
5 197 35 244 73 26 21 22 21 -51 -7 -89 -35 -154 -45 -221 -35 -44 7 -46 9
-43 38 3 27 9 33 46 46 44 14 126 87 134 120 4 13 -7 7 -34 -20 -76 -76 -196
-111 -253 -74 -42 28 -59 73 -60 156 0 109 23 151 156 281 60 58 115 120 122
138 l13 32 25 -19 c56 -44 134 -75 202 -80 66 -5 69 -6 96 -46 65 -95 67 -191
6 -282 -45 -68 -92 -103 -230 -170 -114 -55 -117 -65 -11 -38 240 62 378 272
292 442 -18 36 -101 150 -132 181 -3 3 3 -12 11 -33 l16 -38 -37 6 c-65 13
-148 56 -196 103 -86 85 -133 229 -146 452 l-6 116 -8 -80 c-8 -81 4 -260 22
-325 9 -33 8 -34 -6 -15 -55 71 -103 217 -104 312 0 54 19 186 30 203 6 10 12
11 22 2 32 -26 112 -25 180 3 12 5 18 -1 23 -27 12 -56 56 -159 98 -230 46
-79 58 -89 23 -20 -32 64 -71 175 -85 244 -12 56 -12 57 18 99 24 32 31 53 31
88 l0 46 40 1 c22 1 52 11 67 23 16 11 32 19 37 18 5 -2 73 -127 150 -278z
m-674 165 c0 -24 -51 -175 -87 -257 -30 -67 -36 -95 -37 -152 -1 -38 3 -83 7
-98 l8 -28 -27 18 c-25 16 -26 20 -21 72 4 31 19 94 35 141 16 47 44 145 63
218 29 113 36 130 46 115 7 -9 13 -22 13 -29z m38 -170 c-14 -49 -21 -101 -22
-179 -1 -129 20 -204 85 -305 40 -62 40 -62 10 -41 -46 33 -108 110 -139 171
-24 49 -27 66 -27 155 0 84 6 119 34 217 l34 118 23 -33 22 -33 -20 -70z
m-2108 -21 c65 -32 156 -108 220 -184 74 -89 136 -197 207 -357 32 -73 59
-128 61 -123 5 15 -59 203 -90 266 -52 104 -140 227 -215 303 -78 78 -57 74
47 -10 114 -93 210 -251 285 -470 60 -175 117 -213 325 -212 63 0 139 5 169
12 30 7 56 11 58 8 2 -2 -25 -21 -61 -42 -36 -21 -64 -39 -63 -41 2 -1 24 4
50 12 26 8 45 10 42 5 -4 -6 -41 -36 -83 -69 -142 -108 -204 -191 -217 -291
-5 -43 -4 -42 34 37 46 96 88 144 240 272 185 157 205 172 234 188 27 14 28
13 18 -6 -6 -11 -16 -23 -21 -26 -14 -9 -122 -171 -149 -223 -43 -84 -13 -52
65 70 44 68 108 153 144 189 61 62 72 68 170 103 84 29 96 35 60 31 -25 -2
-60 -7 -79 -11 l-35 -7 22 30 c40 57 150 151 208 178 75 36 161 43 237 21 45
-13 72 -30 125 -79 86 -81 133 -117 205 -157 32 -18 61 -39 64 -46 7 -19 -30
-74 -72 -108 l-37 -28 -29 21 c-15 11 -33 21 -39 21 -6 0 -13 7 -16 15 -5 13
-10 12 -34 -5 -31 -22 -71 -26 -101 -9 -20 10 -20 11 -2 31 18 21 18 21 -2 14
-31 -12 -102 -19 -121 -12 -15 6 -14 9 7 33 l24 27 -47 -27 c-82 -47 -137 -29
-77 25 l34 30 -49 -26 c-27 -14 -54 -26 -62 -26 -23 0 -27 21 -7 42 l18 21
-40 -21 c-22 -11 -66 -23 -97 -25 -136 -12 -275 -115 -266 -197 2 -26 -6 -36
-63 -83 -72 -60 -120 -128 -140 -197 -8 -27 -30 -64 -57 -93 -44 -48 -84 -126
-116 -224 -21 -63 -36 -76 -36 -31 0 55 25 141 58 204 l31 59 -45 -50 c-46
-52 -95 -161 -109 -242 -4 -24 -11 -45 -16 -49 -14 -8 -11 53 6 125 24 99 70
176 160 265 44 44 68 73 55 66 -45 -23 -177 -164 -203 -215 -36 -72 -57 -150
-57 -213 0 -50 -4 -59 -50 -118 -76 -95 -103 -114 -158 -114 -52 0 -97 24
-118 62 -14 25 -18 88 -8 126 7 23 7 23 40 -9 19 -18 34 -31 34 -28 0 2 -7 25
-14 50 -13 42 -13 49 3 75 20 33 74 83 132 121 22 14 38 28 35 30 -8 9 -73
-26 -122 -65 l-51 -40 9 38 c15 59 70 115 151 156 65 32 68 35 32 29 -54 -9
-109 -39 -161 -87 -41 -37 -44 -39 -44 -18 0 13 15 55 34 94 40 82 113 160
196 206 41 23 47 30 26 25 -122 -27 -238 -141 -285 -283 -25 -74 -28 -142 -6
-142 19 0 19 -14 1 -29 -8 -7 -12 -21 -9 -31 3 -11 -2 -38 -11 -60 -9 -22 -16
-61 -16 -87 0 -61 -14 -47 -35 35 -18 70 -14 115 16 197 l18 50 -25 -30 c-14
-16 -33 -46 -41 -65 -21 -47 -21 -191 0 -250 20 -55 13 -64 -19 -25 -45 56
-75 187 -55 240 8 19 8 19 15 -3 13 -39 20 -16 21 66 1 50 7 88 18 109 21 39
82 100 122 121 17 8 25 17 18 19 -18 6 -74 -25 -116 -66 -53 -50 -79 -104 -79
-163 1 -26 -6 -65 -15 -86 -11 -26 -14 -54 -9 -97 l6 -60 -69 71 c-86 89 -111
149 -111 264 0 185 84 291 254 321 55 9 65 14 51 22 -36 20 -141 1 -230 -41
-84 -40 -85 -41 -85 -18 0 32 38 85 85 118 56 39 142 58 265 59 l105 1 -70 14
c-42 8 -74 20 -80 30 -191 310 -352 504 -492 594 -29 18 -53 38 -53 43 0 17
161 1 220 -22 124 -48 196 -132 313 -367 35 -70 74 -131 106 -165 l50 -54 -76
155 c-122 251 -194 353 -301 423 -102 67 -171 90 -272 90 -47 0 -111 -7 -142
-15 -32 -9 -58 -14 -58 -11 0 20 69 86 113 108 46 23 61 26 137 23 63 -2 97
-9 130 -25z m-501 -496 c-2 -2 -22 -13 -44 -25 l-40 -22 30 25 c17 14 36 25
44 25 8 0 12 -1 10 -3z m2152 -192 c34 -18 66 -26 97 -25 82 1 156 -12 184
-33 32 -24 79 -26 126 -6 30 13 34 12 57 -11 l24 -25 -60 -64 c-55 -58 -62
-63 -91 -57 -44 9 -60 25 -53 53 5 23 5 24 -24 9 -28 -15 -29 -15 -24 7 l6 22
-25 -23 c-37 -33 -81 -27 -88 11 l-5 29 -22 -30 c-12 -16 -35 -34 -52 -40 -24
-9 -32 -7 -47 9 -14 16 -15 21 -3 35 16 20 14 19 -62 -19 -82 -41 -115 -21
-61 36 15 17 20 26 12 21 -8 -4 -39 -23 -69 -41 -55 -33 -111 -44 -111 -21 0
7 15 28 33 47 l32 34 -57 -31 c-65 -36 -78 -39 -78 -17 0 26 31 64 74 94 94
65 202 78 287 36z m-1791 -120 c30 -8 83 -28 117 -45 l63 -31 -22 -31 c-13
-20 -23 -51 -26 -85 -4 -46 -1 -58 17 -77 l22 -24 -25 -51 c-15 -28 -28 -51
-30 -51 -2 0 -30 12 -62 27 -44 20 -80 27 -144 30 -77 4 -90 2 -133 -21 -42
-23 -48 -24 -54 -9 -9 24 27 84 66 110 46 31 94 43 170 43 72 0 75 10 6 20
-97 15 -210 -21 -272 -86 l-31 -33 -19 27 c-24 35 -26 168 -3 182 23 15 50 12
50 -5 0 -13 4 -14 22 -4 37 20 181 5 283 -30 49 -16 91 -28 93 -26 8 8 -105
66 -165 85 -34 10 -89 22 -123 26 -70 8 -72 18 -10 51 51 27 127 30 210 8z
m1815 -95 c9 0 13 -4 10 -10 -8 -13 -51 -13 -76 0 -22 12 -25 30 -7 48 9 9 17
5 34 -13 13 -14 30 -25 39 -25z m-303 -10 c7 0 32 9 55 20 38 17 46 17 70 5
16 -8 36 -12 46 -9 9 3 17 3 17 -1 0 -11 -105 -55 -133 -55 -16 0 -26 -4 -22
-10 11 -18 71 -10 119 15 43 23 49 24 69 10 25 -17 70 -20 98 -5 14 8 25 6 44
-6 18 -12 38 -15 65 -11 37 5 42 2 55 -23 16 -32 64 -54 100 -48 29 6 31 1 9
-31 -35 -50 -137 -68 -175 -30 l-20 20 30 35 c37 41 40 53 9 30 -13 -9 -34
-24 -47 -33 -49 -35 -142 -12 -166 41 l-13 31 -1 -31 c-1 -21 7 -38 25 -54 22
-21 24 -30 19 -65 -9 -52 -20 -62 -85 -79 -63 -16 -95 -8 -111 28 -15 32 -7
52 23 58 13 3 31 9 41 13 12 5 17 3 17 -8 0 -8 7 -20 15 -27 12 -10 13 -7 6
18 -5 16 -6 42 -3 58 l5 28 -32 -27 c-71 -59 -160 -19 -147 66 8 47 -9 41 -23
-8 -10 -36 -5 -71 12 -93 5 -7 7 -15 4 -18 -10 -10 -75 16 -81 32 -13 33 -5
83 17 115 39 58 42 65 17 44 -36 -30 -59 -58 -66 -80 -4 -11 -30 -43 -59 -72
-30 -29 -59 -68 -66 -88 -18 -48 -33 -45 -25 6 14 89 95 203 184 260 l43 27
24 -24 c13 -13 30 -24 37 -24z m412 35 c11 -8 30 -15 43 -15 13 0 23 -4 23 -8
0 -32 -80 -44 -111 -16 -16 15 -16 17 -1 35 19 23 21 23 46 4z m143 -25 c30
-27 58 -36 87 -31 5 1 -2 -13 -16 -31 -14 -18 -33 -35 -43 -36 -57 -12 -106
47 -86 101 6 15 13 27 17 27 3 0 22 -13 41 -30z m-663 -219 c27 -15 51 -16 99
-7 46 9 48 -3 5 -39 -21 -18 -34 -23 -36 -15 -2 6 -12 -1 -22 -17 -20 -33 -74
-63 -113 -63 -29 0 -57 33 -57 65 0 25 36 104 58 128 16 18 17 17 31 -11 7
-17 23 -35 35 -41z m498 25 c12 -17 10 -21 -21 -39 -44 -26 -79 -22 -91 9 -18
46 -14 49 47 45 32 -1 61 -8 65 -15z m97 -43 c20 3 45 8 56 13 l20 7 -20 -23
c-29 -33 -80 -52 -121 -44 -43 8 -51 20 -29 44 14 16 22 17 38 9 11 -6 36 -9
56 -6z m120 -71 c1 -19 -104 -127 -173 -179 -42 -31 -68 -43 -92 -43 -29 0
-34 3 -34 25 0 15 13 36 33 54 123 114 171 153 175 143 4 -14 -45 -79 -86
-114 -15 -13 -34 -32 -42 -42 -14 -18 -14 -19 9 -6 40 21 117 97 157 156 32
46 39 52 45 37 4 -10 8 -24 8 -31z m-506 -16 c41 -1 41 0 27 -27 -25 -46 -101
-58 -133 -21 -27 32 -27 51 0 76 l26 24 22 -26 c16 -18 32 -26 58 -26z m269
29 c6 -14 15 -25 20 -25 15 0 8 -19 -14 -40 -43 -40 -98 -11 -98 52 0 23 5 27
33 31 17 2 35 5 40 5 4 1 13 -9 19 -23z m-1839 -18 c32 -14 59 -32 61 -39 3
-7 6 -43 9 -79 l5 -67 -32 9 c-76 22 -169 1 -201 -45 -24 -34 -17 -40 15 -12
44 36 92 47 153 34 48 -10 97 -44 97 -68 0 -5 -13 -10 -30 -10 -18 0 -42 -11
-61 -28 -26 -23 -31 -35 -31 -70 0 -23 4 -46 7 -52 16 -26 -6 -6 -25 23 l-22
32 6 -40 c6 -47 30 -81 77 -113 19 -13 40 -35 48 -49 13 -26 13 -26 -18 -20
-84 17 -125 83 -126 202 0 65 4 87 22 118 19 31 20 36 5 28 -72 -39 -89 -127
-46 -236 16 -42 -33 14 -65 74 -31 59 -53 164 -43 205 11 48 68 86 129 87 30
0 34 2 18 9 -55 24 -151 -7 -183 -59 l-19 -31 -31 33 c-35 37 -62 94 -62 134
0 25 1 26 16 11 16 -15 19 -15 53 12 46 36 60 39 147 36 50 -2 86 -10 127 -29z
m1719 -6 c-2 -16 -15 -40 -29 -53 l-25 -23 53 -15 53 -16 -44 -43 c-51 -50
-298 -174 -514 -260 -135 -54 -181 -64 -74 -16 112 50 337 163 368 185 17 12
45 26 64 31 25 7 39 21 59 58 38 68 34 79 -13 37 -42 -38 -79 -46 -100 -21
-15 19 -5 35 24 35 32 0 58 23 71 61 9 25 19 35 41 40 16 3 39 11 49 17 11 6
20 12 21 12 0 0 -1 -13 -4 -29z m-509 -58 c11 -13 19 -24 16 -26 -2 -2 -23
-18 -47 -36 -24 -19 -45 -31 -48 -29 -10 10 9 88 29 120 18 29 21 30 25 13 2
-11 13 -30 25 -42z m897 29 c0 -65 -170 -213 -272 -237 -38 -10 -35 8 5 27 61
29 155 107 204 167 51 64 63 72 63 43z m-648 -53 c19 -10 19 -12 5 -21 -22
-12 -78 3 -91 25 -9 14 -6 21 14 37 25 19 25 19 38 -5 7 -14 22 -30 34 -36z
m-353 -4 c-6 -22 -9 -61 -6 -87 7 -55 -4 -67 -34 -37 -16 16 -20 29 -16 54 5
32 54 121 62 113 3 -2 0 -22 -6 -43z m208 -15 c2 0 3 -8 3 -19 0 -21 -97 -101
-123 -101 -9 0 -21 8 -26 19 -8 14 -5 25 12 49 41 55 67 71 101 61 17 -5 32
-9 33 -9z m879 -2 c20 -32 -177 -168 -293 -203 -63 -19 -143 -20 -143 -1 0 9
12 14 34 14 63 0 308 123 360 181 22 24 32 26 42 9z m-707 -74 c20 -26 20 -28
4 -39 -53 -36 -217 -117 -391 -192 -108 -47 -212 -91 -230 -99 -19 -8 -31 -11
-28 -6 3 5 119 66 258 135 217 107 260 132 303 176 27 28 52 51 56 51 4 0 17
-12 28 -26z m-138 -25 c-49 -44 -89 -59 -101 -38 -6 9 3 23 28 46 29 25 46 32
77 32 l40 0 -44 -40z m407 -32 c14 -40 15 -50 3 -43 -5 3 -28 -5 -52 -18 -74
-40 -273 -116 -375 -142 -103 -26 -141 -31 -114 -14 9 4 87 37 175 73 183 74
244 103 300 145 22 17 42 31 45 31 4 1 11 -14 18 -32z m-648 -51 c0 -3 -28
-21 -62 -42 -35 -20 -111 -70 -170 -111 -60 -40 -108 -71 -108 -69 0 8 164
125 248 177 73 45 92 55 92 45z m85 -10 c-36 -24 -175 -98 -175 -92 0 9 163
106 179 106 12 0 10 -3 -4 -14z m-1065 -22 c14 -10 45 -36 70 -59 25 -23 63
-55 85 -70 l40 -27 -40 7 c-54 8 -163 44 -170 56 -4 5 -13 9 -22 9 -14 0 -14
-2 1 -19 28 -31 107 -68 196 -92 47 -12 114 -30 150 -39 l64 -17 -52 -12 c-29
-6 -68 -11 -85 -11 -54 0 -149 29 -197 60 -82 53 -160 146 -160 190 0 13 51
39 75 40 11 0 32 -7 45 -16z m1623 -15 c5 -17 -4 -25 -56 -50 -66 -30 -181
-63 -263 -74 -38 -5 -20 4 76 37 96 34 211 86 236 107 1 0 4 -8 7 -20z m-1738
-129 c3 -6 -1 -7 -9 -4 -18 7 -21 14 -7 14 6 0 13 -4 16 -10z m218 -134 c59
-20 170 -20 257 -1 36 8 80 14 97 15 l33 0 -37 -47 c-20 -27 -42 -62 -49 -80
-17 -39 -18 -107 -3 -135 6 -11 9 -21 7 -24 -9 -8 -207 98 -259 139 -52 42
-149 158 -149 179 0 5 12 1 28 -10 15 -11 49 -27 75 -36z m667 43 c-48 -31
-251 -149 -257 -149 -16 0 82 64 169 110 85 46 125 63 88 39z m-215 -256 c75
-50 157 -83 305 -121 146 -38 200 -62 233 -102 35 -41 37 -98 5 -134 -38 -42
-67 -42 -124 -2 -86 62 -132 87 -249 136 -134 56 -200 96 -249 151 -47 52 -49
80 -3 45 74 -57 364 -142 456 -134 28 2 17 7 -54 21 -156 32 -359 107 -428
159 -14 10 -17 21 -11 42 l7 27 26 -23 c14 -13 53 -42 86 -65z m916 -130 l41
-16 -73 -22 c-81 -23 -188 -74 -208 -99 -29 -34 -29 -13 -1 35 17 28 37 66 45
85 l14 34 70 0 c42 0 87 -7 112 -17z m179 -114 c37 -38 65 -90 96 -183 28 -81
29 -117 6 -206 l-17 -65 -95 0 c-66 0 -103 -5 -120 -15 -24 -14 -23 -15 35
-21 65 -6 123 -28 75 -28 -102 -1 -329 20 -369 34 -57 19 -79 53 -122 184
l-28 86 67 68 c101 102 260 175 389 176 45 1 56 -3 83 -30z m-539 -360 c22
-67 39 -134 37 -148 -3 -26 -3 -25 -26 12 -13 21 -22 43 -19 51 3 7 -8 60 -24
117 -49 176 -31 158 32 -32z m745 -46 c-4 -71 -6 -146 -7 -169 l0 -41 -102
-28 c-82 -23 -132 -29 -259 -35 -149 -6 -158 -8 -192 -33 -49 -38 -64 -92 -19
-69 17 9 462 27 598 24 32 -1 91 -11 130 -23 l70 -22 -70 -18 c-254 -66 -551
-82 -775 -41 -205 38 -456 129 -642 233 -49 28 -88 53 -86 55 2 1 26 -3 53
-11 84 -25 524 -95 631 -102 69 -4 112 -2 135 6 19 7 99 16 179 20 144 8 189
18 222 48 13 12 28 14 59 9 45 -7 52 10 11 29 -14 6 -20 15 -16 25 16 42 34
130 40 196 6 64 9 74 26 74 19 0 19 -6 14 -127z m68 90 c11 -62 39 -218 40
-219 1 -1 25 2 54 6 29 5 63 5 75 1 28 -11 -117 -25 -155 -16 -23 6 -26 12
-31 83 -4 42 -10 101 -13 130 -6 43 -4 52 8 52 10 0 18 -13 22 -37z m500 -267
c19 -8 39 -23 45 -33 9 -17 -1 -24 -97 -68 -59 -27 -148 -63 -197 -81 l-91
-32 -21 32 c-22 34 -95 75 -135 77 -19 1 -18 2 7 10 47 14 304 30 373 23 36
-4 62 -2 62 3 0 17 -55 62 -95 78 l-40 15 78 -5 c42 -2 92 -11 111 -19z"/>
<path d="M3701 3107 c-2 -13 96 -299 118 -347 l21 -45 -5 40 c-10 64 -53 194
-95 280 -21 44 -39 76 -39 72z"/>
<path d="M3840 3067 c0 -1 16 -43 36 -92 19 -50 44 -121 54 -160 22 -83 26
-48 5 43 -15 62 -78 212 -89 212 -3 0 -6 -1 -6 -3z"/>
<path d="M3645 3030 c10 -34 50 -110 69 -135 9 -11 -2 18 -25 65 -47 94 -55
107 -44 70z"/>
<path d="M3955 2946 c34 -76 53 -158 69 -289 l14 -112 1 95 c1 112 -18 199
-61 287 -39 79 -56 93 -23 19z"/>
<path d="M3353 2728 c-47 -54 -52 -72 -24 -88 15 -7 25 -5 43 9 l23 19 -28 -5
c-35 -7 -34 3 4 61 17 26 30 48 28 50 -2 2 -23 -19 -46 -46z"/>
<path d="M3476 2678 c-9 -49 -63 -159 -94 -191 -30 -32 -63 -51 -107 -61 l-30
-8 26 29 c29 30 59 84 59 104 0 7 -13 -7 -30 -32 -16 -24 -48 -57 -70 -73 -46
-34 -39 -46 25 -46 117 1 210 106 231 263 8 53 0 65 -10 15z"/>
<path d="M3770 2174 c-97 -183 -287 -341 -503 -419 -179 -64 -227 -86 -279
-134 -57 -51 -88 -108 -87 -161 l0 -35 18 45 c24 57 81 123 134 154 23 14 111
50 196 80 191 69 273 117 378 221 69 68 90 98 129 178 47 98 59 155 14 71z"/>
<path d="M3501 1980 c-133 -82 -242 -111 -446 -118 -179 -6 -169 -19 17 -21
70 -1 146 5 190 14 89 19 219 80 273 128 22 20 38 36 35 36 -3 0 -34 -18 -69
-39z"/>
<path d="M3518 1726 c-65 -34 -121 -66 -125 -70 -12 -12 97 33 147 60 40 23
113 75 100 73 -3 0 -58 -29 -122 -63z"/>
<path d="M2330 1719 c-114 -12 -230 -35 -283 -58 -49 -21 -112 -72 -129 -105
-8 -15 -2 -12 26 12 78 69 162 96 411 133 77 11 142 23 144 25 6 6 -71 3 -169
-7z"/>
<path d="M3360 1573 c-30 -14 -111 -47 -179 -74 -164 -66 -189 -80 -237 -131
-47 -49 -74 -96 -74 -130 0 -31 56 -148 71 -148 12 0 11 3 -20 91 -26 73 -16
115 44 174 46 47 97 76 210 120 79 31 225 102 240 116 13 13 7 11 -55 -18z"/>
<path d="M2638 3023 c7 -3 16 -2 19 1 4 3 -2 6 -13 5 -11 0 -14 -3 -6 -6z"/>
<path d="M1575 2705 c-5 -2 -26 -6 -45 -9 -19 -4 -46 -15 -60 -26 -25 -19 -24
-19 38 0 35 11 77 20 92 20 16 0 32 5 35 10 6 9 -37 13 -60 5z"/>
<path d="M1628 2629 c-72 -10 -189 -59 -250 -104 -63 -46 -122 -123 -145 -187
l-18 -53 -3 47 c-4 58 25 118 81 171 50 46 34 49 -25 4 -59 -45 -88 -99 -88
-164 0 -52 5 -68 40 -133 l19 -35 1 30 c0 42 23 123 48 171 51 100 195 194
367 239 91 23 79 30 -27 14z"/>
<path d="M1990 2566 c-75 -59 -94 -81 -129 -151 -48 -93 -36 -99 20 -10 28 44
78 108 112 143 34 34 59 62 57 62 -3 0 -30 -20 -60 -44z"/>
<path d="M1751 2164 c-6 -22 -13 -70 -17 -109 -5 -59 -4 -68 7 -57 9 8 16 46
19 105 3 51 5 94 4 96 -2 1 -7 -14 -13 -35z"/>
<path d="M1660 2098 c-25 -55 -25 -112 0 -163 12 -23 18 -30 14 -15 -15 65
-16 131 -1 174 20 58 12 60 -13 4z"/>
<path d="M2164 1239 c-10 -12 -32 -28 -49 -37 -18 -9 -25 -17 -17 -20 26 -9
62 9 78 39 19 38 14 46 -12 18z"/>
<path d="M2272 475 c13 -13 211 -35 318 -34 235 2 226 15 -15 22 -132 3 -256
9 -275 13 -19 4 -32 3 -28 -1z"/>
<path d="M3180 534 c0 -17 22 -14 28 4 2 7 -3 12 -12 12 -9 0 -16 -7 -16 -16z"/>
<path d="M388 2454 c-13 -12 -9 -124 7 -251 44 -329 171 -649 368 -928 211
-296 572 -603 901 -765 600 -294 1307 -290 1886 12 432 224 793 598 1016 1053
119 243 193 498 208 720 8 103 2 89 -24 -60 -46 -269 -94 -424 -195 -630 -236
-480 -628 -879 -1075 -1092 -112 -54 -300 -118 -430 -146 -187 -42 -290 -50
-523 -44 -176 4 -233 10 -336 31 -273 58 -539 170 -766 322 -200 133 -482 396
-612 569 -253 337 -398 742 -416 1158 -1 33 -5 55 -9 51z"/>
<path d="M4391 1601 c-110 -217 -242 -402 -410 -573 -94 -96 -98 -118 -8 -37
76 68 203 221 287 346 73 108 178 309 167 319 -3 3 -19 -21 -36 -55z"/>
<path d="M3765 830 c-54 -39 -115 -80 -136 -92 -21 -12 -40 -27 -43 -35 -9
-21 246 148 275 184 20 23 4 14 -96 -57z"/>
</g>
</svg>