<?xml version="1.0" standalone="no"?>
<!DOCTYPE svg PUBLIC "-//W3C//DTD SVG 20010904//EN"
 "http://www.w3.org/TR/2001/REC-SVG-20010904/DTD/svg10.dtd">
<svg version="1.0" xmlns="http://www.w3.org/2000/svg"
 width="512.000000pt" height="512.000000pt" viewBox="0 0 512.000000 512.000000"
 preserveAspectRatio="xMidYMid meet">
<metadata>
Created by potrace 1.16, written by Peter Selinger 2001-2019
</metadata>
<g transform="translate(0.000000,512.000000) scale(0.100000,-0.100000)"
fill="#000000" stroke="none">
<path d="M2210 4795 c-19 -9 -45 -26 -58 -38 -21 -19 -35 -22 -120 -22 -79 -1
-104 -5 -137 -22 -39 -20 -116 -100 -176 -181 -26 -36 -34 -40 -82 -44 -33 -3
-65 -13 -84 -26 -37 -26 -92 -106 -100 -144 -6 -30 -26 -38 -93 -38 -169 0
-356 -117 -410 -255 -20 -50 -24 -79 -24 -170 -1 -151 24 -232 96 -310 28 -31
65 -63 82 -72 45 -24 124 -43 177 -43 l45 0 -48 -50 c-37 -38 -52 -64 -65
-111 -15 -54 -21 -63 -57 -81 -59 -30 -114 -75 -122 -101 -4 -12 -24 -41 -44
-64 -66 -75 -104 -222 -83 -318 9 -39 9 -38 16 35 10 119 48 199 111 238 19
12 18 13 -14 8 l-35 -6 35 30 c19 17 56 42 83 55 26 14 47 28 47 31 0 4 -17 4
-38 1 l-37 -6 25 21 c25 21 104 60 149 73 22 7 20 2 -18 -51 -23 -32 -48 -80
-56 -106 -8 -27 -28 -67 -45 -88 -47 -60 -71 -124 -79 -215 -5 -45 -11 -87
-15 -93 -3 -6 -11 -34 -16 -63 -16 -84 15 -211 65 -269 7 -8 18 -41 24 -74
l11 -59 -39 -58 c-54 -81 -74 -146 -69 -222 3 -38 0 -77 -9 -101 -30 -87 -7
-208 49 -252 21 -17 24 -27 24 -94 0 -81 16 -124 58 -157 13 -10 27 -33 30
-50 12 -53 62 -111 120 -140 53 -26 54 -27 61 -78 14 -113 80 -205 224 -309
61 -44 108 -64 66 -28 -11 9 -27 26 -35 37 -11 14 -5 12 20 -7 48 -36 175 -98
204 -100 15 -1 31 -13 41 -33 25 -42 75 -94 108 -112 16 -8 52 -18 81 -23 29
-5 70 -20 92 -35 32 -22 48 -26 95 -24 41 2 65 -3 84 -15 15 -10 52 -32 84
-49 31 -17 76 -43 100 -58 l44 -27 21 23 c12 13 64 52 118 88 l96 64 49 -10
c64 -13 144 10 200 58 23 19 51 35 62 35 62 0 168 86 206 166 11 23 25 36 43
39 66 14 109 29 134 46 14 11 33 19 43 19 62 0 139 87 159 183 5 21 12 27 32
27 68 0 128 57 141 133 3 24 14 44 29 53 35 23 105 122 127 178 26 70 20 162
-17 234 -25 50 -26 53 -10 84 23 44 15 178 -13 234 -21 39 -21 40 -2 52 26 16
58 83 65 134 3 24 -1 67 -9 97 -14 50 -13 57 6 100 13 28 21 69 22 104 1 53 3
59 31 76 72 44 106 134 84 228 -7 32 -14 94 -14 139 -1 69 -6 89 -34 146 -38
77 -117 156 -185 184 l-44 18 0 72 c0 61 -5 83 -30 134 l-30 60 41 11 c49 13
112 44 122 60 5 8 1 8 -14 0 -37 -20 -46 -12 -20 17 30 31 52 74 62 117 6 23
0 18 -26 -25 -60 -100 -177 -144 -318 -120 -77 13 -118 35 -152 82 -50 67 -40
92 16 41 30 -28 31 -28 8 -2 -20 23 -21 27 -7 33 9 3 32 6 50 6 49 0 137 35
212 86 36 24 69 44 73 44 13 0 41 -38 50 -66 6 -23 8 -25 9 -8 1 12 -8 33 -19
47 l-20 25 30 11 c17 5 30 13 30 16 0 3 -33 40 -72 81 -152 157 -335 193 -526
102 -61 -29 -64 -29 -78 -11 -22 29 -13 43 51 69 134 57 177 67 275 68 273 1
476 -148 481 -352 1 -42 2 -44 9 -17 4 17 8 67 9 111 1 97 -24 190 -68 247
-87 114 -255 187 -431 187 l-55 0 -18 43 c-9 23 -28 56 -42 72 l-24 30 24 -49
c24 -47 33 -106 17 -106 -4 0 -18 23 -30 51 -13 28 -25 49 -27 47 -2 -2 1 -25
7 -52 6 -31 7 -51 0 -58 -6 -6 -12 6 -17 34 l-9 43 -6 -45 c-4 -26 -8 -35 -9
-20 -2 25 -2 25 -15 -5 l-13 -30 -7 40 c-4 22 -13 50 -19 62 -11 20 -12 13 -9
-45 3 -62 -8 -105 -23 -90 -4 3 -7 28 -7 55 -1 26 -3 40 -5 30 -4 -14 -12 -8
-39 30 -40 56 -46 51 -8 -7 30 -45 43 -126 25 -156 -8 -14 -11 -15 -11 -4 -1
20 -39 104 -45 99 -2 -3 2 -27 10 -54 19 -61 19 -74 1 -49 -12 15 -17 16 -27
7 -10 -10 -17 0 -36 45 -12 31 -23 64 -23 72 0 17 67 102 103 130 42 33 98 50
165 50 63 0 65 1 49 17 -12 12 -38 19 -89 21 l-71 4 -57 58 c-31 32 -67 61
-79 65 -12 4 -26 17 -31 30 -16 42 -57 60 -137 60 -60 1 -76 5 -95 22 -13 12
-36 26 -51 32 -32 13 -132 13 -162 2 -11 -5 -33 -4 -48 2 -33 11 -96 -4 -138
-34 -26 -18 -27 -18 -45 2 -53 59 -199 87 -274 54z m201 -48 c24 -13 55 -39
68 -59 l23 -36 30 34 c30 33 95 61 110 46 5 -5 -1 -30 -13 -56 -20 -46 -28
-124 -14 -146 4 -6 -14 -33 -39 -61 -25 -28 -46 -56 -46 -61 0 -6 -16 13 -35
42 -29 44 -35 61 -35 107 0 62 -20 112 -52 132 -19 12 -19 10 5 -18 23 -28 27
-42 27 -96 l0 -64 -44 20 c-24 10 -71 22 -105 25 -65 7 -58 0 -99 103 -4 10
-1 12 9 6 8 -5 3 4 -11 20 l-25 28 45 -6 45 -6 -40 18 -40 19 35 16 c54 24
148 21 201 -7z m472 -22 c44 -21 46 -30 9 -49 -16 -8 -34 -21 -41 -30 -10 -12
-9 -14 8 -9 20 5 20 3 -6 -49 l-28 -54 -42 9 c-31 6 -57 4 -93 -6 l-51 -15
-10 26 c-14 38 -1 98 29 134 55 66 142 82 225 43z m-780 -37 c46 -14 92 -56
101 -94 8 -29 -1 -46 -13 -25 -6 9 -10 7 -14 -8 -7 -30 -23 -26 -37 10 -17 41
-69 79 -117 85 l-38 5 40 -15 c45 -17 95 -67 95 -95 0 -10 -9 -26 -19 -35 -15
-14 -24 -15 -40 -7 -30 17 -70 13 -118 -10 -30 -15 -55 -20 -78 -16 -25 4 -41
0 -59 -14 -27 -21 -51 -26 -40 -7 5 7 2 9 -8 6 -8 -4 -21 -2 -28 2 -20 12 36
59 87 73 51 13 56 27 11 27 l-33 0 25 20 c14 10 45 24 70 30 l45 11 -25 19
-25 19 25 9 c14 5 32 12 40 15 27 10 112 7 153 -5z m1000 -24 c30 -16 30 -17
10 -25 -33 -12 -38 -29 -8 -29 33 0 86 -22 104 -43 12 -15 10 -17 -20 -18 -33
0 -32 -1 12 -13 39 -10 109 -50 109 -61 0 -3 -16 -4 -35 -3 -19 1 -38 -2 -42
-5 -3 -4 5 -7 18 -8 l24 0 -23 -11 c-17 -9 -26 -8 -40 4 -29 25 -52 28 -89 13
-44 -19 -66 -5 -32 19 26 18 9 22 -22 5 -17 -9 -21 -7 -26 10 -5 20 -23 30
-23 14 0 -12 -149 -8 -161 4 -25 25 37 124 95 149 43 18 111 17 149 -2z m-741
-156 c72 -21 148 -114 148 -180 0 -43 13 -33 33 22 52 147 197 203 313 122 36
-26 44 -29 42 -15 -2 15 5 19 42 21 117 8 197 -141 141 -263 -23 -52 -42 -67
-97 -75 -39 -6 -44 -5 -38 9 11 27 17 108 10 146 -7 36 -59 105 -79 105 -6 0
-1 -10 10 -22 44 -48 58 -109 42 -174 -12 -45 -56 -94 -85 -94 -8 0 -15 -6
-15 -12 -1 -7 -5 14 -10 46 -9 58 -48 136 -70 136 -5 0 -33 21 -61 48 -49 44
-51 45 -31 13 11 -18 38 -43 59 -55 52 -28 74 -75 74 -154 0 -76 -17 -119 -59
-155 -59 -49 -129 -48 -180 4 -27 27 -30 35 -25 73 4 25 2 52 -5 62 -9 17 -10
16 -11 -9 0 -49 -36 -104 -87 -134 -62 -36 -147 -38 -210 -5 -52 27 -73 56
-73 103 0 34 2 36 28 32 l27 -5 -22 17 c-28 20 -31 79 -7 114 21 30 72 51 123
51 30 0 44 6 55 22 24 33 19 44 -7 19 -15 -13 -46 -25 -79 -31 -89 -14 -113
-37 -133 -123 l-11 -48 -27 21 c-72 57 -52 207 35 260 39 23 31 26 -16 6 -69
-29 -107 -138 -82 -235 l8 -34 -33 7 c-66 13 -119 91 -119 177 0 96 68 174
147 167 38 -3 40 -7 27 -43 -5 -15 1 -12 27 12 19 18 50 39 69 47 42 18 157
21 212 4z m-467 -46 c-10 -9 -85 -32 -101 -32 -5 1 2 10 15 20 22 19 107 30
86 12z m1275 4 c0 -2 -15 -15 -34 -30 -26 -20 -35 -22 -39 -12 -4 9 6 20 26
30 32 15 47 19 47 12z m-1504 -17 c25 -7 62 -27 86 -49 37 -33 41 -39 29 -54
-9 -10 -10 -16 -2 -16 6 0 11 5 11 11 0 6 5 9 11 7 6 -2 10 -7 9 -12 -1 -5 3
-12 8 -15 13 -9 -29 -137 -50 -150 -15 -9 -18 -8 -19 11 0 22 -1 22 -9 3 -18
-43 -10 24 9 75 11 27 16 48 12 45 -9 -5 -37 -69 -48 -110 -7 -27 -8 -24 -11
24 -3 56 8 97 40 144 11 15 15 27 9 27 -13 0 -60 -80 -72 -124 -8 -28 -13 -33
-30 -29 -20 6 -21 11 -17 72 5 64 5 65 -9 32 -8 -18 -15 -46 -16 -61 -2 -32
-17 -30 -18 3 -1 20 -2 20 -9 -3 -6 -22 -8 -23 -15 -7 -4 10 -5 39 -2 65 4 39
3 44 -8 29 -7 -10 -16 -36 -20 -60 -4 -23 -9 -35 -12 -27 -14 45 -14 45 -28
20 l-14 -25 0 30 c-1 47 34 112 71 135 38 23 53 24 114 9z m1554 -14 c10 -12
9 -16 -4 -21 -9 -3 -16 -10 -16 -14 0 -16 -55 -91 -58 -80 -2 6 5 21 15 33 34
38 38 53 6 24 -26 -24 -31 -26 -37 -12 -7 21 7 49 36 69 28 20 42 20 58 1z
m-1351 -24 c-7 -19 -16 -28 -27 -27 -29 5 -25 33 5 44 15 6 29 11 30 11 1 1
-3 -12 -8 -28z m-303 -186 l42 -16 -22 -40 c-14 -27 -26 -37 -36 -33 -33 14
-202 16 -262 4 -156 -30 -291 -132 -329 -248 -6 -19 -7 -11 -3 28 6 59 30 123
64 169 40 57 173 127 285 151 60 13 213 4 261 -15z m284 7 c0 -11 -9 -27 -20
-37 -22 -20 -26 -9 -8 30 13 29 28 33 28 7z m1328 -72 c0 -21 -3 -18 -19 17
-11 23 -16 49 -12 59 5 14 9 11 19 -17 7 -19 12 -45 12 -59z m581 75 c145 -35
260 -123 301 -231 28 -77 25 -96 -9 -43 -52 83 -164 154 -279 178 -65 13 -225
14 -270 2 -30 -9 -36 -7 -62 22 -24 27 -27 34 -15 46 37 37 223 52 334 26z
m-1857 -112 c-53 -24 -61 -15 -41 42 l12 32 28 -31 28 -31 -27 -12z m1236 25
c11 -20 15 -35 9 -33 -72 25 -70 23 -50 49 10 13 18 23 19 23 0 -1 10 -19 22
-39z m-1581 -52 c39 -11 179 -67 201 -82 2 -1 -4 -16 -12 -33 l-16 -30 -63 34
c-82 45 -177 62 -258 47 -119 -22 -229 -90 -286 -176 -25 -38 -29 -54 -31
-122 -2 -64 1 -85 17 -111 24 -39 64 -61 122 -68 l44 -5 -50 14 c-89 25 -136
110 -101 182 9 19 23 34 33 34 9 0 43 -18 75 -41 86 -60 166 -89 264 -96 46
-3 84 -8 84 -10 0 -13 -32 -62 -57 -85 -43 -41 -106 -60 -203 -61 -105 0 -171
25 -230 89 -49 54 -53 32 -5 -30 42 -55 30 -60 -26 -9 -61 55 -91 123 -97 215
-4 69 -2 84 21 130 52 106 139 171 281 208 85 23 220 25 293 6z m1589 -21 c51
-30 91 -76 116 -133 15 -33 18 -61 16 -127 l-3 -85 -65 0 c-70 -1 -130 -18
-161 -46 -18 -16 -19 -16 -19 3 0 29 40 84 80 111 26 18 46 23 78 20 36 -3 40
-1 25 9 -37 28 -112 6 -156 -46 -14 -17 -33 -57 -42 -89 -16 -57 -32 -103 -66
-197 -12 -32 -18 -75 -17 -120 0 -38 3 -59 5 -45 15 94 27 134 50 160 23 28
30 30 88 30 35 0 75 5 88 11 27 12 57 57 57 86 0 10 5 25 11 33 8 11 9 -3 5
-52 -9 -112 -45 -158 -126 -158 -33 0 -41 -3 -30 -10 21 -13 107 -13 132 1 19
10 20 9 14 -12 -38 -130 -46 -181 -46 -278 -1 -71 -6 -119 -16 -146 -23 -59
-70 -199 -96 -285 l-22 -75 -13 132 c-11 116 -20 151 -64 275 -28 79 -53 145
-56 148 -10 10 9 -66 49 -190 33 -103 41 -144 45 -235 4 -73 1 -125 -7 -155
l-13 -45 -37 110 c-20 61 -45 124 -54 140 -10 17 -14 21 -11 10 4 -11 22 -80
41 -153 53 -208 44 -293 -38 -353 -57 -41 -133 -55 -213 -40 -78 14 -115 29
-115 48 0 16 74 137 104 172 12 13 44 33 72 46 62 27 94 66 94 112 0 97 -80
138 -191 97 -60 -22 -153 -21 -219 1 -103 34 -174 18 -200 -46 -27 -65 9 -138
79 -160 81 -26 114 -58 185 -181 l28 -48 -49 -22 c-37 -17 -68 -22 -138 -22
-83 -1 -94 1 -145 30 -39 22 -61 43 -78 75 -22 40 -23 53 -19 144 3 63 15 135
31 195 40 144 40 152 2 65 -20 -44 -35 -88 -36 -97 0 -10 -4 -18 -9 -18 -5 0
-14 37 -21 83 -12 89 -4 175 25 258 51 144 96 385 94 504 l-2 70 -9 -70 c-31
-246 -39 -289 -84 -425 -56 -173 -65 -258 -40 -399 21 -121 9 -151 -28 -71
-14 30 -26 61 -26 68 0 7 -5 10 -11 6 -8 -4 -9 4 -5 27 4 23 3 27 -2 14 -7
-15 -14 3 -32 75 -13 52 -37 124 -53 159 -27 57 -31 77 -37 205 -5 82 -14 162
-24 191 -9 28 -16 52 -16 55 0 3 30 4 68 3 l67 -4 -54 23 c-72 31 -89 57 -95
143 -3 39 -3 60 0 47 3 -12 10 -20 15 -16 6 3 7 -4 3 -20 -4 -19 0 -31 20 -50
22 -23 33 -26 95 -26 65 0 71 -2 94 -30 14 -16 31 -56 39 -87 l13 -58 3 51 c2
35 -4 71 -19 110 -12 33 -30 93 -41 134 -24 93 -53 145 -94 170 -34 22 -90 26
-114 9 -12 -8 -10 -9 8 -4 12 4 38 1 57 -5 39 -13 105 -84 105 -113 0 -18 -2
-18 -35 3 -24 15 -58 23 -110 27 -73 6 -75 7 -75 32 0 14 -3 49 -6 78 -5 42
-1 62 18 105 52 111 116 158 218 158 33 0 76 -6 94 -14 27 -11 34 -21 39 -53
12 -72 106 -133 207 -133 46 0 110 22 150 51 l30 23 22 -22 c32 -29 74 -43
130 -44 63 0 111 30 155 99 24 38 46 60 71 70 92 38 201 37 268 -2z m-1626
-91 c31 -7 29 -8 -37 -29 -37 -12 -113 -44 -168 -70 l-100 -48 50 -9 c28 -4
79 -6 115 -3 l65 5 -50 -19 -50 -19 37 -1 c20 -1 74 8 120 19 103 25 115 25
93 4 -16 -17 -144 -64 -173 -64 -15 0 -15 -2 -2 -10 22 -14 165 -12 238 4 38
8 65 10 68 4 3 -5 3 -12 0 -15 -3 -4 -6 0 -6 7 0 7 -12 1 -26 -14 -38 -37 -93
-49 -209 -44 -80 3 -109 9 -145 27 -53 28 -190 122 -190 131 0 9 72 74 105 95
70 44 184 65 265 49z m2225 -33 c62 -31 148 -97 143 -111 -5 -14 -130 -102
-182 -128 -41 -21 -70 -27 -145 -30 -117 -6 -187 9 -232 49 -24 21 -28 28 -14
25 83 -22 216 -37 265 -31 l55 8 -63 18 c-35 10 -91 31 -125 48 l-62 30 50 -5
c28 -4 75 -13 105 -20 30 -8 75 -14 100 -13 l45 1 -50 18 -50 19 60 -5 c33 -3
87 -1 120 3 l60 8 -110 49 c-60 27 -141 59 -180 72 -63 20 -67 23 -40 27 17 3
66 3 110 1 63 -3 93 -10 140 -33z m-1834 -271 c10 -6 19 -15 19 -19 0 -13 -30
-22 -51 -16 -29 10 -23 36 9 44 2 1 12 -4 23 -9z m1229 -5 c17 -21 9 -27 -31
-23 -31 3 -32 4 -15 21 21 21 30 21 46 2z m-1293 -39 c-2 -37 -17 -39 -17 -2
0 20 7 36 16 36 1 0 2 -15 1 -34z m1343 -1 c0 -22 -8 -43 -20 -55 -25 -25 -82
-27 -101 -2 -11 14 -11 15 1 5 19 -18 65 -16 84 2 8 9 18 31 22 50 8 45 14 45
14 0z m-1469 -12 c25 -30 -51 -356 -130 -562 -29 -73 -58 -163 -64 -199 l-12
-65 -97 -49 c-159 -80 -253 -181 -300 -324 l-22 -68 -19 42 c-25 60 -31 128
-14 182 l14 45 16 -35 c20 -44 21 -33 2 56 -23 112 1 210 76 305 16 20 29 44
29 53 0 43 77 149 143 197 22 16 69 38 103 49 63 19 117 45 164 78 17 12 12 1
-18 -35 -49 -60 -75 -82 -155 -137 -31 -22 -55 -41 -53 -44 13 -12 133 68 184
123 55 58 84 115 106 205 7 28 7 28 -39 -43 -40 -61 -149 -115 -345 -172 -55
-15 -60 -6 -32 59 34 76 94 132 168 156 106 34 154 73 199 160 10 19 22 38 27
41 14 9 56 -1 69 -18z m1715 14 c6 0 26 -30 44 -65 26 -50 45 -72 81 -95 38
-23 54 -43 84 -102 21 -40 34 -78 31 -84 -4 -6 -3 -11 2 -11 6 0 13 -7 16 -16
4 -11 -9 -7 -47 14 -28 17 -87 44 -130 62 -42 17 -85 43 -96 56 -10 13 -31 60
-47 105 -16 45 -30 76 -32 70 -6 -19 17 -106 89 -326 78 -242 91 -303 91 -440
0 -110 -24 -195 -64 -231 -21 -19 -21 -19 -15 6 3 14 13 52 23 85 26 90 24
233 -4 313 -20 54 -81 169 -82 151 0 -4 12 -32 26 -64 56 -121 69 -257 38
-379 -18 -72 -29 -87 -39 -55 -7 20 -80 143 -123 205 -24 36 -2 -27 31 -86 78
-142 82 -152 82 -225 -1 -46 -6 -80 -17 -100 l-17 -30 6 57 c7 66 -1 117 -22
144 -14 17 -14 17 -4 -11 14 -40 14 -116 -2 -162 -24 -76 -85 -152 -120 -153
-9 0 -20 -11 -23 -24 -9 -38 -71 -86 -111 -86 -32 0 -34 1 -29 33 3 19 0 39
-9 51 -13 18 -14 17 -9 -12 2 -20 -2 -42 -12 -57 -9 -14 -14 -30 -11 -35 12
-20 99 -11 143 15 23 13 42 21 42 17 0 -4 -5 -27 -11 -51 -13 -59 -14 -124 -1
-147 8 -15 10 -11 6 21 -4 26 3 73 19 132 14 50 23 94 21 96 -3 3 16 15 42 27
58 29 128 120 150 198 10 33 26 64 40 74 13 11 38 49 56 86 33 66 33 68 32
202 -2 176 -14 229 -102 466 l-30 81 111 -56 c135 -67 235 -155 287 -253 28
-53 35 -76 38 -143 5 -93 -6 -143 -45 -203 l-28 -43 -15 23 c-27 43 -93 100
-137 119 -63 27 -63 24 0 -21 135 -97 184 -267 118 -404 l-24 -49 -14 53 c-7
30 -19 61 -25 69 -31 41 -66 74 -93 88 -27 14 -25 10 18 -35 49 -54 65 -82 77
-144 6 -33 4 -42 -18 -63 l-25 -25 26 0 c22 0 27 -6 37 -51 32 -130 -22 -265
-139 -348 l-28 -20 -5 62 c-6 77 -41 147 -98 202 l-42 40 35 -50 c72 -103 92
-202 63 -315 -31 -119 -103 -209 -220 -275 -71 -39 -110 -75 -83 -75 26 0 169
78 203 111 l31 30 7 -25 c6 -23 -2 -72 -19 -121 -7 -20 -6 -20 9 -1 20 25 30
77 23 121 -5 28 1 46 29 92 19 31 34 64 34 72 1 12 4 11 13 -4 7 -12 12 -58
12 -115 0 -120 -26 -181 -111 -267 l-59 -58 -5 85 c-3 47 -11 94 -18 105 -10
17 -11 10 -6 -40 13 -124 -27 -235 -116 -327 -63 -65 -90 -77 -65 -28 21 40
29 109 16 140 -9 23 -10 21 -10 -19 -1 -63 -33 -119 -97 -171 -59 -49 -148
-99 -176 -100 -22 0 -23 -3 6 61 14 30 27 72 30 94 7 43 6 42 -32 -43 -22 -49
-94 -125 -170 -178 -93 -66 -131 -103 -153 -149 -16 -35 -19 -37 -20 -15 l-1
25 -7 -25 c-7 -25 -8 -24 -39 19 -18 24 -32 48 -32 53 0 30 -54 87 -111 118
-84 45 -154 111 -175 166 -12 33 -15 63 -12 121 6 83 -5 73 -23 -22 -9 -47 -1
-122 17 -169 7 -18 5 -18 -24 3 -38 27 -77 98 -95 173 l-12 53 -3 -46 c-2 -25
3 -64 11 -87 l14 -41 -23 15 c-40 27 -92 116 -114 194 -24 91 -25 97 -2 78 51
-45 116 -59 161 -34 23 13 22 13 -20 20 -175 28 -301 265 -245 459 10 36 34
78 66 118 28 34 50 71 50 82 0 10 -9 49 -19 85 -11 37 -22 79 -25 93 -3 14
-21 45 -41 70 -71 88 -93 235 -49 320 15 29 15 32 1 21 -55 -46 -59 -182 -9
-283 20 -42 23 -54 11 -46 -19 12 -58 76 -115 186 -36 68 -39 81 -39 157 0 60
-3 78 -10 66 -14 -24 -12 -172 3 -202 13 -24 13 -24 -4 -5 -86 104 -76 279 26
443 22 35 40 66 40 69 0 15 -85 -100 -111 -152 l-31 -60 4 65 c3 48 13 83 39
135 46 94 46 96 4 50 l-36 -39 35 76 c32 71 69 182 94 283 l10 40 1 -40 c3
-100 34 -315 58 -389 39 -127 86 -206 180 -306 80 -84 84 -92 94 -149 12 -77
24 -110 53 -141 13 -14 26 -43 29 -65 4 -21 16 -52 27 -68 12 -15 20 -35 18
-45 -1 -9 17 -53 41 -96 l43 -79 -42 -85 c-37 -74 -42 -93 -42 -151 1 -80 20
-137 68 -203 20 -27 34 -51 32 -53 -8 -8 -56 49 -92 109 -40 67 -47 60 -15
-15 12 -27 19 -52 16 -56 -4 -3 -24 6 -46 21 -101 70 -137 205 -90 331 17 45
19 67 14 119 -6 49 -3 70 10 96 24 47 45 110 36 110 -4 0 -22 -31 -41 -69 -30
-63 -32 -75 -27 -130 6 -50 2 -75 -18 -135 -14 -41 -25 -93 -25 -115 0 -97 66
-209 149 -255 40 -21 51 -33 51 -51 0 -28 36 -128 59 -165 29 -47 134 -164
127 -142 -7 21 -6 21 37 -5 l45 -28 -5 -56 c-5 -47 -1 -66 23 -119 l28 -62 18
22 c17 22 62 149 54 157 -2 2 -14 -25 -26 -59 -30 -81 -37 -88 -45 -45 -10 53
2 68 154 196 29 24 66 62 82 84 16 22 29 36 29 31 0 -5 4 -3 9 4 4 7 25 17 45
22 l37 8 -19 -32 -19 -32 36 18 c19 10 44 18 56 18 36 0 123 48 168 92 65 66
91 127 94 223 2 80 2 80 -8 25 -5 -30 -16 -73 -25 -95 -38 -97 -134 -185 -217
-200 l-39 -8 31 58 c17 32 31 67 31 79 0 15 -6 10 -20 -19 -35 -69 -53 -86
-98 -92 l-42 -6 0 67 c0 37 -4 76 -10 86 -8 15 -4 22 26 41 55 34 74 73 73
149 -1 36 -4 76 -8 90 -5 15 -7 -7 -7 -55 1 -94 -15 -131 -73 -173 -32 -24
-37 -31 -29 -47 6 -10 8 -45 5 -82 -9 -87 -45 -151 -127 -221 -36 -31 -87 -76
-114 -101 -33 -32 -46 -40 -43 -26 4 11 9 34 13 50 4 17 24 63 45 103 41 77
47 116 27 172 -11 32 -10 35 28 68 21 19 64 47 94 62 33 17 65 43 79 64 72
109 67 224 -14 337 -35 49 -35 49 -11 49 19 0 35 16 73 73 27 39 59 100 71
135 13 34 28 60 33 56 20 -12 69 -110 69 -139 0 -16 -9 -50 -20 -74 -23 -49
-26 -99 -7 -124 10 -15 12 -11 9 26 -3 31 3 57 17 85 23 45 27 111 9 145 -6
12 -26 40 -44 63 -29 35 -33 45 -27 80 3 21 14 48 23 59 31 35 47 78 53 139 5
54 10 64 55 110 118 123 172 219 213 381 30 121 38 394 15 534 -13 76 -13 99
-3 120 15 31 70 53 112 45 17 -3 35 -6 41 -7z m-1561 -75 c29 -10 29 -10 5
-11 -28 -1 -70 24 -70 41 0 6 7 5 18 -4 9 -9 31 -20 47 -26z m-79 -227 c13
-29 19 -80 24 -185 5 -125 10 -151 30 -190 13 -25 42 -103 65 -175 l42 -129
-39 43 c-76 86 -134 248 -163 451 -16 115 -21 341 -8 354 5 4 13 -23 20 -61 6
-37 19 -86 29 -108z m1473 -76 c2 -183 -56 -417 -129 -527 -60 -89 -71 -94
-48 -20 37 121 56 173 84 238 24 57 28 81 31 185 2 76 12 155 26 217 l22 97 7
-47 c3 -26 7 -90 7 -143z m529 152 c41 -50 71 -162 58 -214 -5 -20 -11 -24
-33 -20 -27 4 -28 4 -8 -12 11 -9 53 -32 93 -50 126 -59 212 -174 212 -284 l0
-38 -40 38 c-49 47 -83 65 -135 74 -39 6 -38 5 25 -29 36 -20 78 -50 94 -68
98 -113 102 -273 6 -323 l-30 -16 0 55 c0 80 -32 156 -91 219 l-50 52 40 -61
c74 -111 91 -206 50 -285 -19 -39 -19 -40 -1 -30 11 6 22 7 26 4 11 -12 6 -83
-9 -120 l-15 -36 -43 40 c-24 22 -64 52 -90 67 l-46 28 1 77 c0 42 -3 91 -6
109 -6 26 -2 38 23 69 44 55 63 108 68 193 9 130 -32 232 -137 335 -38 38 -50
56 -50 80 0 23 -33 105 -67 165 -2 3 29 4 69 2 51 -3 77 -9 86 -21z m-2268
-698 c1 -184 36 -290 119 -365 26 -24 59 -61 73 -83 27 -44 87 -100 122 -116
15 -7 27 -31 44 -92 12 -45 22 -90 22 -100 0 -10 -20 -39 -45 -66 -44 -47 -84
-120 -85 -153 0 -29 -15 -21 -47 25 -37 53 -53 98 -53 154 0 48 28 140 61 200
l21 38 -26 -30 c-15 -16 -39 -55 -53 -85 -23 -44 -28 -68 -28 -130 0 -84 19
-130 75 -187 28 -28 33 -43 41 -105 10 -91 23 -127 71 -204 28 -46 38 -72 38
-103 l0 -41 -38 19 c-57 29 -126 109 -152 177 -14 36 -25 94 -29 149 -7 88 -7
89 -15 41 -5 -26 -6 -77 -3 -112 2 -35 2 -64 -1 -64 -21 0 -76 61 -102 113
-45 91 -50 203 -14 302 5 16 4 17 -5 9 -7 -7 -23 -40 -35 -74 l-23 -61 -27 35
c-54 71 -77 139 -84 244 -6 103 -19 97 -21 -10 -1 -32 -5 -58 -9 -58 -21 0
-91 62 -121 106 -116 175 -64 423 120 570 45 36 184 121 202 123 4 1 7 -29 7
-66z m888 7 c81 -26 147 -25 222 1 68 23 118 22 134 -3 14 -23 -13 -49 -76
-72 -55 -20 -92 -60 -124 -133 -14 -30 -30 -53 -39 -53 -8 0 -28 26 -44 58
-16 31 -39 67 -50 79 -26 27 -93 63 -118 63 -21 0 -63 27 -63 40 0 19 33 40
63 40 18 0 61 -9 95 -20z m1428 -376 c100 -67 154 -149 154 -237 0 -86 -51
-157 -112 -157 l-28 0 44 -42 c34 -34 46 -54 55 -96 6 -29 11 -61 11 -70 0
-45 -26 -99 -67 -143 -50 -53 -49 -60 3 -28 19 11 38 18 43 15 17 -11 43 -106
43 -155 -1 -51 -30 -138 -31 -93 -1 28 -24 74 -45 91 -20 17 -20 13 -1 -32 27
-66 13 -149 -32 -190 -19 -17 -20 -16 -31 22 -7 21 -22 51 -34 66 l-21 28 -13
-43 c-15 -49 -36 -75 -84 -102 l-35 -19 30 6 c46 10 95 52 102 88 l7 32 12
-40 c35 -113 -14 -235 -92 -235 -21 0 -24 4 -19 23 l6 22 -19 -22 c-20 -23
-20 -23 -33 -2 -13 18 -14 13 -14 -49 0 -58 -4 -75 -27 -110 -15 -23 -37 -46
-48 -52 -19 -10 -20 -9 -14 27 3 21 1 49 -4 63 -10 24 -11 22 -18 -19 -12 -75
-100 -150 -176 -151 -26 0 -28 3 -29 38 l0 37 -18 -51 c-35 -103 -103 -192
-168 -220 -47 -20 -53 -18 -53 22 0 21 -4 33 -10 29 -5 -3 -10 -15 -10 -26 0
-10 -21 -41 -47 -68 -39 -39 -58 -51 -100 -60 -66 -14 -85 -7 -76 26 l6 26
-22 -22 c-26 -26 -46 -28 -36 -3 13 30 18 119 7 138 -8 15 -10 9 -10 -29 0
-52 -29 -121 -65 -155 -51 -48 -152 -111 -158 -99 -3 7 -9 38 -13 70 -6 59
-32 135 -41 125 -3 -3 -1 -18 6 -34 12 -32 18 -168 7 -179 -3 -4 -42 14 -86
39 -72 42 -147 110 -179 162 -10 16 -10 13 -3 -14 5 -19 14 -40 19 -46 15 -18
3 -26 -36 -26 -50 0 -96 23 -131 66 -28 34 -32 36 -32 16 0 -28 -29 -29 -86
-3 -51 23 -83 64 -129 164 -19 42 -40 79 -46 83 -8 4 -8 1 -1 -12 5 -11 12
-31 16 -46 8 -37 -5 -36 -99 3 -87 36 -160 97 -186 153 l-18 41 0 -42 c-1 -53
-13 -54 -61 -4 -61 64 -99 167 -101 275 0 40 -1 40 -15 19 -13 -19 -20 -20
-42 -12 -34 13 -79 56 -99 93 -19 36 -43 181 -36 221 4 28 3 28 -9 10 -7 -11
-15 -42 -18 -70 l-6 -50 -17 37 c-21 46 -22 115 -3 165 8 21 16 59 19 86 4 41
3 45 -9 30 -7 -10 -16 -33 -20 -50 -7 -37 -8 -37 -35 -23 -25 14 -49 62 -49
100 0 25 8 36 45 62 l44 31 -34 39 c-20 22 -36 50 -36 66 -5 80 14 150 57 215
l25 38 39 -59 c38 -56 82 -93 143 -120 15 -6 27 -18 27 -25 0 -27 71 -156 99
-180 20 -16 31 -37 36 -67 17 -98 80 -192 157 -231 23 -12 45 -34 57 -57 25
-48 104 -122 158 -146 34 -15 45 -26 57 -62 32 -96 104 -171 229 -239 59 -32
67 -35 67 -18 1 15 4 13 21 -9 11 -16 25 -28 30 -28 5 0 28 -14 51 -30 23 -17
49 -28 58 -25 21 7 40 -15 73 -81 15 -28 51 -82 82 -120 52 -64 56 -72 52
-112 -4 -35 -2 -41 9 -31 10 8 14 35 13 95 -2 120 -3 119 199 276 l61 48 11
-41 c17 -64 16 -131 -4 -164 l-18 -30 26 28 c23 25 26 36 26 107 l0 78 34 12
c18 6 59 26 91 46 32 19 65 32 72 29 48 -18 200 118 244 218 17 39 34 60 57
73 49 27 120 108 150 172 35 76 41 190 15 282 -20 70 -19 110 1 110 26 0 126
82 150 122 l25 42 10 -28 c39 -102 -26 -246 -113 -246 -24 0 -27 -3 -16 -10
58 -37 144 34 163 136 6 34 -15 140 -31 156 -7 7 -7 19 0 37 14 37 14 169 -1
214 -12 36 -11 39 18 73 17 19 31 39 31 44 0 16 15 12 56 -16z m-969 -117
c-23 -42 -95 -95 -149 -112 -65 -19 -380 -13 -430 8 -53 23 -107 65 -124 100
-20 37 -14 42 28 21 53 -28 161 -30 250 -5 l77 21 90 -21 c100 -24 173 -21
232 10 19 9 36 15 39 14 2 -2 -4 -18 -13 -36z m-43 -114 c-49 -77 -98 -135
-119 -143 -13 -5 -26 -14 -30 -19 -3 -6 -17 -11 -31 -11 -13 0 -24 -5 -24 -11
0 -6 -9 -8 -20 -4 -11 3 -25 3 -32 -2 -18 -11 -108 -13 -108 -2 0 5 -10 9 -22
9 -40 0 -110 26 -120 43 -5 9 -14 17 -21 17 -11 1 -34 31 -80 109 l-21 34 40
-26 c74 -49 154 -68 287 -69 136 -1 199 16 273 72 49 36 50 36 28 3z m-526
-195 c7 -10 22 -18 33 -18 28 0 24 -36 -13 -116 -42 -90 -51 -200 -20 -265 11
-24 26 -59 32 -77 14 -37 36 -57 25 -22 -6 18 9 11 77 -36 45 -32 86 -63 90
-69 16 -22 7 -87 -19 -140 -15 -30 -30 -55 -34 -55 -4 0 -34 20 -68 45 -39 29
-76 68 -101 107 -22 34 -40 58 -40 54 0 -9 39 -86 54 -107 6 -8 -4 0 -22 20
-40 43 -79 121 -90 183 l-9 47 35 -27 c27 -20 36 -24 40 -13 2 7 12 21 22 31
17 17 17 19 -15 50 -18 17 -45 57 -61 88 -24 47 -29 69 -28 124 0 57 6 78 38
142 39 76 51 85 74 54z m428 -71 c90 -131 59 -242 -98 -348 -31 -21 -64 -49
-72 -61 l-16 -22 0 24 c0 14 14 63 30 110 16 47 29 99 29 115 0 24 -5 17 -24
-35 -12 -36 -34 -90 -48 -120 l-24 -55 -12 55 c-6 30 -15 75 -20 100 l-9 45
-1 -56 c-1 -31 8 -91 19 -134 11 -43 18 -80 16 -82 -6 -7 -102 74 -139 117
-20 24 -40 59 -43 78 -16 83 17 215 67 268 17 18 31 21 87 20 37 -1 72 -4 77
-8 6 -4 17 -3 25 3 8 5 29 9 46 9 17 0 37 7 44 15 18 22 31 15 66 -38z m-1682
-88 c-21 -24 -27 -19 -18 15 5 21 9 24 20 15 12 -10 12 -15 -2 -30z"/>
<path d="M2591 4212 c-1 -37 4 -49 33 -78 29 -29 41 -34 78 -33 42 1 42 1 11
9 -64 15 -98 49 -114 115 -6 27 -7 26 -8 -13z"/>
<path d="M3017 4215 c-9 -19 -15 -35 -12 -35 7 0 37 61 33 66 -3 2 -12 -12
-21 -31z"/>
<path d="M2280 4218 c-25 -12 -40 -23 -33 -25 13 -5 68 22 78 37 8 12 10 13
-45 -12z"/>
<path d="M2620 4199 c0 -8 79 -33 85 -27 2 2 -16 11 -41 20 -24 8 -44 12 -44
7z"/>
<path d="M2390 4125 c-18 -33 -84 -73 -141 -84 l-44 -9 51 -1 c38 -1 60 5 84
22 40 26 74 70 68 87 -2 6 -10 0 -18 -15z"/>
<path d="M2846 4133 c-6 -14 -5 -15 5 -6 7 7 10 15 7 18 -3 3 -9 -2 -12 -12z"/>
<path d="M2586 4042 c34 -32 100 -50 117 -33 8 8 2 11 -20 11 -16 0 -52 11
-79 25 l-49 26 31 -29z"/>
<path d="M1378 3553 c7 -3 16 -2 19 1 4 3 -2 6 -13 5 -11 0 -14 -3 -6 -6z"/>
<path d="M2828 3540 c-10 -95 18 -294 56 -395 21 -57 19 -42 -10 86 -16 71
-28 163 -33 244 -6 121 -7 126 -13 65z"/>
<path d="M1647 3531 c-34 -85 -69 -118 -154 -148 -63 -22 -65 -23 -23 -18 103
13 161 64 196 173 24 76 14 72 -19 -7z"/>
<path d="M1516 3111 c-10 -11 -47 -34 -83 -53 -36 -18 -69 -40 -73 -49 -13
-22 129 53 159 85 14 14 22 28 19 31 -2 3 -13 -3 -22 -14z"/>
<path d="M1402 2884 c-83 -41 -136 -99 -158 -170 -8 -26 -14 -52 -14 -58 0
-19 17 8 29 46 17 53 88 127 165 172 36 21 66 40 66 42 0 10 -22 1 -88 -32z"/>
<path d="M3381 3582 c-2 -58 54 -138 119 -172 63 -31 87 -32 31 0 -30 16 -63
38 -74 48 -20 18 -55 81 -68 122 -7 24 -7 24 -8 2z"/>
<path d="M3515 3171 c2 -5 39 -25 81 -45 41 -20 90 -46 107 -58 l32 -22 -20
24 c-26 32 -44 47 -75 64 -34 19 -132 47 -125 37z"/>
<path d="M3707 2988 c12 -13 31 -45 43 -71 23 -52 36 -62 25 -19 -8 35 -52 99
-73 107 -12 4 -11 0 5 -17z"/>
<path d="M3162 2463 c-17 -27 -36 -61 -41 -76 -15 -39 -14 -122 2 -135 9 -8
12 5 12 61 1 61 6 82 33 135 18 34 30 62 28 62 -2 0 -18 -21 -34 -47z"/>
<path d="M1900 2418 c16 -35 40 -101 54 -148 17 -58 25 -75 25 -54 1 41 -25
127 -60 196 -39 78 -55 83 -19 6z"/>
<path d="M3500 2372 c57 -44 99 -91 125 -141 19 -36 24 -41 25 -23 1 58 -84
158 -154 181 l-31 10 35 -27z"/>
<path d="M1891 2253 c38 -68 80 -125 86 -119 5 5 -105 176 -113 176 -3 0 9
-26 27 -57z"/>
<path d="M2016 2245 c7 -63 24 -129 30 -122 7 7 -15 138 -27 156 -6 11 -8 0
-3 -34z"/>
<path d="M3156 2275 c-9 -26 -7 -32 5 -12 6 10 9 21 6 23 -2 3 -7 -2 -11 -11z"/>
<path d="M3096 2025 c52 -114 41 -259 -27 -367 -26 -40 -77 -96 -56 -61 14 23
25 105 17 131 -7 23 -8 20 -9 -19 -2 -81 -69 -180 -171 -251 l-25 -18 30 6
c87 19 212 128 258 225 33 70 51 167 44 229 -7 58 -41 142 -68 166 -17 15 -15
8 7 -41z"/>
<path d="M3260 1862 c0 -6 5 -14 10 -17 23 -14 50 -86 50 -132 0 -49 -20 -93
-64 -142 l-21 -24 25 16 c33 23 80 95 81 126 2 48 -3 76 -21 111 -19 38 -60
80 -60 62z"/>
<path d="M1962 1603 c-16 -40 -6 -127 20 -179 42 -80 63 -86 26 -8 -27 57 -33
81 -33 136 0 38 -1 68 -3 68 -1 0 -6 -8 -10 -17z"/>
<path d="M2047 1467 c-12 -33 13 -72 78 -117 11 -8 3 4 -19 27 -21 23 -41 56
-45 75 -5 25 -8 29 -14 15z"/>
<path d="M3047 1250 c10 -59 10 -116 0 -163 -11 -54 7 -39 23 18 14 52 8 122
-15 163 -15 27 -15 26 -8 -18z"/>
<path d="M2720 965 c0 -9 -7 -30 -15 -48 l-16 -32 21 24 c18 20 29 71 15 71
-3 0 -5 -7 -5 -15z"/>
<path d="M1389 2543 c-22 -20 -50 -54 -61 -76 -26 -52 -34 -133 -17 -175 14
-33 14 -32 14 40 1 86 23 143 80 207 46 51 38 53 -16 4z"/>
<path d="M1448 2423 c-44 -41 -72 -94 -83 -159 -7 -48 8 -116 30 -134 14 -11
14 -10 5 14 -15 40 -12 127 5 177 9 24 34 65 56 91 48 58 44 61 -13 11z"/>
<path d="M1545 2250 c-4 -12 -23 -40 -42 -61 -40 -44 -31 -54 9 -11 26 27 53
81 44 89 -2 3 -7 -5 -11 -17z"/>
<path d="M3901 2183 c10 -20 19 -50 19 -65 0 -15 5 -30 10 -33 15 -9 12 52 -4
84 -8 15 -21 33 -30 40 -10 9 -9 2 5 -26z"/>
<path d="M1109 2013 c-6 -16 -9 -54 -7 -86 4 -50 9 -63 39 -92 20 -21 48 -37
69 -40 l35 -6 -30 14 c-40 18 -82 68 -93 110 -5 19 -6 54 -2 80 8 53 4 60 -11
20z"/>
<path d="M1190 1688 c-24 -39 -25 -79 -5 -118 22 -42 25 -37 9 10 -15 43 -11
80 12 118 8 12 12 22 9 22 -3 0 -14 -15 -25 -32z"/>
<path d="M3830 1684 c0 -24 -11 -62 -25 -90 l-26 -49 30 31 c32 36 49 102 32
131 -8 15 -10 10 -11 -23z"/>
<path d="M1291 1545 c-16 -25 -37 -75 -47 -111 -21 -79 -11 -125 38 -169 l32
-30 -22 29 c-37 49 -45 96 -27 173 9 37 26 87 40 110 31 57 22 55 -14 -2z"/>
<path d="M1430 1432 c-75 -76 -38 -209 74 -263 l41 -20 -30 23 c-107 82 -134
180 -69 258 33 38 22 39 -16 2z"/>
<path d="M3702 1415 c11 -42 2 -75 -38 -135 -10 -15 -2 -10 20 12 30 32 36 45
36 81 0 24 -6 52 -14 63 -13 17 -13 15 -4 -21z"/>
<path d="M1707 1211 c-24 -113 21 -233 114 -301 65 -47 67 -36 5 30 -70 73
-97 132 -105 230 -5 64 -8 70 -14 41z"/>
<path d="M3551 1198 c27 -97 -3 -178 -86 -229 -25 -16 -27 -19 -10 -19 32 0
90 45 109 83 20 43 21 116 2 162 -19 44 -28 45 -15 3z"/>
<path d="M3301 1073 c-1 -32 4 -45 19 -53 22 -12 64 -4 98 18 31 20 27 34 -5
16 -39 -20 -82 -18 -89 4 -17 53 -23 57 -23 15z"/>
<path d="M1535 1045 c8 -39 53 -95 85 -107 20 -7 18 -3 -11 21 -20 17 -47 50
-59 73 -18 36 -21 38 -15 13z"/>
<path d="M3391 962 c-1 -43 -23 -85 -58 -111 -21 -15 -24 -20 -11 -21 47 -1
93 83 77 140 -6 23 -7 22 -8 -8z"/>
<path d="M1959 888 c-22 -82 10 -153 81 -182 54 -22 73 -20 30 3 -69 37 -103
103 -93 179 7 54 -3 54 -18 0z"/>
<path d="M3207 871 c10 -38 -25 -110 -70 -142 -22 -16 -34 -29 -26 -29 23 0
77 37 95 65 19 29 22 101 6 117 -8 8 -9 5 -5 -11z"/>
<path d="M2111 817 c-1 -59 17 -115 45 -138 9 -8 7 4 -6 34 -12 26 -24 72 -29
104 l-9 58 -1 -58z"/>
<path d="M3031 813 c-17 -21 -35 -58 -41 -86 -14 -64 -5 -74 11 -12 7 26 27
67 45 91 41 53 28 59 -15 7z"/>
<path d="M2223 682 c6 -50 42 -102 98 -139 21 -14 39 -28 39 -32 1 -3 12 -19
26 -36 l26 -30 -23 45 c-12 25 -33 74 -46 110 l-24 65 6 -50 7 -50 -32 30
c-18 17 -44 53 -57 80 l-25 50 5 -43z"/>
<path d="M3934 3608 l-29 -33 33 29 c17 17 32 31 32 33 0 8 -8 1 -36 -29z"/>
</g>
</svg>