<?xml version="1.0" standalone="no"?>
<!DOCTYPE svg PUBLIC "-//W3C//DTD SVG 20010904//EN"
 "http://www.w3.org/TR/2001/REC-SVG-20010904/DTD/svg10.dtd">
<svg version="1.0" xmlns="http://www.w3.org/2000/svg"
 width="512.000000pt" height="512.000000pt" viewBox="0 0 512.000000 512.000000"
 preserveAspectRatio="xMidYMid meet">
<metadata>
Created by potrace 1.16, written by Peter Selinger 2001-2019
</metadata>
<g transform="translate(0.000000,512.000000) scale(0.100000,-0.100000)"
fill="#000000" stroke="none">
<path d="M2165 4948 c-9 -101 -28 -171 -85 -312 -26 -67 -53 -140 -59 -164
l-12 -43 -44 58 c-24 32 -89 105 -145 163 -55 58 -111 120 -123 137 -38 56
-47 51 -47 -30 0 -40 -7 -100 -16 -132 -9 -33 -26 -99 -38 -148 -13 -48 -25
-89 -28 -92 -8 -9 -266 111 -332 154 -34 23 -65 41 -68 41 -3 0 6 -28 19 -62
22 -53 27 -87 34 -228 8 -148 29 -301 46 -347 6 -15 -2 -16 -70 -10 -43 4
-119 19 -170 34 -96 28 -238 37 -302 20 l-30 -9 50 -25 c28 -14 67 -39 87 -55
43 -34 123 -133 163 -201 l28 -48 -74 8 c-41 4 -189 8 -329 8 -229 0 -259 -2
-295 -19 l-40 -19 66 -12 c126 -25 215 -93 309 -235 24 -36 63 -91 87 -122
l43 -57 -32 10 c-49 14 -167 11 -231 -6 -57 -15 -163 -63 -155 -70 2 -2 32 5
67 15 45 14 92 20 165 20 118 0 183 -15 246 -56 43 -27 44 -29 19 -32 -14 -2
-50 6 -79 18 -62 25 -78 21 -20 -5 22 -10 45 -25 52 -32 10 -12 6 -14 -28 -9
-33 6 -36 5 -14 -4 23 -10 18 -14 -75 -56 -137 -62 -192 -74 -328 -74 -64 0
-128 -5 -144 -11 -31 -13 -31 -13 51 -29 57 -12 62 -15 210 -159 113 -110 168
-155 221 -183 l70 -37 -50 -1 c-109 0 -221 -46 -317 -128 -78 -66 -87 -86 -18
-40 94 63 187 91 295 91 50 0 101 -5 114 -10 23 -9 19 -13 -65 -70 -49 -33
-127 -88 -174 -122 -97 -70 -222 -135 -295 -153 -27 -6 -54 -15 -59 -19 -20
-17 115 -31 278 -28 148 3 336 -7 336 -17 0 -2 -16 -26 -35 -53 -20 -27 -67
-116 -106 -197 -79 -165 -123 -235 -205 -323 -66 -72 -61 -74 70 -30 96 32
178 74 285 146 92 62 109 58 71 -17 -11 -22 -40 -90 -64 -152 -24 -62 -73
-173 -110 -247 -73 -148 -82 -180 -38 -139 47 44 104 76 182 102 76 25 378 81
388 72 9 -10 -40 -128 -80 -195 -22 -36 -42 -69 -45 -74 -14 -24 24 3 105 74
50 44 92 79 92 76 0 -2 -18 -73 -39 -158 -64 -252 -73 -377 -34 -469 l15 -35
26 64 c41 102 114 168 304 275 87 49 179 104 205 122 l48 34 8 -82 c12 -132
46 -337 69 -413 18 -64 21 -68 34 -50 8 10 14 23 14 28 0 23 104 227 114 224
20 -6 76 -131 92 -207 20 -93 67 -217 95 -250 l21 -25 -7 25 c-25 101 -35 164
-35 225 1 120 19 174 117 332 l51 82 41 -59 c23 -32 104 -118 180 -190 77 -72
152 -149 166 -171 15 -21 31 -36 35 -34 5 3 15 25 23 49 8 24 44 89 80 143 36
54 81 133 101 176 19 42 38 77 41 77 18 0 63 -32 67 -48 8 -28 -15 -85 -57
-148 -25 -39 -30 -52 -17 -45 31 17 96 94 116 139 11 23 24 42 30 42 7 0 41
-24 77 -54 62 -52 101 -102 242 -310 57 -86 83 -108 70 -59 -4 15 -6 109 -4
208 2 99 4 244 5 322 1 91 5 139 11 135 6 -3 43 -33 83 -66 75 -62 127 -124
176 -208 15 -25 34 -52 43 -60 15 -12 16 -9 10 32 -4 25 -10 164 -13 309 -7
257 -7 264 12 258 17 -5 125 -48 311 -124 34 -13 92 -45 129 -69 36 -25 68
-43 71 -40 3 2 -17 40 -43 83 -64 105 -86 158 -134 318 -22 75 -52 161 -65
192 -14 30 -25 57 -25 58 0 1 87 5 192 9 106 4 195 9 197 12 2 2 -7 13 -20 24
l-24 20 43 -5 c106 -12 126 -17 156 -31 17 -9 46 -30 64 -47 28 -27 32 -28 32
-11 0 24 -44 119 -74 159 -12 16 -35 48 -51 69 l-30 39 59 -7 c32 -4 78 -14
102 -21 24 -7 44 -10 44 -6 0 12 -70 124 -112 178 -50 65 -153 163 -234 223
l-61 45 112 47 c125 53 211 78 268 78 53 0 39 15 -41 40 -78 26 -392 177 -392
189 0 5 19 16 43 25 85 33 201 118 328 243 71 69 126 129 124 133 -2 4 -33 10
-67 12 -79 7 -184 47 -180 70 6 37 -149 161 -228 182 -14 4 2 -8 35 -26 58
-32 173 -134 162 -144 -2 -3 -42 14 -88 37 -46 24 -115 52 -152 64 l-68 22 56
48 c82 69 144 157 221 312 49 98 84 153 123 196 l55 60 -44 -7 c-25 -3 -144
-9 -265 -12 -186 -6 -218 -5 -209 7 6 8 30 71 54 142 27 81 56 149 82 188 22
33 38 62 36 64 -2 2 -42 -16 -89 -40 -47 -24 -157 -69 -246 -99 l-160 -54 -7
127 c-8 142 4 271 34 370 11 35 20 65 20 68 0 2 -26 -16 -57 -40 -32 -24 -105
-77 -163 -117 -58 -41 -137 -105 -176 -142 l-71 -69 -7 53 c-4 29 -21 119 -37
200 -23 117 -29 173 -29 278 0 80 -4 130 -10 128 -19 -6 -388 -368 -425 -416
l-38 -51 -68 205 c-38 113 -74 233 -80 267 -20 109 -23 110 -54 17 -15 -47
-49 -128 -76 -181 -71 -143 -137 -292 -161 -366 l-22 -65 -28 33 c-15 19 -35
57 -44 84 -30 91 -62 159 -133 285 -39 68 -85 164 -102 212 -18 48 -35 88 -39
88 -5 0 -11 -33 -15 -72z m88 -230 c30 -51 70 -124 90 -161 l36 -68 -22 -33
-22 -33 -6 31 c-4 21 -6 10 -7 -34 0 -38 -8 -88 -20 -120 l-20 -55 -5 35 c-3
19 -13 107 -22 195 -9 88 -19 162 -22 165 -3 3 -3 -17 1 -45 3 -27 9 -138 13
-246 5 -171 3 -206 -12 -270 l-19 -74 -22 70 c-33 103 -39 211 -20 324 20 117
15 131 -8 19 -22 -112 -20 -254 4 -380 26 -136 26 -169 -2 -103 -11 28 -31 84
-44 125 -30 99 -30 78 1 -58 14 -61 25 -130 25 -154 l0 -43 -45 77 c-58 99
-79 181 -71 270 10 114 63 346 111 488 25 74 45 142 45 152 0 10 2 18 4 18 3
0 29 -42 59 -92z m582 -10 c34 -117 53 -209 60 -298 6 -71 5 -79 -29 -151 -19
-42 -49 -127 -66 -190 -17 -62 -33 -115 -36 -118 -7 -7 -4 86 6 199 16 174 20
246 15 235 -2 -5 -8 -48 -14 -95 -23 -214 -44 -356 -53 -365 -7 -7 -8 17 -4
70 4 44 11 152 16 240 5 88 12 189 16 225 4 36 4 63 2 60 -3 -3 -21 -119 -39
-258 -27 -203 -35 -247 -42 -220 -5 18 -27 73 -49 122 l-41 89 41 125 c37 111
180 428 189 419 2 -2 14 -42 28 -89z m604 -294 c16 -82 33 -188 36 -235 7 -83
6 -87 -16 -103 -13 -9 -26 -16 -30 -16 -3 0 -9 51 -12 113 -4 61 -11 128 -17
147 l-9 35 4 -35 c3 -19 8 -88 11 -152 l7 -117 -48 -56 c-49 -58 -69 -67 -40
-18 15 25 15 26 1 8 -9 -11 -22 -28 -29 -38 -10 -15 -12 2 -12 88 0 89 -3 109
-17 119 -16 12 -16 21 7 137 13 68 26 147 29 174 6 57 4 51 -31 -100 -30 -128
-61 -217 -73 -210 -5 3 -14 -3 -20 -12 -11 -18 -11 -2 5 197 3 33 -7 0 -25
-85 -28 -131 -32 -142 -62 -165 -82 -63 -137 -149 -191 -297 l-32 -88 -3 87
c-3 107 14 188 67 302 22 47 38 86 35 86 -10 0 -84 -168 -99 -225 -8 -32 -16
-93 -17 -134 l-2 -75 -14 45 c-27 91 -27 151 3 246 36 119 112 274 173 353 27
36 120 134 208 219 l159 154 12 -101 c6 -55 25 -167 42 -248z m-1543 -66 c-19
-56 -37 -112 -39 -123 -2 -12 -12 8 -24 50 -12 39 -28 93 -37 120 l-15 50 6
-44 c3 -25 18 -85 34 -135 16 -50 24 -92 19 -94 -6 -2 -6 -11 0 -23 19 -34 4
-20 -29 29 -26 37 -27 41 -7 19 14 -15 26 -24 26 -19 0 5 -11 19 -25 32 -14
13 -25 20 -25 15 0 -4 -9 0 -20 10 -11 10 -20 31 -21 49 0 17 -4 49 -9 71 -8
35 -9 31 -5 -23 l5 -63 -46 37 c-44 36 -46 40 -40 78 6 35 52 246 62 283 1 6
53 -40 114 -102 l112 -113 -36 -104z m1991 -96 l3 -229 -26 -24 -26 -24 6 40
c3 22 7 114 10 205 4 145 3 155 -5 80 -24 -200 -59 -423 -70 -436 -19 -23 -42
-17 -34 9 3 12 8 78 10 147 l4 125 -9 -120 c-10 -134 -19 -175 -41 -186 -94
-50 -264 -131 -279 -134 -11 -2 -32 -15 -47 -29 -15 -14 -29 -23 -31 -21 -7 6
35 62 142 190 68 81 86 107 56 80 -68 -60 -170 -172 -235 -258 -32 -43 -60
-76 -62 -73 -6 6 31 89 57 129 17 25 13 23 -17 -10 -21 -24 -42 -43 -46 -43
-15 0 44 100 101 172 33 41 97 108 143 148 104 90 113 99 69 69 -57 -39 -226
-207 -266 -265 -21 -30 -39 -54 -40 -54 -2 0 3 18 11 40 34 96 144 210 296
305 103 65 194 129 203 144 15 24 -17 16 -99 -26 l-90 -45 50 51 c27 29 80 70
117 92 77 47 94 66 21 23 -71 -41 -133 -84 -175 -122 -21 -19 -38 -29 -38 -22
0 21 105 121 221 210 63 49 114 88 114 89 0 1 1 -102 2 -227z m-2442 116 c160
-73 243 -126 320 -204 61 -62 95 -125 95 -174 0 -34 -1 -34 -37 29 -60 101
-192 222 -298 272 -22 11 -31 14 -21 7 11 -7 52 -35 92 -61 134 -88 242 -232
251 -337 l4 -45 -31 56 c-18 32 -45 72 -62 90 l-30 34 20 -35 c77 -139 93
-172 103 -218 6 -30 9 -55 7 -58 -15 -14 -107 92 -178 206 -45 72 -84 130 -86
130 -6 0 1 -12 83 -159 67 -120 78 -161 26 -95 -44 56 -201 295 -257 392 -26
45 -50 82 -52 82 -8 0 96 -188 187 -340 48 -80 85 -147 83 -149 -2 -3 -25 15
-51 40 -39 37 -43 39 -25 12 12 -17 22 -33 22 -36 0 -3 -29 -2 -65 1 -54 4
-66 2 -71 -12 -4 -9 0 -24 9 -34 19 -22 87 -157 87 -174 0 -20 -79 63 -125
132 -91 137 -139 295 -150 495 -3 61 -8 136 -11 169 -4 46 -2 57 8 53 7 -3 76
-34 153 -69z m549 -8 l27 -50 -12 -95 c-7 -52 -16 -95 -21 -95 -4 0 -8 4 -8 9
0 4 -19 30 -42 56 l-41 47 24 98 c26 109 29 111 73 30z m483 -41 c44 -53 90
-112 102 -132 35 -57 70 -153 86 -240 24 -124 21 -156 -20 -213 -19 -27 -35
-44 -36 -39 -1 6 -2 71 -3 145 -1 74 -8 157 -16 185 -14 56 -66 175 -75 175
-3 0 3 -17 14 -37 51 -101 77 -249 66 -367 l-7 -69 -17 27 c-12 21 -22 26 -43
23 -25 -3 -28 0 -33 37 -56 394 -62 410 -44 120 10 -169 10 -184 -7 -209 l-18
-28 -13 29 -14 29 4 -34 4 -33 -19 23 c-43 53 -60 107 -60 197 -1 48 2 112 5
142 6 53 6 54 -5 15 -6 -22 -12 -94 -12 -161 l-1 -121 -37 30 c-37 30 -38 32
-38 96 0 95 21 171 136 510 6 17 0 22 101 -100z m-513 -223 c97 -135 205 -418
194 -504 l-4 -27 -13 30 c-7 17 -26 77 -41 135 -16 58 -29 98 -29 90 -1 -15
41 -179 54 -213 12 -30 -37 -5 -64 34 -13 19 -21 26 -17 16 14 -42 17 -65 8
-71 -15 -9 -29 14 -57 98 -15 45 -30 119 -35 175 l-9 96 4 -112 c3 -92 9 -127
34 -201 17 -49 31 -96 31 -103 -1 -22 -48 42 -66 88 -9 24 -20 40 -25 37 -5
-3 -6 2 -2 11 3 10 1 20 -6 24 -17 11 -25 168 -16 324 4 75 9 137 11 137 1 0
23 -29 48 -64z m1287 -134 c-17 -142 -56 -231 -143 -331 -62 -70 -123 -119
-135 -108 -2 2 26 62 61 133 67 134 119 255 112 261 -2 2 -17 -27 -34 -64 -55
-124 -164 -344 -168 -340 -2 2 7 30 20 63 43 107 38 110 -12 9 -44 -86 -90
-161 -80 -130 15 49 126 317 158 380 58 117 10 50 -61 -85 -55 -106 -60 -111
-54 -70 8 62 51 182 93 264 41 79 87 118 163 137 27 7 55 19 62 27 21 26 30
-44 18 -146z m1059 154 c0 -2 -16 -51 -36 -108 -46 -132 -71 -178 -99 -178
-11 0 -26 -5 -33 -12 -7 -7 -12 -9 -12 -5 0 12 67 145 88 175 27 39 34 52 28
52 -3 0 -24 -27 -46 -60 l-41 -60 -62 0 c-34 0 -93 -3 -132 -6 l-70 -6 50 25
c28 13 67 30 88 36 21 7 36 15 34 17 -2 3 -35 -7 -73 -21 -75 -28 -144 -46
-144 -37 0 23 56 50 204 98 94 30 187 63 206 74 35 19 50 24 50 16z m-3407
-161 c31 -8 84 -28 117 -45 69 -35 165 -60 232 -60 45 0 49 -2 68 -40 24 -47
22 -48 -75 -26 -33 8 -61 13 -62 12 -1 -1 38 -22 88 -47 88 -43 126 -69 99
-69 -16 0 -158 57 -190 76 l-25 15 23 -20 c12 -10 63 -36 112 -57 50 -20 90
-39 90 -42 0 -11 -106 11 -141 29 -22 11 -78 55 -126 98 -49 44 -90 78 -92 76
-2 -2 6 -19 17 -37 20 -32 20 -34 3 -45 -14 -9 -27 1 -86 64 -38 42 -87 89
-108 104 -47 34 -33 37 56 14z m3217 -78 c0 -20 -98 -253 -128 -304 -53 -90
-72 -111 -102 -117 -14 -2 -33 -7 -43 -11 -12 -5 2 23 39 76 55 81 126 218
139 269 3 14 -14 -12 -39 -58 -107 -195 -215 -320 -359 -415 -73 -48 -225
-121 -235 -112 -1 1 1 11 5 23 5 12 43 38 94 64 96 50 183 113 249 184 l45 48
-45 -40 c-68 -60 -167 -128 -245 -168 -78 -40 -95 -44 -95 -20 0 13 -7 15 -30
11 -16 -4 -30 -5 -30 -3 0 1 101 65 225 141 124 76 223 140 221 143 -6 5 -206
-100 -303 -159 -37 -23 -79 -49 -93 -57 -14 -9 7 17 45 58 65 67 67 71 25 41
-25 -17 -74 -59 -110 -93 -36 -34 -74 -62 -85 -63 -11 -1 -31 -5 -45 -10 -24
-7 -24 -7 -10 11 157 192 293 306 485 406 50 26 87 48 82 48 -4 0 -47 -20 -96
-44 -142 -72 -297 -182 -396 -281 -128 -127 -128 -127 -104 -64 11 29 26 64
34 79 32 63 216 205 350 273 108 54 330 126 430 140 37 5 125 8 125 4z m-1285
-185 c20 -91 19 -155 -4 -245 -23 -88 -85 -227 -101 -227 -7 0 -9 8 -5 21 5
15 4 19 -4 15 -16 -10 -14 25 9 160 11 64 18 119 15 122 -3 3 -5 0 -5 -7 0 -7
-14 -48 -32 -93 -24 -62 -34 -76 -39 -62 -6 15 -8 13 -8 -11 -3 -91 -30 -139
-32 -57 l-1 37 -8 -38 c-10 -52 -17 -55 -29 -10 -14 49 -14 168 -1 231 16 71
67 163 135 241 l60 69 18 -40 c10 -22 25 -69 32 -106z m-537 63 c28 -25 59
-64 70 -88 20 -41 20 -44 4 -129 l-17 -86 -24 54 c-35 81 -37 58 -3 -43 17
-48 33 -110 37 -138 3 -27 8 -58 11 -67 8 -28 -21 -11 -36 20 -7 15 -26 65
-41 112 -16 47 -28 76 -29 65 0 -11 16 -65 35 -120 18 -55 32 -101 31 -103 -7
-6 -55 85 -96 182 -37 86 -43 110 -47 195 -3 57 -1 119 6 153 14 67 16 67 99
-7z m2273 -113 c-92 -178 -149 -262 -212 -307 -54 -40 -71 -45 -42 -12 32 36
109 149 132 194 36 71 23 62 -19 -13 -54 -98 -53 -98 -146 -78 -95 19 -102 23
-78 42 18 14 18 14 -1 7 -40 -15 -51 -16 -74 -7 -24 9 -24 9 13 38 21 16 48
37 59 47 21 17 21 17 -13 1 -19 -9 -56 -32 -81 -50 -70 -51 -96 -44 -38 9 49
45 143 95 288 152 130 51 227 94 214 95 -6 0 -33 -9 -60 -21 -26 -11 -95 -36
-153 -56 -139 -46 -242 -94 -306 -143 -29 -22 -55 -40 -58 -40 -3 0 18 41 47
92 l52 91 65 23 c36 12 60 23 54 23 -6 1 -31 -6 -54 -14 -53 -19 -56 -19 -39
2 8 9 34 26 59 37 38 17 73 21 230 26 102 4 197 7 211 8 25 2 24 -1 -50 -146z
m-2933 108 c88 -13 139 -37 204 -97 45 -43 145 -190 135 -200 -3 -2 -46 43
-97 101 -50 59 -93 106 -95 106 -5 0 84 -145 128 -208 23 -35 26 -43 12 -40
-10 1 -36 35 -59 75 -22 40 -51 85 -64 100 -14 18 -12 11 6 -17 16 -25 41 -68
56 -97 l26 -52 -22 -7 c-17 -5 -29 1 -52 28 -17 19 -37 43 -44 54 -21 32 19
-48 43 -86 18 -28 20 -38 10 -47 -7 -7 -17 -9 -21 -5 -5 4 -2 -2 7 -13 14 -18
32 -65 24 -65 -1 0 -21 30 -44 66 -23 36 -35 62 -29 59 7 -4 0 4 -16 17 -19
16 -26 29 -21 38 5 9 4 11 -3 6 -13 -8 -100 120 -147 214 -15 30 -35 63 -43
73 -15 17 -15 18 8 13 14 -3 58 -10 98 -16z m923 -62 c25 -49 26 -75 5 -163
-8 -38 -16 -108 -17 -155 0 -85 0 -85 -14 -47 -8 21 -18 70 -23 110 l-9 72 -2
-119 c-1 -136 -12 -142 -35 -21 -8 44 -18 91 -20 105 -5 27 -1 -47 9 -150 6
-61 5 -64 -10 -45 -28 35 -40 98 -40 215 0 129 9 155 73 222 41 43 50 40 83
-24z m-1406 -2 c57 -44 117 -67 203 -80 163 -25 284 -110 404 -285 42 -61 74
-111 70 -111 -4 0 -45 30 -91 68 -139 112 -240 188 -284 212 -51 28 -42 18 43
-45 97 -72 263 -218 314 -278 88 -100 8 -62 -174 83 -147 117 -150 117 -25 -5
82 -79 101 -102 75 -89 -60 29 -164 99 -236 159 -38 32 -55 44 -39 26 41 -45
129 -112 233 -178 l87 -55 -49 6 c-73 9 -221 84 -287 144 -31 28 -58 49 -61
46 -8 -7 -107 104 -144 161 -32 52 -85 160 -109 227 l-14 37 27 -10 c15 -6 40
-21 57 -33z m2051 -58 c-9 -13 -26 -37 -37 -55 -18 -28 -24 -31 -52 -26 -42 8
-42 8 -18 41 22 31 73 61 105 62 17 0 17 -1 2 -22z m-2313 -13 c85 -15 143
-43 141 -68 -1 -9 2 -15 6 -12 5 3 22 -18 40 -46 25 -42 28 -51 13 -46 -10 4
-76 26 -148 50 -71 25 -146 47 -165 51 -19 3 39 -20 130 -52 91 -33 174 -63
186 -68 25 -11 172 -144 159 -144 -5 0 -65 22 -134 49 -135 53 -200 73 -146
46 17 -8 82 -37 145 -65 l115 -51 -60 6 c-33 3 -78 8 -100 10 l-40 5 33 -10
c18 -6 80 -19 138 -30 74 -13 118 -27 145 -45 22 -14 39 -26 39 -28 0 -1 -19
-1 -42 0 -37 2 -33 0 27 -16 73 -18 195 -61 195 -68 0 -2 -29 -1 -65 3 -44 5
-92 1 -152 -10 -87 -17 -90 -17 -153 4 -121 40 -220 109 -384 269 -106 103
-107 104 -40 27 113 -128 300 -269 407 -307 20 -7 37 -16 37 -20 0 -3 -21 -9
-46 -13 -38 -5 -56 -1 -97 20 -137 68 -241 168 -381 362 -47 66 -105 137 -128
156 l-41 35 33 -9 c18 -5 74 -12 124 -14 l91 -5 -83 10 c-46 5 -107 15 -135
23 -51 14 -48 14 103 15 91 0 187 -5 233 -14z m1242 -82 c21 -20 49 -62 63
-92 23 -52 82 -223 82 -238 0 -16 -61 78 -94 145 -20 39 -39 72 -41 72 -8 0
14 -51 61 -142 24 -48 44 -91 44 -95 0 -13 -48 47 -81 102 -17 28 -28 42 -25
33 9 -30 -2 -20 -24 20 -12 21 -18 27 -14 13 8 -31 -12 -25 -40 12 -27 36 -29
141 -3 180 9 15 21 27 26 27 4 0 25 -17 46 -37z m1015 -59 c0 -35 -46 -168
-75 -219 -33 -56 -112 -135 -136 -135 -26 0 -25 6 23 75 l41 60 -51 -50 c-29
-27 -52 -46 -52 -42 0 10 78 154 102 190 11 15 17 27 14 27 -3 0 -37 -45 -76
-100 -40 -55 -76 -102 -81 -106 -15 -9 -10 21 11 71 24 56 8 50 -22 -8 -33
-65 -35 -32 -4 68 4 11 -5 -2 -19 -30 -13 -27 -25 -44 -25 -37 0 27 59 139 96
181 51 58 102 81 187 81 65 0 67 -1 67 -26z m1078 -76 c45 -6 82 -15 82 -19 0
-4 -40 -54 -89 -111 -81 -95 -182 -188 -238 -217 -14 -7 -83 -11 -195 -10
-111 0 -166 4 -153 9 11 5 101 39 200 76 99 36 184 69 189 74 9 9 -312 -94
-403 -129 -30 -11 -57 -19 -59 -16 -5 4 207 107 311 150 37 15 66 30 64 32 -5
4 -152 -47 -282 -99 -55 -22 -113 -44 -130 -49 l-30 -9 25 20 c143 115 337
213 482 245 35 7 52 14 39 14 -92 3 -286 -78 -449 -187 -67 -45 -122 -79 -122
-74 0 12 41 47 75 65 17 8 39 25 50 38 17 20 14 19 -18 -5 -56 -41 -56 -25 0
23 90 80 235 157 338 180 58 13 217 13 313 -1z m-2195 -56 c25 -11 66 -40 90
-65 46 -46 104 -134 94 -144 -3 -3 -34 21 -68 53 -66 63 -68 59 -8 -21 35 -48
57 -95 44 -95 -3 0 -29 21 -58 48 l-51 47 32 -44 c17 -25 30 -47 27 -49 -7 -7
-75 47 -129 102 -40 42 -45 45 -26 16 13 -19 55 -68 94 -109 67 -70 69 -77 11
-56 -16 6 -16 3 5 -15 l25 -21 -44 21 c-98 48 -194 189 -207 305 l-7 58 65 -5
c35 -3 85 -15 111 -26z m1333 -114 c-9 -57 -53 -134 -95 -169 -35 -29 -148
-80 -206 -94 l-30 -7 27 21 c15 12 46 33 70 46 52 30 48 31 -27 5 -32 -11 -60
-19 -61 -17 -2 1 28 30 66 62 37 33 67 61 65 63 -4 5 -82 -45 -127 -81 -21
-17 -39 -28 -40 -26 -30 48 -30 49 2 89 56 70 123 120 190 141 14 4 58 8 99 8
l74 1 -7 -42z m-799 -33 c23 -1 46 -4 49 -8 4 -4 17 -4 29 -1 15 4 24 0 29
-11 4 -11 12 -14 25 -10 11 3 22 1 26 -5 3 -5 17 -10 31 -10 15 0 24 -6 24
-16 0 -10 7 -14 23 -12 14 1 34 -8 52 -25 17 -15 36 -27 43 -27 7 0 15 -7 19
-16 3 -9 25 -35 47 -59 50 -50 92 -131 87 -162 -1 -7 3 -13 9 -13 5 0 10 -15
10 -34 0 -19 4 -37 10 -41 5 -3 7 -12 4 -20 -3 -7 -1 -22 4 -32 7 -12 6 -25
-4 -44 -12 -23 -11 -29 1 -39 9 -8 12 -17 7 -24 -5 -6 -12 -24 -16 -40 -5 -22
-10 -26 -19 -17 -6 6 -22 11 -37 11 -38 0 -52 14 -48 46 2 22 8 28 23 27 11
-1 27 0 35 3 23 8 -15 33 -40 27 -16 -4 -20 0 -20 21 0 29 17 39 83 45 4 1 7
8 7 16 0 18 -29 20 -36 2 -7 -20 -58 -14 -62 8 -2 10 0 15 6 11 6 -3 14 -1 17
5 4 6 -2 13 -14 16 -12 3 -21 10 -21 15 0 5 4 7 9 4 5 -3 14 1 20 8 16 19 -4
32 -24 16 -10 -8 -15 -8 -21 1 -4 7 -2 15 4 17 7 2 12 10 12 19 0 10 -6 12
-22 7 -23 -7 -23 -7 -4 15 15 16 17 24 8 33 -8 8 -15 8 -26 -1 -12 -10 -16 -8
-21 8 -3 12 -16 26 -27 32 -19 10 -20 12 -5 21 23 12 21 28 -3 28 -11 0 -20
-6 -20 -12 0 -7 -11 -1 -24 12 -13 14 -21 31 -18 38 2 6 0 12 -6 12 -6 0 -13
-6 -16 -12 -3 -10 -8 -9 -18 2 -7 9 -20 14 -29 12 -13 -2 -15 3 -12 23 6 30
-16 35 -24 5 -6 -24 -10 -25 -31 -4 -10 11 -17 13 -20 5 -6 -19 -32 -12 -32
10 0 12 -5 19 -12 16 -7 -2 -12 -12 -12 -21 2 -19 -7 -21 -24 -4 -8 8 -15 8
-28 -3 -13 -11 -18 -11 -21 -1 -6 17 -23 15 -23 -3 0 -8 -8 -15 -17 -15 -10 0
-30 -7 -45 -14 -16 -9 -30 -11 -33 -5 -10 15 -28 10 -21 -7 3 -8 2 -12 -4 -9
-6 3 -10 1 -10 -4 0 -8 -7 -7 -20 1 -25 16 -38 3 -22 -22 7 -11 8 -20 3 -20
-15 0 -84 -77 -104 -118 -24 -46 -57 -166 -57 -204 0 -21 -6 -29 -25 -34 -14
-3 -22 -10 -19 -16 4 -5 10 -5 18 1 19 16 33 -1 39 -46 3 -29 1 -42 -6 -40 -7
1 -12 -5 -12 -13 0 -8 7 -14 16 -12 10 1 19 -6 22 -18 3 -13 0 -20 -8 -20 -21
0 -28 -19 -10 -27 10 -3 20 -1 24 5 4 7 15 -4 26 -26 30 -57 74 -99 144 -139
65 -37 173 -65 221 -58 89 14 98 13 96 -2 0 -9 5 -18 13 -21 10 -3 12 1 8 17
-7 29 19 40 37 16 14 -20 33 -4 20 16 -11 19 19 29 32 11 10 -13 15 -14 25 -5
9 9 9 15 0 26 -9 12 -8 16 4 21 8 3 15 1 15 -4 0 -6 7 -10 15 -10 18 0 20 21
3 38 -10 10 -8 14 10 18 12 4 20 10 17 14 -3 4 4 19 14 31 20 24 20 24 35 4
14 -19 15 -19 22 -1 5 12 2 21 -10 28 -12 7 -14 13 -6 29 12 22 32 26 24 5 -7
-19 11 -29 37 -21 20 7 19 8 -10 26 -35 21 -34 19 -21 53 10 28 45 35 81 16
26 -14 25 -40 -1 -33 -21 6 -29 -20 -10 -32 17 -10 12 -45 -5 -39 -11 5 -15
-1 -15 -21 0 -23 -3 -25 -14 -16 -11 9 -16 9 -22 0 -4 -7 -3 -14 3 -16 8 -3 7
-11 0 -27 -8 -16 -17 -22 -31 -18 -15 4 -18 1 -13 -11 7 -18 -8 -24 -18 -7 -3
6 -13 10 -22 10 -13 0 -13 -3 2 -26 16 -25 16 -26 -4 -19 -17 5 -21 2 -21 -15
0 -16 -4 -20 -16 -16 -10 4 -18 0 -21 -13 -3 -13 -11 -17 -24 -14 -13 4 -19 0
-19 -11 0 -9 5 -16 12 -16 6 0 8 -3 5 -6 -4 -4 -14 -1 -23 7 -13 10 -18 11
-21 2 -2 -7 -12 -9 -20 -6 -12 5 -15 2 -10 -10 3 -9 2 -17 -3 -17 -6 0 -10 5
-10 10 0 6 -7 10 -15 10 -8 0 -15 -7 -15 -16 0 -14 -3 -14 -16 -3 -12 10 -17
10 -23 0 -4 -6 -12 -11 -17 -10 -5 1 -11 0 -14 -1 -3 -1 -24 -3 -47 -5 -29 -2
-43 1 -47 11 -6 16 -36 19 -36 3 0 -6 -12 -1 -26 10 -19 15 -30 18 -39 11 -8
-7 -21 -7 -36 -1 -19 8 -20 10 -6 10 37 2 10 26 -29 26 -32 0 -39 4 -40 20 0
11 4 25 8 32 5 6 5 14 -2 18 -17 11 -32 -6 -27 -31 4 -23 4 -23 -33 6 -54 43
-64 56 -45 64 19 7 20 26 0 26 -8 0 -15 -5 -15 -12 0 -6 -8 -3 -17 8 -24 27
-47 68 -34 59 15 -9 13 6 -4 29 -7 10 -18 15 -23 12 -6 -3 -12 1 -16 9 -3 8
-1 15 4 15 6 0 10 9 10 20 0 11 -7 20 -15 20 -11 0 -14 7 -9 25 4 16 2 25 -6
25 -6 0 -8 5 -5 10 4 6 4 19 0 28 -11 25 -13 112 -3 112 12 0 10 34 -4 49 -11
11 -10 13 4 8 23 -8 33 10 16 30 -10 12 -10 17 -1 20 8 3 9 12 3 28 -8 20 -5
24 17 30 24 6 24 7 9 24 -16 17 -16 19 0 25 10 4 14 12 10 24 -4 10 2 7 13 -8
24 -30 39 -20 17 12 -22 31 -20 46 7 50 14 2 22 10 22 23 0 19 38 65 55 65 5
0 7 -7 4 -15 -4 -8 -2 -15 4 -15 5 0 10 15 10 34 0 40 8 58 25 54 7 -1 25 10
40 24 31 29 137 60 172 51 10 -3 39 -7 62 -8z m1825 -31 c101 -34 284 -136
261 -145 -12 -5 -5 -7 17 -7 39 1 121 -19 133 -31 10 -10 -128 -131 -220 -193
-77 -52 -169 -93 -243 -109 -47 -10 -52 -9 -104 22 -30 18 -53 37 -50 41 3 4
26 8 52 9 26 0 65 4 87 9 29 6 20 7 -34 3 l-75 -6 43 51 c40 48 47 51 100 57
98 10 226 34 266 50 22 8 29 13 15 10 -40 -9 -283 -45 -303 -45 -14 0 -16 5
-11 25 9 37 -7 50 -104 81 -48 15 -89 31 -92 34 -3 4 -12 9 -20 12 -8 3 3 9
25 13 85 15 101 24 35 19 -36 -3 -76 -7 -90 -10 -22 -5 -19 1 25 45 56 58 77
62 199 36 38 -8 71 -13 73 -11 6 6 -84 26 -147 33 -59 6 -60 6 -43 25 15 17
26 19 75 14 31 -4 90 -18 130 -32z m-2853 -117 c25 -12 68 -74 59 -83 -3 -2
-26 5 -52 16 -26 11 -57 20 -69 20 -22 -1 -7 -8 100 -47 24 -8 45 -19 49 -24
9 -15 -38 -10 -196 21 -128 26 -161 29 -208 22 l-57 -10 66 -1 c50 -1 96 -11
180 -41 176 -61 292 -112 219 -96 -98 21 -242 47 -246 43 -2 -2 35 -14 83 -26
49 -11 108 -28 133 -35 l45 -15 -54 0 c-59 -1 -61 -8 -9 -22 23 -6 4 -7 -62
-5 -58 3 -83 1 -65 -4 17 -4 53 -8 80 -9 l50 -2 -29 -23 c-16 -14 -40 -26 -54
-29 -67 -13 -257 57 -363 134 -44 32 -149 126 -149 133 0 2 35 9 78 16 84 13
344 70 351 76 10 9 98 3 120 -9z m408 -19 c28 -10 71 -37 95 -59 41 -39 40
-41 -7 -23 l-20 7 20 -23 c19 -22 18 -22 -33 4 -64 32 -80 28 -25 -5 50 -31
25 -35 -56 -9 -86 27 -99 25 -26 -6 68 -28 122 -63 130 -83 4 -11 -5 -13 -47
-8 -63 8 -46 -9 19 -19 53 -8 46 -24 -10 -24 -96 0 -210 45 -282 111 -40 37
-95 123 -85 133 3 2 43 11 90 19 96 18 161 14 237 -15z m-933 -3 c26 -20 18
-25 -48 -32 -31 -3 -56 -9 -56 -13 0 -8 142 -148 180 -178 14 -11 43 -29 65
-40 l40 -21 -75 -1 c-41 0 -114 5 -163 11 -48 6 -93 9 -100 6 -19 -6 133 -26
258 -33 64 -4 113 -9 111 -11 -2 -3 -35 -8 -73 -13 -67 -8 -67 -8 37 -8 86 0
116 -5 168 -24 l63 -24 -193 -1 c-286 -2 -462 32 -638 122 -58 30 -76 36 -55
20 53 -43 167 -93 275 -121 91 -23 133 -27 305 -32 l200 -5 -44 -18 c-24 -11
-69 -35 -100 -53 -31 -19 -85 -42 -120 -51 -76 -19 -125 -11 -238 40 -96 44
-152 84 -253 180 -47 44 -101 95 -121 112 l-37 31 70 7 c85 8 173 39 321 111
118 58 181 69 221 39z m2487 3 c22 -6 39 -15 39 -20 0 -21 -32 -67 -69 -101
-59 -53 -112 -76 -199 -87 -42 -6 -93 -14 -111 -20 -74 -21 -35 10 43 35 33
11 36 13 16 15 -23 1 -23 2 -5 10 20 9 20 9 0 9 -11 1 -35 -3 -53 -8 -54 -16
-36 -2 48 36 44 20 78 38 76 40 -2 3 -33 -4 -68 -15 -34 -11 -80 -22 -101 -26
l-38 -7 16 24 c20 31 133 92 206 111 66 18 149 20 200 4z m-961 -30 c0 -9 3
-9 12 0 7 7 16 12 20 12 13 0 9 -17 -8 -35 -12 -12 -19 -13 -30 -4 -16 13 -19
39 -4 39 6 0 10 -5 10 -12z m100 1 c0 -6 7 -8 15 -5 25 9 30 -23 10 -60 -10
-18 -21 -31 -25 -29 -5 3 -10 -2 -14 -10 -3 -8 -1 -15 4 -15 13 0 13 -37 1
-44 -5 -4 -12 0 -15 6 -5 10 -7 10 -12 1 -8 -18 -24 -16 -24 2 0 9 7 18 15 21
8 4 13 10 10 14 -2 4 9 26 25 49 17 22 30 44 30 48 0 5 -5 0 -11 -10 -6 -9
-14 -15 -20 -12 -5 4 -9 -3 -9 -15 0 -11 -7 -23 -15 -26 -8 -4 -15 -14 -15
-24 0 -11 -4 -21 -9 -24 -11 -7 -23 22 -15 35 3 5 0 9 -5 9 -6 0 -11 -2 -11
-4 0 -2 -3 -12 -7 -22 -4 -12 -3 -15 5 -10 7 4 12 5 12 2 0 -2 3 -11 6 -20 4
-10 1 -16 -9 -16 -8 0 -18 11 -21 25 -4 14 -11 23 -17 19 -6 -3 -8 -13 -5 -21
11 -27 -6 -37 -21 -12 -14 24 -14 24 -10 2 7 -32 -4 -29 -34 10 -19 24 -27 45
-27 76 -1 42 0 43 19 25 11 -10 27 -33 36 -51 8 -19 18 -31 21 -28 3 3 0 16
-7 29 -8 13 -11 30 -8 38 3 8 10 1 18 -19 18 -44 29 -42 23 5 -4 32 -3 35 8
20 12 -16 15 -15 45 14 26 25 33 28 33 14 0 -9 -4 -14 -10 -11 -5 3 -10 -3
-10 -15 0 -12 -4 -18 -10 -15 -5 3 -10 -1 -10 -9 0 -9 3 -16 8 -16 10 0 42 58
42 76 0 8 5 14 10 14 6 0 10 -5 10 -11z m-130 -30 c0 -11 -4 -17 -10 -14 -5 3
-10 15 -10 26 0 11 5 17 10 14 6 -3 10 -15 10 -26z m1519 15 c23 -7 24 -8 5
-15 -17 -7 -17 -8 4 -8 13 -1 22 -5 20 -10 -1 -6 -36 -47 -77 -91 -81 -89
-152 -142 -219 -161 -42 -12 -43 -12 -80 23 -20 19 -52 46 -70 61 -22 18 -29
29 -20 31 7 3 59 17 116 32 56 15 101 29 99 31 -2 2 -52 -6 -112 -17 -59 -12
-121 -20 -139 -18 -30 3 -29 4 31 35 55 29 163 64 233 76 16 3 11 5 -15 5 -55
2 -158 -21 -233 -51 -34 -14 -59 -20 -55 -14 37 64 60 76 178 97 54 10 294 5
334 -6z m-1549 -8 c0 -8 -4 -18 -10 -21 -5 -3 -10 -4 -10 -1 0 2 -3 11 -6 20
-4 11 -1 16 10 16 9 0 16 -6 16 -14z m228 -45 c0 -39 -5 -66 -15 -78 -13 -16
-14 -15 -9 17 5 26 4 32 -5 23 -7 -7 -12 -24 -13 -39 -1 -15 -7 -29 -15 -32
-9 -3 -11 0 -5 9 4 7 7 25 6 40 -1 15 5 32 13 39 8 6 17 27 21 46 10 53 21 40
22 -25z m-308 9 c-10 -7 -11 -10 -2 -10 6 0 12 -4 12 -10 0 -5 -9 -10 -21 -10
-15 0 -20 5 -17 23 4 27 19 40 33 26 6 -6 5 -13 -5 -19z m350 22 c0 -4 -5 -13
-12 -20 -9 -9 -9 -12 0 -12 7 0 12 5 12 10 0 6 7 10 16 10 11 0 15 -6 11 -20
-3 -11 -1 -23 4 -26 5 -3 9 2 9 10 0 13 4 12 20 -4 25 -25 25 -25 -7 -28 -32
-2 -50 -17 -34 -26 6 -4 11 -2 11 3 0 6 5 11 11 11 5 0 9 -9 7 -20 -2 -10 2
-19 7 -19 6 0 9 9 7 19 -3 21 22 28 33 10 3 -5 0 -10 -8 -10 -8 0 -13 -10 -13
-22 1 -13 -4 -22 -11 -20 -7 1 -13 -2 -13 -8 0 -5 -5 -10 -11 -10 -6 0 -18 -7
-27 -16 -26 -26 -28 3 -2 31 12 12 17 25 12 29 -5 3 -18 -10 -28 -29 -10 -19
-22 -35 -26 -35 -11 0 -10 14 3 27 8 8 8 13 0 17 -6 4 -11 3 -11 -3 0 -5 -9
-9 -20 -8 -24 2 -26 12 -5 21 21 8 38 54 36 93 -2 18 0 37 4 43 7 12 25 13 25
2z m1498 -19 c12 -3 22 -9 22 -13 0 -18 -64 -92 -99 -114 -54 -35 -83 -40
-140 -26 l-50 12 26 28 c13 16 24 31 23 35 -1 4 17 27 41 52 l44 44 55 -6 c30
-4 65 -9 78 -12z m-1894 -18 c4 -10 -1 -15 -14 -15 -20 0 -26 11 -13 23 10 11
20 8 27 -8z m3 -45 c-3 -11 -1 -20 5 -20 6 0 8 -9 5 -20 -3 -10 -1 -20 4 -22
13 -4 21 -56 10 -62 -5 -4 -17 1 -26 11 -16 16 -16 17 1 24 16 6 16 8 3 8 -20
1 -34 31 -16 32 9 0 9 2 0 6 -7 2 -13 13 -13 22 0 14 -6 17 -25 13 -14 -2 -25
0 -25 5 0 16 8 20 46 21 31 1 36 -1 31 -18z m80 -19 c12 -18 20 -38 17 -43 -8
-12 -34 10 -34 28 0 8 -7 14 -16 14 -14 0 -14 -1 0 -16 9 -8 14 -20 11 -25 -4
-5 -1 -9 4 -9 6 0 11 -5 11 -11 0 -5 -4 -7 -10 -4 -5 3 -10 0 -10 -7 -1 -25
-20 20 -29 67 -8 43 -7 46 12 43 12 -2 32 -18 44 -37z m-117 -15 c0 -8 3 -21
6 -30 4 -12 0 -16 -15 -16 -15 0 -21 5 -19 18 2 13 -3 16 -19 14 -27 -4 -31
14 -5 21 34 9 52 7 52 -7z m542 -21 c0 -5 -5 -11 -11 -13 -6 -2 -11 4 -11 13
0 9 5 15 11 13 6 -2 11 -8 11 -13z m-582 -20 c0 -8 -4 -15 -9 -15 -5 0 -16 -3
-25 -6 -10 -4 -16 -1 -16 9 0 15 14 25 38 26 6 1 12 -6 12 -14z m1255 -20 c28
-13 72 -46 98 -73 l48 -49 -51 -38 c-78 -57 -155 -75 -255 -58 l-40 7 45 11
c43 12 42 12 -45 11 -74 0 -97 3 -130 21 l-40 22 40 2 c30 1 34 3 15 7 -19 4
-9 9 45 23 82 20 49 25 -42 5 -35 -7 -63 -11 -63 -9 0 2 32 19 72 38 81 39 72
45 -23 15 -35 -10 -65 -18 -66 -16 -11 11 17 41 61 64 46 24 61 27 157 27 93
0 103 2 80 13 -25 12 -25 12 9 7 19 -3 58 -16 85 -30z m-995 21 c0 -11 -19
-15 -25 -6 -3 5 1 10 9 10 9 0 16 -2 16 -4z m37 -2 c-3 -3 -12 -4 -19 -1 -8 3
-5 6 6 6 11 1 17 -2 13 -5z m47 -15 c-6 -11 -24 -2 -24 11 0 5 7 7 15 4 8 -4
12 -10 9 -15z m-134 1 c0 -5 -5 -10 -11 -10 -5 0 -7 5 -4 10 3 6 8 10 11 10 2
0 4 -4 4 -10z m383 -3 c-2 -4 3 -10 11 -13 9 -3 13 -10 10 -15 -3 -5 0 -9 5
-9 6 0 11 -7 11 -15 0 -17 -2 -18 -24 -9 -9 3 -13 10 -10 15 9 15 -6 10 -44
-16 -38 -26 -76 -33 -70 -14 2 7 22 19 43 28 25 10 41 23 43 36 l3 20 -16 -20
c-9 -11 -21 -19 -26 -17 -5 1 -9 -3 -9 -9 0 -6 -7 -9 -15 -5 -8 3 -15 1 -15
-4 0 -6 -7 -10 -15 -10 -25 0 -17 20 13 33 15 6 33 17 40 24 13 13 73 13 65 0z
m-538 -8 c11 -18 -5 -24 -27 -10 -11 7 -17 8 -14 3 3 -6 0 -13 -6 -15 -14 -6
15 -10 49 -8 11 1 24 -3 28 -8 6 -11 -1 -12 -55 -16 -14 -1 -32 -5 -40 -8 -29
-13 -63 -12 -67 1 -3 7 1 12 8 11 8 -1 25 2 38 8 24 10 24 10 3 15 -12 4 -22
2 -22 -3 0 -5 -5 -9 -11 -9 -22 0 13 30 45 39 43 13 64 13 71 0z m325 -9 c0
-5 -2 -10 -4 -10 -3 0 -8 5 -11 10 -3 6 -1 10 4 10 6 0 11 -4 11 -10z m-734
-15 c27 -8 58 -22 69 -31 20 -15 20 -16 0 -9 -10 3 -40 8 -65 11 l-45 4 40
-13 c109 -37 107 -59 -6 -56 -44 1 -82 -1 -86 -5 -3 -3 27 -6 68 -7 41 -1 85
-4 99 -8 22 -6 19 -9 -30 -28 -55 -22 -43 -31 18 -14 43 13 32 -3 -21 -31 -51
-25 -191 -36 -254 -19 -43 12 -163 87 -170 107 -5 14 86 81 133 98 52 19 188
20 250 1z m529 5 c-3 -5 -11 -10 -16 -10 -6 0 -7 5 -4 10 3 6 11 10 16 10 6 0
7 -4 4 -10z m1561 -6 c53 -10 161 -50 208 -78 23 -13 84 -56 136 -95 99 -74
154 -106 205 -116 25 -5 23 -3 -12 14 -62 29 -183 121 -159 121 2 0 41 -22 85
-49 44 -26 109 -61 145 -76 36 -15 66 -31 66 -35 0 -12 -159 -87 -222 -105
-51 -15 -60 -15 -95 0 -21 9 -43 22 -49 30 -6 8 -40 28 -75 44 l-64 29 183 -5
c106 -4 182 -2 182 3 0 5 -84 9 -193 9 l-192 0 -115 51 c-63 29 -155 66 -205
83 -49 17 -96 34 -104 37 -9 3 16 22 62 48 42 24 94 58 114 75 21 17 43 29 50
26 6 -2 28 -7 49 -11z m-1331 -4 c3 -5 1 -10 -4 -10 -6 0 -11 5 -11 10 0 6 2
10 4 10 3 0 8 -4 11 -10z m-260 -10 c3 -5 1 -10 -4 -10 -6 0 -11 5 -11 10 0 6
2 10 4 10 3 0 8 -4 11 -10z m290 -19 c3 -5 1 -12 -4 -15 -5 -3 -11 1 -15 9 -6
16 9 21 19 6z m175 -6 c31 -16 40 -35 17 -35 -7 0 -13 -10 -14 -21 -2 -20 -1
-20 11 -4 9 13 15 15 20 7 4 -7 2 -12 -5 -12 -10 0 -10 -3 -1 -12 18 -18 15
-27 -8 -23 -27 5 -64 41 -51 50 6 3 16 15 22 27 8 15 8 19 0 13 -16 -9 -44 2
-36 15 8 13 11 13 45 -5z m-489 -18 c-6 -6 -11 -19 -11 -29 0 -10 -4 -18 -9
-18 -5 0 -5 15 1 35 6 19 15 32 20 28 6 -3 5 -10 -1 -16z m-45 4 c-9 -15 -60
-20 -76 -8 -13 10 -13 10 -2 -5 8 -10 23 -16 34 -15 28 3 34 -19 7 -26 -24 -6
-51 1 -44 13 3 4 -6 10 -20 12 -35 7 -31 -7 6 -22 26 -11 28 -15 14 -22 -20
-12 -49 -2 -40 12 4 6 1 9 -7 8 -7 -2 -12 3 -10 11 2 8 -3 11 -12 8 -10 -4
-13 -1 -9 9 3 8 10 13 16 11 7 -2 23 2 37 10 28 14 114 18 106 4z m503 -10
c11 -7 10 -11 -5 -19 -22 -12 -58 3 -49 19 8 11 36 12 54 0z m-129 -11 c0 -5
-4 -10 -10 -10 -5 0 -10 5 -10 10 0 6 5 10 10 10 6 0 10 -4 10 -10z m94 -22
c19 -13 35 -26 36 -30 0 -3 -21 -6 -47 -6 l-48 0 25 20 c24 20 24 21 3 16 -13
-4 -24 0 -27 8 -8 21 18 17 58 -8z m-84 -8 c0 -5 -4 -10 -10 -10 -5 0 -10 5
-10 10 0 6 5 10 10 10 6 0 10 -4 10 -10z m-505 -53 c-8 -4 -21 -5 -28 -1 -9 5
-9 4 1 -7 10 -10 17 -11 31 -2 10 6 24 8 31 3 21 -13 -7 -42 -29 -31 -9 5 -21
6 -27 4 -15 -5 -24 30 -12 51 6 10 5 16 -2 16 -6 0 -8 5 -5 11 5 7 16 2 31
-12 21 -20 22 -24 9 -32z m103 16 c0 -16 -5 -31 -11 -35 -14 -8 -38 2 -31 13
3 5 2 9 -3 8 -4 -1 -15 -1 -23 0 -12 1 -11 5 4 16 10 8 23 12 27 9 5 -3 9 0 9
5 0 6 6 11 14 11 8 0 14 -11 14 -27z m52 7 c0 -5 -4 -10 -10 -10 -5 0 -10 5
-10 10 0 6 5 10 10 10 6 0 10 -4 10 -10z m350 -10 c0 -5 -4 -10 -10 -10 -5 0
-10 5 -10 10 0 6 5 10 10 10 6 0 10 -4 10 -10z m180 -27 c0 -18 -19 -16 -26 2
-4 11 -11 12 -24 5 -13 -7 -19 -6 -23 5 -3 7 -1 15 6 18 18 6 67 -16 67 -30z
m-90 18 c0 -11 -50 -24 -58 -16 -8 8 19 25 41 25 9 0 17 -4 17 -9z m-430 -32
c0 -6 -4 -7 -10 -4 -5 3 -10 11 -10 16 0 6 5 7 10 4 6 -3 10 -11 10 -16z m460
-15 c0 -8 4 -14 10 -14 14 0 24 -70 11 -83 -10 -10 -14 -5 -10 19 0 3 -7 16
-16 30 -9 13 -13 29 -10 34 3 6 -1 10 -9 10 -21 0 -31 21 -15 31 15 9 39 -7
39 -27z m-1346 11 c8 -8 19 -15 25 -15 19 0 12 -19 -11 -31 -13 -7 -61 -25
-108 -41 -60 -20 -73 -27 -45 -24 148 19 149 14 7 -18 -153 -35 -220 -54 -192
-55 8 0 107 19 220 43 113 24 206 43 207 42 9 -8 -177 -99 -211 -105 l-41 -6
50 -5 50 -5 -59 -30 c-78 -38 -199 -46 -308 -20 -40 10 -75 19 -77 21 -10 8
113 156 151 182 94 64 143 79 255 81 51 1 76 -3 87 -14z m1209 -5 c-3 -11 -7
-20 -9 -20 -2 0 -4 9 -4 20 0 11 4 20 9 20 5 0 7 -9 4 -20z m167 10 c11 -7 12
-12 3 -21 -8 -8 -14 -6 -22 10 -12 22 -5 27 19 11z m936 -26 c50 -13 158 -51
240 -85 82 -33 161 -66 177 -72 15 -6 27 -15 27 -19 0 -12 -165 -58 -242 -68
-75 -9 -192 0 -270 20 -44 12 -73 32 -89 61 -7 14 -3 15 34 8 51 -10 151 -9
192 1 23 6 14 8 -40 9 -38 1 -102 7 -141 14 -60 11 -82 21 -130 57 -67 53 -60
58 54 40 89 -14 105 -8 25 10 -77 16 -80 19 -46 41 33 21 73 18 209 -17z
m-1510 15 c10 -17 -12 -32 -36 -24 -17 5 -19 10 -9 21 14 17 35 18 45 3z m31
-2 c-3 -8 3 -20 14 -28 23 -16 25 -47 4 -55 -8 -4 -12 -10 -9 -15 3 -5 12 -2
20 6 22 21 37 9 23 -18 -12 -22 -12 -22 10 -3 19 17 21 17 21 2 0 -9 -4 -24
-9 -34 -5 -9 -12 -25 -15 -34 -8 -26 -40 -23 -33 3 3 12 1 19 -6 16 -6 -2 -12
-13 -12 -25 0 -12 -4 -21 -10 -19 -5 1 -9 10 -7 21 2 15 0 16 -12 7 -24 -20
-28 6 -4 28 12 12 17 21 11 21 -6 0 -16 -7 -23 -15 -16 -19 -30 -19 -30 1 0 8
5 12 10 9 6 -4 9 -1 8 7 -2 7 -16 17 -32 23 -32 11 -47 35 -23 35 9 0 17 -4
19 -10 4 -12 17 -3 51 38 15 19 25 38 21 43 -3 5 0 9 6 9 7 0 10 -6 7 -13z
m468 -7 c14 -15 15 -20 4 -21 -8 0 -4 -4 9 -9 12 -5 22 -15 23 -22 0 -7 2 -32
5 -55 6 -49 -11 -59 -21 -13 -5 24 -9 27 -20 17 -11 -10 -11 -13 1 -20 15 -8
19 -37 6 -37 -4 0 -13 5 -19 11 -8 8 -13 7 -18 -3 -5 -7 -5 -10 0 -6 9 9 35
-9 35 -23 0 -5 -10 -9 -23 -9 -18 0 -23 -5 -23 -21 1 -12 -4 -24 -11 -26 -8
-3 -11 16 -12 63 0 61 1 66 19 61 13 -3 20 0 20 8 0 8 -8 11 -20 8 -14 -4 -20
0 -20 10 0 12 8 15 35 10 35 -6 48 8 23 23 -7 5 -8 3 -3 -6 6 -10 2 -12 -16
-7 -13 4 -30 7 -36 7 -7 0 -13 5 -13 10 0 6 14 10 31 10 16 0 28 4 25 9 -3 5
-15 7 -26 4 -11 -3 -20 0 -20 6 0 6 8 11 18 12 10 0 12 3 5 6 -19 7 -15 23 5
23 11 0 27 -9 37 -20z m579 -12 c27 -10 67 -33 89 -51 22 -17 47 -32 55 -33
19 -3 72 -55 111 -110 l32 -43 -38 -16 c-90 -38 -219 -26 -251 23 -14 22 -14
22 49 23 l64 1 -63 9 c-37 6 -105 28 -163 54 -54 25 -103 45 -107 45 -5 0 -17
7 -28 15 -12 9 -13 13 -4 11 8 -2 42 -7 75 -10 59 -5 59 -5 25 8 -20 8 -56 17
-80 21 -36 6 -40 9 -25 17 22 13 112 3 202 -22 37 -10 69 -17 71 -15 7 7 -106
44 -186 61 -81 17 -99 28 -64 38 35 10 188 -7 236 -26z m-482 -4 c-3 -17 -8
-22 -15 -15 -7 7 -6 15 3 26 17 20 18 19 12 -11z m-667 6 c3 -6 -1 -13 -9 -16
-9 -3 -13 -10 -10 -15 3 -5 0 -9 -6 -9 -7 0 -9 7 -6 16 3 9 6 20 6 25 0 12 17
12 25 -1z m165 0 c0 -5 -2 -10 -4 -10 -3 0 -8 5 -11 10 -3 6 -1 10 4 10 6 0
11 -4 11 -10z m-122 -19 c10 -6 10 -10 -3 -21 -18 -15 -42 0 -31 19 8 13 16
14 34 2z m422 -1 c0 -5 -2 -10 -4 -10 -3 0 -8 5 -11 10 -3 6 -1 10 4 10 6 0
11 -4 11 -10z m-690 -14 c0 -2 -38 -16 -85 -31 -97 -31 -108 -44 -17 -21 100
27 116 20 42 -19 -69 -36 -75 -46 -12 -20 20 9 55 20 76 25 l40 9 -30 -24
c-46 -38 -155 -102 -197 -115 -58 -18 -153 -8 -219 22 -32 15 -58 33 -58 40 0
14 74 74 118 97 43 23 146 39 245 40 53 1 97 -1 97 -3z m-925 -14 c-25 -21
-247 -174 -308 -211 -73 -44 -270 -195 -217 -166 8 5 42 30 75 56 33 25 105
75 160 109 55 34 120 77 145 94 25 18 63 43 85 57 l40 24 -19 -30 c-11 -17
-32 -48 -48 -69 -15 -21 -28 -47 -28 -56 0 -12 -14 -21 -45 -30 -25 -7 -44
-14 -42 -17 2 -2 31 3 63 12 57 15 114 12 114 -5 0 -4 8 -6 18 -4 9 3 28 1 42
-4 21 -8 14 -11 -51 -27 -40 -11 -66 -21 -57 -23 10 -2 55 6 100 17 46 11 106
22 133 26 28 3 63 8 78 11 28 6 29 6 13 -18 -9 -14 -28 -30 -43 -37 -73 -34
-315 -71 -458 -71 -35 0 -135 -16 -224 -35 -88 -19 -163 -35 -167 -35 -4 0 75
61 175 136 101 74 210 158 243 185 64 53 118 84 182 104 52 17 52 17 41 7z
m1589 -6 c-10 -8 -21 -12 -24 -10 -5 6 21 24 34 24 6 0 1 -6 -10 -14z m-1107
-12 c-3 -3 -12 -4 -19 -1 -8 3 -5 6 6 6 11 1 17 -2 13 -5z m1163 -4 c0 -5 -4
-10 -10 -10 -5 0 -10 5 -10 10 0 6 5 10 10 10 6 0 10 -4 10 -10z m-100 -15
c-7 -9 -15 -13 -19 -10 -3 3 1 10 9 15 21 14 24 12 10 -5z m88 -4 c17 -11 13
-153 -5 -159 -8 -2 -13 5 -13 18 0 12 3 19 8 16 8 -5 7 62 -2 71 -3 4 -6 0 -6
-7 0 -9 -6 -8 -20 5 -18 16 -20 16 -20 2 0 -10 5 -16 11 -14 13 3 36 -29 27
-39 -4 -3 -13 -2 -20 2 -7 5 -17 9 -23 9 -15 0 -14 57 1 73 12 11 16 11 30 -2
8 -9 20 -16 25 -16 6 0 3 7 -5 16 -27 26 -18 44 12 25z m-458 -22 c0 -5 -4 -9
-10 -9 -5 0 -10 7 -10 16 0 8 5 12 10 9 6 -3 10 -10 10 -16z m330 17 c0 -3 -4
-8 -10 -11 -5 -3 -10 -1 -10 4 0 6 5 11 10 11 6 0 10 -2 10 -4z m-140 -26 c0
-21 -40 -90 -58 -99 -21 -11 -48 2 -38 18 4 6 15 11 25 11 10 0 24 15 35 40
16 37 36 53 36 30z m779 -41 c76 -35 132 -90 149 -146 19 -63 16 -84 -10 -79
-13 3 -58 8 -101 11 -44 3 -103 15 -131 26 -53 19 -126 81 -126 106 0 19 9 16
49 -14 l35 -27 -27 35 c-23 31 -35 59 -24 59 2 0 29 -9 61 -20 63 -21 66 -12
6 21 -44 25 -45 39 -3 32 22 -4 25 -2 13 6 -8 6 -23 11 -33 11 -10 0 -15 5
-12 11 11 16 81 1 154 -32z m-741 14 c-6 -78 12 -88 40 -24 14 31 17 33 20 14
2 -12 10 -24 19 -27 18 -7 45 22 38 42 -6 17 14 15 21 -3 4 -8 3 -23 -1 -32
-4 -10 -9 -31 -11 -48 -2 -22 -1 -25 5 -11 7 18 8 18 24 -4 20 -29 31 -22 18
11 -5 13 -10 18 -10 11 -1 -20 -21 -3 -21 18 0 17 2 17 30 3 22 -11 30 -21 28
-36 -4 -27 -24 -50 -37 -42 -5 3 -12 1 -16 -5 -8 -13 -25 -13 -25 1 0 6 -7 17
-15 25 -17 17 -21 49 -5 39 6 -3 10 -4 10 -1 0 3 -5 8 -10 11 -6 3 -15 -6 -20
-20 -12 -33 -34 -22 -25 12 4 16 2 22 -5 18 -13 -8 -13 -41 1 -67 14 -26 1
-38 -16 -15 -8 12 -15 14 -20 8 -10 -17 -21 -13 -33 12 -8 17 -11 18 -11 5 -1
-10 -5 -18 -11 -18 -14 0 -13 5 11 51 11 23 18 43 16 45 -2 3 -10 -9 -17 -26
-7 -16 -16 -27 -21 -24 -5 3 -9 -2 -9 -10 0 -18 -8 -20 -28 -7 -10 6 -9 11 4
22 9 7 27 31 40 51 26 40 45 49 42 21z m97 -21 c-6 -16 -7 -16 -17 2 -8 14 -7
21 3 27 17 10 24 -4 14 -29z m-65 11 c0 -10 -5 -25 -10 -33 -7 -11 -10 -7 -10
18 0 17 5 32 10 32 6 0 10 -8 10 -17z m-466 -22 c3 -5 -34 -35 -82 -67 -101
-68 -110 -74 -96 -74 5 0 53 25 106 55 53 30 101 55 107 55 6 0 11 -10 11 -22
0 -32 -115 -139 -187 -174 -44 -22 -72 -29 -118 -29 -74 0 -78 10 -33 85 37
61 119 124 210 159 60 23 74 25 82 12z m-482 -47 c39 -20 48 -28 37 -36 -10
-7 -8 -8 7 -3 28 7 100 -25 82 -37 -20 -13 -85 -29 -195 -48 -56 -10 -110 -23
-120 -30 -17 -10 -17 -11 2 -6 11 3 56 10 100 16 44 6 115 20 159 31 43 11 83
18 90 16 17 -6 -132 -73 -189 -85 -27 -6 -91 -13 -142 -15 l-92 -4 21 41 c36
71 80 126 127 156 24 17 48 30 53 30 5 0 32 -12 60 -26z m2813 -34 c33 -17 65
-36 70 -43 6 -7 33 -29 62 -50 54 -39 263 -252 263 -267 0 -5 -12 -4 -27 2
-16 6 -100 13 -188 14 -146 4 -156 3 -113 -9 71 -20 154 -75 220 -146 32 -34
58 -64 56 -66 -2 -1 -43 6 -93 16 -49 10 -101 19 -115 19 -26 0 -110 74 -98
85 10 10 89 -15 176 -55 45 -21 82 -37 82 -34 0 7 -137 73 -207 99 -99 37
-139 67 -169 126 -14 28 -24 52 -22 54 2 2 37 -1 78 -5 99 -12 219 -12 201 -1
-7 5 -21 6 -31 4 -9 -3 -73 5 -141 16 l-124 21 -61 66 c-59 63 -60 65 -30 58
68 -14 214 -66 256 -92 25 -16 59 -36 75 -46 l30 -18 -30 26 c-49 43 -202 115
-309 144 -55 15 -101 32 -103 38 -2 6 24 23 58 39 48 21 72 26 107 22 27 -3
39 -1 31 4 -10 6 -7 9 11 9 14 0 52 -14 85 -30z m-1799 -27 c-12 -12 -29 15
-21 34 7 17 8 16 18 -5 5 -12 7 -25 3 -29z m-432 0 c3 -4 -28 -42 -71 -85 -43
-43 -74 -78 -70 -78 4 0 31 17 60 38 29 21 63 45 77 52 l25 13 -25 -29 c-14
-16 -36 -39 -50 -52 l-25 -24 24 16 c14 8 44 34 68 57 30 28 47 39 54 32 18
-18 -32 -105 -101 -175 -41 -41 -57 -62 -40 -53 40 21 126 101 151 141 33 54
35 32 5 -45 -52 -132 -100 -176 -228 -206 -35 -8 -66 -15 -70 -15 -12 0 -10
29 6 88 12 48 10 62 -8 45 -4 -4 -25 -13 -47 -19 -38 -12 -40 -11 -33 9 26 89
78 148 224 258 54 40 62 44 74 32z m903 -67 c87 -78 134 -168 148 -281 l8 -58
-54 7 c-113 14 -216 92 -264 199 -50 114 -39 144 19 48 35 -57 106 -131 126
-131 6 0 -8 16 -29 36 -62 55 -135 184 -105 184 5 0 33 -24 63 -52 55 -54 58
-50 11 12 -58 76 -47 82 23 13 58 -56 61 -48 7 19 -67 85 -45 86 47 4z m430
58 c-3 -3 -12 -4 -19 -1 -8 3 -5 6 6 6 11 1 17 -2 13 -5z m411 -41 c93 -55
205 -164 299 -290 46 -62 85 -113 88 -113 2 0 -28 48 -68 107 -71 104 -184
231 -260 289 l-39 30 64 -6 c69 -6 74 -8 136 -59 51 -42 107 -121 155 -217 38
-75 88 -146 144 -205 l35 -37 -118 -7 c-228 -15 -380 11 -539 89 -64 32 -106
61 -145 101 l-55 57 100 -51 c190 -98 344 -139 545 -145 l125 -5 -116 9 c-286
21 -501 103 -659 248 l-55 51 65 -34 c36 -18 100 -48 143 -65 81 -32 426 -134
433 -128 2 2 -72 28 -164 57 -185 58 -307 107 -397 160 -78 45 -165 109 -165
121 0 16 75 49 90 40 7 -4 19 -6 26 -3 7 3 98 -51 201 -120 282 -187 346 -220
138 -72 -219 156 -285 207 -279 216 3 5 27 9 54 9 38 0 59 -7 101 -35 l54 -36
-42 41 -42 40 42 0 c31 0 59 -10 105 -37z m-2615 -68 c-3 -9 -22 -28 -42 -42
-20 -14 -27 -22 -16 -18 43 16 55 17 55 6 0 -6 12 -11 28 -11 l27 0 -25 -20
c-14 -11 -91 -54 -172 -95 -199 -102 -288 -170 -403 -305 -28 -33 -27 -33 15
6 44 39 46 40 88 31 23 -5 42 -13 42 -17 0 -3 -46 -40 -103 -82 -105 -77 -217
-146 -217 -133 0 4 17 28 38 54 63 76 96 129 167 271 76 153 137 244 189 284
20 15 36 25 36 22 0 -3 -16 -27 -36 -53 -19 -25 -49 -74 -65 -107 -31 -65 -30
-63 42 48 73 115 123 148 244 164 110 14 115 14 108 -3z m393 -40 c-21 -31
-183 -166 -303 -251 -51 -37 -93 -68 -93 -70 0 -9 155 96 284 193 130 98 164
115 173 86 6 -16 -49 -75 -125 -135 -87 -67 -96 -76 -47 -48 54 32 111 75 164
124 l43 41 -17 -35 c-16 -31 -16 -33 -2 -21 34 28 16 -9 -30 -60 -48 -53 -48
-54 -8 -20 22 19 55 55 74 80 l33 46 -5 -55 c-6 -49 -11 -59 -49 -94 -79 -72
-149 -96 -393 -141 -49 -9 -119 -29 -154 -46 -35 -16 -66 -27 -69 -25 -9 10 9
72 38 135 75 157 188 269 296 291 31 7 57 10 59 8 2 -2 -51 -44 -117 -93 -66
-50 -135 -108 -153 -130 -55 -69 -51 -72 9 -8 90 97 394 294 404 262 2 -5 -3
-21 -12 -34z m667 21 c3 -8 -8 -55 -24 -106 -16 -51 -28 -98 -26 -104 2 -6 12
13 21 42 18 54 33 72 21 25 -10 -41 0 -26 35 52 l31 70 -5 -70 c-4 -38 -8 -88
-11 -110 l-5 -40 14 45 c7 25 19 72 27 104 8 33 19 61 26 63 35 12 23 -162
-18 -273 -23 -62 -91 -139 -148 -168 -36 -19 -32 -25 -57 88 -26 122 -7 216
69 343 33 56 41 62 50 39z m487 -16 c6 -11 8 -20 6 -20 -3 0 -10 9 -16 20 -6
11 -8 20 -6 20 3 0 10 -9 16 -20z m-20 -19 c11 -17 35 -60 53 -98 29 -63 32
-76 32 -168 0 -57 -6 -116 -14 -138 l-13 -39 -40 39 c-22 21 -54 58 -70 83
-30 47 -87 211 -89 258 l-1 27 -8 -30 c-7 -26 -8 -24 -9 20 -1 60 9 49 40 -45
21 -62 56 -140 63 -140 1 0 -6 26 -17 58 -23 68 -34 167 -19 175 13 9 57 -60
92 -146 16 -40 30 -67 30 -60 0 16 -43 146 -64 196 -14 31 -14 37 -2 37 8 0
24 -13 36 -29z m599 -27 c166 -125 342 -372 406 -572 29 -90 45 -109 19 -23
-22 76 -13 72 18 -7 15 -37 38 -93 52 -125 l26 -58 -22 7 c-13 4 -100 44 -193
89 -259 124 -393 221 -469 338 -74 113 -53 132 27 25 29 -40 62 -80 73 -88 10
-8 2 5 -17 30 -36 45 -89 131 -89 144 0 4 42 -35 93 -87 107 -109 190 -176
342 -277 61 -40 129 -88 153 -107 23 -19 42 -31 42 -26 0 4 5 1 10 -7 5 -8 10
-10 10 -5 0 6 -5 17 -10 25 -7 12 -10 12 -10 1 0 -8 -14 -1 -35 18 -20 17 -84
63 -143 102 -148 99 -214 151 -297 235 -97 98 -141 165 -165 253 -12 40 -28
87 -36 103 -9 17 -11 29 -6 27 6 -2 76 -62 156 -132 159 -139 241 -229 300
-325 47 -78 59 -81 16 -4 -53 94 -106 160 -239 295 -69 70 -120 127 -115 127
17 0 93 -57 153 -114 l55 -51 -43 52 c-23 29 -64 72 -92 97 -29 26 -49 53 -49
65 0 30 10 27 79 -25z m-789 -60 c52 -140 48 -256 -12 -328 l-30 -37 -25 23
c-53 49 -68 95 -67 203 0 70 6 118 20 160 l19 60 5 -132 c3 -72 8 -134 11
-137 3 -4 9 53 12 124 4 72 9 136 13 142 10 15 29 -14 54 -78z m271 -6 c18
-35 42 -92 55 -128 25 -71 32 -61 10 13 -13 43 -13 46 3 38 33 -18 73 -70 102
-131 16 -35 28 -65 26 -67 -3 -2 -24 1 -48 6 -63 15 -66 14 -74 -16 -7 -32
-32 -73 -43 -73 -4 0 -7 64 -7 143 0 139 -1 143 -32 210 -40 84 -34 88 8 5z
m-1684 -79 c-38 -57 -50 -66 -106 -87 -77 -30 -75 -39 2 -13 32 11 57 16 57
11 0 -5 -4 -11 -9 -14 -5 -3 -12 -21 -15 -40 -8 -42 -25 -49 -118 -48 -78 0
-100 9 -73 29 28 20 4 14 -30 -8 -43 -27 -73 -39 -98 -39 -18 1 -13 9 35 54
31 29 84 70 118 91 57 35 271 135 278 130 2 -2 -17 -31 -41 -66z m1460 39 c-3
-8 -6 -5 -6 6 -1 11 2 17 5 13 3 -3 4 -12 1 -19z m10 -50 c-3 -7 -5 -2 -5 12
0 14 2 19 5 13 2 -7 2 -19 0 -25z m-777 -37 c0 -22 6 -44 15 -51 13 -11 1 -28
-84 -119 -183 -197 -196 -216 -61 -89 154 145 188 173 198 164 14 -15 -55
-124 -119 -187 -45 -45 -90 -78 -140 -103 -41 -21 -63 -34 -49 -30 108 29 287
184 345 299 17 33 30 60 30 61 0 1 13 4 29 8 28 7 29 6 22 -26 -11 -56 -98
-189 -171 -263 -84 -84 -141 -116 -264 -149 -82 -22 -91 -23 -87 -8 11 39 36
142 50 208 8 40 24 90 35 113 35 67 111 144 152 153 8 2 16 5 19 8 14 15 64
50 71 50 5 0 9 -17 9 -39z m813 -92 c8 -19 40 -71 71 -117 149 -219 203 -426
165 -638 -9 -53 -37 -153 -45 -163 -1 -1 -31 27 -65 63 -34 37 -97 96 -140
132 -91 76 -140 139 -176 226 -21 52 -27 86 -33 198 -4 74 -5 137 -4 139 2 2
14 -21 28 -50 l25 -54 -5 50 c-4 43 -3 46 6 25 6 -14 10 -41 7 -60 -8 -72 35
-298 61 -314 5 -3 -3 27 -15 65 -15 45 -26 106 -30 169 -5 91 -4 100 17 130
12 17 24 30 25 28 2 -2 18 -66 35 -143 32 -139 64 -241 82 -260 5 -5 4 3 -2
19 -11 29 -70 315 -70 339 0 22 17 -8 43 -73 14 -36 49 -144 77 -240 28 -95
56 -181 61 -190 8 -12 9 -11 4 5 -4 11 -29 105 -56 210 -28 104 -67 232 -88
284 -21 52 -36 103 -33 113 4 17 8 16 39 -14 60 -58 107 -140 145 -253 41
-121 49 -122 18 -1 -22 82 -58 161 -114 249 -51 79 -66 123 -65 186 l1 56 8
-41 c5 -22 15 -56 23 -75z m-588 -89 c-38 -76 -85 -208 -84 -237 0 -10 8 8 19
40 20 65 100 237 110 237 9 0 30 -86 30 -123 0 -17 -21 -95 -45 -171 -25 -77
-47 -156 -50 -175 -3 -20 4 -7 14 29 32 107 115 303 130 308 11 4 13 -4 7 -37
-8 -54 -1 -52 19 7 10 28 30 58 51 75 l34 29 0 -82 c0 -82 -19 -178 -46 -235
-14 -28 -14 -28 1 -10 25 31 54 138 66 243 7 56 19 108 29 125 l18 29 7 -77
c22 -235 -37 -357 -267 -550 -50 -42 -94 -73 -97 -68 -4 4 -29 54 -55 110 -54
115 -65 181 -47 278 13 70 76 209 91 200 6 -3 7 0 4 9 -4 9 0 18 9 21 8 4 29
26 46 51 18 24 34 44 37 44 2 0 -12 -31 -31 -70z m1675 39 c23 -12 73 -30 111
-40 51 -13 77 -26 92 -45 37 -45 85 -134 123 -227 21 -48 39 -86 40 -84 11 10
-92 237 -139 308 l-17 26 45 -7 c25 -4 50 -11 55 -16 22 -24 74 -144 114 -265
24 -74 55 -160 70 -191 14 -32 21 -58 16 -58 -26 0 -274 105 -301 127 -33 28
-76 108 -134 248 -34 83 -76 167 -113 223 -18 27 -13 27 38 1z m-611 -25 c12
-20 19 -39 16 -42 -10 -10 -45 32 -45 55 0 31 4 29 29 -13z m-1684 -31 c-91
-86 -248 -208 -342 -264 -45 -28 -83 -52 -83 -55 0 -9 167 79 234 124 37 25
118 87 179 138 61 52 112 92 113 91 3 -3 -53 -227 -57 -231 -14 -11 -139 -104
-159 -119 -54 -39 9 -1 81 49 59 40 76 48 72 33 -3 -10 -39 -42 -80 -69 -41
-28 -72 -50 -68 -50 11 0 70 33 103 58 18 14 32 19 32 12 0 -38 -152 -127
-265 -155 -33 -8 -124 -24 -203 -35 -78 -11 -170 -29 -205 -40 -34 -11 -66
-20 -70 -20 -30 0 87 80 159 109 27 11 44 20 37 20 -18 1 -99 -36 -140 -63
-20 -14 -39 -24 -41 -22 -2 3 8 24 21 48 14 24 44 90 67 148 23 58 57 135 76
171 35 67 98 138 111 126 3 -4 -26 -72 -65 -152 -39 -80 -69 -145 -67 -145 2
0 29 49 60 108 30 60 66 118 79 131 l24 22 6 -25 6 -25 57 39 c31 22 75 45 97
52 36 10 235 43 276 46 8 1 -12 -24 -45 -55z m1584 -57 c33 -29 108 -137 147
-210 19 -33 34 -58 34 -53 0 14 -87 192 -118 241 -35 55 -38 66 -19 66 17 0
59 -55 103 -134 20 -36 38 -66 40 -66 7 0 -57 123 -80 155 -45 61 -36 58 29
-9 36 -38 63 -71 60 -74 -3 -3 4 -12 16 -20 11 -8 18 -20 15 -29 -3 -8 -1 -11
4 -8 20 12 93 -185 125 -336 12 -57 46 -333 58 -474 2 -22 5 64 6 190 1 173 4
225 13 210 6 -11 17 -26 26 -32 8 -7 19 -34 23 -60 12 -71 11 -241 -2 -309 -6
-32 -14 -96 -17 -142 l-7 -82 -45 77 c-35 60 -82 115 -208 241 -207 207 -272
303 -285 419 l-6 51 45 -86 c25 -47 61 -108 80 -134 49 -66 162 -167 226 -202
68 -37 61 -30 -34 33 -168 112 -252 247 -357 571 -44 135 -54 180 -41 180 18
0 67 -88 115 -204 41 -98 119 -246 130 -246 2 0 -16 39 -40 88 -24 48 -55 119
-70 157 -14 39 -42 107 -62 153 -19 46 -32 86 -29 89 19 19 195 -235 292 -422
37 -71 85 -172 106 -225 42 -107 50 -110 14 -4 -64 185 -147 347 -275 539 -50
75 -91 140 -91 146 0 12 41 -11 79 -45z m447 -207 c50 -29 53 -33 138 -205 48
-97 89 -174 92 -171 3 3 -6 27 -19 54 -25 48 -61 132 -97 223 l-19 49 84 -38
c47 -21 88 -40 90 -43 3 -3 10 -41 15 -84 l9 -79 -3 78 c-2 42 0 77 4 77 3 0
14 -6 24 -13 16 -12 19 -39 26 -238 4 -123 7 -225 5 -227 -2 -2 -18 15 -36 38
-19 23 -84 84 -145 135 -115 97 -162 152 -209 244 -27 55 -57 131 -51 131 2 0
31 -37 64 -82 33 -46 86 -110 119 -143 76 -79 190 -176 172 -147 -8 12 -17 22
-21 22 -16 0 -154 139 -213 215 -85 110 -129 182 -142 233 l-11 43 36 -22 c21
-12 60 -34 88 -50z m-1646 -2 c0 -2 -13 -43 -30 -92 -16 -49 -28 -90 -27 -92
2 -2 16 27 30 64 15 38 36 82 47 98 l20 30 0 -67 c0 -37 5 -90 11 -118 8 -39
8 -58 -1 -81 -17 -39 -138 -151 -236 -218 -91 -62 -117 -85 -59 -51 73 42 188
132 250 196 l61 63 12 -31 c15 -42 6 -57 -81 -126 -65 -51 -164 -114 -401
-251 -44 -25 -106 -70 -138 -100 -55 -50 -58 -52 -58 -28 0 63 98 460 142 576
26 69 38 87 70 109 21 14 41 23 43 20 3 -3 -10 -38 -29 -79 -18 -41 -36 -85
-40 -99 l-6 -25 12 25 c6 14 27 57 46 97 18 39 41 78 50 86 13 12 202 67 227
67 3 0 -24 -57 -59 -127 -79 -158 -164 -288 -247 -379 -116 -127 -135 -151
-50 -65 139 142 245 286 336 456 57 105 83 145 96 145 5 0 9 -1 9 -3z m497
-282 c-7 -153 -30 -237 -107 -394 -33 -68 -59 -125 -57 -127 2 -2 33 58 70
134 72 151 100 248 118 423 5 57 12 106 15 108 2 2 5 -31 5 -75 2 -63 3 -71 9
-39 l6 40 8 -38 c23 -107 -22 -266 -120 -429 -35 -59 -77 -134 -93 -168 l-30
-62 -17 34 c-9 18 -46 82 -82 143 -96 163 -140 297 -107 325 12 10 15 10 15
-2 0 -8 -4 -19 -10 -26 -7 -9 -7 -9 2 -2 21 17 26 12 38 -42 11 -50 113 -278
124 -278 3 0 -17 46 -44 103 -43 87 -89 224 -78 231 2 1 36 22 77 45 40 24 91
59 112 78 l38 34 -5 -38 c-3 -21 -17 -104 -30 -184 -42 -256 -25 -219 32 70
33 167 40 192 73 240 44 65 46 60 38 -104z m-1018 56 c-12 -22 -40 -57 -62
-78 -39 -37 -39 -37 -24 -8 8 17 18 45 22 63 5 25 15 37 38 48 48 20 50 18 26
-25z m1210 -233 c29 -123 72 -232 105 -273 16 -19 16 -18 2 11 -31 64 -97 356
-83 370 2 2 40 -25 85 -61 95 -76 96 -78 97 -263 0 -123 0 -124 12 -65 7 32
13 93 13 135 1 71 3 77 19 68 10 -5 33 -26 50 -46 18 -20 36 -33 41 -28 11 12
50 141 50 167 0 31 9 15 20 -34 8 -39 9 -35 5 26 l-5 70 31 -55 c26 -47 30
-62 26 -106 -8 -76 -57 -185 -146 -317 l-78 -118 -39 44 c-22 24 -71 71 -111
105 -75 65 -158 177 -188 256 -17 45 -17 45 14 136 17 50 31 100 31 113 1 42
18 -5 49 -135z m-596 -153 c31 -63 33 -97 12 -175 -20 -76 -12 -74 16 4 13 36
27 66 30 66 22 0 12 -41 -30 -126 -36 -73 -50 -93 -54 -79 -3 11 -11 86 -18
166 -11 137 -9 199 9 199 4 0 20 -25 35 -55z"/>
<path d="M2191 4534 c0 -11 3 -14 6 -6 3 7 2 16 -1 19 -3 4 -6 -2 -5 -13z"/>
<path d="M2752 4555 c0 -16 2 -22 5 -12 2 9 2 23 0 30 -3 6 -5 -1 -5 -18z"/>
<path d="M2793 4440 c0 -25 2 -35 4 -22 2 12 2 32 0 45 -2 12 -4 2 -4 -23z"/>
<path d="M3115 4438 l-40 -43 43 40 c39 36 47 45 39 45 -2 0 -21 -19 -42 -42z"/>
<path d="M3381 4384 c0 -11 3 -14 6 -6 3 7 2 16 -1 19 -3 4 -6 -2 -5 -13z"/>
<path d="M3052 4363 c-26 -38 -34 -53 -29 -53 2 0 16 18 31 40 29 45 28 56 -2
13z"/>
<path d="M1733 4500 c0 -36 2 -50 4 -32 2 17 2 47 0 65 -2 17 -4 3 -4 -33z"/>
<path d="M1771 4464 c0 -11 3 -14 6 -6 3 7 2 16 -1 19 -3 4 -6 -2 -5 -13z"/>
<path d="M3783 4150 c0 -30 2 -43 4 -27 2 15 2 39 0 55 -2 15 -4 2 -4 -28z"/>
<path d="M3439 3723 c-13 -16 -12 -17 4 -4 16 13 21 21 13 21 -2 0 -10 -8 -17
-17z"/>
<path d="M1397 4349 c7 -7 15 -10 18 -7 3 3 -2 9 -12 12 -14 6 -15 5 -6 -5z"/>
<path d="M1391 3980 c0 -8 6 -28 14 -45 17 -39 18 -21 0 25 -7 19 -14 28 -14
20z"/>
<path d="M1420 3896 c0 -11 30 -66 36 -66 2 0 -3 15 -12 33 -19 36 -24 44 -24
33z"/>
<path d="M2061 3854 c0 -11 3 -14 6 -6 3 7 2 16 -1 19 -3 4 -6 -2 -5 -13z"/>
<path d="M3894 3478 l-19 -23 23 19 c12 11 22 21 22 23 0 8 -8 2 -26 -19z"/>
<path d="M2622 3415 c0 -16 2 -22 5 -12 2 9 2 23 0 30 -3 6 -5 -1 -5 -18z"/>
<path d="M2672 3420 c0 -14 2 -19 5 -12 2 6 2 18 0 25 -3 6 -5 1 -5 -13z"/>
<path d="M2261 3504 c0 -11 3 -14 6 -6 3 7 2 16 -1 19 -3 4 -6 -2 -5 -13z"/>
<path d="M4238 3733 c6 -2 18 -2 25 0 6 3 1 5 -13 5 -14 0 -19 -2 -12 -5z"/>
<path d="M1174 3622 c33 -35 118 -82 150 -82 12 1 -3 9 -33 20 -54 20 -65 26
-116 69 l-30 26 29 -33z"/>
<path d="M1360 3406 c0 -2 8 -10 18 -17 15 -13 16 -12 3 4 -13 16 -21 21 -21
13z"/>
<path d="M1299 3375 c5 -11 17 -29 26 -40 l16 -20 -10 20 c-5 11 -17 29 -26
40 l-16 20 10 -20z"/>
<path d="M818 3573 c12 -2 32 -2 45 0 12 2 2 4 -23 4 -25 0 -35 -2 -22 -4z"/>
<path d="M898 3563 c6 -2 18 -2 25 0 6 3 1 5 -13 5 -14 0 -19 -2 -12 -5z"/>
<path d="M4103 3363 c9 -2 23 -2 30 0 6 3 -1 5 -18 5 -16 0 -22 -2 -12 -5z"/>
<path d="M2505 3178 c-3 -12 -1 -56 5 -68 3 -7 18 41 19 63 1 19 -18 23 -24 5z"/>
<path d="M2437 3163 c-13 -12 -7 -33 8 -33 8 0 15 9 15 20 0 20 -11 26 -23 13z"/>
<path d="M2570 3160 c0 -5 5 -10 10 -10 6 0 10 5 10 10 0 6 -4 10 -10 10 -5 0
-10 -4 -10 -10z"/>
<path d="M2367 3154 c-3 -4 -2 -16 4 -26 13 -24 35 -9 26 16 -7 17 -19 21 -30
10z"/>
<path d="M2537 3136 c-6 -15 1 -26 15 -26 4 0 8 9 8 20 0 23 -15 27 -23 6z"/>
<path d="M2611 3137 c-9 -11 -8 -17 4 -27 12 -10 16 -9 21 5 9 23 -10 40 -25
22z"/>
<path d="M2672 3137 c-13 -15 1 -42 17 -33 13 9 15 33 2 40 -5 3 -13 0 -19 -7z"/>
<path d="M2470 3106 c0 -9 5 -16 10 -16 6 0 10 4 10 9 0 6 -4 13 -10 16 -5 3
-10 -1 -10 -9z"/>
<path d="M2735 3110 c-7 -12 2 -30 16 -30 12 0 12 27 0 35 -5 3 -12 1 -16 -5z"/>
<path d="M2342 3092 c5 -23 28 -27 28 -4 0 10 -7 19 -15 19 -9 0 -15 -7 -13
-15z"/>
<path d="M2294 3086 c-4 -11 0 -24 9 -34 15 -14 17 -14 23 2 4 11 0 24 -9 34
-15 14 -17 14 -23 -2z"/>
<path d="M2422 3079 c1 -13 8 -23 13 -21 15 3 12 35 -3 40 -9 3 -13 -3 -10
-19z"/>
<path d="M2775 3090 c-4 -6 -3 -16 3 -22 6 -6 12 -6 17 2 4 6 3 16 -3 22 -6 6
-12 6 -17 -2z"/>
<path d="M2827 3074 c-14 -14 -7 -35 11 -32 9 2 17 10 17 17 0 16 -18 25 -28
15z"/>
<path d="M2880 3020 c0 -15 5 -20 18 -18 9 2 17 10 17 18 0 8 -8 16 -17 18
-13 2 -18 -3 -18 -18z"/>
<path d="M2210 3011 c0 -12 26 -32 33 -25 9 10 -4 34 -19 34 -8 0 -14 -4 -14
-9z"/>
<path d="M2254 2989 c-3 -6 -1 -16 5 -22 9 -9 14 -8 21 3 9 15 4 30 -10 30 -5
0 -12 -5 -16 -11z"/>
<path d="M2917 2993 c-12 -11 -8 -23 8 -23 8 0 15 7 15 15 0 16 -12 20 -23 8z"/>
<path d="M2882 2944 c4 -21 22 -23 26 -1 2 10 -3 17 -13 17 -10 0 -15 -6 -13
-16z"/>
<path d="M2951 2946 c-9 -10 -9 -16 -1 -21 17 -10 37 12 24 25 -8 8 -15 6 -23
-4z"/>
<path d="M2215 2939 c-10 -15 1 -23 20 -15 9 3 13 10 10 16 -8 13 -22 13 -30
-1z"/>
<path d="M2983 2885 c-3 -9 -3 -19 1 -22 7 -7 36 16 36 28 0 15 -30 10 -37 -6z"/>
<path d="M2170 2865 c0 -8 7 -15 15 -15 9 0 12 6 9 15 -4 8 -10 15 -15 15 -5
0 -9 -7 -9 -15z"/>
<path d="M2994 2839 c-3 -6 -2 -15 2 -19 12 -12 38 5 30 19 -9 14 -23 14 -32
0z"/>
<path d="M2128 2834 c-11 -10 3 -34 19 -34 8 0 13 7 11 17 -3 18 -20 27 -30
17z"/>
<path d="M3020 2774 c0 -9 7 -14 17 -12 25 5 28 28 4 28 -12 0 -21 -6 -21 -16z"/>
<path d="M2130 2755 c0 -9 5 -15 11 -13 6 2 11 8 11 13 0 5 -5 11 -11 13 -6 2
-11 -4 -11 -13z"/>
<path d="M2110 2720 c0 -5 7 -10 15 -10 8 0 15 5 15 10 0 6 -7 10 -15 10 -8 0
-15 -4 -15 -10z"/>
<path d="M2106 2671 c-7 -11 18 -33 27 -24 4 3 7 12 7 20 0 15 -26 18 -34 4z"/>
<path d="M3032 2668 c6 -18 28 -21 28 -4 0 9 -7 16 -16 16 -9 0 -14 -5 -12
-12z"/>
<path d="M3024 2589 c-7 -12 15 -31 28 -23 4 3 8 12 8 20 0 17 -26 19 -36 3z"/>
<path d="M2112 2538 c6 -18 28 -21 28 -4 0 9 -7 16 -16 16 -9 0 -14 -5 -12
-12z"/>
<path d="M2985 2470 c3 -5 8 -10 11 -10 2 0 4 5 4 10 0 6 -5 10 -11 10 -5 0
-7 -4 -4 -10z"/>
<path d="M2181 2366 c-9 -11 -9 -16 0 -21 10 -7 28 10 29 28 0 12 -17 8 -29
-7z"/>
<path d="M2890 2345 c0 -9 5 -15 11 -13 6 2 11 8 11 13 0 5 -5 11 -11 13 -6 2
-11 -4 -11 -13z"/>
<path d="M2932 2338 c6 -18 28 -21 28 -4 0 9 -7 16 -16 16 -9 0 -14 -5 -12
-12z"/>
<path d="M2246 2293 c-12 -12 -6 -33 9 -33 8 0 15 6 15 14 0 17 -14 28 -24 19z"/>
<path d="M2340 2221 c0 -6 5 -13 10 -16 6 -3 10 1 10 9 0 9 -4 16 -10 16 -5 0
-10 -4 -10 -9z"/>
<path d="M2396 2221 c-4 -7 -5 -15 -2 -18 9 -9 19 4 14 18 -4 11 -6 11 -12 0z"/>
<path d="M2435 2200 c-8 -13 4 -32 16 -25 12 8 12 35 0 35 -6 0 -13 -4 -16
-10z"/>
<path d="M2485 2190 c-11 -17 5 -32 21 -19 7 6 11 15 8 20 -7 12 -21 11 -29
-1z"/>
<path d="M2566 2183 c-12 -12 -6 -43 9 -43 8 0 15 9 15 19 0 21 -13 34 -24 24z"/>
<path d="M2622 2173 c5 -25 28 -28 28 -4 0 12 -6 21 -16 21 -9 0 -14 -7 -12
-17z"/>
<path d="M4391 3116 c8 -8 113 -45 117 -42 2 2 -22 13 -53 25 -54 20 -73 25
-64 17z"/>
<path d="M4540 3055 c14 -8 30 -14 35 -14 6 0 -1 6 -15 14 -14 8 -29 14 -35
14 -5 0 1 -6 15 -14z"/>
<path d="M4600 3030 c8 -5 20 -10 25 -10 6 0 3 5 -5 10 -8 5 -19 10 -25 10 -5
0 -3 -5 5 -10z"/>
<path d="M4378 2773 c7 -3 16 -2 19 1 4 3 -2 6 -13 5 -11 0 -14 -3 -6 -6z"/>
<path d="M730 2910 c-8 -5 -10 -10 -5 -10 6 0 17 5 25 10 8 5 11 10 5 10 -5 0
-17 -5 -25 -10z"/>
<path d="M680 2890 c-8 -5 -10 -10 -5 -10 6 0 17 5 25 10 8 5 11 10 5 10 -5 0
-17 -5 -25 -10z"/>
<path d="M625 2870 c-13 -6 -15 -9 -5 -9 8 0 22 4 30 9 18 12 2 12 -25 0z"/>
<path d="M728 2863 c7 -3 16 -2 19 1 4 3 -2 6 -13 5 -11 0 -14 -3 -6 -6z"/>
<path d="M440 2851 c8 -5 42 -12 75 -15 44 -4 51 -3 25 3 -58 14 -116 21 -100
12z"/>
<path d="M580 2850 c14 -4 34 -8 45 -8 16 0 15 2 -5 8 -14 4 -34 8 -45 8 -16
0 -15 -2 5 -8z"/>
<path d="M673 2853 c9 -2 23 -2 30 0 6 3 -1 5 -18 5 -16 0 -22 -2 -12 -5z"/>
<path d="M3248 2873 c7 -3 16 -2 19 1 4 3 -2 6 -13 5 -11 0 -14 -3 -6 -6z"/>
<path d="M2437 2933 c-3 -5 0 -19 8 -29 15 -20 18 -11 6 20 -4 11 -10 15 -14
9z"/>
<path d="M2740 2882 c0 -15 -6 -34 -12 -42 -11 -12 -10 -12 3 -2 18 13 31 72
17 72 -4 0 -8 -13 -8 -28z"/>
<path d="M4040 2830 c-27 -6 -29 -8 -10 -8 14 -1 43 3 65 7 33 7 35 9 10 9
-16 -1 -46 -4 -65 -8z"/>
<path d="M3438 2603 c7 -3 16 -2 19 1 4 3 -2 6 -13 5 -11 0 -14 -3 -6 -6z"/>
<path d="M1888 2583 c7 -3 16 -2 19 1 4 3 -2 6 -13 5 -11 0 -14 -3 -6 -6z"/>
<path d="M4000 2701 c47 -10 102 -26 124 -35 47 -20 60 -20 25 -1 -37 20 -168
55 -204 54 -16 0 8 -9 55 -18z"/>
<path d="M4180 2646 c0 -2 7 -7 16 -10 8 -3 12 -2 9 4 -6 10 -25 14 -25 6z"/>
<path d="M4270 2597 c0 -3 17 -17 37 -33 20 -15 33 -23 29 -16 -8 13 -66 56
-66 49z"/>
<path d="M4310 2500 c8 -5 20 -10 25 -10 6 0 3 5 -5 10 -8 5 -19 10 -25 10 -5
0 -3 -5 5 -10z"/>
<path d="M4608 2453 c7 -3 16 -2 19 1 4 3 -2 6 -13 5 -11 0 -14 -3 -6 -6z"/>
<path d="M4568 2443 c7 -3 16 -2 19 1 4 3 -2 6 -13 5 -11 0 -14 -3 -6 -6z"/>
<path d="M1488 2543 c7 -3 16 -2 19 1 4 3 -2 6 -13 5 -11 0 -14 -3 -6 -6z"/>
<path d="M1438 2533 c6 -2 18 -2 25 0 6 3 1 5 -13 5 -14 0 -19 -2 -12 -5z"/>
<path d="M2327 2514 c10 -4 10 -11 2 -25 -5 -11 -14 -17 -20 -14 -5 4 -9 2 -9
-2 0 -5 10 -14 23 -22 20 -13 21 -13 9 1 -11 14 -9 19 14 37 15 12 25 21 23
22 -27 5 -51 7 -42 3z"/>
<path d="M2358 2423 c7 -3 16 -2 19 1 4 3 -2 6 -13 5 -11 0 -14 -3 -6 -6z"/>
<path d="M3539 2433 c5 -10 26 -34 47 -53 37 -35 37 -35 -6 18 -45 54 -58 65
-41 35z"/>
<path d="M978 2193 c7 -3 16 -2 19 1 4 3 -2 6 -13 5 -11 0 -14 -3 -6 -6z"/>
<path d="M2496 2294 c-5 -14 -4 -15 9 -4 17 14 19 20 6 20 -5 0 -12 -7 -15
-16z"/>
<path d="M4321 2286 c8 -8 133 -56 136 -52 2 2 -26 15 -62 30 -62 25 -84 31
-74 22z"/>
<path d="M4460 2166 c0 -2 8 -10 18 -17 15 -13 16 -12 3 4 -13 16 -21 21 -21
13z"/>
<path d="M4500 2138 c0 -2 28 -28 63 -58 34 -29 51 -41 37 -26 -25 28 -100 91
-100 84z"/>
<path d="M4655 2000 c10 -11 20 -20 23 -20 3 0 -3 9 -13 20 -10 11 -20 20 -23
20 -3 0 3 -9 13 -20z"/>
<path d="M4690 1976 c0 -2 8 -10 18 -17 15 -13 16 -12 3 4 -13 16 -21 21 -21
13z"/>
<path d="M2731 2054 c0 -11 3 -14 6 -6 3 7 2 16 -1 19 -3 4 -6 -2 -5 -13z"/>
<path d="M3706 1527 c3 -10 9 -15 12 -12 3 3 0 11 -7 18 -10 9 -11 8 -5 -6z"/>
<path d="M1010 1780 c-8 -5 -10 -10 -5 -10 6 0 17 5 25 10 8 5 11 10 5 10 -5
0 -17 -5 -25 -10z"/>
<path d="M1745 1778 l-50 -53 53 50 c28 27 52 51 52 52 0 8 -9 -1 -55 -49z"/>
<path d="M2041 1404 c0 -11 3 -14 6 -6 3 7 2 16 -1 19 -3 4 -6 -2 -5 -13z"/>
<path d="M3840 1682 c0 -36 118 -223 166 -263 10 -8 -6 18 -34 56 -27 39 -69
104 -91 145 -22 41 -41 69 -41 62z"/>
<path d="M3977 1359 c12 -15 73 -53 73 -46 0 2 -19 17 -42 32 -24 16 -38 22
-31 14z"/>
<path d="M4087 1289 c7 -7 15 -10 18 -7 3 3 -2 9 -12 12 -14 6 -15 5 -6 -5z"/>
<path d="M4227 1222 c10 -18 33 -47 52 -65 l35 -32 -34 40 c-19 22 -43 51 -53
65 -17 24 -17 24 0 -8z"/>
<path d="M1330 1660 c-8 -5 -10 -10 -5 -10 6 0 17 5 25 10 8 5 11 10 5 10 -5
0 -17 -5 -25 -10z"/>
<path d="M1028 1376 c-31 -25 -59 -50 -63 -57 -6 -9 88 63 120 92 25 24 -6 4
-57 -35z"/>
<path d="M920 1320 c-6 -11 -8 -20 -6 -20 3 0 10 9 16 20 6 11 8 20 6 20 -3 0
-10 -9 -16 -20z"/>
<path d="M876 1252 c-22 -27 -24 -32 -7 -17 20 17 47 55 39 55 -2 0 -16 -17
-32 -38z"/>
<path d="M3341 1430 c14 -31 19 -36 19 -24 0 6 -7 19 -16 30 -14 18 -14 18 -3
-6z"/>
<path d="M3421 824 c0 -11 3 -14 6 -6 3 7 2 16 -1 19 -3 4 -6 -2 -5 -13z"/>
<path d="M3387 696 c24 -21 54 -52 69 -69 14 -18 21 -23 16 -12 -11 21 -73 82
-107 104 -11 8 -1 -3 22 -23z"/>
<path d="M3843 1055 c0 -27 2 -38 4 -22 2 15 2 37 0 50 -2 12 -4 0 -4 -28z"/>
<path d="M3852 975 c0 -16 2 -22 5 -12 2 9 2 23 0 30 -3 6 -5 -1 -5 -18z"/>
<path d="M3862 915 c0 -16 2 -22 5 -12 2 9 2 23 0 30 -3 6 -5 -1 -5 -18z"/>
<path d="M3871 864 c0 -11 3 -14 6 -6 3 7 2 16 -1 19 -3 4 -6 -2 -5 -13z"/>
<path d="M1461 1044 c0 -11 3 -14 6 -6 3 7 2 16 -1 19 -3 4 -6 -2 -5 -13z"/>
<path d="M1349 683 c-13 -16 -12 -17 4 -4 16 13 21 21 13 21 -2 0 -10 -8 -17
-17z"/>
<path d="M2222 710 c0 -14 2 -19 5 -12 2 6 2 18 0 25 -3 6 -5 1 -5 -13z"/>
<path d="M2992 845 c0 -16 2 -22 5 -12 2 9 2 23 0 30 -3 6 -5 -1 -5 -18z"/>
<path d="M2981 794 c0 -11 3 -14 6 -6 3 7 2 16 -1 19 -3 4 -6 -2 -5 -13z"/>
<path d="M2946 695 c-9 -26 -7 -32 5 -12 6 10 9 21 6 23 -2 3 -7 -2 -11 -11z"/>
<path d="M2902 599 c-18 -32 -31 -59 -28 -59 7 0 69 111 64 115 -2 2 -18 -23
-36 -56z"/>
</g>
</svg>