<?xml version="1.0" standalone="no"?>
<!DOCTYPE svg PUBLIC "-//W3C//DTD SVG 20010904//EN"
 "http://www.w3.org/TR/2001/REC-SVG-20010904/DTD/svg10.dtd">
<svg version="1.0" xmlns="http://www.w3.org/2000/svg"
 width="512.000000pt" height="512.000000pt" viewBox="0 0 512.000000 512.000000"
 preserveAspectRatio="xMidYMid meet">
<metadata>
Created by potrace 1.16, written by Peter Selinger 2001-2019
</metadata>
<g transform="translate(0.000000,512.000000) scale(0.100000,-0.100000)"
fill="#000000" stroke="none">
<path d="M1951 4778 c-45 -57 -99 -132 -119 -168 -46 -81 -104 -240 -127 -345
-37 -166 -29 -152 -145 -265 -115 -113 -156 -175 -167 -257 -5 -36 -17 -61
-51 -103 -54 -66 -76 -113 -93 -200 -11 -58 -18 -70 -65 -116 -132 -129 -194
-292 -194 -508 0 -50 7 -122 16 -161 9 -38 16 -76 15 -82 -9 -329 25 -438 277
-886 66 -117 159 -286 206 -376 133 -252 226 -370 374 -472 137 -95 274 -139
438 -139 56 0 94 -4 102 -12 29 -29 1 -170 -52 -257 -51 -83 -37 -95 74 -64
52 14 70 15 126 4 57 -10 69 -10 90 4 15 9 24 25 24 41 0 28 25 43 43 25 16
-16 83 -14 116 3 29 15 91 80 91 95 0 5 -13 41 -30 79 -16 39 -30 77 -30 85 0
33 28 50 116 68 117 25 230 82 323 163 76 68 82 71 219 107 137 36 250 124
348 271 52 78 92 162 185 394 85 211 110 314 114 459 3 88 9 125 30 185 51
147 68 236 67 365 -1 90 -6 140 -23 200 -15 57 -24 127 -29 240 -4 88 -15 191
-24 229 -49 206 -167 391 -308 486 -39 26 -73 60 -99 99 -47 70 -112 130 -185
168 -40 21 -60 41 -98 100 -53 82 -121 142 -206 182 -49 23 -69 26 -180 27
-118 2 -132 5 -260 47 -178 59 -191 60 -280 41 l-75 -16 -49 26 c-87 46 -159
32 -246 -50 -43 -40 -63 -51 -138 -71 -48 -14 -96 -27 -106 -30 -18 -6 -18 -2
-12 55 13 112 69 243 136 316 l39 42 -26 37 c-42 59 -59 52 -152 -65z m80 -17
c-65 -82 -131 -269 -131 -371 0 -21 -9 -39 -27 -56 -14 -13 -28 -23 -29 -21
-2 2 5 45 16 97 11 52 17 96 15 98 -6 6 -36 -104 -44 -162 -6 -42 -15 -60 -43
-89 l-36 -36 23 87 c45 167 135 343 228 448 56 62 76 66 28 5z m301 -273 c-24
-24 -11 -31 53 -26 36 3 68 2 71 -3 8 -13 51 -11 125 7 52 13 73 14 107 4 51
-13 106 -60 133 -111 21 -43 25 -109 7 -127 -18 -18 -62 -15 -89 6 -113 87
-340 33 -562 -134 -88 -66 -117 -103 -117 -148 0 -22 33 -66 50 -66 17 0 30
-56 24 -97 -5 -38 -9 -43 -26 -37 -33 10 -104 -5 -142 -31 -42 -29 -46 -23
-46 76 0 73 8 98 43 136 11 13 17 26 14 30 -15 14 -56 -18 -77 -62 -20 -41
-22 -58 -18 -128 l5 -82 -37 -18 c-21 -10 -58 -36 -83 -57 -52 -46 -60 -48
-81 -18 -27 38 -20 83 18 125 44 50 59 81 86 178 30 107 71 182 144 262 68 74
132 118 221 153 33 12 69 31 79 41 18 17 15 17 -45 -2 -230 -71 -394 -220
-458 -417 -37 -113 -52 -130 -156 -167 -33 -12 -69 -26 -80 -31 -18 -7 -18 -6
3 22 13 16 46 47 74 69 41 32 55 51 72 100 24 66 115 193 198 276 91 91 181
139 333 178 27 7 56 27 89 61 27 27 56 50 64 50 13 0 13 -3 4 -12z m598 -108
c0 -9 -49 -55 -52 -49 -2 2 -15 27 -29 56 l-26 51 54 -26 c29 -14 53 -29 53
-32z m345 -30 c50 -24 142 -107 163 -147 14 -25 30 -28 -163 35 -66 22 -122
38 -124 36 -2 -2 31 -20 75 -40 310 -139 413 -196 474 -259 19 -20 54 -45 78
-55 34 -15 42 -24 42 -44 0 -19 19 -45 66 -93 122 -122 202 -272 239 -448 20
-93 31 -342 18 -400 -9 -39 -10 -38 -21 45 -6 47 -15 132 -21 190 -25 251
-114 441 -305 650 -129 141 -163 169 -254 211 -45 22 -106 55 -135 74 -109 72
-242 103 -309 71 -34 -16 -40 -16 -105 1 -67 18 -68 18 -71 55 -2 29 3 43 29
73 55 62 91 76 189 72 64 -3 98 -10 135 -27z m-622 -151 c53 -14 58 -36 16
-70 -43 -35 -32 -47 22 -25 38 16 43 16 60 0 50 -45 64 -214 30 -359 -11 -44
-45 -144 -76 -223 -31 -79 -64 -177 -73 -218 l-16 -76 -12 59 c-17 82 -47 142
-106 209 -41 47 -48 61 -43 83 18 71 26 138 20 168 -6 31 -4 34 24 39 58 12
93 1 141 -42 47 -42 50 -37 14 24 -25 43 -26 45 -10 81 41 93 10 177 -75 202
-51 16 -129 -1 -190 -40 -34 -21 -53 -27 -82 -23 -31 4 -41 0 -66 -27 -35 -38
-58 -39 -73 -6 -10 22 -8 29 13 51 39 42 192 140 256 164 102 38 165 46 226
29z m237 -67 l43 -18 -38 -22 c-20 -13 -39 -22 -40 -20 -1 2 -15 23 -30 47
l-27 44 25 -7 c13 -3 44 -14 67 -24z m427 -52 c35 -16 78 -40 95 -54 18 -13
62 -38 98 -54 36 -17 74 -37 85 -46 19 -15 19 -16 -9 -6 -17 6 -60 10 -96 9
-56 -2 -72 2 -106 24 -53 35 -117 50 -175 42 l-48 -7 -20 41 c-12 22 -21 47
-21 55 0 44 97 42 197 -4z m-290 -32 c11 -13 28 -38 37 -56 l17 -33 -33 17
c-39 20 -103 23 -120 6 -9 -9 -6 -12 15 -12 98 0 196 -127 233 -302 21 -95 14
-243 -14 -313 -31 -79 -104 -239 -112 -248 -4 -5 -18 20 -30 55 -20 54 -24 92
-30 268 -4 145 -11 217 -22 247 -19 53 -60 123 -85 145 -14 13 -10 0 14 -50
49 -98 58 -163 43 -304 -19 -175 -11 -242 40 -345 l42 -85 -21 -72 c-11 -39
-34 -129 -52 -201 -17 -71 -35 -137 -40 -145 -5 -9 -8 71 -6 195 2 200 1 217
-28 350 -37 171 -44 146 -15 -52 18 -129 20 -172 14 -362 -4 -119 -8 -217 -9
-219 -1 -1 -5 84 -10 190 -13 322 -22 339 -25 48 -2 -276 -11 -406 -23 -360
-15 59 -47 225 -68 355 -24 151 -22 250 6 375 15 67 32 249 22 240 -8 -8 -77
-303 -85 -366 l-7 -56 -24 88 -24 87 38 111 c21 61 62 172 91 247 70 178 83
231 92 382 5 74 13 132 21 140 17 21 91 57 117 57 11 0 30 -10 41 -22z m-423
-69 c27 -32 33 -70 16 -114 -9 -23 -12 -24 -32 -14 -12 7 -46 10 -82 7 l-61
-5 -32 50 c-18 27 -30 54 -27 59 13 21 91 48 141 48 45 0 54 -4 77 -31z m-971
-29 c-18 -44 -27 -55 -96 -105 -41 -30 -46 -32 -36 -13 10 20 137 158 145 158
1 0 -5 -18 -13 -40z m1727 -12 c42 -19 44 -20 22 -29 -41 -16 -95 -63 -124
-108 -17 -28 -29 -39 -32 -30 -15 47 -47 166 -47 174 0 30 108 26 181 -7z
m-1006 -63 c35 -37 39 -70 20 -141 -17 -66 -17 -68 22 -180 4 -10 -11 6 -32
36 -22 30 -68 77 -102 105 -67 53 -73 69 -48 129 17 40 60 76 93 76 13 0 35
-11 47 -25z m1293 -51 c29 -14 74 -45 100 -70 l48 -45 -54 26 c-32 16 -77 28
-110 31 -53 3 -54 3 -17 -6 125 -32 234 -131 309 -283 39 -78 117 -289 117
-317 0 -13 -104 100 -130 140 -17 28 -20 30 -15 10 7 -27 10 -31 72 -155 50
-98 68 -156 89 -293 28 -189 21 -384 -22 -556 -9 -32 -13 -60 -11 -63 9 -8 97
183 118 257 16 57 23 108 25 212 2 99 7 146 19 167 8 17 15 37 15 46 0 8 5 15
10 15 7 0 9 -26 6 -72 -3 -40 -8 -116 -11 -168 -7 -110 -22 -183 -70 -332 -28
-87 -35 -123 -35 -190 0 -128 -37 -263 -140 -508 -107 -257 -179 -376 -277
-457 -63 -53 -100 -71 -208 -103 -49 -15 -98 -31 -108 -35 -34 -15 -7 19 41
51 26 17 85 56 132 87 184 120 284 257 398 543 22 54 47 123 56 153 16 53 22
201 10 214 -6 6 -83 -209 -180 -500 -24 -73 -51 -147 -60 -165 -33 -64 -174
-194 -274 -253 -8 -5 19 29 61 76 104 117 162 202 213 310 89 189 133 362 141
549 l5 115 -19 -89 c-75 -341 -197 -587 -415 -839 -42 -48 -88 -111 -102 -140
-106 -208 -223 -306 -394 -331 l-45 -6 56 18 c30 10 78 31 107 47 52 28 105
75 84 75 -6 0 -14 -5 -17 -10 -16 -26 -227 -111 -241 -97 -6 6 59 48 125 81
78 40 180 108 231 154 l45 41 -116 -58 c-64 -32 -131 -63 -149 -69 -40 -15
-46 -22 130 168 306 331 392 442 489 636 44 88 96 235 106 299 3 22 -6 3 -20
-43 -32 -104 -100 -251 -155 -333 -53 -78 -102 -138 -245 -294 -60 -66 -171
-192 -245 -280 -74 -88 -161 -187 -194 -220 -56 -58 -57 -58 -27 -15 17 25 80
105 141 179 153 188 226 292 276 396 50 106 68 161 31 100 -94 -159 -253 -374
-439 -598 -55 -66 -104 -130 -110 -143 -6 -13 -15 -21 -19 -18 -15 9 -10 68
11 128 32 95 77 161 189 282 147 159 220 256 335 446 55 89 130 209 167 264
285 427 389 670 389 902 0 110 -21 210 -61 288 -20 40 -32 80 -34 116 -3 60
-48 176 -94 250 -61 95 -135 141 -192 118 -74 -31 -109 -119 -109 -275 l0
-102 -49 -6 c-60 -7 -99 -26 -151 -73 l-38 -35 38 118 c60 183 68 204 101 255
39 60 79 94 129 109 22 7 40 16 40 21 0 23 -108 -16 -146 -53 l-34 -33 0 30
c0 50 29 121 68 164 72 81 197 99 309 44z m-1202 -166 c-5 -57 -10 -77 -16
-63 -11 29 -11 99 1 131 17 45 23 20 15 -68z m-855 12 c0 -27 -3 -30 -31 -30
-20 0 -40 -10 -60 -29 -36 -37 -39 -59 -3 -26 15 14 33 25 40 25 7 0 19 3 28
6 10 4 19 -5 29 -28 8 -19 29 -46 47 -60 l33 -26 -19 -31 c-17 -28 -21 -30
-54 -24 -55 11 -160 6 -215 -11 -66 -21 -64 -21 -56 17 22 95 87 172 184 218
34 16 65 29 70 29 4 0 7 -13 7 -30z m553 -2 c58 -17 138 -95 180 -175 19 -38
47 -110 61 -162 32 -109 73 -196 154 -319 81 -123 115 -227 116 -352 0 -82 -3
-102 -26 -150 l-26 -55 -1 70 c-1 102 -22 169 -110 355 -43 91 -84 182 -91
203 -6 21 -14 37 -16 35 -7 -8 45 -183 97 -323 28 -77 57 -171 64 -208 7 -38
12 -67 10 -65 -1 2 -45 66 -97 143 l-95 140 -52 200 c-89 339 -141 417 -321
479 -77 27 -84 73 -22 140 50 53 102 66 175 44z m-269 -95 c-34 -82 -35 -87
-23 -109 27 -51 -17 -98 -140 -148 -34 -13 -76 -35 -93 -47 -29 -20 -26 -16
15 30 26 30 68 94 94 143 35 69 58 99 95 129 28 21 54 39 59 39 5 0 2 -17 -7
-37z m1707 -40 c36 -41 89 -151 109 -226 17 -64 -2 -112 -86 -219 -36 -44 -62
-83 -59 -86 8 -8 134 118 152 153 l16 30 24 -52 c13 -28 30 -82 38 -120 50
-234 -36 -465 -352 -948 -83 -126 -188 -291 -233 -365 -99 -161 -148 -226
-255 -340 -45 -47 -96 -107 -115 -135 -43 -63 -98 -187 -106 -243 -3 -23 -11
-45 -17 -49 -15 -9 -2 163 16 212 56 150 69 195 76 256 4 38 14 76 23 86 9 10
26 38 38 63 17 34 19 41 6 31 -27 -23 -18 2 19 48 19 24 35 46 35 48 0 10 -63
-42 -82 -68 -28 -37 -38 -29 -38 31 0 53 49 167 145 338 25 45 44 82 41 82
-10 0 -129 -174 -162 -236 l-34 -65 0 51 c0 72 36 142 136 263 113 135 169
220 199 302 43 113 23 106 -45 -15 -56 -98 -83 -134 -190 -244 l-125 -128 -12
55 -13 55 57 83 c73 109 111 193 163 359 64 204 92 249 213 339 102 76 117
105 116 219 l-1 77 -13 -61 c-23 -105 -59 -156 -179 -251 -21 -17 -47 -44 -58
-60 l-19 -28 7 30 c56 263 174 422 326 443 l40 5 -7 -49 c-13 -90 -45 -238
-75 -344 -27 -98 -53 -203 -114 -462 -14 -59 -55 -210 -91 -335 -41 -143 -69
-261 -76 -321 -6 -52 -9 -96 -6 -98 2 -2 29 47 60 109 87 173 166 426 236 752
16 77 51 223 76 325 58 236 75 344 75 500 1 137 9 192 36 221 25 28 48 23 85
-18z m-1580 -99 c78 -41 139 -103 183 -185 l29 -54 -67 72 c-48 52 -86 82
-132 104 -71 35 -94 60 -93 99 0 14 3 19 6 13 2 -7 36 -29 74 -49z m473 -24
c14 -17 34 -61 45 -98 58 -199 58 -197 41 -187 -27 17 -91 152 -124 266 -18
59 -3 67 38 19z m-896 -42 c-3 -7 -24 -19 -48 -27 -40 -13 -42 -15 -23 -24
l22 -9 -22 -29 c-16 -22 -29 -29 -56 -29 -37 0 -110 -29 -146 -57 -11 -9 3 7
32 35 30 29 70 56 95 64 56 19 27 30 -32 12 -67 -20 -109 -61 -197 -192 -73
-108 -110 -187 -127 -272 -3 -14 -3 11 -1 55 7 139 56 255 148 353 58 61 96
86 169 112 62 23 192 28 186 8z m432 -69 c113 -70 182 -159 229 -301 17 -51
31 -98 31 -103 0 -12 -29 23 -77 95 -48 72 -248 269 -290 286 -18 8 -33 16
-33 19 0 6 60 23 85 24 11 1 36 -9 55 -20z m-141 -53 c38 -18 48 -41 27 -65
-16 -18 -16 -22 -2 -49 8 -16 59 -67 113 -113 224 -191 343 -329 467 -542 112
-192 169 -356 216 -617 23 -129 43 -383 35 -447 -3 -24 -8 -63 -11 -88 -7 -63
-24 -56 -24 10 0 125 -55 534 -75 553 -9 9 -6 -29 15 -173 27 -194 24 -208
-16 -75 -89 289 -205 523 -368 740 -76 102 -192 230 -208 230 -5 0 14 -26 42
-57 226 -252 381 -660 391 -1028 l2 -50 10 55 c17 86 -16 306 -68 465 -3 11 1
7 10 -9 62 -106 164 -462 190 -661 15 -119 19 -324 7 -405 -14 -94 -73 -51
-160 117 -152 295 -237 562 -262 824 -18 187 -41 330 -62 387 -29 78 -108 191
-183 261 -36 33 -117 97 -180 141 -175 124 -222 189 -213 292 6 57 -7 60 -35
7 -14 -26 -17 -50 -14 -99 7 -109 42 -155 213 -277 56 -40 126 -95 157 -123
67 -62 147 -177 176 -256 23 -60 23 -96 1 -54 -56 106 -191 240 -290 290 l-45
22 40 -33 c110 -92 217 -239 285 -395 34 -78 46 -120 61 -227 11 -73 28 -166
38 -207 42 -167 143 -397 236 -535 41 -61 43 -66 15 -40 -82 78 -211 310 -285
512 -59 163 -83 179 -44 29 49 -185 187 -421 344 -585 50 -53 97 -106 104
-119 11 -22 11 -22 -16 -16 -91 22 -298 114 -413 184 -28 18 -24 11 21 -32 31
-29 85 -70 120 -90 58 -35 61 -38 33 -38 -76 0 -210 50 -305 114 -30 19 -65
43 -79 52 -14 9 1 -9 32 -39 100 -97 299 -177 442 -177 99 0 101 -17 3 -25
-198 -17 -383 59 -547 224 -92 93 -128 147 -237 354 -47 89 -137 257 -201 372
-199 361 -253 500 -268 680 -13 152 34 436 91 551 43 88 130 174 201 198 26 9
49 15 51 13 1 -2 -11 -22 -27 -44 -41 -55 -60 -114 -60 -182 0 -52 26 -131 46
-144 5 -3 9 29 9 72 0 131 66 238 200 327 89 59 182 74 254 40z m271 -228 l45
-53 -55 45 c-74 61 -140 127 -140 140 0 16 97 -70 150 -132z m629 -667 c1 -33
-7 -56 -30 -93 -18 -27 -35 -46 -39 -41 -4 4 -19 39 -33 76 l-26 68 24 35 c13
19 32 67 42 106 l18 71 22 -89 c12 -49 22 -109 22 -133z m-359 -326 c0 -5 -5
-3 -10 5 -5 8 -10 20 -10 25 0 6 5 3 10 -5 5 -8 10 -19 10 -25z m247 -542 c-3
-10 -5 -4 -5 12 0 17 2 24 5 18 2 -7 2 -21 0 -30z m51 -725 c12 -40 26 -91 31
-113 6 -22 18 -49 27 -60 14 -18 15 -18 10 -2 -3 11 -2 16 4 12 14 -9 12 2 -5
29 -17 25 -49 179 -42 199 2 7 12 -15 21 -48 26 -89 36 -116 67 -162 29 -44
28 -64 -3 -36 -21 19 -37 10 -19 -11 20 -23 -40 -50 -98 -43 -42 5 -48 2 -77
-30 -20 -21 -47 -38 -70 -44 -40 -9 -104 -12 -104 -5 0 2 12 29 26 60 14 31
35 100 46 154 10 53 22 99 24 102 15 14 25 -35 21 -105 -2 -59 -10 -95 -29
-137 -22 -47 -23 -56 -10 -51 58 21 83 84 84 216 l0 102 26 -78 c28 -86 40
-95 23 -17 -12 57 -14 123 -4 133 18 19 32 1 51 -65z"/>
<path d="M2501 4420 c-24 -11 -55 -20 -70 -21 l-26 0 24 -10 c15 -6 21 -15 17
-24 -7 -20 -5 -20 65 17 60 32 62 32 104 17 53 -19 53 0 0 25 -43 21 -61 20
-114 -4z"/>
<path d="M2106 4134 c-27 -56 -28 -81 -2 -53 12 13 39 100 32 106 -1 1 -14
-23 -30 -53z"/>
<path d="M1980 3869 c0 -24 5 -51 10 -59 6 -10 7 3 3 40 -7 69 -13 77 -13 19z"/>
<path d="M2570 3755 c0 -13 99 -215 105 -215 11 0 -6 82 -26 130 -20 45 -55
90 -71 90 -4 0 -8 -2 -8 -5z"/>
<path d="M3955 2871 c3 -18 5 -106 6 -195 1 -128 3 -152 11 -116 12 58 4 288
-11 320 -11 24 -11 23 -6 -9z"/>
<path d="M3791 2204 c0 -11 3 -14 6 -6 3 7 2 16 -1 19 -3 4 -6 -2 -5 -13z"/>
<path d="M3131 2588 c-84 -23 -121 -83 -121 -196 0 -41 4 -72 10 -72 6 0 10 3
10 8 1 45 24 148 37 168 9 14 34 34 55 45 34 18 58 44 47 53 -2 2 -19 -1 -38
-6z"/>
<path d="M3230 1942 c-40 -42 -63 -82 -96 -164 -28 -72 -16 -75 21 -5 16 28
40 70 55 92 33 48 63 106 58 110 -2 2 -19 -13 -38 -33z"/>
<path d="M1910 2995 c0 -5 17 -27 38 -49 l37 -39 -35 21 c-44 26 -152 62 -182
61 -13 0 4 -10 42 -24 133 -50 186 -84 268 -169 85 -90 171 -211 252 -353 29
-51 54 -93 56 -93 6 0 -64 150 -93 200 -61 106 -146 213 -260 330 -67 69 -123
121 -123 115z"/>
<path d="M1253 2940 c-64 -60 -71 -84 -10 -32 23 20 22 15 -9 -52 -17 -36 -24
-68 -22 -93 l3 -38 18 40 c10 22 25 69 34 105 8 36 21 77 29 93 9 15 14 27 12
27 -2 0 -27 -23 -55 -50z"/>
<path d="M1377 2667 c-12 -32 -8 -131 9 -188 9 -30 29 -78 46 -107 37 -66 173
-210 293 -311 139 -116 232 -208 298 -295 33 -44 63 -74 65 -67 8 25 -61 144
-121 208 -34 37 -118 112 -187 168 -269 220 -372 364 -389 540 -4 45 -9 64
-14 52z"/>
<path d="M1234 2558 c-27 -50 -29 -59 -28 -163 1 -147 29 -239 144 -470 116
-234 331 -637 337 -631 10 9 -136 356 -247 586 -163 339 -186 417 -178 615 2
63 4 115 3 115 -1 0 -15 -24 -31 -52z"/>
<path d="M1446 2145 c3 -16 46 -149 95 -295 49 -146 95 -292 103 -325 l14 -60
1 52 c1 79 -18 200 -44 278 -28 82 -178 394 -169 350z"/>
<path d="M2633 1896 c12 -30 23 -53 26 -51 5 6 -29 94 -39 100 -4 3 1 -19 13
-49z"/>
<path d="M1780 1537 c0 -18 63 -144 106 -209 91 -136 301 -336 415 -393 74
-38 81 -30 13 15 -171 111 -379 337 -501 541 -18 30 -32 51 -33 46z"/>
<path d="M1730 1300 c0 -43 122 -212 194 -269 61 -48 63 -36 5 27 -29 31 -86
102 -126 156 -40 55 -73 93 -73 86z"/>
<path d="M2497 1250 c8 -100 30 -205 52 -252 14 -32 20 -37 20 -21 2 36 -38
225 -58 284 l-20 54 6 -65z"/>
<path d="M3553 4640 c-79 -12 -157 -39 -189 -67 -21 -18 -24 -23 -9 -18 90 29
157 37 275 32 134 -6 208 -22 306 -67 125 -56 243 -157 322 -272 42 -61 120
-223 128 -267 7 -31 6 -33 -14 -22 -26 14 -69 14 -77 1 -3 -6 6 -41 20 -78 14
-37 31 -80 37 -95 6 -15 19 -32 29 -37 46 -25 75 31 52 100 -11 33 -12 49 -4
67 44 97 -53 359 -185 502 -36 38 -94 88 -129 110 -146 93 -377 138 -562 111z"/>
<path d="M917 3886 c-188 -70 -354 -447 -334 -761 6 -98 35 -205 67 -245 l20
-25 -16 49 c-24 71 -14 260 20 386 39 142 124 309 195 381 60 62 88 76 75 37
-16 -48 -11 -63 23 -66 25 -3 40 5 72 33 66 60 78 146 28 193 -30 28 -100 37
-150 18z"/>
<path d="M554 1743 c-17 -12 -34 -49 -34 -74 0 -12 -13 -37 -30 -56 -35 -39
-38 -74 -16 -168 32 -132 126 -310 234 -440 134 -160 363 -284 532 -289 30 -1
50 -7 60 -19 37 -44 177 -39 218 8 18 21 20 30 12 46 -14 25 -156 138 -194
154 -62 26 -102 -15 -93 -95 l6 -48 -27 13 c-15 7 -74 36 -132 64 -237 114
-420 344 -503 632 -14 48 -30 96 -36 107 -19 36 -12 58 27 83 29 19 37 31 37
54 0 25 -4 30 -25 33 -14 1 -30 -1 -36 -5z"/>
<path d="M4586 1712 c-3 -5 -4 -51 -3 -103 2 -87 -2 -103 -40 -215 -45 -131
-94 -236 -180 -381 -123 -211 -257 -354 -458 -489 -126 -85 -144 -111 -69
-100 118 16 283 114 413 246 189 192 378 558 414 802 18 124 -12 248 -59 248
-7 0 -15 -4 -18 -8z"/>
<path d="M3434 721 c-51 -31 -104 -101 -155 -205 -62 -125 -62 -130 -5 -123
115 16 237 91 275 169 58 121 -14 221 -115 159z"/>
</g>
</svg>